<svg version="1.1" baseProfile="full" xmlns="http://www.w3.org/2000/svg">
<polygon points=" 1398 744 1394 788 1387 832 1377 875 1365 918 1349 960 1332 1000 1311 1040 1288 1078 1263 1115 1236 1149 1206 1183 1174 1214 1141 1243 1106 1270 1069 1294 1030 1317 990 1336 949 1353 907 1368 865 1380 821 1389 777 1395 733 1399 688 1399 644 1397 600 1392 556 1385 513 1374 471 1361 429 1345 389 1327 350 1306 312 1282 276 1257 241 1229 209 1198 178 1166 149 1132 123 1096 99 1059 77 1020 58 980 42 939 28 897 17 854 8 810 3 766 0 722 0 677 3 633 8 589 17 545 28 502 42 460 58 419 77 379 99 340 123 303 149 267 178 233 208 201 241 171 276 143 312 117 349 93 389 72 429 54 470 38 513 25 556 14 600 7 644 2 688 0 733 0 777 4 821 10 864 19 907 31 949 46 990 63 1030 82 1068 105 1105 129 1141 156 1174 185 1206 216 1236 249 1263 284 1288 321 1311 359 1331 399 1349 439 1365 481 1377 524 1387 567 1394 611 1398 655 1399 699" stroke = "black" fill="red"></polygon>
<polygon points=" 343 279 343 283 342 288 341 292 340 296 339 300 337 304 335 308 333 312 330 315 327 319 324 322 321 325 318 328 315 331 311 333 307 335 303 337 299 339 295 340 291 342 286 342 282 343 278 343 273 343 269 343 265 343 260 342 256 341 252 340 248 338 244 336 240 334 236 332 233 329 229 327 226 324 223 321 220 317 218 314 215 310 213 306 211 302 210 298 208 294 207 290 206 285 206 281 206 277 206 272 206 268 206 264 207 259 208 255 210 251 211 247 213 243 215 239 218 235 220 232 223 228 226 225 229 222 233 220 236 217 240 215 244 213 248 211 252 209 256 208 260 207 265 206 269 206 273 206 278 206 282 206 286 207 291 207 295 209 299 210 303 212 307 214 311 216 315 218 318 221 321 224 324 227 327 230 330 234 333 237 335 241 337 245 339 249 340 253 341 257 342 261 343 266 343 270 343 274" stroke = "black" fill="red"></polygon>
<polygon points=" 481 279 481 283 480 288 479 292 478 296 477 300 475 304 473 308 471 312 468 315 465 319 462 322 459 325 456 328 453 331 449 333 445 335 441 337 437 339 433 340 429 342 424 342 420 343 416 343 411 343 407 343 403 343 398 342 394 341 390 340 386 338 382 336 378 334 374 332 371 329 367 327 364 324 361 321 358 317 356 314 353 310 351 306 349 302 348 298 346 294 345 290 344 285 344 281 344 277 344 272 344 268 344 264 345 259 346 255 348 251 349 247 351 243 353 239 356 235 358 232 361 228 364 225 367 222 371 220 374 217 378 215 382 213 386 211 390 209 394 208 398 207 403 206 407 206 411 206 416 206 420 206 424 207 429 207 433 209 437 210 441 212 445 214 449 216 453 218 456 221 459 224 462 227 465 230 468 234 471 237 473 241 475 245 477 249 478 253 479 257 480 261 481 266 481 270 481 274" stroke = "black" fill="red"></polygon>
<polygon points=" 619 279 619 283 618 288 617 292 616 296 615 300 613 304 611 308 609 312 606 315 603 319 600 322 597 325 594 328 591 331 587 333 583 335 579 337 575 339 571 340 567 342 562 342 558 343 554 343 549 343 545 343 541 343 536 342 532 341 528 340 524 338 520 336 516 334 512 332 509 329 505 327 502 324 499 321 496 317 494 314 491 310 489 306 487 302 486 298 484 294 483 290 482 285 482 281 482 277 482 272 482 268 482 264 483 259 484 255 486 251 487 247 489 243 491 239 494 235 496 232 499 228 502 225 505 222 509 220 512 217 516 215 520 213 524 211 528 209 532 208 536 207 541 206 545 206 549 206 554 206 558 206 562 207 567 207 571 209 575 210 579 212 583 214 587 216 591 218 594 221 597 224 600 227 603 230 606 234 609 237 611 241 613 245 615 249 616 253 617 257 618 261 619 266 619 270 619 274" stroke = "black" fill="red"></polygon>
<polygon points=" 757 279 757 283 756 288 755 292 754 296 753 300 751 304 749 308 747 312 744 315 741 319 738 322 735 325 732 328 729 331 725 333 721 335 717 337 713 339 709 340 705 342 700 342 696 343 692 343 687 343 683 343 679 343 674 342 670 341 666 340 662 338 658 336 654 334 650 332 647 329 643 327 640 324 637 321 634 317 632 314 629 310 627 306 625 302 624 298 622 294 621 290 620 285 620 281 620 277 620 272 620 268 620 264 621 259 622 255 624 251 625 247 627 243 629 239 632 235 634 232 637 228 640 225 643 222 647 220 650 217 654 215 658 213 662 211 666 209 670 208 674 207 679 206 683 206 687 206 692 206 696 206 700 207 705 207 709 209 713 210 717 212 721 214 725 216 729 218 732 221 735 224 738 227 741 230 744 234 747 237 749 241 751 245 753 249 754 253 755 257 756 261 757 266 757 270 757 274" stroke = "black" fill="red"></polygon>
<polygon points=" 895 279 895 283 894 288 893 292 892 296 891 300 889 304 887 308 885 312 882 315 879 319 876 322 873 325 870 328 867 331 863 333 859 335 855 337 851 339 847 340 843 342 838 342 834 343 830 343 825 343 821 343 817 343 812 342 808 341 804 340 800 338 796 336 792 334 788 332 785 329 781 327 778 324 775 321 772 317 770 314 767 310 765 306 763 302 762 298 760 294 759 290 758 285 758 281 758 277 758 272 758 268 758 264 759 259 760 255 762 251 763 247 765 243 767 239 770 235 772 232 775 228 778 225 781 222 785 220 788 217 792 215 796 213 800 211 804 209 808 208 812 207 817 206 821 206 825 206 830 206 834 206 838 207 843 207 847 209 851 210 855 212 859 214 863 216 867 218 870 221 873 224 876 227 879 230 882 234 885 237 887 241 889 245 891 249 892 253 893 257 894 261 895 266 895 270 895 274" stroke = "black" fill="red"></polygon>
<polygon points=" 1033 279 1033 283 1032 288 1031 292 1030 296 1029 300 1027 304 1025 308 1023 312 1020 315 1017 319 1014 322 1011 325 1008 328 1005 331 1001 333 997 335 993 337 989 339 985 340 981 342 976 342 972 343 968 343 963 343 959 343 955 343 950 342 946 341 942 340 938 338 934 336 930 334 926 332 923 329 919 327 916 324 913 321 910 317 908 314 905 310 903 306 901 302 900 298 898 294 897 290 896 285 896 281 896 277 896 272 896 268 896 264 897 259 898 255 900 251 901 247 903 243 905 239 908 235 910 232 913 228 916 225 919 222 923 220 926 217 930 215 934 213 938 211 942 209 946 208 950 207 955 206 959 206 963 206 968 206 972 206 976 207 981 207 985 209 989 210 993 212 997 214 1001 216 1005 218 1008 221 1011 224 1014 227 1017 230 1020 234 1023 237 1025 241 1027 245 1029 249 1030 253 1031 257 1032 261 1033 266 1033 270 1033 274" stroke = "black" fill="red"></polygon>
<polygon points=" 1171 279 1171 283 1170 288 1169 292 1168 296 1167 300 1165 304 1163 308 1161 312 1158 315 1155 319 1152 322 1149 325 1146 328 1143 331 1139 333 1135 335 1131 337 1127 339 1123 340 1119 342 1114 342 1110 343 1106 343 1101 343 1097 343 1093 343 1088 342 1084 341 1080 340 1076 338 1072 336 1068 334 1064 332 1061 329 1057 327 1054 324 1051 321 1048 317 1046 314 1043 310 1041 306 1039 302 1038 298 1036 294 1035 290 1034 285 1034 281 1034 277 1034 272 1034 268 1034 264 1035 259 1036 255 1038 251 1039 247 1041 243 1043 239 1046 235 1048 232 1051 228 1054 225 1057 222 1061 220 1064 217 1068 215 1072 213 1076 211 1080 209 1084 208 1088 207 1093 206 1097 206 1101 206 1106 206 1110 206 1114 207 1119 207 1123 209 1127 210 1131 212 1135 214 1139 216 1143 218 1146 221 1149 224 1152 227 1155 230 1158 234 1161 237 1163 241 1165 245 1167 249 1168 253 1169 257 1170 261 1171 266 1171 270 1171 274" stroke = "black" fill="red"></polygon>
<polygon points=" 343 417 343 421 342 426 341 430 340 434 339 438 337 442 335 446 333 450 330 453 327 457 324 460 321 463 318 466 315 469 311 471 307 473 303 475 299 477 295 478 291 480 286 480 282 481 278 481 273 481 269 481 265 481 260 480 256 479 252 478 248 476 244 474 240 472 236 470 233 467 229 465 226 462 223 459 220 455 218 452 215 448 213 444 211 440 210 436 208 432 207 428 206 423 206 419 206 415 206 410 206 406 206 402 207 397 208 393 210 389 211 385 213 381 215 377 218 373 220 370 223 366 226 363 229 360 233 358 236 355 240 353 244 351 248 349 252 347 256 346 260 345 265 344 269 344 273 344 278 344 282 344 286 345 291 345 295 347 299 348 303 350 307 352 311 354 315 356 318 359 321 362 324 365 327 368 330 372 333 375 335 379 337 383 339 387 340 391 341 395 342 399 343 404 343 408 343 412" stroke = "black" fill="red"></polygon>
<polygon points=" 481 417 481 421 480 426 479 430 478 434 477 438 475 442 473 446 471 450 468 453 465 457 462 460 459 463 456 466 453 469 449 471 445 473 441 475 437 477 433 478 429 480 424 480 420 481 416 481 411 481 407 481 403 481 398 480 394 479 390 478 386 476 382 474 378 472 374 470 371 467 367 465 364 462 361 459 358 455 356 452 353 448 351 444 349 440 348 436 346 432 345 428 344 423 344 419 344 415 344 410 344 406 344 402 345 397 346 393 348 389 349 385 351 381 353 377 356 373 358 370 361 366 364 363 367 360 371 358 374 355 378 353 382 351 386 349 390 347 394 346 398 345 403 344 407 344 411 344 416 344 420 344 424 345 429 345 433 347 437 348 441 350 445 352 449 354 453 356 456 359 459 362 462 365 465 368 468 372 471 375 473 379 475 383 477 387 478 391 479 395 480 399 481 404 481 408 481 412" stroke = "black" fill="red"></polygon>
<polygon points=" 619 417 619 421 618 426 617 430 616 434 615 438 613 442 611 446 609 450 606 453 603 457 600 460 597 463 594 466 591 469 587 471 583 473 579 475 575 477 571 478 567 480 562 480 558 481 554 481 549 481 545 481 541 481 536 480 532 479 528 478 524 476 520 474 516 472 512 470 509 467 505 465 502 462 499 459 496 455 494 452 491 448 489 444 487 440 486 436 484 432 483 428 482 423 482 419 482 415 482 410 482 406 482 402 483 397 484 393 486 389 487 385 489 381 491 377 494 373 496 370 499 366 502 363 505 360 509 358 512 355 516 353 520 351 524 349 528 347 532 346 536 345 541 344 545 344 549 344 554 344 558 344 562 345 567 345 571 347 575 348 579 350 583 352 587 354 591 356 594 359 597 362 600 365 603 368 606 372 609 375 611 379 613 383 615 387 616 391 617 395 618 399 619 404 619 408 619 412" stroke = "black" fill="red"></polygon>
<polygon points=" 757 417 757 421 756 426 755 430 754 434 753 438 751 442 749 446 747 450 744 453 741 457 738 460 735 463 732 466 729 469 725 471 721 473 717 475 713 477 709 478 705 480 700 480 696 481 692 481 687 481 683 481 679 481 674 480 670 479 666 478 662 476 658 474 654 472 650 470 647 467 643 465 640 462 637 459 634 455 632 452 629 448 627 444 625 440 624 436 622 432 621 428 620 423 620 419 620 415 620 410 620 406 620 402 621 397 622 393 624 389 625 385 627 381 629 377 632 373 634 370 637 366 640 363 643 360 647 358 650 355 654 353 658 351 662 349 666 347 670 346 674 345 679 344 683 344 687 344 692 344 696 344 700 345 705 345 709 347 713 348 717 350 721 352 725 354 729 356 732 359 735 362 738 365 741 368 744 372 747 375 749 379 751 383 753 387 754 391 755 395 756 399 757 404 757 408 757 412" stroke = "black" fill="red"></polygon>
<polygon points=" 895 417 895 421 894 426 893 430 892 434 891 438 889 442 887 446 885 450 882 453 879 457 876 460 873 463 870 466 867 469 863 471 859 473 855 475 851 477 847 478 843 480 838 480 834 481 830 481 825 481 821 481 817 481 812 480 808 479 804 478 800 476 796 474 792 472 788 470 785 467 781 465 778 462 775 459 772 455 770 452 767 448 765 444 763 440 762 436 760 432 759 428 758 423 758 419 758 415 758 410 758 406 758 402 759 397 760 393 762 389 763 385 765 381 767 377 770 373 772 370 775 366 778 363 781 360 785 358 788 355 792 353 796 351 800 349 804 347 808 346 812 345 817 344 821 344 825 344 830 344 834 344 838 345 843 345 847 347 851 348 855 350 859 352 863 354 867 356 870 359 873 362 876 365 879 368 882 372 885 375 887 379 889 383 891 387 892 391 893 395 894 399 895 404 895 408 895 412" stroke = "black" fill="red"></polygon>
<polygon points=" 1033 417 1033 421 1032 426 1031 430 1030 434 1029 438 1027 442 1025 446 1023 450 1020 453 1017 457 1014 460 1011 463 1008 466 1005 469 1001 471 997 473 993 475 989 477 985 478 981 480 976 480 972 481 968 481 963 481 959 481 955 481 950 480 946 479 942 478 938 476 934 474 930 472 926 470 923 467 919 465 916 462 913 459 910 455 908 452 905 448 903 444 901 440 900 436 898 432 897 428 896 423 896 419 896 415 896 410 896 406 896 402 897 397 898 393 900 389 901 385 903 381 905 377 908 373 910 370 913 366 916 363 919 360 923 358 926 355 930 353 934 351 938 349 942 347 946 346 950 345 955 344 959 344 963 344 968 344 972 344 976 345 981 345 985 347 989 348 993 350 997 352 1001 354 1005 356 1008 359 1011 362 1014 365 1017 368 1020 372 1023 375 1025 379 1027 383 1029 387 1030 391 1031 395 1032 399 1033 404 1033 408 1033 412" stroke = "black" fill="red"></polygon>
<polygon points=" 1171 417 1171 421 1170 426 1169 430 1168 434 1167 438 1165 442 1163 446 1161 450 1158 453 1155 457 1152 460 1149 463 1146 466 1143 469 1139 471 1135 473 1131 475 1127 477 1123 478 1119 480 1114 480 1110 481 1106 481 1101 481 1097 481 1093 481 1088 480 1084 479 1080 478 1076 476 1072 474 1068 472 1064 470 1061 467 1057 465 1054 462 1051 459 1048 455 1046 452 1043 448 1041 444 1039 440 1038 436 1036 432 1035 428 1034 423 1034 419 1034 415 1034 410 1034 406 1034 402 1035 397 1036 393 1038 389 1039 385 1041 381 1043 377 1046 373 1048 370 1051 366 1054 363 1057 360 1061 358 1064 355 1068 353 1072 351 1076 349 1080 347 1084 346 1088 345 1093 344 1097 344 1101 344 1106 344 1110 344 1114 345 1119 345 1123 347 1127 348 1131 350 1135 352 1139 354 1143 356 1146 359 1149 362 1152 365 1155 368 1158 372 1161 375 1163 379 1165 383 1167 387 1168 391 1169 395 1170 399 1171 404 1171 408 1171 412" stroke = "black" fill="red"></polygon>
<polygon points=" 343 555 343 559 342 564 341 568 340 572 339 576 337 580 335 584 333 588 330 591 327 595 324 598 321 601 318 604 315 607 311 609 307 611 303 613 299 615 295 616 291 618 286 618 282 619 278 619 273 619 269 619 265 619 260 618 256 617 252 616 248 614 244 612 240 610 236 608 233 605 229 603 226 600 223 597 220 593 218 590 215 586 213 582 211 578 210 574 208 570 207 566 206 561 206 557 206 553 206 548 206 544 206 540 207 535 208 531 210 527 211 523 213 519 215 515 218 511 220 508 223 504 226 501 229 498 233 496 236 493 240 491 244 489 248 487 252 485 256 484 260 483 265 482 269 482 273 482 278 482 282 482 286 483 291 483 295 485 299 486 303 488 307 490 311 492 315 494 318 497 321 500 324 503 327 506 330 510 333 513 335 517 337 521 339 525 340 529 341 533 342 537 343 542 343 546 343 550" stroke = "black" fill="red"></polygon>
<polygon points=" 481 555 481 559 480 564 479 568 478 572 477 576 475 580 473 584 471 588 468 591 465 595 462 598 459 601 456 604 453 607 449 609 445 611 441 613 437 615 433 616 429 618 424 618 420 619 416 619 411 619 407 619 403 619 398 618 394 617 390 616 386 614 382 612 378 610 374 608 371 605 367 603 364 600 361 597 358 593 356 590 353 586 351 582 349 578 348 574 346 570 345 566 344 561 344 557 344 553 344 548 344 544 344 540 345 535 346 531 348 527 349 523 351 519 353 515 356 511 358 508 361 504 364 501 367 498 371 496 374 493 378 491 382 489 386 487 390 485 394 484 398 483 403 482 407 482 411 482 416 482 420 482 424 483 429 483 433 485 437 486 441 488 445 490 449 492 453 494 456 497 459 500 462 503 465 506 468 510 471 513 473 517 475 521 477 525 478 529 479 533 480 537 481 542 481 546 481 550" stroke = "black" fill="red"></polygon>
<polygon points=" 619 555 619 559 618 564 617 568 616 572 615 576 613 580 611 584 609 588 606 591 603 595 600 598 597 601 594 604 591 607 587 609 583 611 579 613 575 615 571 616 567 618 562 618 558 619 554 619 549 619 545 619 541 619 536 618 532 617 528 616 524 614 520 612 516 610 512 608 509 605 505 603 502 600 499 597 496 593 494 590 491 586 489 582 487 578 486 574 484 570 483 566 482 561 482 557 482 553 482 548 482 544 482 540 483 535 484 531 486 527 487 523 489 519 491 515 494 511 496 508 499 504 502 501 505 498 509 496 512 493 516 491 520 489 524 487 528 485 532 484 536 483 541 482 545 482 549 482 554 482 558 482 562 483 567 483 571 485 575 486 579 488 583 490 587 492 591 494 594 497 597 500 600 503 603 506 606 510 609 513 611 517 613 521 615 525 616 529 617 533 618 537 619 542 619 546 619 550" stroke = "black" fill="red"></polygon>
<polygon points=" 757 555 757 559 756 564 755 568 754 572 753 576 751 580 749 584 747 588 744 591 741 595 738 598 735 601 732 604 729 607 725 609 721 611 717 613 713 615 709 616 705 618 700 618 696 619 692 619 687 619 683 619 679 619 674 618 670 617 666 616 662 614 658 612 654 610 650 608 647 605 643 603 640 600 637 597 634 593 632 590 629 586 627 582 625 578 624 574 622 570 621 566 620 561 620 557 620 553 620 548 620 544 620 540 621 535 622 531 624 527 625 523 627 519 629 515 632 511 634 508 637 504 640 501 643 498 647 496 650 493 654 491 658 489 662 487 666 485 670 484 674 483 679 482 683 482 687 482 692 482 696 482 700 483 705 483 709 485 713 486 717 488 721 490 725 492 729 494 732 497 735 500 738 503 741 506 744 510 747 513 749 517 751 521 753 525 754 529 755 533 756 537 757 542 757 546 757 550" stroke = "black" fill="red"></polygon>
<polygon points=" 895 555 895 559 894 564 893 568 892 572 891 576 889 580 887 584 885 588 882 591 879 595 876 598 873 601 870 604 867 607 863 609 859 611 855 613 851 615 847 616 843 618 838 618 834 619 830 619 825 619 821 619 817 619 812 618 808 617 804 616 800 614 796 612 792 610 788 608 785 605 781 603 778 600 775 597 772 593 770 590 767 586 765 582 763 578 762 574 760 570 759 566 758 561 758 557 758 553 758 548 758 544 758 540 759 535 760 531 762 527 763 523 765 519 767 515 770 511 772 508 775 504 778 501 781 498 785 496 788 493 792 491 796 489 800 487 804 485 808 484 812 483 817 482 821 482 825 482 830 482 834 482 838 483 843 483 847 485 851 486 855 488 859 490 863 492 867 494 870 497 873 500 876 503 879 506 882 510 885 513 887 517 889 521 891 525 892 529 893 533 894 537 895 542 895 546 895 550" stroke = "black" fill="red"></polygon>
<polygon points=" 1033 555 1033 559 1032 564 1031 568 1030 572 1029 576 1027 580 1025 584 1023 588 1020 591 1017 595 1014 598 1011 601 1008 604 1005 607 1001 609 997 611 993 613 989 615 985 616 981 618 976 618 972 619 968 619 963 619 959 619 955 619 950 618 946 617 942 616 938 614 934 612 930 610 926 608 923 605 919 603 916 600 913 597 910 593 908 590 905 586 903 582 901 578 900 574 898 570 897 566 896 561 896 557 896 553 896 548 896 544 896 540 897 535 898 531 900 527 901 523 903 519 905 515 908 511 910 508 913 504 916 501 919 498 923 496 926 493 930 491 934 489 938 487 942 485 946 484 950 483 955 482 959 482 963 482 968 482 972 482 976 483 981 483 985 485 989 486 993 488 997 490 1001 492 1005 494 1008 497 1011 500 1014 503 1017 506 1020 510 1023 513 1025 517 1027 521 1029 525 1030 529 1031 533 1032 537 1033 542 1033 546 1033 550" stroke = "black" fill="red"></polygon>
<polygon points=" 1171 555 1171 559 1170 564 1169 568 1168 572 1167 576 1165 580 1163 584 1161 588 1158 591 1155 595 1152 598 1149 601 1146 604 1143 607 1139 609 1135 611 1131 613 1127 615 1123 616 1119 618 1114 618 1110 619 1106 619 1101 619 1097 619 1093 619 1088 618 1084 617 1080 616 1076 614 1072 612 1068 610 1064 608 1061 605 1057 603 1054 600 1051 597 1048 593 1046 590 1043 586 1041 582 1039 578 1038 574 1036 570 1035 566 1034 561 1034 557 1034 553 1034 548 1034 544 1034 540 1035 535 1036 531 1038 527 1039 523 1041 519 1043 515 1046 511 1048 508 1051 504 1054 501 1057 498 1061 496 1064 493 1068 491 1072 489 1076 487 1080 485 1084 484 1088 483 1093 482 1097 482 1101 482 1106 482 1110 482 1114 483 1119 483 1123 485 1127 486 1131 488 1135 490 1139 492 1143 494 1146 497 1149 500 1152 503 1155 506 1158 510 1161 513 1163 517 1165 521 1167 525 1168 529 1169 533 1170 537 1171 542 1171 546 1171 550" stroke = "black" fill="red"></polygon>
<polygon points=" 343 693 343 697 342 702 341 706 340 710 339 714 337 718 335 722 333 726 330 729 327 733 324 736 321 739 318 742 315 745 311 747 307 749 303 751 299 753 295 754 291 756 286 756 282 757 278 757 273 757 269 757 265 757 260 756 256 755 252 754 248 752 244 750 240 748 236 746 233 743 229 741 226 738 223 735 220 731 218 728 215 724 213 720 211 716 210 712 208 708 207 704 206 699 206 695 206 691 206 686 206 682 206 678 207 673 208 669 210 665 211 661 213 657 215 653 218 649 220 646 223 642 226 639 229 636 233 634 236 631 240 629 244 627 248 625 252 623 256 622 260 621 265 620 269 620 273 620 278 620 282 620 286 621 291 621 295 623 299 624 303 626 307 628 311 630 315 632 318 635 321 638 324 641 327 644 330 648 333 651 335 655 337 659 339 663 340 667 341 671 342 675 343 680 343 684 343 688" stroke = "black" fill="red"></polygon>
<polygon points=" 481 693 481 697 480 702 479 706 478 710 477 714 475 718 473 722 471 726 468 729 465 733 462 736 459 739 456 742 453 745 449 747 445 749 441 751 437 753 433 754 429 756 424 756 420 757 416 757 411 757 407 757 403 757 398 756 394 755 390 754 386 752 382 750 378 748 374 746 371 743 367 741 364 738 361 735 358 731 356 728 353 724 351 720 349 716 348 712 346 708 345 704 344 699 344 695 344 691 344 686 344 682 344 678 345 673 346 669 348 665 349 661 351 657 353 653 356 649 358 646 361 642 364 639 367 636 371 634 374 631 378 629 382 627 386 625 390 623 394 622 398 621 403 620 407 620 411 620 416 620 420 620 424 621 429 621 433 623 437 624 441 626 445 628 449 630 453 632 456 635 459 638 462 641 465 644 468 648 471 651 473 655 475 659 477 663 478 667 479 671 480 675 481 680 481 684 481 688" stroke = "black" fill="red"></polygon>
<polygon points=" 619 693 619 697 618 702 617 706 616 710 615 714 613 718 611 722 609 726 606 729 603 733 600 736 597 739 594 742 591 745 587 747 583 749 579 751 575 753 571 754 567 756 562 756 558 757 554 757 549 757 545 757 541 757 536 756 532 755 528 754 524 752 520 750 516 748 512 746 509 743 505 741 502 738 499 735 496 731 494 728 491 724 489 720 487 716 486 712 484 708 483 704 482 699 482 695 482 691 482 686 482 682 482 678 483 673 484 669 486 665 487 661 489 657 491 653 494 649 496 646 499 642 502 639 505 636 509 634 512 631 516 629 520 627 524 625 528 623 532 622 536 621 541 620 545 620 549 620 554 620 558 620 562 621 567 621 571 623 575 624 579 626 583 628 587 630 591 632 594 635 597 638 600 641 603 644 606 648 609 651 611 655 613 659 615 663 616 667 617 671 618 675 619 680 619 684 619 688" stroke = "black" fill="red"></polygon>
<polygon points=" 757 693 757 697 756 702 755 706 754 710 753 714 751 718 749 722 747 726 744 729 741 733 738 736 735 739 732 742 729 745 725 747 721 749 717 751 713 753 709 754 705 756 700 756 696 757 692 757 687 757 683 757 679 757 674 756 670 755 666 754 662 752 658 750 654 748 650 746 647 743 643 741 640 738 637 735 634 731 632 728 629 724 627 720 625 716 624 712 622 708 621 704 620 699 620 695 620 691 620 686 620 682 620 678 621 673 622 669 624 665 625 661 627 657 629 653 632 649 634 646 637 642 640 639 643 636 647 634 650 631 654 629 658 627 662 625 666 623 670 622 674 621 679 620 683 620 687 620 692 620 696 620 700 621 705 621 709 623 713 624 717 626 721 628 725 630 729 632 732 635 735 638 738 641 741 644 744 648 747 651 749 655 751 659 753 663 754 667 755 671 756 675 757 680 757 684 757 688" stroke = "black" fill="red"></polygon>
<polygon points=" 895 693 895 697 894 702 893 706 892 710 891 714 889 718 887 722 885 726 882 729 879 733 876 736 873 739 870 742 867 745 863 747 859 749 855 751 851 753 847 754 843 756 838 756 834 757 830 757 825 757 821 757 817 757 812 756 808 755 804 754 800 752 796 750 792 748 788 746 785 743 781 741 778 738 775 735 772 731 770 728 767 724 765 720 763 716 762 712 760 708 759 704 758 699 758 695 758 691 758 686 758 682 758 678 759 673 760 669 762 665 763 661 765 657 767 653 770 649 772 646 775 642 778 639 781 636 785 634 788 631 792 629 796 627 800 625 804 623 808 622 812 621 817 620 821 620 825 620 830 620 834 620 838 621 843 621 847 623 851 624 855 626 859 628 863 630 867 632 870 635 873 638 876 641 879 644 882 648 885 651 887 655 889 659 891 663 892 667 893 671 894 675 895 680 895 684 895 688" stroke = "black" fill="red"></polygon>
<polygon points=" 1033 693 1033 697 1032 702 1031 706 1030 710 1029 714 1027 718 1025 722 1023 726 1020 729 1017 733 1014 736 1011 739 1008 742 1005 745 1001 747 997 749 993 751 989 753 985 754 981 756 976 756 972 757 968 757 963 757 959 757 955 757 950 756 946 755 942 754 938 752 934 750 930 748 926 746 923 743 919 741 916 738 913 735 910 731 908 728 905 724 903 720 901 716 900 712 898 708 897 704 896 699 896 695 896 691 896 686 896 682 896 678 897 673 898 669 900 665 901 661 903 657 905 653 908 649 910 646 913 642 916 639 919 636 923 634 926 631 930 629 934 627 938 625 942 623 946 622 950 621 955 620 959 620 963 620 968 620 972 620 976 621 981 621 985 623 989 624 993 626 997 628 1001 630 1005 632 1008 635 1011 638 1014 641 1017 644 1020 648 1023 651 1025 655 1027 659 1029 663 1030 667 1031 671 1032 675 1033 680 1033 684 1033 688" stroke = "black" fill="red"></polygon>
<polygon points=" 1171 693 1171 697 1170 702 1169 706 1168 710 1167 714 1165 718 1163 722 1161 726 1158 729 1155 733 1152 736 1149 739 1146 742 1143 745 1139 747 1135 749 1131 751 1127 753 1123 754 1119 756 1114 756 1110 757 1106 757 1101 757 1097 757 1093 757 1088 756 1084 755 1080 754 1076 752 1072 750 1068 748 1064 746 1061 743 1057 741 1054 738 1051 735 1048 731 1046 728 1043 724 1041 720 1039 716 1038 712 1036 708 1035 704 1034 699 1034 695 1034 691 1034 686 1034 682 1034 678 1035 673 1036 669 1038 665 1039 661 1041 657 1043 653 1046 649 1048 646 1051 642 1054 639 1057 636 1061 634 1064 631 1068 629 1072 627 1076 625 1080 623 1084 622 1088 621 1093 620 1097 620 1101 620 1106 620 1110 620 1114 621 1119 621 1123 623 1127 624 1131 626 1135 628 1139 630 1143 632 1146 635 1149 638 1152 641 1155 644 1158 648 1161 651 1163 655 1165 659 1167 663 1168 667 1169 671 1170 675 1171 680 1171 684 1171 688" stroke = "black" fill="red"></polygon>
<polygon points=" 343 831 343 835 342 840 341 844 340 848 339 852 337 856 335 860 333 864 330 867 327 871 324 874 321 877 318 880 315 883 311 885 307 887 303 889 299 891 295 892 291 894 286 894 282 895 278 895 273 895 269 895 265 895 260 894 256 893 252 892 248 890 244 888 240 886 236 884 233 881 229 879 226 876 223 873 220 869 218 866 215 862 213 858 211 854 210 850 208 846 207 842 206 837 206 833 206 829 206 824 206 820 206 816 207 811 208 807 210 803 211 799 213 795 215 791 218 787 220 784 223 780 226 777 229 774 233 772 236 769 240 767 244 765 248 763 252 761 256 760 260 759 265 758 269 758 273 758 278 758 282 758 286 759 291 759 295 761 299 762 303 764 307 766 311 768 315 770 318 773 321 776 324 779 327 782 330 786 333 789 335 793 337 797 339 801 340 805 341 809 342 813 343 818 343 822 343 826" stroke = "black" fill="red"></polygon>
<polygon points=" 481 831 481 835 480 840 479 844 478 848 477 852 475 856 473 860 471 864 468 867 465 871 462 874 459 877 456 880 453 883 449 885 445 887 441 889 437 891 433 892 429 894 424 894 420 895 416 895 411 895 407 895 403 895 398 894 394 893 390 892 386 890 382 888 378 886 374 884 371 881 367 879 364 876 361 873 358 869 356 866 353 862 351 858 349 854 348 850 346 846 345 842 344 837 344 833 344 829 344 824 344 820 344 816 345 811 346 807 348 803 349 799 351 795 353 791 356 787 358 784 361 780 364 777 367 774 371 772 374 769 378 767 382 765 386 763 390 761 394 760 398 759 403 758 407 758 411 758 416 758 420 758 424 759 429 759 433 761 437 762 441 764 445 766 449 768 453 770 456 773 459 776 462 779 465 782 468 786 471 789 473 793 475 797 477 801 478 805 479 809 480 813 481 818 481 822 481 826" stroke = "black" fill="red"></polygon>
<polygon points=" 619 831 619 835 618 840 617 844 616 848 615 852 613 856 611 860 609 864 606 867 603 871 600 874 597 877 594 880 591 883 587 885 583 887 579 889 575 891 571 892 567 894 562 894 558 895 554 895 549 895 545 895 541 895 536 894 532 893 528 892 524 890 520 888 516 886 512 884 509 881 505 879 502 876 499 873 496 869 494 866 491 862 489 858 487 854 486 850 484 846 483 842 482 837 482 833 482 829 482 824 482 820 482 816 483 811 484 807 486 803 487 799 489 795 491 791 494 787 496 784 499 780 502 777 505 774 509 772 512 769 516 767 520 765 524 763 528 761 532 760 536 759 541 758 545 758 549 758 554 758 558 758 562 759 567 759 571 761 575 762 579 764 583 766 587 768 591 770 594 773 597 776 600 779 603 782 606 786 609 789 611 793 613 797 615 801 616 805 617 809 618 813 619 818 619 822 619 826" stroke = "black" fill="red"></polygon>
<polygon points=" 757 831 757 835 756 840 755 844 754 848 753 852 751 856 749 860 747 864 744 867 741 871 738 874 735 877 732 880 729 883 725 885 721 887 717 889 713 891 709 892 705 894 700 894 696 895 692 895 687 895 683 895 679 895 674 894 670 893 666 892 662 890 658 888 654 886 650 884 647 881 643 879 640 876 637 873 634 869 632 866 629 862 627 858 625 854 624 850 622 846 621 842 620 837 620 833 620 829 620 824 620 820 620 816 621 811 622 807 624 803 625 799 627 795 629 791 632 787 634 784 637 780 640 777 643 774 647 772 650 769 654 767 658 765 662 763 666 761 670 760 674 759 679 758 683 758 687 758 692 758 696 758 700 759 705 759 709 761 713 762 717 764 721 766 725 768 729 770 732 773 735 776 738 779 741 782 744 786 747 789 749 793 751 797 753 801 754 805 755 809 756 813 757 818 757 822 757 826" stroke = "black" fill="red"></polygon>
<polygon points=" 895 831 895 835 894 840 893 844 892 848 891 852 889 856 887 860 885 864 882 867 879 871 876 874 873 877 870 880 867 883 863 885 859 887 855 889 851 891 847 892 843 894 838 894 834 895 830 895 825 895 821 895 817 895 812 894 808 893 804 892 800 890 796 888 792 886 788 884 785 881 781 879 778 876 775 873 772 869 770 866 767 862 765 858 763 854 762 850 760 846 759 842 758 837 758 833 758 829 758 824 758 820 758 816 759 811 760 807 762 803 763 799 765 795 767 791 770 787 772 784 775 780 778 777 781 774 785 772 788 769 792 767 796 765 800 763 804 761 808 760 812 759 817 758 821 758 825 758 830 758 834 758 838 759 843 759 847 761 851 762 855 764 859 766 863 768 867 770 870 773 873 776 876 779 879 782 882 786 885 789 887 793 889 797 891 801 892 805 893 809 894 813 895 818 895 822 895 826" stroke = "black" fill="red"></polygon>
<polygon points=" 1033 831 1033 835 1032 840 1031 844 1030 848 1029 852 1027 856 1025 860 1023 864 1020 867 1017 871 1014 874 1011 877 1008 880 1005 883 1001 885 997 887 993 889 989 891 985 892 981 894 976 894 972 895 968 895 963 895 959 895 955 895 950 894 946 893 942 892 938 890 934 888 930 886 926 884 923 881 919 879 916 876 913 873 910 869 908 866 905 862 903 858 901 854 900 850 898 846 897 842 896 837 896 833 896 829 896 824 896 820 896 816 897 811 898 807 900 803 901 799 903 795 905 791 908 787 910 784 913 780 916 777 919 774 923 772 926 769 930 767 934 765 938 763 942 761 946 760 950 759 955 758 959 758 963 758 968 758 972 758 976 759 981 759 985 761 989 762 993 764 997 766 1001 768 1005 770 1008 773 1011 776 1014 779 1017 782 1020 786 1023 789 1025 793 1027 797 1029 801 1030 805 1031 809 1032 813 1033 818 1033 822 1033 826" stroke = "black" fill="red"></polygon>
<polygon points=" 1171 831 1171 835 1170 840 1169 844 1168 848 1167 852 1165 856 1163 860 1161 864 1158 867 1155 871 1152 874 1149 877 1146 880 1143 883 1139 885 1135 887 1131 889 1127 891 1123 892 1119 894 1114 894 1110 895 1106 895 1101 895 1097 895 1093 895 1088 894 1084 893 1080 892 1076 890 1072 888 1068 886 1064 884 1061 881 1057 879 1054 876 1051 873 1048 869 1046 866 1043 862 1041 858 1039 854 1038 850 1036 846 1035 842 1034 837 1034 833 1034 829 1034 824 1034 820 1034 816 1035 811 1036 807 1038 803 1039 799 1041 795 1043 791 1046 787 1048 784 1051 780 1054 777 1057 774 1061 772 1064 769 1068 767 1072 765 1076 763 1080 761 1084 760 1088 759 1093 758 1097 758 1101 758 1106 758 1110 758 1114 759 1119 759 1123 761 1127 762 1131 764 1135 766 1139 768 1143 770 1146 773 1149 776 1152 779 1155 782 1158 786 1161 789 1163 793 1165 797 1167 801 1168 805 1169 809 1170 813 1171 818 1171 822 1171 826" stroke = "black" fill="red"></polygon>
<polygon points=" 343 969 343 973 342 978 341 982 340 986 339 990 337 994 335 998 333 1002 330 1005 327 1009 324 1012 321 1015 318 1018 315 1021 311 1023 307 1025 303 1027 299 1029 295 1030 291 1032 286 1032 282 1033 278 1033 273 1033 269 1033 265 1033 260 1032 256 1031 252 1030 248 1028 244 1026 240 1024 236 1022 233 1019 229 1017 226 1014 223 1011 220 1007 218 1004 215 1000 213 996 211 992 210 988 208 984 207 980 206 975 206 971 206 967 206 962 206 958 206 954 207 949 208 945 210 941 211 937 213 933 215 929 218 925 220 922 223 918 226 915 229 912 233 910 236 907 240 905 244 903 248 901 252 899 256 898 260 897 265 896 269 896 273 896 278 896 282 896 286 897 291 897 295 899 299 900 303 902 307 904 311 906 315 908 318 911 321 914 324 917 327 920 330 924 333 927 335 931 337 935 339 939 340 943 341 947 342 951 343 956 343 960 343 964" stroke = "black" fill="red"></polygon>
<polygon points=" 481 969 481 973 480 978 479 982 478 986 477 990 475 994 473 998 471 1002 468 1005 465 1009 462 1012 459 1015 456 1018 453 1021 449 1023 445 1025 441 1027 437 1029 433 1030 429 1032 424 1032 420 1033 416 1033 411 1033 407 1033 403 1033 398 1032 394 1031 390 1030 386 1028 382 1026 378 1024 374 1022 371 1019 367 1017 364 1014 361 1011 358 1007 356 1004 353 1000 351 996 349 992 348 988 346 984 345 980 344 975 344 971 344 967 344 962 344 958 344 954 345 949 346 945 348 941 349 937 351 933 353 929 356 925 358 922 361 918 364 915 367 912 371 910 374 907 378 905 382 903 386 901 390 899 394 898 398 897 403 896 407 896 411 896 416 896 420 896 424 897 429 897 433 899 437 900 441 902 445 904 449 906 453 908 456 911 459 914 462 917 465 920 468 924 471 927 473 931 475 935 477 939 478 943 479 947 480 951 481 956 481 960 481 964" stroke = "black" fill="red"></polygon>
<polygon points=" 619 969 619 973 618 978 617 982 616 986 615 990 613 994 611 998 609 1002 606 1005 603 1009 600 1012 597 1015 594 1018 591 1021 587 1023 583 1025 579 1027 575 1029 571 1030 567 1032 562 1032 558 1033 554 1033 549 1033 545 1033 541 1033 536 1032 532 1031 528 1030 524 1028 520 1026 516 1024 512 1022 509 1019 505 1017 502 1014 499 1011 496 1007 494 1004 491 1000 489 996 487 992 486 988 484 984 483 980 482 975 482 971 482 967 482 962 482 958 482 954 483 949 484 945 486 941 487 937 489 933 491 929 494 925 496 922 499 918 502 915 505 912 509 910 512 907 516 905 520 903 524 901 528 899 532 898 536 897 541 896 545 896 549 896 554 896 558 896 562 897 567 897 571 899 575 900 579 902 583 904 587 906 591 908 594 911 597 914 600 917 603 920 606 924 609 927 611 931 613 935 615 939 616 943 617 947 618 951 619 956 619 960 619 964" stroke = "black" fill="red"></polygon>
<polygon points=" 757 969 757 973 756 978 755 982 754 986 753 990 751 994 749 998 747 1002 744 1005 741 1009 738 1012 735 1015 732 1018 729 1021 725 1023 721 1025 717 1027 713 1029 709 1030 705 1032 700 1032 696 1033 692 1033 687 1033 683 1033 679 1033 674 1032 670 1031 666 1030 662 1028 658 1026 654 1024 650 1022 647 1019 643 1017 640 1014 637 1011 634 1007 632 1004 629 1000 627 996 625 992 624 988 622 984 621 980 620 975 620 971 620 967 620 962 620 958 620 954 621 949 622 945 624 941 625 937 627 933 629 929 632 925 634 922 637 918 640 915 643 912 647 910 650 907 654 905 658 903 662 901 666 899 670 898 674 897 679 896 683 896 687 896 692 896 696 896 700 897 705 897 709 899 713 900 717 902 721 904 725 906 729 908 732 911 735 914 738 917 741 920 744 924 747 927 749 931 751 935 753 939 754 943 755 947 756 951 757 956 757 960 757 964" stroke = "black" fill="red"></polygon>
<polygon points=" 895 969 895 973 894 978 893 982 892 986 891 990 889 994 887 998 885 1002 882 1005 879 1009 876 1012 873 1015 870 1018 867 1021 863 1023 859 1025 855 1027 851 1029 847 1030 843 1032 838 1032 834 1033 830 1033 825 1033 821 1033 817 1033 812 1032 808 1031 804 1030 800 1028 796 1026 792 1024 788 1022 785 1019 781 1017 778 1014 775 1011 772 1007 770 1004 767 1000 765 996 763 992 762 988 760 984 759 980 758 975 758 971 758 967 758 962 758 958 758 954 759 949 760 945 762 941 763 937 765 933 767 929 770 925 772 922 775 918 778 915 781 912 785 910 788 907 792 905 796 903 800 901 804 899 808 898 812 897 817 896 821 896 825 896 830 896 834 896 838 897 843 897 847 899 851 900 855 902 859 904 863 906 867 908 870 911 873 914 876 917 879 920 882 924 885 927 887 931 889 935 891 939 892 943 893 947 894 951 895 956 895 960 895 964" stroke = "black" fill="red"></polygon>
<polygon points=" 1033 969 1033 973 1032 978 1031 982 1030 986 1029 990 1027 994 1025 998 1023 1002 1020 1005 1017 1009 1014 1012 1011 1015 1008 1018 1005 1021 1001 1023 997 1025 993 1027 989 1029 985 1030 981 1032 976 1032 972 1033 968 1033 963 1033 959 1033 955 1033 950 1032 946 1031 942 1030 938 1028 934 1026 930 1024 926 1022 923 1019 919 1017 916 1014 913 1011 910 1007 908 1004 905 1000 903 996 901 992 900 988 898 984 897 980 896 975 896 971 896 967 896 962 896 958 896 954 897 949 898 945 900 941 901 937 903 933 905 929 908 925 910 922 913 918 916 915 919 912 923 910 926 907 930 905 934 903 938 901 942 899 946 898 950 897 955 896 959 896 963 896 968 896 972 896 976 897 981 897 985 899 989 900 993 902 997 904 1001 906 1005 908 1008 911 1011 914 1014 917 1017 920 1020 924 1023 927 1025 931 1027 935 1029 939 1030 943 1031 947 1032 951 1033 956 1033 960 1033 964" stroke = "black" fill="red"></polygon>
<polygon points=" 1171 969 1171 973 1170 978 1169 982 1168 986 1167 990 1165 994 1163 998 1161 1002 1158 1005 1155 1009 1152 1012 1149 1015 1146 1018 1143 1021 1139 1023 1135 1025 1131 1027 1127 1029 1123 1030 1119 1032 1114 1032 1110 1033 1106 1033 1101 1033 1097 1033 1093 1033 1088 1032 1084 1031 1080 1030 1076 1028 1072 1026 1068 1024 1064 1022 1061 1019 1057 1017 1054 1014 1051 1011 1048 1007 1046 1004 1043 1000 1041 996 1039 992 1038 988 1036 984 1035 980 1034 975 1034 971 1034 967 1034 962 1034 958 1034 954 1035 949 1036 945 1038 941 1039 937 1041 933 1043 929 1046 925 1048 922 1051 918 1054 915 1057 912 1061 910 1064 907 1068 905 1072 903 1076 901 1080 899 1084 898 1088 897 1093 896 1097 896 1101 896 1106 896 1110 896 1114 897 1119 897 1123 899 1127 900 1131 902 1135 904 1139 906 1143 908 1146 911 1149 914 1152 917 1155 920 1158 924 1161 927 1163 931 1165 935 1167 939 1168 943 1169 947 1170 951 1171 956 1171 960 1171 964" stroke = "black" fill="red"></polygon>
<polygon points=" 343 1107 343 1111 342 1116 341 1120 340 1124 339 1128 337 1132 335 1136 333 1140 330 1143 327 1147 324 1150 321 1153 318 1156 315 1159 311 1161 307 1163 303 1165 299 1167 295 1168 291 1170 286 1170 282 1171 278 1171 273 1171 269 1171 265 1171 260 1170 256 1169 252 1168 248 1166 244 1164 240 1162 236 1160 233 1157 229 1155 226 1152 223 1149 220 1145 218 1142 215 1138 213 1134 211 1130 210 1126 208 1122 207 1118 206 1113 206 1109 206 1105 206 1100 206 1096 206 1092 207 1087 208 1083 210 1079 211 1075 213 1071 215 1067 218 1063 220 1060 223 1056 226 1053 229 1050 233 1048 236 1045 240 1043 244 1041 248 1039 252 1037 256 1036 260 1035 265 1034 269 1034 273 1034 278 1034 282 1034 286 1035 291 1035 295 1037 299 1038 303 1040 307 1042 311 1044 315 1046 318 1049 321 1052 324 1055 327 1058 330 1062 333 1065 335 1069 337 1073 339 1077 340 1081 341 1085 342 1089 343 1094 343 1098 343 1102" stroke = "black" fill="red"></polygon>
<polygon points=" 481 1107 481 1111 480 1116 479 1120 478 1124 477 1128 475 1132 473 1136 471 1140 468 1143 465 1147 462 1150 459 1153 456 1156 453 1159 449 1161 445 1163 441 1165 437 1167 433 1168 429 1170 424 1170 420 1171 416 1171 411 1171 407 1171 403 1171 398 1170 394 1169 390 1168 386 1166 382 1164 378 1162 374 1160 371 1157 367 1155 364 1152 361 1149 358 1145 356 1142 353 1138 351 1134 349 1130 348 1126 346 1122 345 1118 344 1113 344 1109 344 1105 344 1100 344 1096 344 1092 345 1087 346 1083 348 1079 349 1075 351 1071 353 1067 356 1063 358 1060 361 1056 364 1053 367 1050 371 1048 374 1045 378 1043 382 1041 386 1039 390 1037 394 1036 398 1035 403 1034 407 1034 411 1034 416 1034 420 1034 424 1035 429 1035 433 1037 437 1038 441 1040 445 1042 449 1044 453 1046 456 1049 459 1052 462 1055 465 1058 468 1062 471 1065 473 1069 475 1073 477 1077 478 1081 479 1085 480 1089 481 1094 481 1098 481 1102" stroke = "black" fill="red"></polygon>
<polygon points=" 619 1107 619 1111 618 1116 617 1120 616 1124 615 1128 613 1132 611 1136 609 1140 606 1143 603 1147 600 1150 597 1153 594 1156 591 1159 587 1161 583 1163 579 1165 575 1167 571 1168 567 1170 562 1170 558 1171 554 1171 549 1171 545 1171 541 1171 536 1170 532 1169 528 1168 524 1166 520 1164 516 1162 512 1160 509 1157 505 1155 502 1152 499 1149 496 1145 494 1142 491 1138 489 1134 487 1130 486 1126 484 1122 483 1118 482 1113 482 1109 482 1105 482 1100 482 1096 482 1092 483 1087 484 1083 486 1079 487 1075 489 1071 491 1067 494 1063 496 1060 499 1056 502 1053 505 1050 509 1048 512 1045 516 1043 520 1041 524 1039 528 1037 532 1036 536 1035 541 1034 545 1034 549 1034 554 1034 558 1034 562 1035 567 1035 571 1037 575 1038 579 1040 583 1042 587 1044 591 1046 594 1049 597 1052 600 1055 603 1058 606 1062 609 1065 611 1069 613 1073 615 1077 616 1081 617 1085 618 1089 619 1094 619 1098 619 1102" stroke = "black" fill="red"></polygon>
<polygon points=" 757 1107 757 1111 756 1116 755 1120 754 1124 753 1128 751 1132 749 1136 747 1140 744 1143 741 1147 738 1150 735 1153 732 1156 729 1159 725 1161 721 1163 717 1165 713 1167 709 1168 705 1170 700 1170 696 1171 692 1171 687 1171 683 1171 679 1171 674 1170 670 1169 666 1168 662 1166 658 1164 654 1162 650 1160 647 1157 643 1155 640 1152 637 1149 634 1145 632 1142 629 1138 627 1134 625 1130 624 1126 622 1122 621 1118 620 1113 620 1109 620 1105 620 1100 620 1096 620 1092 621 1087 622 1083 624 1079 625 1075 627 1071 629 1067 632 1063 634 1060 637 1056 640 1053 643 1050 647 1048 650 1045 654 1043 658 1041 662 1039 666 1037 670 1036 674 1035 679 1034 683 1034 687 1034 692 1034 696 1034 700 1035 705 1035 709 1037 713 1038 717 1040 721 1042 725 1044 729 1046 732 1049 735 1052 738 1055 741 1058 744 1062 747 1065 749 1069 751 1073 753 1077 754 1081 755 1085 756 1089 757 1094 757 1098 757 1102" stroke = "black" fill="red"></polygon>
<polygon points=" 895 1107 895 1111 894 1116 893 1120 892 1124 891 1128 889 1132 887 1136 885 1140 882 1143 879 1147 876 1150 873 1153 870 1156 867 1159 863 1161 859 1163 855 1165 851 1167 847 1168 843 1170 838 1170 834 1171 830 1171 825 1171 821 1171 817 1171 812 1170 808 1169 804 1168 800 1166 796 1164 792 1162 788 1160 785 1157 781 1155 778 1152 775 1149 772 1145 770 1142 767 1138 765 1134 763 1130 762 1126 760 1122 759 1118 758 1113 758 1109 758 1105 758 1100 758 1096 758 1092 759 1087 760 1083 762 1079 763 1075 765 1071 767 1067 770 1063 772 1060 775 1056 778 1053 781 1050 785 1048 788 1045 792 1043 796 1041 800 1039 804 1037 808 1036 812 1035 817 1034 821 1034 825 1034 830 1034 834 1034 838 1035 843 1035 847 1037 851 1038 855 1040 859 1042 863 1044 867 1046 870 1049 873 1052 876 1055 879 1058 882 1062 885 1065 887 1069 889 1073 891 1077 892 1081 893 1085 894 1089 895 1094 895 1098 895 1102" stroke = "black" fill="red"></polygon>
<polygon points=" 1033 1107 1033 1111 1032 1116 1031 1120 1030 1124 1029 1128 1027 1132 1025 1136 1023 1140 1020 1143 1017 1147 1014 1150 1011 1153 1008 1156 1005 1159 1001 1161 997 1163 993 1165 989 1167 985 1168 981 1170 976 1170 972 1171 968 1171 963 1171 959 1171 955 1171 950 1170 946 1169 942 1168 938 1166 934 1164 930 1162 926 1160 923 1157 919 1155 916 1152 913 1149 910 1145 908 1142 905 1138 903 1134 901 1130 900 1126 898 1122 897 1118 896 1113 896 1109 896 1105 896 1100 896 1096 896 1092 897 1087 898 1083 900 1079 901 1075 903 1071 905 1067 908 1063 910 1060 913 1056 916 1053 919 1050 923 1048 926 1045 930 1043 934 1041 938 1039 942 1037 946 1036 950 1035 955 1034 959 1034 963 1034 968 1034 972 1034 976 1035 981 1035 985 1037 989 1038 993 1040 997 1042 1001 1044 1005 1046 1008 1049 1011 1052 1014 1055 1017 1058 1020 1062 1023 1065 1025 1069 1027 1073 1029 1077 1030 1081 1031 1085 1032 1089 1033 1094 1033 1098 1033 1102" stroke = "black" fill="red"></polygon>
<polygon points=" 1171 1107 1171 1111 1170 1116 1169 1120 1168 1124 1167 1128 1165 1132 1163 1136 1161 1140 1158 1143 1155 1147 1152 1150 1149 1153 1146 1156 1143 1159 1139 1161 1135 1163 1131 1165 1127 1167 1123 1168 1119 1170 1114 1170 1110 1171 1106 1171 1101 1171 1097 1171 1093 1171 1088 1170 1084 1169 1080 1168 1076 1166 1072 1164 1068 1162 1064 1160 1061 1157 1057 1155 1054 1152 1051 1149 1048 1145 1046 1142 1043 1138 1041 1134 1039 1130 1038 1126 1036 1122 1035 1118 1034 1113 1034 1109 1034 1105 1034 1100 1034 1096 1034 1092 1035 1087 1036 1083 1038 1079 1039 1075 1041 1071 1043 1067 1046 1063 1048 1060 1051 1056 1054 1053 1057 1050 1061 1048 1064 1045 1068 1043 1072 1041 1076 1039 1080 1037 1084 1036 1088 1035 1093 1034 1097 1034 1101 1034 1106 1034 1110 1034 1114 1035 1119 1035 1123 1037 1127 1038 1131 1040 1135 1042 1139 1044 1143 1046 1146 1049 1149 1052 1152 1055 1155 1058 1158 1062 1161 1065 1163 1069 1165 1073 1167 1077 1168 1081 1169 1085 1170 1089 1171 1094 1171 1098 1171 1102" stroke = "black" fill="red"></polygon></svg>