<svg version="1.1" baseProfile="full" xmlns="http://www.w3.org/2000/svg"><rect x="0" y="0" stroke="Black" width="750" height="600" fill="red"></rect>

<polygon points=" 0 0 0 600 750 600 750 0" stroke = "black" fill="red"></polygon>
<polygon points=" 89 47 89 50 89 53 88 56 87 59 86 61 85 64 84 66 82 69 81 71 79 73 77 76 75 78 73 79 71 81 68 83 66 84 63 85 61 87 58 87 55 88 52 89 49 89 47 89 44 89 41 89 38 89 35 89 33 88 30 87 27 86 25 85 22 83 20 82 17 80 15 79 13 77 11 75 9 72 7 70 6 68 5 65 3 63 2 60 1 57 1 54 0 52 0 49 0 46 0 43 0 40 0 37 1 35 1 32 2 29 3 26 5 24 6 21 7 19 9 17 11 14 13 12 15 10 17 9 20 7 22 6 25 4 27 3 30 2 33 1 35 0 38 0 41 0 44 0 47 0 49 0 52 0 55 1 58 2 61 2 63 4 66 5 68 6 71 8 73 10 75 11 77 13 79 16 81 18 82 20 84 23 85 25 86 28 87 30 88 33 89 36 89 39 89 42 89 44" stroke = "black" fill="red"></polygon>
<polygon points=" 179 47 179 50 179 53 178 56 177 59 176 61 175 64 174 66 172 69 171 71 169 73 167 76 165 78 163 79 161 81 158 83 156 84 153 85 151 87 148 87 145 88 142 89 139 89 137 89 134 89 131 89 128 89 125 89 123 88 120 87 117 86 115 85 112 83 110 82 107 80 105 79 103 77 101 75 99 72 97 70 96 68 95 65 93 63 92 60 91 57 91 54 90 52 90 49 90 46 90 43 90 40 90 37 91 35 91 32 92 29 93 26 95 24 96 21 97 19 99 17 101 14 103 12 105 10 107 9 110 7 112 6 115 4 117 3 120 2 123 1 125 0 128 0 131 0 134 0 137 0 139 0 142 0 145 1 148 2 151 2 153 4 156 5 158 6 161 8 163 10 165 11 167 13 169 16 171 18 172 20 174 23 175 25 176 28 177 30 178 33 179 36 179 39 179 42 179 44" stroke = "black" fill="red"></polygon>
<polygon points=" 269 47 269 50 269 53 268 56 267 59 266 61 265 64 264 66 262 69 261 71 259 73 257 76 255 78 253 79 251 81 248 83 246 84 243 85 241 87 238 87 235 88 232 89 229 89 227 89 224 89 221 89 218 89 215 89 213 88 210 87 207 86 205 85 202 83 200 82 197 80 195 79 193 77 191 75 189 72 187 70 186 68 185 65 183 63 182 60 181 57 181 54 180 52 180 49 180 46 180 43 180 40 180 37 181 35 181 32 182 29 183 26 185 24 186 21 187 19 189 17 191 14 193 12 195 10 197 9 200 7 202 6 205 4 207 3 210 2 213 1 215 0 218 0 221 0 224 0 227 0 229 0 232 0 235 1 238 2 241 2 243 4 246 5 248 6 251 8 253 10 255 11 257 13 259 16 261 18 262 20 264 23 265 25 266 28 267 30 268 33 269 36 269 39 269 42 269 44" stroke = "black" fill="red"></polygon>
<polygon points=" 359 47 359 50 359 53 358 56 357 59 356 61 355 64 354 66 352 69 351 71 349 73 347 76 345 78 343 79 341 81 338 83 336 84 333 85 331 87 328 87 325 88 322 89 319 89 317 89 314 89 311 89 308 89 305 89 303 88 300 87 297 86 295 85 292 83 290 82 287 80 285 79 283 77 281 75 279 72 277 70 276 68 275 65 273 63 272 60 271 57 271 54 270 52 270 49 270 46 270 43 270 40 270 37 271 35 271 32 272 29 273 26 275 24 276 21 277 19 279 17 281 14 283 12 285 10 287 9 290 7 292 6 295 4 297 3 300 2 303 1 305 0 308 0 311 0 314 0 317 0 319 0 322 0 325 1 328 2 331 2 333 4 336 5 338 6 341 8 343 10 345 11 347 13 349 16 351 18 352 20 354 23 355 25 356 28 357 30 358 33 359 36 359 39 359 42 359 44" stroke = "black" fill="red"></polygon>
<polygon points=" 449 47 449 50 449 53 448 56 447 59 446 61 445 64 444 66 442 69 441 71 439 73 437 76 435 78 433 79 431 81 428 83 426 84 423 85 421 87 418 87 415 88 412 89 409 89 407 89 404 89 401 89 398 89 395 89 393 88 390 87 387 86 385 85 382 83 380 82 377 80 375 79 373 77 371 75 369 72 367 70 366 68 365 65 363 63 362 60 361 57 361 54 360 52 360 49 360 46 360 43 360 40 360 37 361 35 361 32 362 29 363 26 365 24 366 21 367 19 369 17 371 14 373 12 375 10 377 9 380 7 382 6 385 4 387 3 390 2 393 1 395 0 398 0 401 0 404 0 407 0 409 0 412 0 415 1 418 2 421 2 423 4 426 5 428 6 431 8 433 10 435 11 437 13 439 16 441 18 442 20 444 23 445 25 446 28 447 30 448 33 449 36 449 39 449 42 449 44" stroke = "black" fill="red"></polygon>
<polygon points=" 539 47 539 50 539 53 538 56 537 59 536 61 535 64 534 66 532 69 531 71 529 73 527 76 525 78 523 79 521 81 518 83 516 84 513 85 511 87 508 87 505 88 502 89 499 89 497 89 494 89 491 89 488 89 485 89 483 88 480 87 477 86 475 85 472 83 470 82 467 80 465 79 463 77 461 75 459 72 457 70 456 68 455 65 453 63 452 60 451 57 451 54 450 52 450 49 450 46 450 43 450 40 450 37 451 35 451 32 452 29 453 26 455 24 456 21 457 19 459 17 461 14 463 12 465 10 467 9 470 7 472 6 475 4 477 3 480 2 483 1 485 0 488 0 491 0 494 0 497 0 499 0 502 0 505 1 508 2 511 2 513 4 516 5 518 6 521 8 523 10 525 11 527 13 529 16 531 18 532 20 534 23 535 25 536 28 537 30 538 33 539 36 539 39 539 42 539 44" stroke = "black" fill="red"></polygon>
<polygon points=" 629 47 629 50 629 53 628 56 627 59 626 61 625 64 624 66 622 69 621 71 619 73 617 76 615 78 613 79 611 81 608 83 606 84 603 85 601 87 598 87 595 88 592 89 589 89 587 89 584 89 581 89 578 89 575 89 573 88 570 87 567 86 565 85 562 83 560 82 557 80 555 79 553 77 551 75 549 72 547 70 546 68 545 65 543 63 542 60 541 57 541 54 540 52 540 49 540 46 540 43 540 40 540 37 541 35 541 32 542 29 543 26 545 24 546 21 547 19 549 17 551 14 553 12 555 10 557 9 560 7 562 6 565 4 567 3 570 2 573 1 575 0 578 0 581 0 584 0 587 0 589 0 592 0 595 1 598 2 601 2 603 4 606 5 608 6 611 8 613 10 615 11 617 13 619 16 621 18 622 20 624 23 625 25 626 28 627 30 628 33 629 36 629 39 629 42 629 44" stroke = "black" fill="red"></polygon>
<polygon points=" 719 47 719 50 719 53 718 56 717 59 716 61 715 64 714 66 712 69 711 71 709 73 707 76 705 78 703 79 701 81 698 83 696 84 693 85 691 87 688 87 685 88 682 89 679 89 677 89 674 89 671 89 668 89 665 89 663 88 660 87 657 86 655 85 652 83 650 82 647 80 645 79 643 77 641 75 639 72 637 70 636 68 635 65 633 63 632 60 631 57 631 54 630 52 630 49 630 46 630 43 630 40 630 37 631 35 631 32 632 29 633 26 635 24 636 21 637 19 639 17 641 14 643 12 645 10 647 9 650 7 652 6 655 4 657 3 660 2 663 1 665 0 668 0 671 0 674 0 677 0 679 0 682 0 685 1 688 2 691 2 693 4 696 5 698 6 701 8 703 10 705 11 707 13 709 16 711 18 712 20 714 23 715 25 716 28 717 30 718 33 719 36 719 39 719 42 719 44" stroke = "black" fill="red"></polygon>
<polygon points=" 134 124 134 127 134 130 133 133 132 136 131 138 130 141 129 143 127 146 126 148 124 150 122 153 120 155 118 156 116 158 113 160 111 161 108 162 106 164 103 164 100 165 97 166 94 166 92 166 89 166 86 166 83 166 80 166 78 165 75 164 72 163 70 162 67 160 65 159 62 157 60 156 58 154 56 152 54 149 52 147 51 145 50 142 48 140 47 137 46 134 46 131 45 129 45 126 45 123 45 120 45 117 45 114 46 112 46 109 47 106 48 103 50 101 51 98 52 96 54 94 56 91 58 89 60 87 62 86 65 84 67 83 70 81 72 80 75 79 78 78 80 77 83 77 86 77 89 77 92 77 94 77 97 77 100 78 103 79 106 79 108 81 111 82 113 83 116 85 118 87 120 88 122 90 124 93 126 95 127 97 129 100 130 102 131 105 132 107 133 110 134 113 134 116 134 119 134 121" stroke = "black" fill="red"></polygon>
<polygon points=" 224 124 224 127 224 130 223 133 222 136 221 138 220 141 219 143 217 146 216 148 214 150 212 153 210 155 208 156 206 158 203 160 201 161 198 162 196 164 193 164 190 165 187 166 184 166 182 166 179 166 176 166 173 166 170 166 168 165 165 164 162 163 160 162 157 160 155 159 152 157 150 156 148 154 146 152 144 149 142 147 141 145 140 142 138 140 137 137 136 134 136 131 135 129 135 126 135 123 135 120 135 117 135 114 136 112 136 109 137 106 138 103 140 101 141 98 142 96 144 94 146 91 148 89 150 87 152 86 155 84 157 83 160 81 162 80 165 79 168 78 170 77 173 77 176 77 179 77 182 77 184 77 187 77 190 78 193 79 196 79 198 81 201 82 203 83 206 85 208 87 210 88 212 90 214 93 216 95 217 97 219 100 220 102 221 105 222 107 223 110 224 113 224 116 224 119 224 121" stroke = "black" fill="red"></polygon>
<polygon points=" 314 124 314 127 314 130 313 133 312 136 311 138 310 141 309 143 307 146 306 148 304 150 302 153 300 155 298 156 296 158 293 160 291 161 288 162 286 164 283 164 280 165 277 166 274 166 272 166 269 166 266 166 263 166 260 166 258 165 255 164 252 163 250 162 247 160 245 159 242 157 240 156 238 154 236 152 234 149 232 147 231 145 230 142 228 140 227 137 226 134 226 131 225 129 225 126 225 123 225 120 225 117 225 114 226 112 226 109 227 106 228 103 230 101 231 98 232 96 234 94 236 91 238 89 240 87 242 86 245 84 247 83 250 81 252 80 255 79 258 78 260 77 263 77 266 77 269 77 272 77 274 77 277 77 280 78 283 79 286 79 288 81 291 82 293 83 296 85 298 87 300 88 302 90 304 93 306 95 307 97 309 100 310 102 311 105 312 107 313 110 314 113 314 116 314 119 314 121" stroke = "black" fill="red"></polygon>
<polygon points=" 404 124 404 127 404 130 403 133 402 136 401 138 400 141 399 143 397 146 396 148 394 150 392 153 390 155 388 156 386 158 383 160 381 161 378 162 376 164 373 164 370 165 367 166 364 166 362 166 359 166 356 166 353 166 350 166 348 165 345 164 342 163 340 162 337 160 335 159 332 157 330 156 328 154 326 152 324 149 322 147 321 145 320 142 318 140 317 137 316 134 316 131 315 129 315 126 315 123 315 120 315 117 315 114 316 112 316 109 317 106 318 103 320 101 321 98 322 96 324 94 326 91 328 89 330 87 332 86 335 84 337 83 340 81 342 80 345 79 348 78 350 77 353 77 356 77 359 77 362 77 364 77 367 77 370 78 373 79 376 79 378 81 381 82 383 83 386 85 388 87 390 88 392 90 394 93 396 95 397 97 399 100 400 102 401 105 402 107 403 110 404 113 404 116 404 119 404 121" stroke = "black" fill="red"></polygon>
<polygon points=" 494 124 494 127 494 130 493 133 492 136 491 138 490 141 489 143 487 146 486 148 484 150 482 153 480 155 478 156 476 158 473 160 471 161 468 162 466 164 463 164 460 165 457 166 454 166 452 166 449 166 446 166 443 166 440 166 438 165 435 164 432 163 430 162 427 160 425 159 422 157 420 156 418 154 416 152 414 149 412 147 411 145 410 142 408 140 407 137 406 134 406 131 405 129 405 126 405 123 405 120 405 117 405 114 406 112 406 109 407 106 408 103 410 101 411 98 412 96 414 94 416 91 418 89 420 87 422 86 425 84 427 83 430 81 432 80 435 79 438 78 440 77 443 77 446 77 449 77 452 77 454 77 457 77 460 78 463 79 466 79 468 81 471 82 473 83 476 85 478 87 480 88 482 90 484 93 486 95 487 97 489 100 490 102 491 105 492 107 493 110 494 113 494 116 494 119 494 121" stroke = "black" fill="red"></polygon>
<polygon points=" 584 124 584 127 584 130 583 133 582 136 581 138 580 141 579 143 577 146 576 148 574 150 572 153 570 155 568 156 566 158 563 160 561 161 558 162 556 164 553 164 550 165 547 166 544 166 542 166 539 166 536 166 533 166 530 166 528 165 525 164 522 163 520 162 517 160 515 159 512 157 510 156 508 154 506 152 504 149 502 147 501 145 500 142 498 140 497 137 496 134 496 131 495 129 495 126 495 123 495 120 495 117 495 114 496 112 496 109 497 106 498 103 500 101 501 98 502 96 504 94 506 91 508 89 510 87 512 86 515 84 517 83 520 81 522 80 525 79 528 78 530 77 533 77 536 77 539 77 542 77 544 77 547 77 550 78 553 79 556 79 558 81 561 82 563 83 566 85 568 87 570 88 572 90 574 93 576 95 577 97 579 100 580 102 581 105 582 107 583 110 584 113 584 116 584 119 584 121" stroke = "black" fill="red"></polygon>
<polygon points=" 674 124 674 127 674 130 673 133 672 136 671 138 670 141 669 143 667 146 666 148 664 150 662 153 660 155 658 156 656 158 653 160 651 161 648 162 646 164 643 164 640 165 637 166 634 166 632 166 629 166 626 166 623 166 620 166 618 165 615 164 612 163 610 162 607 160 605 159 602 157 600 156 598 154 596 152 594 149 592 147 591 145 590 142 588 140 587 137 586 134 586 131 585 129 585 126 585 123 585 120 585 117 585 114 586 112 586 109 587 106 588 103 590 101 591 98 592 96 594 94 596 91 598 89 600 87 602 86 605 84 607 83 610 81 612 80 615 79 618 78 620 77 623 77 626 77 629 77 632 77 634 77 637 77 640 78 643 79 646 79 648 81 651 82 653 83 656 85 658 87 660 88 662 90 664 93 666 95 667 97 669 100 670 102 671 105 672 107 673 110 674 113 674 116 674 119 674 121" stroke = "black" fill="red"></polygon>
<polygon points=" 89 201 89 204 89 207 88 210 87 213 86 215 85 218 84 220 82 223 81 225 79 227 77 230 75 232 73 233 71 235 68 237 66 238 63 239 61 241 58 241 55 242 52 243 49 243 47 243 44 243 41 243 38 243 35 243 33 242 30 241 27 240 25 239 22 237 20 236 17 234 15 233 13 231 11 229 9 226 7 224 6 222 5 219 3 217 2 214 1 211 1 208 0 206 0 203 0 200 0 197 0 194 0 191 1 189 1 186 2 183 3 180 5 178 6 175 7 173 9 171 11 168 13 166 15 164 17 163 20 161 22 160 25 158 27 157 30 156 33 155 35 154 38 154 41 154 44 154 47 154 49 154 52 154 55 155 58 156 61 156 63 158 66 159 68 160 71 162 73 164 75 165 77 167 79 170 81 172 82 174 84 177 85 179 86 182 87 184 88 187 89 190 89 193 89 196 89 198" stroke = "black" fill="red"></polygon>
<polygon points=" 179 201 179 204 179 207 178 210 177 213 176 215 175 218 174 220 172 223 171 225 169 227 167 230 165 232 163 233 161 235 158 237 156 238 153 239 151 241 148 241 145 242 142 243 139 243 137 243 134 243 131 243 128 243 125 243 123 242 120 241 117 240 115 239 112 237 110 236 107 234 105 233 103 231 101 229 99 226 97 224 96 222 95 219 93 217 92 214 91 211 91 208 90 206 90 203 90 200 90 197 90 194 90 191 91 189 91 186 92 183 93 180 95 178 96 175 97 173 99 171 101 168 103 166 105 164 107 163 110 161 112 160 115 158 117 157 120 156 123 155 125 154 128 154 131 154 134 154 137 154 139 154 142 154 145 155 148 156 151 156 153 158 156 159 158 160 161 162 163 164 165 165 167 167 169 170 171 172 172 174 174 177 175 179 176 182 177 184 178 187 179 190 179 193 179 196 179 198" stroke = "black" fill="red"></polygon>
<polygon points=" 269 201 269 204 269 207 268 210 267 213 266 215 265 218 264 220 262 223 261 225 259 227 257 230 255 232 253 233 251 235 248 237 246 238 243 239 241 241 238 241 235 242 232 243 229 243 227 243 224 243 221 243 218 243 215 243 213 242 210 241 207 240 205 239 202 237 200 236 197 234 195 233 193 231 191 229 189 226 187 224 186 222 185 219 183 217 182 214 181 211 181 208 180 206 180 203 180 200 180 197 180 194 180 191 181 189 181 186 182 183 183 180 185 178 186 175 187 173 189 171 191 168 193 166 195 164 197 163 200 161 202 160 205 158 207 157 210 156 213 155 215 154 218 154 221 154 224 154 227 154 229 154 232 154 235 155 238 156 241 156 243 158 246 159 248 160 251 162 253 164 255 165 257 167 259 170 261 172 262 174 264 177 265 179 266 182 267 184 268 187 269 190 269 193 269 196 269 198" stroke = "black" fill="red"></polygon>
<polygon points=" 359 201 359 204 359 207 358 210 357 213 356 215 355 218 354 220 352 223 351 225 349 227 347 230 345 232 343 233 341 235 338 237 336 238 333 239 331 241 328 241 325 242 322 243 319 243 317 243 314 243 311 243 308 243 305 243 303 242 300 241 297 240 295 239 292 237 290 236 287 234 285 233 283 231 281 229 279 226 277 224 276 222 275 219 273 217 272 214 271 211 271 208 270 206 270 203 270 200 270 197 270 194 270 191 271 189 271 186 272 183 273 180 275 178 276 175 277 173 279 171 281 168 283 166 285 164 287 163 290 161 292 160 295 158 297 157 300 156 303 155 305 154 308 154 311 154 314 154 317 154 319 154 322 154 325 155 328 156 331 156 333 158 336 159 338 160 341 162 343 164 345 165 347 167 349 170 351 172 352 174 354 177 355 179 356 182 357 184 358 187 359 190 359 193 359 196 359 198" stroke = "black" fill="red"></polygon>
<polygon points=" 449 201 449 204 449 207 448 210 447 213 446 215 445 218 444 220 442 223 441 225 439 227 437 230 435 232 433 233 431 235 428 237 426 238 423 239 421 241 418 241 415 242 412 243 409 243 407 243 404 243 401 243 398 243 395 243 393 242 390 241 387 240 385 239 382 237 380 236 377 234 375 233 373 231 371 229 369 226 367 224 366 222 365 219 363 217 362 214 361 211 361 208 360 206 360 203 360 200 360 197 360 194 360 191 361 189 361 186 362 183 363 180 365 178 366 175 367 173 369 171 371 168 373 166 375 164 377 163 380 161 382 160 385 158 387 157 390 156 393 155 395 154 398 154 401 154 404 154 407 154 409 154 412 154 415 155 418 156 421 156 423 158 426 159 428 160 431 162 433 164 435 165 437 167 439 170 441 172 442 174 444 177 445 179 446 182 447 184 448 187 449 190 449 193 449 196 449 198" stroke = "black" fill="red"></polygon>
<polygon points=" 539 201 539 204 539 207 538 210 537 213 536 215 535 218 534 220 532 223 531 225 529 227 527 230 525 232 523 233 521 235 518 237 516 238 513 239 511 241 508 241 505 242 502 243 499 243 497 243 494 243 491 243 488 243 485 243 483 242 480 241 477 240 475 239 472 237 470 236 467 234 465 233 463 231 461 229 459 226 457 224 456 222 455 219 453 217 452 214 451 211 451 208 450 206 450 203 450 200 450 197 450 194 450 191 451 189 451 186 452 183 453 180 455 178 456 175 457 173 459 171 461 168 463 166 465 164 467 163 470 161 472 160 475 158 477 157 480 156 483 155 485 154 488 154 491 154 494 154 497 154 499 154 502 154 505 155 508 156 511 156 513 158 516 159 518 160 521 162 523 164 525 165 527 167 529 170 531 172 532 174 534 177 535 179 536 182 537 184 538 187 539 190 539 193 539 196 539 198" stroke = "black" fill="red"></polygon>
<polygon points=" 629 201 629 204 629 207 628 210 627 213 626 215 625 218 624 220 622 223 621 225 619 227 617 230 615 232 613 233 611 235 608 237 606 238 603 239 601 241 598 241 595 242 592 243 589 243 587 243 584 243 581 243 578 243 575 243 573 242 570 241 567 240 565 239 562 237 560 236 557 234 555 233 553 231 551 229 549 226 547 224 546 222 545 219 543 217 542 214 541 211 541 208 540 206 540 203 540 200 540 197 540 194 540 191 541 189 541 186 542 183 543 180 545 178 546 175 547 173 549 171 551 168 553 166 555 164 557 163 560 161 562 160 565 158 567 157 570 156 573 155 575 154 578 154 581 154 584 154 587 154 589 154 592 154 595 155 598 156 601 156 603 158 606 159 608 160 611 162 613 164 615 165 617 167 619 170 621 172 622 174 624 177 625 179 626 182 627 184 628 187 629 190 629 193 629 196 629 198" stroke = "black" fill="red"></polygon>
<polygon points=" 719 201 719 204 719 207 718 210 717 213 716 215 715 218 714 220 712 223 711 225 709 227 707 230 705 232 703 233 701 235 698 237 696 238 693 239 691 241 688 241 685 242 682 243 679 243 677 243 674 243 671 243 668 243 665 243 663 242 660 241 657 240 655 239 652 237 650 236 647 234 645 233 643 231 641 229 639 226 637 224 636 222 635 219 633 217 632 214 631 211 631 208 630 206 630 203 630 200 630 197 630 194 630 191 631 189 631 186 632 183 633 180 635 178 636 175 637 173 639 171 641 168 643 166 645 164 647 163 650 161 652 160 655 158 657 157 660 156 663 155 665 154 668 154 671 154 674 154 677 154 679 154 682 154 685 155 688 156 691 156 693 158 696 159 698 160 701 162 703 164 705 165 707 167 709 170 711 172 712 174 714 177 715 179 716 182 717 184 718 187 719 190 719 193 719 196 719 198" stroke = "black" fill="red"></polygon>
<polygon points=" 134 278 134 281 134 284 133 287 132 290 131 292 130 295 129 297 127 300 126 302 124 304 122 307 120 309 118 310 116 312 113 314 111 315 108 316 106 318 103 318 100 319 97 320 94 320 92 320 89 320 86 320 83 320 80 320 78 319 75 318 72 317 70 316 67 314 65 313 62 311 60 310 58 308 56 306 54 303 52 301 51 299 50 296 48 294 47 291 46 288 46 285 45 283 45 280 45 277 45 274 45 271 45 268 46 266 46 263 47 260 48 257 50 255 51 252 52 250 54 248 56 245 58 243 60 241 62 240 65 238 67 237 70 235 72 234 75 233 78 232 80 231 83 231 86 231 89 231 92 231 94 231 97 231 100 232 103 233 106 233 108 235 111 236 113 237 116 239 118 241 120 242 122 244 124 247 126 249 127 251 129 254 130 256 131 259 132 261 133 264 134 267 134 270 134 273 134 275" stroke = "black" fill="red"></polygon>
<polygon points=" 224 278 224 281 224 284 223 287 222 290 221 292 220 295 219 297 217 300 216 302 214 304 212 307 210 309 208 310 206 312 203 314 201 315 198 316 196 318 193 318 190 319 187 320 184 320 182 320 179 320 176 320 173 320 170 320 168 319 165 318 162 317 160 316 157 314 155 313 152 311 150 310 148 308 146 306 144 303 142 301 141 299 140 296 138 294 137 291 136 288 136 285 135 283 135 280 135 277 135 274 135 271 135 268 136 266 136 263 137 260 138 257 140 255 141 252 142 250 144 248 146 245 148 243 150 241 152 240 155 238 157 237 160 235 162 234 165 233 168 232 170 231 173 231 176 231 179 231 182 231 184 231 187 231 190 232 193 233 196 233 198 235 201 236 203 237 206 239 208 241 210 242 212 244 214 247 216 249 217 251 219 254 220 256 221 259 222 261 223 264 224 267 224 270 224 273 224 275" stroke = "black" fill="red"></polygon>
<polygon points=" 314 278 314 281 314 284 313 287 312 290 311 292 310 295 309 297 307 300 306 302 304 304 302 307 300 309 298 310 296 312 293 314 291 315 288 316 286 318 283 318 280 319 277 320 274 320 272 320 269 320 266 320 263 320 260 320 258 319 255 318 252 317 250 316 247 314 245 313 242 311 240 310 238 308 236 306 234 303 232 301 231 299 230 296 228 294 227 291 226 288 226 285 225 283 225 280 225 277 225 274 225 271 225 268 226 266 226 263 227 260 228 257 230 255 231 252 232 250 234 248 236 245 238 243 240 241 242 240 245 238 247 237 250 235 252 234 255 233 258 232 260 231 263 231 266 231 269 231 272 231 274 231 277 231 280 232 283 233 286 233 288 235 291 236 293 237 296 239 298 241 300 242 302 244 304 247 306 249 307 251 309 254 310 256 311 259 312 261 313 264 314 267 314 270 314 273 314 275" stroke = "black" fill="red"></polygon>
<polygon points=" 404 278 404 281 404 284 403 287 402 290 401 292 400 295 399 297 397 300 396 302 394 304 392 307 390 309 388 310 386 312 383 314 381 315 378 316 376 318 373 318 370 319 367 320 364 320 362 320 359 320 356 320 353 320 350 320 348 319 345 318 342 317 340 316 337 314 335 313 332 311 330 310 328 308 326 306 324 303 322 301 321 299 320 296 318 294 317 291 316 288 316 285 315 283 315 280 315 277 315 274 315 271 315 268 316 266 316 263 317 260 318 257 320 255 321 252 322 250 324 248 326 245 328 243 330 241 332 240 335 238 337 237 340 235 342 234 345 233 348 232 350 231 353 231 356 231 359 231 362 231 364 231 367 231 370 232 373 233 376 233 378 235 381 236 383 237 386 239 388 241 390 242 392 244 394 247 396 249 397 251 399 254 400 256 401 259 402 261 403 264 404 267 404 270 404 273 404 275" stroke = "black" fill="red"></polygon>
<polygon points=" 494 278 494 281 494 284 493 287 492 290 491 292 490 295 489 297 487 300 486 302 484 304 482 307 480 309 478 310 476 312 473 314 471 315 468 316 466 318 463 318 460 319 457 320 454 320 452 320 449 320 446 320 443 320 440 320 438 319 435 318 432 317 430 316 427 314 425 313 422 311 420 310 418 308 416 306 414 303 412 301 411 299 410 296 408 294 407 291 406 288 406 285 405 283 405 280 405 277 405 274 405 271 405 268 406 266 406 263 407 260 408 257 410 255 411 252 412 250 414 248 416 245 418 243 420 241 422 240 425 238 427 237 430 235 432 234 435 233 438 232 440 231 443 231 446 231 449 231 452 231 454 231 457 231 460 232 463 233 466 233 468 235 471 236 473 237 476 239 478 241 480 242 482 244 484 247 486 249 487 251 489 254 490 256 491 259 492 261 493 264 494 267 494 270 494 273 494 275" stroke = "black" fill="red"></polygon>
<polygon points=" 584 278 584 281 584 284 583 287 582 290 581 292 580 295 579 297 577 300 576 302 574 304 572 307 570 309 568 310 566 312 563 314 561 315 558 316 556 318 553 318 550 319 547 320 544 320 542 320 539 320 536 320 533 320 530 320 528 319 525 318 522 317 520 316 517 314 515 313 512 311 510 310 508 308 506 306 504 303 502 301 501 299 500 296 498 294 497 291 496 288 496 285 495 283 495 280 495 277 495 274 495 271 495 268 496 266 496 263 497 260 498 257 500 255 501 252 502 250 504 248 506 245 508 243 510 241 512 240 515 238 517 237 520 235 522 234 525 233 528 232 530 231 533 231 536 231 539 231 542 231 544 231 547 231 550 232 553 233 556 233 558 235 561 236 563 237 566 239 568 241 570 242 572 244 574 247 576 249 577 251 579 254 580 256 581 259 582 261 583 264 584 267 584 270 584 273 584 275" stroke = "black" fill="red"></polygon>
<polygon points=" 674 278 674 281 674 284 673 287 672 290 671 292 670 295 669 297 667 300 666 302 664 304 662 307 660 309 658 310 656 312 653 314 651 315 648 316 646 318 643 318 640 319 637 320 634 320 632 320 629 320 626 320 623 320 620 320 618 319 615 318 612 317 610 316 607 314 605 313 602 311 600 310 598 308 596 306 594 303 592 301 591 299 590 296 588 294 587 291 586 288 586 285 585 283 585 280 585 277 585 274 585 271 585 268 586 266 586 263 587 260 588 257 590 255 591 252 592 250 594 248 596 245 598 243 600 241 602 240 605 238 607 237 610 235 612 234 615 233 618 232 620 231 623 231 626 231 629 231 632 231 634 231 637 231 640 232 643 233 646 233 648 235 651 236 653 237 656 239 658 241 660 242 662 244 664 247 666 249 667 251 669 254 670 256 671 259 672 261 673 264 674 267 674 270 674 273 674 275" stroke = "black" fill="red"></polygon>
<polygon points=" 89 355 89 358 89 361 88 364 87 367 86 369 85 372 84 374 82 377 81 379 79 381 77 384 75 386 73 387 71 389 68 391 66 392 63 393 61 395 58 395 55 396 52 397 49 397 47 397 44 397 41 397 38 397 35 397 33 396 30 395 27 394 25 393 22 391 20 390 17 388 15 387 13 385 11 383 9 380 7 378 6 376 5 373 3 371 2 368 1 365 1 362 0 360 0 357 0 354 0 351 0 348 0 345 1 343 1 340 2 337 3 334 5 332 6 329 7 327 9 325 11 322 13 320 15 318 17 317 20 315 22 314 25 312 27 311 30 310 33 309 35 308 38 308 41 308 44 308 47 308 49 308 52 308 55 309 58 310 61 310 63 312 66 313 68 314 71 316 73 318 75 319 77 321 79 324 81 326 82 328 84 331 85 333 86 336 87 338 88 341 89 344 89 347 89 350 89 352" stroke = "black" fill="red"></polygon>
<polygon points=" 179 355 179 358 179 361 178 364 177 367 176 369 175 372 174 374 172 377 171 379 169 381 167 384 165 386 163 387 161 389 158 391 156 392 153 393 151 395 148 395 145 396 142 397 139 397 137 397 134 397 131 397 128 397 125 397 123 396 120 395 117 394 115 393 112 391 110 390 107 388 105 387 103 385 101 383 99 380 97 378 96 376 95 373 93 371 92 368 91 365 91 362 90 360 90 357 90 354 90 351 90 348 90 345 91 343 91 340 92 337 93 334 95 332 96 329 97 327 99 325 101 322 103 320 105 318 107 317 110 315 112 314 115 312 117 311 120 310 123 309 125 308 128 308 131 308 134 308 137 308 139 308 142 308 145 309 148 310 151 310 153 312 156 313 158 314 161 316 163 318 165 319 167 321 169 324 171 326 172 328 174 331 175 333 176 336 177 338 178 341 179 344 179 347 179 350 179 352" stroke = "black" fill="red"></polygon>
<polygon points=" 269 355 269 358 269 361 268 364 267 367 266 369 265 372 264 374 262 377 261 379 259 381 257 384 255 386 253 387 251 389 248 391 246 392 243 393 241 395 238 395 235 396 232 397 229 397 227 397 224 397 221 397 218 397 215 397 213 396 210 395 207 394 205 393 202 391 200 390 197 388 195 387 193 385 191 383 189 380 187 378 186 376 185 373 183 371 182 368 181 365 181 362 180 360 180 357 180 354 180 351 180 348 180 345 181 343 181 340 182 337 183 334 185 332 186 329 187 327 189 325 191 322 193 320 195 318 197 317 200 315 202 314 205 312 207 311 210 310 213 309 215 308 218 308 221 308 224 308 227 308 229 308 232 308 235 309 238 310 241 310 243 312 246 313 248 314 251 316 253 318 255 319 257 321 259 324 261 326 262 328 264 331 265 333 266 336 267 338 268 341 269 344 269 347 269 350 269 352" stroke = "black" fill="red"></polygon>
<polygon points=" 359 355 359 358 359 361 358 364 357 367 356 369 355 372 354 374 352 377 351 379 349 381 347 384 345 386 343 387 341 389 338 391 336 392 333 393 331 395 328 395 325 396 322 397 319 397 317 397 314 397 311 397 308 397 305 397 303 396 300 395 297 394 295 393 292 391 290 390 287 388 285 387 283 385 281 383 279 380 277 378 276 376 275 373 273 371 272 368 271 365 271 362 270 360 270 357 270 354 270 351 270 348 270 345 271 343 271 340 272 337 273 334 275 332 276 329 277 327 279 325 281 322 283 320 285 318 287 317 290 315 292 314 295 312 297 311 300 310 303 309 305 308 308 308 311 308 314 308 317 308 319 308 322 308 325 309 328 310 331 310 333 312 336 313 338 314 341 316 343 318 345 319 347 321 349 324 351 326 352 328 354 331 355 333 356 336 357 338 358 341 359 344 359 347 359 350 359 352" stroke = "black" fill="red"></polygon>
<polygon points=" 449 355 449 358 449 361 448 364 447 367 446 369 445 372 444 374 442 377 441 379 439 381 437 384 435 386 433 387 431 389 428 391 426 392 423 393 421 395 418 395 415 396 412 397 409 397 407 397 404 397 401 397 398 397 395 397 393 396 390 395 387 394 385 393 382 391 380 390 377 388 375 387 373 385 371 383 369 380 367 378 366 376 365 373 363 371 362 368 361 365 361 362 360 360 360 357 360 354 360 351 360 348 360 345 361 343 361 340 362 337 363 334 365 332 366 329 367 327 369 325 371 322 373 320 375 318 377 317 380 315 382 314 385 312 387 311 390 310 393 309 395 308 398 308 401 308 404 308 407 308 409 308 412 308 415 309 418 310 421 310 423 312 426 313 428 314 431 316 433 318 435 319 437 321 439 324 441 326 442 328 444 331 445 333 446 336 447 338 448 341 449 344 449 347 449 350 449 352" stroke = "black" fill="red"></polygon>
<polygon points=" 539 355 539 358 539 361 538 364 537 367 536 369 535 372 534 374 532 377 531 379 529 381 527 384 525 386 523 387 521 389 518 391 516 392 513 393 511 395 508 395 505 396 502 397 499 397 497 397 494 397 491 397 488 397 485 397 483 396 480 395 477 394 475 393 472 391 470 390 467 388 465 387 463 385 461 383 459 380 457 378 456 376 455 373 453 371 452 368 451 365 451 362 450 360 450 357 450 354 450 351 450 348 450 345 451 343 451 340 452 337 453 334 455 332 456 329 457 327 459 325 461 322 463 320 465 318 467 317 470 315 472 314 475 312 477 311 480 310 483 309 485 308 488 308 491 308 494 308 497 308 499 308 502 308 505 309 508 310 511 310 513 312 516 313 518 314 521 316 523 318 525 319 527 321 529 324 531 326 532 328 534 331 535 333 536 336 537 338 538 341 539 344 539 347 539 350 539 352" stroke = "black" fill="red"></polygon>
<polygon points=" 629 355 629 358 629 361 628 364 627 367 626 369 625 372 624 374 622 377 621 379 619 381 617 384 615 386 613 387 611 389 608 391 606 392 603 393 601 395 598 395 595 396 592 397 589 397 587 397 584 397 581 397 578 397 575 397 573 396 570 395 567 394 565 393 562 391 560 390 557 388 555 387 553 385 551 383 549 380 547 378 546 376 545 373 543 371 542 368 541 365 541 362 540 360 540 357 540 354 540 351 540 348 540 345 541 343 541 340 542 337 543 334 545 332 546 329 547 327 549 325 551 322 553 320 555 318 557 317 560 315 562 314 565 312 567 311 570 310 573 309 575 308 578 308 581 308 584 308 587 308 589 308 592 308 595 309 598 310 601 310 603 312 606 313 608 314 611 316 613 318 615 319 617 321 619 324 621 326 622 328 624 331 625 333 626 336 627 338 628 341 629 344 629 347 629 350 629 352" stroke = "black" fill="red"></polygon>
<polygon points=" 719 355 719 358 719 361 718 364 717 367 716 369 715 372 714 374 712 377 711 379 709 381 707 384 705 386 703 387 701 389 698 391 696 392 693 393 691 395 688 395 685 396 682 397 679 397 677 397 674 397 671 397 668 397 665 397 663 396 660 395 657 394 655 393 652 391 650 390 647 388 645 387 643 385 641 383 639 380 637 378 636 376 635 373 633 371 632 368 631 365 631 362 630 360 630 357 630 354 630 351 630 348 630 345 631 343 631 340 632 337 633 334 635 332 636 329 637 327 639 325 641 322 643 320 645 318 647 317 650 315 652 314 655 312 657 311 660 310 663 309 665 308 668 308 671 308 674 308 677 308 679 308 682 308 685 309 688 310 691 310 693 312 696 313 698 314 701 316 703 318 705 319 707 321 709 324 711 326 712 328 714 331 715 333 716 336 717 338 718 341 719 344 719 347 719 350 719 352" stroke = "black" fill="red"></polygon>
<polygon points=" 134 432 134 435 134 438 133 441 132 444 131 446 130 449 129 451 127 454 126 456 124 458 122 461 120 463 118 464 116 466 113 468 111 469 108 470 106 472 103 472 100 473 97 474 94 474 92 474 89 474 86 474 83 474 80 474 78 473 75 472 72 471 70 470 67 468 65 467 62 465 60 464 58 462 56 460 54 457 52 455 51 453 50 450 48 448 47 445 46 442 46 439 45 437 45 434 45 431 45 428 45 425 45 422 46 420 46 417 47 414 48 411 50 409 51 406 52 404 54 402 56 399 58 397 60 395 62 394 65 392 67 391 70 389 72 388 75 387 78 386 80 385 83 385 86 385 89 385 92 385 94 385 97 385 100 386 103 387 106 387 108 389 111 390 113 391 116 393 118 395 120 396 122 398 124 401 126 403 127 405 129 408 130 410 131 413 132 415 133 418 134 421 134 424 134 427 134 429" stroke = "black" fill="red"></polygon>
<polygon points=" 224 432 224 435 224 438 223 441 222 444 221 446 220 449 219 451 217 454 216 456 214 458 212 461 210 463 208 464 206 466 203 468 201 469 198 470 196 472 193 472 190 473 187 474 184 474 182 474 179 474 176 474 173 474 170 474 168 473 165 472 162 471 160 470 157 468 155 467 152 465 150 464 148 462 146 460 144 457 142 455 141 453 140 450 138 448 137 445 136 442 136 439 135 437 135 434 135 431 135 428 135 425 135 422 136 420 136 417 137 414 138 411 140 409 141 406 142 404 144 402 146 399 148 397 150 395 152 394 155 392 157 391 160 389 162 388 165 387 168 386 170 385 173 385 176 385 179 385 182 385 184 385 187 385 190 386 193 387 196 387 198 389 201 390 203 391 206 393 208 395 210 396 212 398 214 401 216 403 217 405 219 408 220 410 221 413 222 415 223 418 224 421 224 424 224 427 224 429" stroke = "black" fill="red"></polygon>
<polygon points=" 314 432 314 435 314 438 313 441 312 444 311 446 310 449 309 451 307 454 306 456 304 458 302 461 300 463 298 464 296 466 293 468 291 469 288 470 286 472 283 472 280 473 277 474 274 474 272 474 269 474 266 474 263 474 260 474 258 473 255 472 252 471 250 470 247 468 245 467 242 465 240 464 238 462 236 460 234 457 232 455 231 453 230 450 228 448 227 445 226 442 226 439 225 437 225 434 225 431 225 428 225 425 225 422 226 420 226 417 227 414 228 411 230 409 231 406 232 404 234 402 236 399 238 397 240 395 242 394 245 392 247 391 250 389 252 388 255 387 258 386 260 385 263 385 266 385 269 385 272 385 274 385 277 385 280 386 283 387 286 387 288 389 291 390 293 391 296 393 298 395 300 396 302 398 304 401 306 403 307 405 309 408 310 410 311 413 312 415 313 418 314 421 314 424 314 427 314 429" stroke = "black" fill="red"></polygon>
<polygon points=" 404 432 404 435 404 438 403 441 402 444 401 446 400 449 399 451 397 454 396 456 394 458 392 461 390 463 388 464 386 466 383 468 381 469 378 470 376 472 373 472 370 473 367 474 364 474 362 474 359 474 356 474 353 474 350 474 348 473 345 472 342 471 340 470 337 468 335 467 332 465 330 464 328 462 326 460 324 457 322 455 321 453 320 450 318 448 317 445 316 442 316 439 315 437 315 434 315 431 315 428 315 425 315 422 316 420 316 417 317 414 318 411 320 409 321 406 322 404 324 402 326 399 328 397 330 395 332 394 335 392 337 391 340 389 342 388 345 387 348 386 350 385 353 385 356 385 359 385 362 385 364 385 367 385 370 386 373 387 376 387 378 389 381 390 383 391 386 393 388 395 390 396 392 398 394 401 396 403 397 405 399 408 400 410 401 413 402 415 403 418 404 421 404 424 404 427 404 429" stroke = "black" fill="red"></polygon>
<polygon points=" 494 432 494 435 494 438 493 441 492 444 491 446 490 449 489 451 487 454 486 456 484 458 482 461 480 463 478 464 476 466 473 468 471 469 468 470 466 472 463 472 460 473 457 474 454 474 452 474 449 474 446 474 443 474 440 474 438 473 435 472 432 471 430 470 427 468 425 467 422 465 420 464 418 462 416 460 414 457 412 455 411 453 410 450 408 448 407 445 406 442 406 439 405 437 405 434 405 431 405 428 405 425 405 422 406 420 406 417 407 414 408 411 410 409 411 406 412 404 414 402 416 399 418 397 420 395 422 394 425 392 427 391 430 389 432 388 435 387 438 386 440 385 443 385 446 385 449 385 452 385 454 385 457 385 460 386 463 387 466 387 468 389 471 390 473 391 476 393 478 395 480 396 482 398 484 401 486 403 487 405 489 408 490 410 491 413 492 415 493 418 494 421 494 424 494 427 494 429" stroke = "black" fill="red"></polygon>
<polygon points=" 584 432 584 435 584 438 583 441 582 444 581 446 580 449 579 451 577 454 576 456 574 458 572 461 570 463 568 464 566 466 563 468 561 469 558 470 556 472 553 472 550 473 547 474 544 474 542 474 539 474 536 474 533 474 530 474 528 473 525 472 522 471 520 470 517 468 515 467 512 465 510 464 508 462 506 460 504 457 502 455 501 453 500 450 498 448 497 445 496 442 496 439 495 437 495 434 495 431 495 428 495 425 495 422 496 420 496 417 497 414 498 411 500 409 501 406 502 404 504 402 506 399 508 397 510 395 512 394 515 392 517 391 520 389 522 388 525 387 528 386 530 385 533 385 536 385 539 385 542 385 544 385 547 385 550 386 553 387 556 387 558 389 561 390 563 391 566 393 568 395 570 396 572 398 574 401 576 403 577 405 579 408 580 410 581 413 582 415 583 418 584 421 584 424 584 427 584 429" stroke = "black" fill="red"></polygon>
<polygon points=" 674 432 674 435 674 438 673 441 672 444 671 446 670 449 669 451 667 454 666 456 664 458 662 461 660 463 658 464 656 466 653 468 651 469 648 470 646 472 643 472 640 473 637 474 634 474 632 474 629 474 626 474 623 474 620 474 618 473 615 472 612 471 610 470 607 468 605 467 602 465 600 464 598 462 596 460 594 457 592 455 591 453 590 450 588 448 587 445 586 442 586 439 585 437 585 434 585 431 585 428 585 425 585 422 586 420 586 417 587 414 588 411 590 409 591 406 592 404 594 402 596 399 598 397 600 395 602 394 605 392 607 391 610 389 612 388 615 387 618 386 620 385 623 385 626 385 629 385 632 385 634 385 637 385 640 386 643 387 646 387 648 389 651 390 653 391 656 393 658 395 660 396 662 398 664 401 666 403 667 405 669 408 670 410 671 413 672 415 673 418 674 421 674 424 674 427 674 429" stroke = "black" fill="red"></polygon>
<polygon points=" 89 509 89 512 89 515 88 518 87 521 86 523 85 526 84 528 82 531 81 533 79 535 77 538 75 540 73 541 71 543 68 545 66 546 63 547 61 549 58 549 55 550 52 551 49 551 47 551 44 551 41 551 38 551 35 551 33 550 30 549 27 548 25 547 22 545 20 544 17 542 15 541 13 539 11 537 9 534 7 532 6 530 5 527 3 525 2 522 1 519 1 516 0 514 0 511 0 508 0 505 0 502 0 499 1 497 1 494 2 491 3 488 5 486 6 483 7 481 9 479 11 476 13 474 15 472 17 471 20 469 22 468 25 466 27 465 30 464 33 463 35 462 38 462 41 462 44 462 47 462 49 462 52 462 55 463 58 464 61 464 63 466 66 467 68 468 71 470 73 472 75 473 77 475 79 478 81 480 82 482 84 485 85 487 86 490 87 492 88 495 89 498 89 501 89 504 89 506" stroke = "black" fill="red"></polygon>
<polygon points=" 179 509 179 512 179 515 178 518 177 521 176 523 175 526 174 528 172 531 171 533 169 535 167 538 165 540 163 541 161 543 158 545 156 546 153 547 151 549 148 549 145 550 142 551 139 551 137 551 134 551 131 551 128 551 125 551 123 550 120 549 117 548 115 547 112 545 110 544 107 542 105 541 103 539 101 537 99 534 97 532 96 530 95 527 93 525 92 522 91 519 91 516 90 514 90 511 90 508 90 505 90 502 90 499 91 497 91 494 92 491 93 488 95 486 96 483 97 481 99 479 101 476 103 474 105 472 107 471 110 469 112 468 115 466 117 465 120 464 123 463 125 462 128 462 131 462 134 462 137 462 139 462 142 462 145 463 148 464 151 464 153 466 156 467 158 468 161 470 163 472 165 473 167 475 169 478 171 480 172 482 174 485 175 487 176 490 177 492 178 495 179 498 179 501 179 504 179 506" stroke = "black" fill="red"></polygon>
<polygon points=" 269 509 269 512 269 515 268 518 267 521 266 523 265 526 264 528 262 531 261 533 259 535 257 538 255 540 253 541 251 543 248 545 246 546 243 547 241 549 238 549 235 550 232 551 229 551 227 551 224 551 221 551 218 551 215 551 213 550 210 549 207 548 205 547 202 545 200 544 197 542 195 541 193 539 191 537 189 534 187 532 186 530 185 527 183 525 182 522 181 519 181 516 180 514 180 511 180 508 180 505 180 502 180 499 181 497 181 494 182 491 183 488 185 486 186 483 187 481 189 479 191 476 193 474 195 472 197 471 200 469 202 468 205 466 207 465 210 464 213 463 215 462 218 462 221 462 224 462 227 462 229 462 232 462 235 463 238 464 241 464 243 466 246 467 248 468 251 470 253 472 255 473 257 475 259 478 261 480 262 482 264 485 265 487 266 490 267 492 268 495 269 498 269 501 269 504 269 506" stroke = "black" fill="red"></polygon>
<polygon points=" 359 509 359 512 359 515 358 518 357 521 356 523 355 526 354 528 352 531 351 533 349 535 347 538 345 540 343 541 341 543 338 545 336 546 333 547 331 549 328 549 325 550 322 551 319 551 317 551 314 551 311 551 308 551 305 551 303 550 300 549 297 548 295 547 292 545 290 544 287 542 285 541 283 539 281 537 279 534 277 532 276 530 275 527 273 525 272 522 271 519 271 516 270 514 270 511 270 508 270 505 270 502 270 499 271 497 271 494 272 491 273 488 275 486 276 483 277 481 279 479 281 476 283 474 285 472 287 471 290 469 292 468 295 466 297 465 300 464 303 463 305 462 308 462 311 462 314 462 317 462 319 462 322 462 325 463 328 464 331 464 333 466 336 467 338 468 341 470 343 472 345 473 347 475 349 478 351 480 352 482 354 485 355 487 356 490 357 492 358 495 359 498 359 501 359 504 359 506" stroke = "black" fill="red"></polygon>
<polygon points=" 449 509 449 512 449 515 448 518 447 521 446 523 445 526 444 528 442 531 441 533 439 535 437 538 435 540 433 541 431 543 428 545 426 546 423 547 421 549 418 549 415 550 412 551 409 551 407 551 404 551 401 551 398 551 395 551 393 550 390 549 387 548 385 547 382 545 380 544 377 542 375 541 373 539 371 537 369 534 367 532 366 530 365 527 363 525 362 522 361 519 361 516 360 514 360 511 360 508 360 505 360 502 360 499 361 497 361 494 362 491 363 488 365 486 366 483 367 481 369 479 371 476 373 474 375 472 377 471 380 469 382 468 385 466 387 465 390 464 393 463 395 462 398 462 401 462 404 462 407 462 409 462 412 462 415 463 418 464 421 464 423 466 426 467 428 468 431 470 433 472 435 473 437 475 439 478 441 480 442 482 444 485 445 487 446 490 447 492 448 495 449 498 449 501 449 504 449 506" stroke = "black" fill="red"></polygon>
<polygon points=" 539 509 539 512 539 515 538 518 537 521 536 523 535 526 534 528 532 531 531 533 529 535 527 538 525 540 523 541 521 543 518 545 516 546 513 547 511 549 508 549 505 550 502 551 499 551 497 551 494 551 491 551 488 551 485 551 483 550 480 549 477 548 475 547 472 545 470 544 467 542 465 541 463 539 461 537 459 534 457 532 456 530 455 527 453 525 452 522 451 519 451 516 450 514 450 511 450 508 450 505 450 502 450 499 451 497 451 494 452 491 453 488 455 486 456 483 457 481 459 479 461 476 463 474 465 472 467 471 470 469 472 468 475 466 477 465 480 464 483 463 485 462 488 462 491 462 494 462 497 462 499 462 502 462 505 463 508 464 511 464 513 466 516 467 518 468 521 470 523 472 525 473 527 475 529 478 531 480 532 482 534 485 535 487 536 490 537 492 538 495 539 498 539 501 539 504 539 506" stroke = "black" fill="red"></polygon>
<polygon points=" 629 509 629 512 629 515 628 518 627 521 626 523 625 526 624 528 622 531 621 533 619 535 617 538 615 540 613 541 611 543 608 545 606 546 603 547 601 549 598 549 595 550 592 551 589 551 587 551 584 551 581 551 578 551 575 551 573 550 570 549 567 548 565 547 562 545 560 544 557 542 555 541 553 539 551 537 549 534 547 532 546 530 545 527 543 525 542 522 541 519 541 516 540 514 540 511 540 508 540 505 540 502 540 499 541 497 541 494 542 491 543 488 545 486 546 483 547 481 549 479 551 476 553 474 555 472 557 471 560 469 562 468 565 466 567 465 570 464 573 463 575 462 578 462 581 462 584 462 587 462 589 462 592 462 595 463 598 464 601 464 603 466 606 467 608 468 611 470 613 472 615 473 617 475 619 478 621 480 622 482 624 485 625 487 626 490 627 492 628 495 629 498 629 501 629 504 629 506" stroke = "black" fill="red"></polygon>
<polygon points=" 719 509 719 512 719 515 718 518 717 521 716 523 715 526 714 528 712 531 711 533 709 535 707 538 705 540 703 541 701 543 698 545 696 546 693 547 691 549 688 549 685 550 682 551 679 551 677 551 674 551 671 551 668 551 665 551 663 550 660 549 657 548 655 547 652 545 650 544 647 542 645 541 643 539 641 537 639 534 637 532 636 530 635 527 633 525 632 522 631 519 631 516 630 514 630 511 630 508 630 505 630 502 630 499 631 497 631 494 632 491 633 488 635 486 636 483 637 481 639 479 641 476 643 474 645 472 647 471 650 469 652 468 655 466 657 465 660 464 663 463 665 462 668 462 671 462 674 462 677 462 679 462 682 462 685 463 688 464 691 464 693 466 696 467 698 468 701 470 703 472 705 473 707 475 709 478 711 480 712 482 714 485 715 487 716 490 717 492 718 495 719 498 719 501 719 504 719 506" stroke = "black" fill="red"></polygon></svg>