<svg version="1.1" baseProfile="full" xmlns="http://www.w3.org/2000/svg">
<polygon points=" 425 0 0 736 850 736" stroke = "black" fill="red"></polygon>
<polygon points=" 127 691 127 694 127 697 126 700 125 703 124 706 123 709 122 711 120 714 118 716 117 719 115 721 112 723 110 725 108 727 105 728 103 730 100 731 97 732 94 733 92 734 89 735 86 735 83 735 80 735 77 735 74 735 71 735 68 734 65 733 62 732 60 731 57 729 54 728 52 726 50 724 48 722 45 720 44 718 42 715 40 713 39 710 37 707 36 705 35 702 35 699 34 696 34 693 34 690 34 687 34 684 34 681 35 678 35 675 36 672 37 670 39 667 40 664 42 662 44 659 45 657 48 655 50 653 52 651 54 649 57 648 60 646 62 645 65 644 68 643 71 642 74 642 77 642 80 642 83 642 86 642 89 642 92 643 94 644 97 645 100 646 103 647 105 649 108 650 110 652 112 654 115 656 116 658 118 661 120 663 122 666 123 668 124 671 125 674 126 677 127 680 127 683 127 686 127 688" stroke = "black" fill="red"></polygon>
<polygon points=" 221 691 221 694 221 697 220 700 219 703 218 706 217 709 216 711 214 714 212 716 211 719 209 721 206 723 204 725 202 727 199 728 197 730 194 731 191 732 188 733 186 734 183 735 180 735 177 735 174 735 171 735 168 735 165 735 162 734 159 733 156 732 154 731 151 729 148 728 146 726 144 724 142 722 139 720 138 718 136 715 134 713 133 710 131 707 130 705 129 702 129 699 128 696 128 693 128 690 128 687 128 684 128 681 129 678 129 675 130 672 131 670 133 667 134 664 136 662 138 659 139 657 142 655 144 653 146 651 148 649 151 648 154 646 156 645 159 644 162 643 165 642 168 642 171 642 174 642 177 642 180 642 183 642 186 643 188 644 191 645 194 646 197 647 199 649 202 650 204 652 206 654 209 656 210 658 212 661 214 663 216 666 217 668 218 671 219 674 220 677 221 680 221 683 221 686 221 688" stroke = "black" fill="red"></polygon>
<polygon points=" 315 691 315 694 315 697 314 700 313 703 312 706 311 709 310 711 308 714 306 716 305 719 303 721 300 723 298 725 296 727 293 728 291 730 288 731 285 732 282 733 280 734 277 735 274 735 271 735 268 735 265 735 262 735 259 735 256 734 253 733 250 732 248 731 245 729 242 728 240 726 238 724 236 722 233 720 232 718 230 715 228 713 227 710 225 707 224 705 223 702 223 699 222 696 222 693 222 690 222 687 222 684 222 681 223 678 223 675 224 672 225 670 227 667 228 664 230 662 232 659 233 657 236 655 238 653 240 651 242 649 245 648 248 646 250 645 253 644 256 643 259 642 262 642 265 642 268 642 271 642 274 642 277 642 280 643 282 644 285 645 288 646 291 647 293 649 296 650 298 652 300 654 303 656 304 658 306 661 308 663 310 666 311 668 312 671 313 674 314 677 315 680 315 683 315 686 315 688" stroke = "black" fill="red"></polygon>
<polygon points=" 409 691 409 694 409 697 408 700 407 703 406 706 405 709 404 711 402 714 400 716 399 719 397 721 394 723 392 725 390 727 387 728 385 730 382 731 379 732 376 733 374 734 371 735 368 735 365 735 362 735 359 735 356 735 353 735 350 734 347 733 344 732 342 731 339 729 336 728 334 726 332 724 330 722 327 720 326 718 324 715 322 713 321 710 319 707 318 705 317 702 317 699 316 696 316 693 316 690 316 687 316 684 316 681 317 678 317 675 318 672 319 670 321 667 322 664 324 662 326 659 327 657 330 655 332 653 334 651 336 649 339 648 342 646 344 645 347 644 350 643 353 642 356 642 359 642 362 642 365 642 368 642 371 642 374 643 376 644 379 645 382 646 385 647 387 649 390 650 392 652 394 654 397 656 398 658 400 661 402 663 404 666 405 668 406 671 407 674 408 677 409 680 409 683 409 686 409 688" stroke = "black" fill="red"></polygon>
<polygon points=" 503 691 503 694 503 697 502 700 501 703 500 706 499 709 498 711 496 714 494 716 493 719 491 721 488 723 486 725 484 727 481 728 479 730 476 731 473 732 470 733 468 734 465 735 462 735 459 735 456 735 453 735 450 735 447 735 444 734 441 733 438 732 436 731 433 729 430 728 428 726 426 724 424 722 421 720 420 718 418 715 416 713 415 710 413 707 412 705 411 702 411 699 410 696 410 693 410 690 410 687 410 684 410 681 411 678 411 675 412 672 413 670 415 667 416 664 418 662 420 659 421 657 424 655 426 653 428 651 430 649 433 648 436 646 438 645 441 644 444 643 447 642 450 642 453 642 456 642 459 642 462 642 465 642 468 643 470 644 473 645 476 646 479 647 481 649 484 650 486 652 488 654 491 656 492 658 494 661 496 663 498 666 499 668 500 671 501 674 502 677 503 680 503 683 503 686 503 688" stroke = "black" fill="red"></polygon>
<polygon points=" 597 691 597 694 597 697 596 700 595 703 594 706 593 709 592 711 590 714 588 716 587 719 585 721 582 723 580 725 578 727 575 728 573 730 570 731 567 732 564 733 562 734 559 735 556 735 553 735 550 735 547 735 544 735 541 735 538 734 535 733 532 732 530 731 527 729 524 728 522 726 520 724 518 722 515 720 514 718 512 715 510 713 509 710 507 707 506 705 505 702 505 699 504 696 504 693 504 690 504 687 504 684 504 681 505 678 505 675 506 672 507 670 509 667 510 664 512 662 514 659 515 657 518 655 520 653 522 651 524 649 527 648 530 646 532 645 535 644 538 643 541 642 544 642 547 642 550 642 553 642 556 642 559 642 562 643 564 644 567 645 570 646 573 647 575 649 578 650 580 652 582 654 585 656 586 658 588 661 590 663 592 666 593 668 594 671 595 674 596 677 597 680 597 683 597 686 597 688" stroke = "black" fill="red"></polygon>
<polygon points=" 691 691 691 694 691 697 690 700 689 703 688 706 687 709 686 711 684 714 682 716 681 719 679 721 676 723 674 725 672 727 669 728 667 730 664 731 661 732 658 733 656 734 653 735 650 735 647 735 644 735 641 735 638 735 635 735 632 734 629 733 626 732 624 731 621 729 618 728 616 726 614 724 612 722 609 720 608 718 606 715 604 713 603 710 601 707 600 705 599 702 599 699 598 696 598 693 598 690 598 687 598 684 598 681 599 678 599 675 600 672 601 670 603 667 604 664 606 662 608 659 609 657 612 655 614 653 616 651 618 649 621 648 624 646 626 645 629 644 632 643 635 642 638 642 641 642 644 642 647 642 650 642 653 642 656 643 658 644 661 645 664 646 667 647 669 649 672 650 674 652 676 654 679 656 680 658 682 661 684 663 686 666 687 668 688 671 689 674 690 677 691 680 691 683 691 686 691 688" stroke = "black" fill="red"></polygon>
<polygon points=" 785 691 785 694 785 697 784 700 783 703 782 706 781 709 780 711 778 714 776 716 775 719 773 721 770 723 768 725 766 727 763 728 761 730 758 731 755 732 752 733 750 734 747 735 744 735 741 735 738 735 735 735 732 735 729 735 726 734 723 733 720 732 718 731 715 729 712 728 710 726 708 724 706 722 703 720 702 718 700 715 698 713 697 710 695 707 694 705 693 702 693 699 692 696 692 693 692 690 692 687 692 684 692 681 693 678 693 675 694 672 695 670 697 667 698 664 700 662 702 659 703 657 706 655 708 653 710 651 712 649 715 648 718 646 720 645 723 644 726 643 729 642 732 642 735 642 738 642 741 642 744 642 747 642 750 643 752 644 755 645 758 646 761 647 763 649 766 650 768 652 770 654 773 656 774 658 776 661 778 663 780 666 781 668 782 671 783 674 784 677 785 680 785 683 785 686 785 688" stroke = "black" fill="red"></polygon>
<polygon points=" 127 691 127 694 127 697 126 700 125 703 124 706 123 709 122 711 120 714 118 716 117 719 115 721 112 723 110 725 108 727 105 728 103 730 100 731 97 732 94 733 92 734 89 735 86 735 83 735 80 735 77 735 74 735 71 735 68 734 65 733 62 732 60 731 57 729 54 728 52 726 50 724 48 722 45 720 44 718 42 715 40 713 39 710 37 707 36 705 35 702 35 699 34 696 34 693 34 690 34 687 34 684 34 681 35 678 35 675 36 672 37 670 39 667 40 664 42 662 44 659 45 657 48 655 50 653 52 651 54 649 57 648 60 646 62 645 65 644 68 643 71 642 74 642 77 642 80 642 83 642 86 642 89 642 92 643 94 644 97 645 100 646 103 647 105 649 108 650 110 652 112 654 115 656 116 658 118 661 120 663 122 666 123 668 124 671 125 674 126 677 127 680 127 683 127 686 127 688" stroke = "black" fill="red"></polygon>
<polygon points=" 221 691 221 694 221 697 220 700 219 703 218 706 217 709 216 711 214 714 212 716 211 719 209 721 206 723 204 725 202 727 199 728 197 730 194 731 191 732 188 733 186 734 183 735 180 735 177 735 174 735 171 735 168 735 165 735 162 734 159 733 156 732 154 731 151 729 148 728 146 726 144 724 142 722 139 720 138 718 136 715 134 713 133 710 131 707 130 705 129 702 129 699 128 696 128 693 128 690 128 687 128 684 128 681 129 678 129 675 130 672 131 670 133 667 134 664 136 662 138 659 139 657 142 655 144 653 146 651 148 649 151 648 154 646 156 645 159 644 162 643 165 642 168 642 171 642 174 642 177 642 180 642 183 642 186 643 188 644 191 645 194 646 197 647 199 649 202 650 204 652 206 654 209 656 210 658 212 661 214 663 216 666 217 668 218 671 219 674 220 677 221 680 221 683 221 686 221 688" stroke = "black" fill="red"></polygon>
<polygon points=" 315 691 315 694 315 697 314 700 313 703 312 706 311 709 310 711 308 714 306 716 305 719 303 721 300 723 298 725 296 727 293 728 291 730 288 731 285 732 282 733 280 734 277 735 274 735 271 735 268 735 265 735 262 735 259 735 256 734 253 733 250 732 248 731 245 729 242 728 240 726 238 724 236 722 233 720 232 718 230 715 228 713 227 710 225 707 224 705 223 702 223 699 222 696 222 693 222 690 222 687 222 684 222 681 223 678 223 675 224 672 225 670 227 667 228 664 230 662 232 659 233 657 236 655 238 653 240 651 242 649 245 648 248 646 250 645 253 644 256 643 259 642 262 642 265 642 268 642 271 642 274 642 277 642 280 643 282 644 285 645 288 646 291 647 293 649 296 650 298 652 300 654 303 656 304 658 306 661 308 663 310 666 311 668 312 671 313 674 314 677 315 680 315 683 315 686 315 688" stroke = "black" fill="red"></polygon>
<polygon points=" 409 691 409 694 409 697 408 700 407 703 406 706 405 709 404 711 402 714 400 716 399 719 397 721 394 723 392 725 390 727 387 728 385 730 382 731 379 732 376 733 374 734 371 735 368 735 365 735 362 735 359 735 356 735 353 735 350 734 347 733 344 732 342 731 339 729 336 728 334 726 332 724 330 722 327 720 326 718 324 715 322 713 321 710 319 707 318 705 317 702 317 699 316 696 316 693 316 690 316 687 316 684 316 681 317 678 317 675 318 672 319 670 321 667 322 664 324 662 326 659 327 657 330 655 332 653 334 651 336 649 339 648 342 646 344 645 347 644 350 643 353 642 356 642 359 642 362 642 365 642 368 642 371 642 374 643 376 644 379 645 382 646 385 647 387 649 390 650 392 652 394 654 397 656 398 658 400 661 402 663 404 666 405 668 406 671 407 674 408 677 409 680 409 683 409 686 409 688" stroke = "black" fill="red"></polygon>
<polygon points=" 503 691 503 694 503 697 502 700 501 703 500 706 499 709 498 711 496 714 494 716 493 719 491 721 488 723 486 725 484 727 481 728 479 730 476 731 473 732 470 733 468 734 465 735 462 735 459 735 456 735 453 735 450 735 447 735 444 734 441 733 438 732 436 731 433 729 430 728 428 726 426 724 424 722 421 720 420 718 418 715 416 713 415 710 413 707 412 705 411 702 411 699 410 696 410 693 410 690 410 687 410 684 410 681 411 678 411 675 412 672 413 670 415 667 416 664 418 662 420 659 421 657 424 655 426 653 428 651 430 649 433 648 436 646 438 645 441 644 444 643 447 642 450 642 453 642 456 642 459 642 462 642 465 642 468 643 470 644 473 645 476 646 479 647 481 649 484 650 486 652 488 654 491 656 492 658 494 661 496 663 498 666 499 668 500 671 501 674 502 677 503 680 503 683 503 686 503 688" stroke = "black" fill="red"></polygon>
<polygon points=" 597 691 597 694 597 697 596 700 595 703 594 706 593 709 592 711 590 714 588 716 587 719 585 721 582 723 580 725 578 727 575 728 573 730 570 731 567 732 564 733 562 734 559 735 556 735 553 735 550 735 547 735 544 735 541 735 538 734 535 733 532 732 530 731 527 729 524 728 522 726 520 724 518 722 515 720 514 718 512 715 510 713 509 710 507 707 506 705 505 702 505 699 504 696 504 693 504 690 504 687 504 684 504 681 505 678 505 675 506 672 507 670 509 667 510 664 512 662 514 659 515 657 518 655 520 653 522 651 524 649 527 648 530 646 532 645 535 644 538 643 541 642 544 642 547 642 550 642 553 642 556 642 559 642 562 643 564 644 567 645 570 646 573 647 575 649 578 650 580 652 582 654 585 656 586 658 588 661 590 663 592 666 593 668 594 671 595 674 596 677 597 680 597 683 597 686 597 688" stroke = "black" fill="red"></polygon>
<polygon points=" 691 691 691 694 691 697 690 700 689 703 688 706 687 709 686 711 684 714 682 716 681 719 679 721 676 723 674 725 672 727 669 728 667 730 664 731 661 732 658 733 656 734 653 735 650 735 647 735 644 735 641 735 638 735 635 735 632 734 629 733 626 732 624 731 621 729 618 728 616 726 614 724 612 722 609 720 608 718 606 715 604 713 603 710 601 707 600 705 599 702 599 699 598 696 598 693 598 690 598 687 598 684 598 681 599 678 599 675 600 672 601 670 603 667 604 664 606 662 608 659 609 657 612 655 614 653 616 651 618 649 621 648 624 646 626 645 629 644 632 643 635 642 638 642 641 642 644 642 647 642 650 642 653 642 656 643 658 644 661 645 664 646 667 647 669 649 672 650 674 652 676 654 679 656 680 658 682 661 684 663 686 666 687 668 688 671 689 674 690 677 691 680 691 683 691 686 691 688" stroke = "black" fill="red"></polygon>
<polygon points=" 785 691 785 694 785 697 784 700 783 703 782 706 781 709 780 711 778 714 776 716 775 719 773 721 770 723 768 725 766 727 763 728 761 730 758 731 755 732 752 733 750 734 747 735 744 735 741 735 738 735 735 735 732 735 729 735 726 734 723 733 720 732 718 731 715 729 712 728 710 726 708 724 706 722 703 720 702 718 700 715 698 713 697 710 695 707 694 705 693 702 693 699 692 696 692 693 692 690 692 687 692 684 692 681 693 678 693 675 694 672 695 670 697 667 698 664 700 662 702 659 703 657 706 655 708 653 710 651 712 649 715 648 718 646 720 645 723 644 726 643 729 642 732 642 735 642 738 642 741 642 744 642 747 642 750 643 752 644 755 645 758 646 761 647 763 649 766 650 768 652 770 654 773 656 774 658 776 661 778 663 780 666 781 668 782 671 783 674 784 677 785 680 785 683 785 686 785 688" stroke = "black" fill="red"></polygon>
<polygon points=" 174 609 174 612 174 615 173 618 172 621 171 624 170 627 169 629 167 632 165 634 164 637 162 639 159 641 157 643 155 645 152 646 150 648 147 649 144 650 141 651 139 652 136 653 133 653 130 653 127 653 124 653 121 653 118 653 115 652 112 651 109 650 107 649 104 647 101 646 99 644 97 642 95 640 92 638 91 636 89 633 87 631 86 628 84 625 83 623 82 620 82 617 81 614 81 611 81 608 81 605 81 602 81 599 82 596 82 593 83 590 84 588 86 585 87 582 89 580 91 577 92 575 95 573 97 571 99 569 101 567 104 566 107 564 109 563 112 562 115 561 118 560 121 560 124 560 127 560 130 560 133 560 136 560 139 561 141 562 144 563 147 564 150 565 152 567 155 568 157 570 159 572 162 574 163 576 165 579 167 581 169 584 170 586 171 589 172 592 173 595 174 598 174 601 174 604 174 606" stroke = "black" fill="red"></polygon>
<polygon points=" 268 609 268 612 268 615 267 618 266 621 265 624 264 627 263 629 261 632 259 634 258 637 256 639 253 641 251 643 249 645 246 646 244 648 241 649 238 650 235 651 233 652 230 653 227 653 224 653 221 653 218 653 215 653 212 653 209 652 206 651 203 650 201 649 198 647 195 646 193 644 191 642 189 640 186 638 185 636 183 633 181 631 180 628 178 625 177 623 176 620 176 617 175 614 175 611 175 608 175 605 175 602 175 599 176 596 176 593 177 590 178 588 180 585 181 582 183 580 185 577 186 575 189 573 191 571 193 569 195 567 198 566 201 564 203 563 206 562 209 561 212 560 215 560 218 560 221 560 224 560 227 560 230 560 233 561 235 562 238 563 241 564 244 565 246 567 249 568 251 570 253 572 256 574 257 576 259 579 261 581 263 584 264 586 265 589 266 592 267 595 268 598 268 601 268 604 268 606" stroke = "black" fill="red"></polygon>
<polygon points=" 362 609 362 612 362 615 361 618 360 621 359 624 358 627 357 629 355 632 353 634 352 637 350 639 347 641 345 643 343 645 340 646 338 648 335 649 332 650 329 651 327 652 324 653 321 653 318 653 315 653 312 653 309 653 306 653 303 652 300 651 297 650 295 649 292 647 289 646 287 644 285 642 283 640 280 638 279 636 277 633 275 631 274 628 272 625 271 623 270 620 270 617 269 614 269 611 269 608 269 605 269 602 269 599 270 596 270 593 271 590 272 588 274 585 275 582 277 580 279 577 280 575 283 573 285 571 287 569 289 567 292 566 295 564 297 563 300 562 303 561 306 560 309 560 312 560 315 560 318 560 321 560 324 560 327 561 329 562 332 563 335 564 338 565 340 567 343 568 345 570 347 572 350 574 351 576 353 579 355 581 357 584 358 586 359 589 360 592 361 595 362 598 362 601 362 604 362 606" stroke = "black" fill="red"></polygon>
<polygon points=" 456 609 456 612 456 615 455 618 454 621 453 624 452 627 451 629 449 632 447 634 446 637 444 639 441 641 439 643 437 645 434 646 432 648 429 649 426 650 423 651 421 652 418 653 415 653 412 653 409 653 406 653 403 653 400 653 397 652 394 651 391 650 389 649 386 647 383 646 381 644 379 642 377 640 374 638 373 636 371 633 369 631 368 628 366 625 365 623 364 620 364 617 363 614 363 611 363 608 363 605 363 602 363 599 364 596 364 593 365 590 366 588 368 585 369 582 371 580 373 577 374 575 377 573 379 571 381 569 383 567 386 566 389 564 391 563 394 562 397 561 400 560 403 560 406 560 409 560 412 560 415 560 418 560 421 561 423 562 426 563 429 564 432 565 434 567 437 568 439 570 441 572 444 574 445 576 447 579 449 581 451 584 452 586 453 589 454 592 455 595 456 598 456 601 456 604 456 606" stroke = "black" fill="red"></polygon>
<polygon points=" 550 609 550 612 550 615 549 618 548 621 547 624 546 627 545 629 543 632 541 634 540 637 538 639 535 641 533 643 531 645 528 646 526 648 523 649 520 650 517 651 515 652 512 653 509 653 506 653 503 653 500 653 497 653 494 653 491 652 488 651 485 650 483 649 480 647 477 646 475 644 473 642 471 640 468 638 467 636 465 633 463 631 462 628 460 625 459 623 458 620 458 617 457 614 457 611 457 608 457 605 457 602 457 599 458 596 458 593 459 590 460 588 462 585 463 582 465 580 467 577 468 575 471 573 473 571 475 569 477 567 480 566 483 564 485 563 488 562 491 561 494 560 497 560 500 560 503 560 506 560 509 560 512 560 515 561 517 562 520 563 523 564 526 565 528 567 531 568 533 570 535 572 538 574 539 576 541 579 543 581 545 584 546 586 547 589 548 592 549 595 550 598 550 601 550 604 550 606" stroke = "black" fill="red"></polygon>
<polygon points=" 644 609 644 612 644 615 643 618 642 621 641 624 640 627 639 629 637 632 635 634 634 637 632 639 629 641 627 643 625 645 622 646 620 648 617 649 614 650 611 651 609 652 606 653 603 653 600 653 597 653 594 653 591 653 588 653 585 652 582 651 579 650 577 649 574 647 571 646 569 644 567 642 565 640 562 638 561 636 559 633 557 631 556 628 554 625 553 623 552 620 552 617 551 614 551 611 551 608 551 605 551 602 551 599 552 596 552 593 553 590 554 588 556 585 557 582 559 580 561 577 562 575 565 573 567 571 569 569 571 567 574 566 577 564 579 563 582 562 585 561 588 560 591 560 594 560 597 560 600 560 603 560 606 560 609 561 611 562 614 563 617 564 620 565 622 567 625 568 627 570 629 572 632 574 633 576 635 579 637 581 639 584 640 586 641 589 642 592 643 595 644 598 644 601 644 604 644 606" stroke = "black" fill="red"></polygon>
<polygon points=" 738 609 738 612 738 615 737 618 736 621 735 624 734 627 733 629 731 632 729 634 728 637 726 639 723 641 721 643 719 645 716 646 714 648 711 649 708 650 705 651 703 652 700 653 697 653 694 653 691 653 688 653 685 653 682 653 679 652 676 651 673 650 671 649 668 647 665 646 663 644 661 642 659 640 656 638 655 636 653 633 651 631 650 628 648 625 647 623 646 620 646 617 645 614 645 611 645 608 645 605 645 602 645 599 646 596 646 593 647 590 648 588 650 585 651 582 653 580 655 577 656 575 659 573 661 571 663 569 665 567 668 566 671 564 673 563 676 562 679 561 682 560 685 560 688 560 691 560 694 560 697 560 700 560 703 561 705 562 708 563 711 564 714 565 716 567 719 568 721 570 723 572 726 574 727 576 729 579 731 581 733 584 734 586 735 589 736 592 737 595 738 598 738 601 738 604 738 606" stroke = "black" fill="red"></polygon>
<polygon points=" 221 528 221 531 221 534 220 537 219 540 218 543 217 546 216 548 214 551 212 553 211 556 209 558 206 560 204 562 202 564 199 565 197 567 194 568 191 569 188 570 186 571 183 572 180 572 177 572 174 572 171 572 168 572 165 572 162 571 159 570 156 569 154 568 151 566 148 565 146 563 144 561 142 559 139 557 138 555 136 552 134 550 133 547 131 544 130 542 129 539 129 536 128 533 128 530 128 527 128 524 128 521 128 518 129 515 129 512 130 509 131 507 133 504 134 501 136 499 138 496 139 494 142 492 144 490 146 488 148 486 151 485 154 483 156 482 159 481 162 480 165 479 168 479 171 479 174 479 177 479 180 479 183 479 186 480 188 481 191 482 194 483 197 484 199 486 202 487 204 489 206 491 209 493 210 495 212 498 214 500 216 503 217 505 218 508 219 511 220 514 221 517 221 520 221 523 221 525" stroke = "black" fill="red"></polygon>
<polygon points=" 315 528 315 531 315 534 314 537 313 540 312 543 311 546 310 548 308 551 306 553 305 556 303 558 300 560 298 562 296 564 293 565 291 567 288 568 285 569 282 570 280 571 277 572 274 572 271 572 268 572 265 572 262 572 259 572 256 571 253 570 250 569 248 568 245 566 242 565 240 563 238 561 236 559 233 557 232 555 230 552 228 550 227 547 225 544 224 542 223 539 223 536 222 533 222 530 222 527 222 524 222 521 222 518 223 515 223 512 224 509 225 507 227 504 228 501 230 499 232 496 233 494 236 492 238 490 240 488 242 486 245 485 248 483 250 482 253 481 256 480 259 479 262 479 265 479 268 479 271 479 274 479 277 479 280 480 282 481 285 482 288 483 291 484 293 486 296 487 298 489 300 491 303 493 304 495 306 498 308 500 310 503 311 505 312 508 313 511 314 514 315 517 315 520 315 523 315 525" stroke = "black" fill="red"></polygon>
<polygon points=" 409 528 409 531 409 534 408 537 407 540 406 543 405 546 404 548 402 551 400 553 399 556 397 558 394 560 392 562 390 564 387 565 385 567 382 568 379 569 376 570 374 571 371 572 368 572 365 572 362 572 359 572 356 572 353 572 350 571 347 570 344 569 342 568 339 566 336 565 334 563 332 561 330 559 327 557 326 555 324 552 322 550 321 547 319 544 318 542 317 539 317 536 316 533 316 530 316 527 316 524 316 521 316 518 317 515 317 512 318 509 319 507 321 504 322 501 324 499 326 496 327 494 330 492 332 490 334 488 336 486 339 485 342 483 344 482 347 481 350 480 353 479 356 479 359 479 362 479 365 479 368 479 371 479 374 480 376 481 379 482 382 483 385 484 387 486 390 487 392 489 394 491 397 493 398 495 400 498 402 500 404 503 405 505 406 508 407 511 408 514 409 517 409 520 409 523 409 525" stroke = "black" fill="red"></polygon>
<polygon points=" 503 528 503 531 503 534 502 537 501 540 500 543 499 546 498 548 496 551 494 553 493 556 491 558 488 560 486 562 484 564 481 565 479 567 476 568 473 569 470 570 468 571 465 572 462 572 459 572 456 572 453 572 450 572 447 572 444 571 441 570 438 569 436 568 433 566 430 565 428 563 426 561 424 559 421 557 420 555 418 552 416 550 415 547 413 544 412 542 411 539 411 536 410 533 410 530 410 527 410 524 410 521 410 518 411 515 411 512 412 509 413 507 415 504 416 501 418 499 420 496 421 494 424 492 426 490 428 488 430 486 433 485 436 483 438 482 441 481 444 480 447 479 450 479 453 479 456 479 459 479 462 479 465 479 468 480 470 481 473 482 476 483 479 484 481 486 484 487 486 489 488 491 491 493 492 495 494 498 496 500 498 503 499 505 500 508 501 511 502 514 503 517 503 520 503 523 503 525" stroke = "black" fill="red"></polygon>
<polygon points=" 597 528 597 531 597 534 596 537 595 540 594 543 593 546 592 548 590 551 588 553 587 556 585 558 582 560 580 562 578 564 575 565 573 567 570 568 567 569 564 570 562 571 559 572 556 572 553 572 550 572 547 572 544 572 541 572 538 571 535 570 532 569 530 568 527 566 524 565 522 563 520 561 518 559 515 557 514 555 512 552 510 550 509 547 507 544 506 542 505 539 505 536 504 533 504 530 504 527 504 524 504 521 504 518 505 515 505 512 506 509 507 507 509 504 510 501 512 499 514 496 515 494 518 492 520 490 522 488 524 486 527 485 530 483 532 482 535 481 538 480 541 479 544 479 547 479 550 479 553 479 556 479 559 479 562 480 564 481 567 482 570 483 573 484 575 486 578 487 580 489 582 491 585 493 586 495 588 498 590 500 592 503 593 505 594 508 595 511 596 514 597 517 597 520 597 523 597 525" stroke = "black" fill="red"></polygon>
<polygon points=" 691 528 691 531 691 534 690 537 689 540 688 543 687 546 686 548 684 551 682 553 681 556 679 558 676 560 674 562 672 564 669 565 667 567 664 568 661 569 658 570 656 571 653 572 650 572 647 572 644 572 641 572 638 572 635 572 632 571 629 570 626 569 624 568 621 566 618 565 616 563 614 561 612 559 609 557 608 555 606 552 604 550 603 547 601 544 600 542 599 539 599 536 598 533 598 530 598 527 598 524 598 521 598 518 599 515 599 512 600 509 601 507 603 504 604 501 606 499 608 496 609 494 612 492 614 490 616 488 618 486 621 485 624 483 626 482 629 481 632 480 635 479 638 479 641 479 644 479 647 479 650 479 653 479 656 480 658 481 661 482 664 483 667 484 669 486 672 487 674 489 676 491 679 493 680 495 682 498 684 500 686 503 687 505 688 508 689 511 690 514 691 517 691 520 691 523 691 525" stroke = "black" fill="red"></polygon>
<polygon points=" 268 446 268 449 268 452 267 455 266 458 265 461 264 464 263 466 261 469 259 471 258 474 256 476 253 478 251 480 249 482 246 483 244 485 241 486 238 487 235 488 233 489 230 490 227 490 224 490 221 490 218 490 215 490 212 490 209 489 206 488 203 487 201 486 198 484 195 483 193 481 191 479 189 477 186 475 185 473 183 470 181 468 180 465 178 462 177 460 176 457 176 454 175 451 175 448 175 445 175 442 175 439 175 436 176 433 176 430 177 427 178 425 180 422 181 419 183 417 185 414 186 412 189 410 191 408 193 406 195 404 198 403 201 401 203 400 206 399 209 398 212 397 215 397 218 397 221 397 224 397 227 397 230 397 233 398 235 399 238 400 241 401 244 402 246 404 249 405 251 407 253 409 256 411 257 413 259 416 261 418 263 421 264 423 265 426 266 429 267 432 268 435 268 438 268 441 268 443" stroke = "black" fill="red"></polygon>
<polygon points=" 362 446 362 449 362 452 361 455 360 458 359 461 358 464 357 466 355 469 353 471 352 474 350 476 347 478 345 480 343 482 340 483 338 485 335 486 332 487 329 488 327 489 324 490 321 490 318 490 315 490 312 490 309 490 306 490 303 489 300 488 297 487 295 486 292 484 289 483 287 481 285 479 283 477 280 475 279 473 277 470 275 468 274 465 272 462 271 460 270 457 270 454 269 451 269 448 269 445 269 442 269 439 269 436 270 433 270 430 271 427 272 425 274 422 275 419 277 417 279 414 280 412 283 410 285 408 287 406 289 404 292 403 295 401 297 400 300 399 303 398 306 397 309 397 312 397 315 397 318 397 321 397 324 397 327 398 329 399 332 400 335 401 338 402 340 404 343 405 345 407 347 409 350 411 351 413 353 416 355 418 357 421 358 423 359 426 360 429 361 432 362 435 362 438 362 441 362 443" stroke = "black" fill="red"></polygon>
<polygon points=" 456 446 456 449 456 452 455 455 454 458 453 461 452 464 451 466 449 469 447 471 446 474 444 476 441 478 439 480 437 482 434 483 432 485 429 486 426 487 423 488 421 489 418 490 415 490 412 490 409 490 406 490 403 490 400 490 397 489 394 488 391 487 389 486 386 484 383 483 381 481 379 479 377 477 374 475 373 473 371 470 369 468 368 465 366 462 365 460 364 457 364 454 363 451 363 448 363 445 363 442 363 439 363 436 364 433 364 430 365 427 366 425 368 422 369 419 371 417 373 414 374 412 377 410 379 408 381 406 383 404 386 403 389 401 391 400 394 399 397 398 400 397 403 397 406 397 409 397 412 397 415 397 418 397 421 398 423 399 426 400 429 401 432 402 434 404 437 405 439 407 441 409 444 411 445 413 447 416 449 418 451 421 452 423 453 426 454 429 455 432 456 435 456 438 456 441 456 443" stroke = "black" fill="red"></polygon>
<polygon points=" 550 446 550 449 550 452 549 455 548 458 547 461 546 464 545 466 543 469 541 471 540 474 538 476 535 478 533 480 531 482 528 483 526 485 523 486 520 487 517 488 515 489 512 490 509 490 506 490 503 490 500 490 497 490 494 490 491 489 488 488 485 487 483 486 480 484 477 483 475 481 473 479 471 477 468 475 467 473 465 470 463 468 462 465 460 462 459 460 458 457 458 454 457 451 457 448 457 445 457 442 457 439 457 436 458 433 458 430 459 427 460 425 462 422 463 419 465 417 467 414 468 412 471 410 473 408 475 406 477 404 480 403 483 401 485 400 488 399 491 398 494 397 497 397 500 397 503 397 506 397 509 397 512 397 515 398 517 399 520 400 523 401 526 402 528 404 531 405 533 407 535 409 538 411 539 413 541 416 543 418 545 421 546 423 547 426 548 429 549 432 550 435 550 438 550 441 550 443" stroke = "black" fill="red"></polygon>
<polygon points=" 644 446 644 449 644 452 643 455 642 458 641 461 640 464 639 466 637 469 635 471 634 474 632 476 629 478 627 480 625 482 622 483 620 485 617 486 614 487 611 488 609 489 606 490 603 490 600 490 597 490 594 490 591 490 588 490 585 489 582 488 579 487 577 486 574 484 571 483 569 481 567 479 565 477 562 475 561 473 559 470 557 468 556 465 554 462 553 460 552 457 552 454 551 451 551 448 551 445 551 442 551 439 551 436 552 433 552 430 553 427 554 425 556 422 557 419 559 417 561 414 562 412 565 410 567 408 569 406 571 404 574 403 577 401 579 400 582 399 585 398 588 397 591 397 594 397 597 397 600 397 603 397 606 397 609 398 611 399 614 400 617 401 620 402 622 404 625 405 627 407 629 409 632 411 633 413 635 416 637 418 639 421 640 423 641 426 642 429 643 432 644 435 644 438 644 441 644 443" stroke = "black" fill="red"></polygon>
<polygon points=" 315 365 315 368 315 371 314 374 313 377 312 380 311 383 310 385 308 388 306 390 305 393 303 395 300 397 298 399 296 401 293 402 291 404 288 405 285 406 282 407 280 408 277 409 274 409 271 409 268 409 265 409 262 409 259 409 256 408 253 407 250 406 248 405 245 403 242 402 240 400 238 398 236 396 233 394 232 392 230 389 228 387 227 384 225 381 224 379 223 376 223 373 222 370 222 367 222 364 222 361 222 358 222 355 223 352 223 349 224 346 225 344 227 341 228 338 230 336 232 333 233 331 236 329 238 327 240 325 242 323 245 322 248 320 250 319 253 318 256 317 259 316 262 316 265 316 268 316 271 316 274 316 277 316 280 317 282 318 285 319 288 320 291 321 293 323 296 324 298 326 300 328 303 330 304 332 306 335 308 337 310 340 311 342 312 345 313 348 314 351 315 354 315 357 315 360 315 362" stroke = "black" fill="red"></polygon>
<polygon points=" 409 365 409 368 409 371 408 374 407 377 406 380 405 383 404 385 402 388 400 390 399 393 397 395 394 397 392 399 390 401 387 402 385 404 382 405 379 406 376 407 374 408 371 409 368 409 365 409 362 409 359 409 356 409 353 409 350 408 347 407 344 406 342 405 339 403 336 402 334 400 332 398 330 396 327 394 326 392 324 389 322 387 321 384 319 381 318 379 317 376 317 373 316 370 316 367 316 364 316 361 316 358 316 355 317 352 317 349 318 346 319 344 321 341 322 338 324 336 326 333 327 331 330 329 332 327 334 325 336 323 339 322 342 320 344 319 347 318 350 317 353 316 356 316 359 316 362 316 365 316 368 316 371 316 374 317 376 318 379 319 382 320 385 321 387 323 390 324 392 326 394 328 397 330 398 332 400 335 402 337 404 340 405 342 406 345 407 348 408 351 409 354 409 357 409 360 409 362" stroke = "black" fill="red"></polygon>
<polygon points=" 503 365 503 368 503 371 502 374 501 377 500 380 499 383 498 385 496 388 494 390 493 393 491 395 488 397 486 399 484 401 481 402 479 404 476 405 473 406 470 407 468 408 465 409 462 409 459 409 456 409 453 409 450 409 447 409 444 408 441 407 438 406 436 405 433 403 430 402 428 400 426 398 424 396 421 394 420 392 418 389 416 387 415 384 413 381 412 379 411 376 411 373 410 370 410 367 410 364 410 361 410 358 410 355 411 352 411 349 412 346 413 344 415 341 416 338 418 336 420 333 421 331 424 329 426 327 428 325 430 323 433 322 436 320 438 319 441 318 444 317 447 316 450 316 453 316 456 316 459 316 462 316 465 316 468 317 470 318 473 319 476 320 479 321 481 323 484 324 486 326 488 328 491 330 492 332 494 335 496 337 498 340 499 342 500 345 501 348 502 351 503 354 503 357 503 360 503 362" stroke = "black" fill="red"></polygon>
<polygon points=" 597 365 597 368 597 371 596 374 595 377 594 380 593 383 592 385 590 388 588 390 587 393 585 395 582 397 580 399 578 401 575 402 573 404 570 405 567 406 564 407 562 408 559 409 556 409 553 409 550 409 547 409 544 409 541 409 538 408 535 407 532 406 530 405 527 403 524 402 522 400 520 398 518 396 515 394 514 392 512 389 510 387 509 384 507 381 506 379 505 376 505 373 504 370 504 367 504 364 504 361 504 358 504 355 505 352 505 349 506 346 507 344 509 341 510 338 512 336 514 333 515 331 518 329 520 327 522 325 524 323 527 322 530 320 532 319 535 318 538 317 541 316 544 316 547 316 550 316 553 316 556 316 559 316 562 317 564 318 567 319 570 320 573 321 575 323 578 324 580 326 582 328 585 330 586 332 588 335 590 337 592 340 593 342 594 345 595 348 596 351 597 354 597 357 597 360 597 362" stroke = "black" fill="red"></polygon>
<polygon points=" 362 284 362 287 362 290 361 293 360 296 359 299 358 302 357 304 355 307 353 309 352 312 350 314 347 316 345 318 343 320 340 321 338 323 335 324 332 325 329 326 327 327 324 328 321 328 318 328 315 328 312 328 309 328 306 328 303 327 300 326 297 325 295 324 292 322 289 321 287 319 285 317 283 315 280 313 279 311 277 308 275 306 274 303 272 300 271 298 270 295 270 292 269 289 269 286 269 283 269 280 269 277 269 274 270 271 270 268 271 265 272 263 274 260 275 257 277 255 279 252 280 250 283 248 285 246 287 244 289 242 292 241 295 239 297 238 300 237 303 236 306 235 309 235 312 235 315 235 318 235 321 235 324 235 327 236 329 237 332 238 335 239 338 240 340 242 343 243 345 245 347 247 350 249 351 251 353 254 355 256 357 259 358 261 359 264 360 267 361 270 362 273 362 276 362 279 362 281" stroke = "black" fill="red"></polygon>
<polygon points=" 456 284 456 287 456 290 455 293 454 296 453 299 452 302 451 304 449 307 447 309 446 312 444 314 441 316 439 318 437 320 434 321 432 323 429 324 426 325 423 326 421 327 418 328 415 328 412 328 409 328 406 328 403 328 400 328 397 327 394 326 391 325 389 324 386 322 383 321 381 319 379 317 377 315 374 313 373 311 371 308 369 306 368 303 366 300 365 298 364 295 364 292 363 289 363 286 363 283 363 280 363 277 363 274 364 271 364 268 365 265 366 263 368 260 369 257 371 255 373 252 374 250 377 248 379 246 381 244 383 242 386 241 389 239 391 238 394 237 397 236 400 235 403 235 406 235 409 235 412 235 415 235 418 235 421 236 423 237 426 238 429 239 432 240 434 242 437 243 439 245 441 247 444 249 445 251 447 254 449 256 451 259 452 261 453 264 454 267 455 270 456 273 456 276 456 279 456 281" stroke = "black" fill="red"></polygon>
<polygon points=" 550 284 550 287 550 290 549 293 548 296 547 299 546 302 545 304 543 307 541 309 540 312 538 314 535 316 533 318 531 320 528 321 526 323 523 324 520 325 517 326 515 327 512 328 509 328 506 328 503 328 500 328 497 328 494 328 491 327 488 326 485 325 483 324 480 322 477 321 475 319 473 317 471 315 468 313 467 311 465 308 463 306 462 303 460 300 459 298 458 295 458 292 457 289 457 286 457 283 457 280 457 277 457 274 458 271 458 268 459 265 460 263 462 260 463 257 465 255 467 252 468 250 471 248 473 246 475 244 477 242 480 241 483 239 485 238 488 237 491 236 494 235 497 235 500 235 503 235 506 235 509 235 512 235 515 236 517 237 520 238 523 239 526 240 528 242 531 243 533 245 535 247 538 249 539 251 541 254 543 256 545 259 546 261 547 264 548 267 549 270 550 273 550 276 550 279 550 281" stroke = "black" fill="red"></polygon>
<polygon points=" 409 202 409 205 409 208 408 211 407 214 406 217 405 220 404 222 402 225 400 227 399 230 397 232 394 234 392 236 390 238 387 239 385 241 382 242 379 243 376 244 374 245 371 246 368 246 365 246 362 246 359 246 356 246 353 246 350 245 347 244 344 243 342 242 339 240 336 239 334 237 332 235 330 233 327 231 326 229 324 226 322 224 321 221 319 218 318 216 317 213 317 210 316 207 316 204 316 201 316 198 316 195 316 192 317 189 317 186 318 183 319 181 321 178 322 175 324 173 326 170 327 168 330 166 332 164 334 162 336 160 339 159 342 157 344 156 347 155 350 154 353 153 356 153 359 153 362 153 365 153 368 153 371 153 374 154 376 155 379 156 382 157 385 158 387 160 390 161 392 163 394 165 397 167 398 169 400 172 402 174 404 177 405 179 406 182 407 185 408 188 409 191 409 194 409 197 409 199" stroke = "black" fill="red"></polygon>
<polygon points=" 503 202 503 205 503 208 502 211 501 214 500 217 499 220 498 222 496 225 494 227 493 230 491 232 488 234 486 236 484 238 481 239 479 241 476 242 473 243 470 244 468 245 465 246 462 246 459 246 456 246 453 246 450 246 447 246 444 245 441 244 438 243 436 242 433 240 430 239 428 237 426 235 424 233 421 231 420 229 418 226 416 224 415 221 413 218 412 216 411 213 411 210 410 207 410 204 410 201 410 198 410 195 410 192 411 189 411 186 412 183 413 181 415 178 416 175 418 173 420 170 421 168 424 166 426 164 428 162 430 160 433 159 436 157 438 156 441 155 444 154 447 153 450 153 453 153 456 153 459 153 462 153 465 153 468 154 470 155 473 156 476 157 479 158 481 160 484 161 486 163 488 165 491 167 492 169 494 172 496 174 498 177 499 179 500 182 501 185 502 188 503 191 503 194 503 197 503 199" stroke = "black" fill="red"></polygon>
<polygon points=" 456 121 456 124 456 127 455 130 454 133 453 136 452 139 451 141 449 144 447 146 446 149 444 151 441 153 439 155 437 157 434 158 432 160 429 161 426 162 423 163 421 164 418 165 415 165 412 165 409 165 406 165 403 165 400 165 397 164 394 163 391 162 389 161 386 159 383 158 381 156 379 154 377 152 374 150 373 148 371 145 369 143 368 140 366 137 365 135 364 132 364 129 363 126 363 123 363 120 363 117 363 114 363 111 364 108 364 105 365 102 366 100 368 97 369 94 371 92 373 89 374 87 377 85 379 83 381 81 383 79 386 78 389 76 391 75 394 74 397 73 400 72 403 72 406 72 409 72 412 72 415 72 418 72 421 73 423 74 426 75 429 76 432 77 434 79 437 80 439 82 441 84 444 86 445 88 447 91 449 93 451 96 452 98 453 101 454 104 455 107 456 110 456 113 456 116 456 118" stroke = "black" fill="red"></polygon></svg>