<svg version="1.1" baseProfile="full" xmlns="http://www.w3.org/2000/svg">
<polygon points="375 0 0 649 750 649 " stroke = "black" fill="red"></polygon><rect x="57" y="549" stroke="Black" width="75" height="100" fill="red"></rect>
<rect x="132" y="549" stroke="Black" width="75" height="100" fill="red"></rect>
<rect x="207" y="549" stroke="Black" width="75" height="100" fill="red"></rect>
<rect x="282" y="549" stroke="Black" width="75" height="100" fill="red"></rect>
<rect x="357" y="549" stroke="Black" width="75" height="100" fill="red"></rect>
<rect x="432" y="549" stroke="Black" width="75" height="100" fill="red"></rect>
<rect x="507" y="549" stroke="Black" width="75" height="100" fill="red"></rect>
<rect x="582" y="549" stroke="Black" width="75" height="100" fill="red"></rect>
<rect x="115" y="449" stroke="Black" width="75" height="100" fill="red"></rect>
<rect x="190" y="449" stroke="Black" width="75" height="100" fill="red"></rect>
<rect x="265" y="449" stroke="Black" width="75" height="100" fill="red"></rect>
<rect x="340" y="449" stroke="Black" width="75" height="100" fill="red"></rect>
<rect x="415" y="449" stroke="Black" width="75" height="100" fill="red"></rect>
<rect x="490" y="449" stroke="Black" width="75" height="100" fill="red"></rect>
<rect x="173" y="349" stroke="Black" width="75" height="100" fill="red"></rect>
<rect x="248" y="349" stroke="Black" width="75" height="100" fill="red"></rect>
<rect x="323" y="349" stroke="Black" width="75" height="100" fill="red"></rect>
<rect x="398" y="349" stroke="Black" width="75" height="100" fill="red"></rect>
<rect x="473" y="349" stroke="Black" width="75" height="100" fill="red"></rect>
<rect x="230" y="249" stroke="Black" width="75" height="100" fill="red"></rect>
<rect x="305" y="249" stroke="Black" width="75" height="100" fill="red"></rect>
<rect x="380" y="249" stroke="Black" width="75" height="100" fill="red"></rect>
<rect x="288" y="149" stroke="Black" width="75" height="100" fill="red"></rect>
<rect x="363" y="149" stroke="Black" width="75" height="100" fill="red"></rect>
</svg>