<svg version="1.1" baseProfile="full" xmlns="http://www.w3.org/2000/svg"><rect x="0" y="0" stroke="Black" width="750" height="800" fill="red"></rect>
<rect x="0" y="0" stroke="Black" width="750" height="800" fill="red"></rect>
<rect x="0" y="0" stroke="Black" width="127" height="200" fill="red"></rect>
<rect x="127" y="0" stroke="Black" width="127" height="200" fill="red"></rect>
<rect x="254" y="0" stroke="Black" width="127" height="200" fill="red"></rect>
<rect x="381" y="0" stroke="Black" width="127" height="200" fill="red"></rect>
<rect x="508" y="0" stroke="Black" width="127" height="200" fill="red"></rect>
<rect x="0" y="200" stroke="Black" width="127" height="200" fill="red"></rect>
<rect x="127" y="200" stroke="Black" width="127" height="200" fill="red"></rect>
<rect x="254" y="200" stroke="Black" width="127" height="200" fill="red"></rect>
<rect x="381" y="200" stroke="Black" width="127" height="200" fill="red"></rect>
<rect x="508" y="200" stroke="Black" width="127" height="200" fill="red"></rect>
<rect x="0" y="400" stroke="Black" width="127" height="200" fill="red"></rect>
<rect x="127" y="400" stroke="Black" width="127" height="200" fill="red"></rect>
<rect x="254" y="400" stroke="Black" width="127" height="200" fill="red"></rect>
<rect x="381" y="400" stroke="Black" width="127" height="200" fill="red"></rect>
<rect x="508" y="400" stroke="Black" width="127" height="200" fill="red"></rect>
<rect x="0" y="600" stroke="Black" width="127" height="200" fill="red"></rect>
<rect x="127" y="600" stroke="Black" width="127" height="200" fill="red"></rect>
<rect x="254" y="600" stroke="Black" width="127" height="200" fill="red"></rect>
<rect x="381" y="600" stroke="Black" width="127" height="200" fill="red"></rect>
</svg>