<svg version="1.1" baseProfile="full" xmlns="http://www.w3.org/2000/svg">
<polygon points=" 1398 744 1394 788 1387 832 1377 875 1365 918 1349 960 1332 1000 1311 1040 1288 1078 1263 1115 1236 1149 1206 1183 1174 1214 1141 1243 1106 1270 1069 1294 1030 1317 990 1336 949 1353 907 1368 865 1380 821 1389 777 1395 733 1399 688 1399 644 1397 600 1392 556 1385 513 1374 471 1361 429 1345 389 1327 350 1306 312 1282 276 1257 241 1229 209 1198 178 1166 149 1132 123 1096 99 1059 77 1020 58 980 42 939 28 897 17 854 8 810 3 766 0 722 0 677 3 633 8 589 17 545 28 502 42 460 58 419 77 379 99 340 123 303 149 267 178 233 208 201 241 171 276 143 312 117 349 93 389 72 429 54 470 38 513 25 556 14 600 7 644 2 688 0 733 0 777 4 821 10 864 19 907 31 949 46 990 63 1030 82 1068 105 1105 129 1141 156 1174 185 1206 216 1236 249 1263 284 1288 321 1311 359 1331 399 1349 439 1365 481 1377 524 1387 567 1394 611 1398 655 1399 699" stroke = "black" fill="red"></polygon>
<polygon points=" 248 206 206 278 290 278" stroke = "black" fill="red"></polygon>
<polygon points=" 332 206 290 278 374 278" stroke = "black" fill="red"></polygon>
<polygon points=" 416 206 374 278 458 278" stroke = "black" fill="red"></polygon>
<polygon points=" 500 206 458 278 542 278" stroke = "black" fill="red"></polygon>
<polygon points=" 584 206 542 278 626 278" stroke = "black" fill="red"></polygon>
<polygon points=" 668 206 626 278 710 278" stroke = "black" fill="red"></polygon>
<polygon points=" 752 206 710 278 794 278" stroke = "black" fill="red"></polygon>
<polygon points=" 836 206 794 278 878 278" stroke = "black" fill="red"></polygon>
<polygon points=" 920 206 878 278 962 278" stroke = "black" fill="red"></polygon>
<polygon points=" 1004 206 962 278 1046 278" stroke = "black" fill="red"></polygon>
<polygon points=" 1088 206 1046 278 1130 278" stroke = "black" fill="red"></polygon>
<polygon points=" 248 278 206 350 290 350" stroke = "black" fill="red"></polygon>
<polygon points=" 332 278 290 350 374 350" stroke = "black" fill="red"></polygon>
<polygon points=" 416 278 374 350 458 350" stroke = "black" fill="red"></polygon>
<polygon points=" 500 278 458 350 542 350" stroke = "black" fill="red"></polygon>
<polygon points=" 584 278 542 350 626 350" stroke = "black" fill="red"></polygon>
<polygon points=" 668 278 626 350 710 350" stroke = "black" fill="red"></polygon>
<polygon points=" 752 278 710 350 794 350" stroke = "black" fill="red"></polygon>
<polygon points=" 836 278 794 350 878 350" stroke = "black" fill="red"></polygon>
<polygon points=" 920 278 878 350 962 350" stroke = "black" fill="red"></polygon>
<polygon points=" 1004 278 962 350 1046 350" stroke = "black" fill="red"></polygon>
<polygon points=" 1088 278 1046 350 1130 350" stroke = "black" fill="red"></polygon>
<polygon points=" 248 350 206 422 290 422" stroke = "black" fill="red"></polygon>
<polygon points=" 332 350 290 422 374 422" stroke = "black" fill="red"></polygon>
<polygon points=" 416 350 374 422 458 422" stroke = "black" fill="red"></polygon>
<polygon points=" 500 350 458 422 542 422" stroke = "black" fill="red"></polygon>
<polygon points=" 584 350 542 422 626 422" stroke = "black" fill="red"></polygon>
<polygon points=" 668 350 626 422 710 422" stroke = "black" fill="red"></polygon>
<polygon points=" 752 350 710 422 794 422" stroke = "black" fill="red"></polygon>
<polygon points=" 836 350 794 422 878 422" stroke = "black" fill="red"></polygon>
<polygon points=" 920 350 878 422 962 422" stroke = "black" fill="red"></polygon>
<polygon points=" 1004 350 962 422 1046 422" stroke = "black" fill="red"></polygon>
<polygon points=" 1088 350 1046 422 1130 422" stroke = "black" fill="red"></polygon>
<polygon points=" 248 422 206 494 290 494" stroke = "black" fill="red"></polygon>
<polygon points=" 332 422 290 494 374 494" stroke = "black" fill="red"></polygon>
<polygon points=" 416 422 374 494 458 494" stroke = "black" fill="red"></polygon>
<polygon points=" 500 422 458 494 542 494" stroke = "black" fill="red"></polygon>
<polygon points=" 584 422 542 494 626 494" stroke = "black" fill="red"></polygon>
<polygon points=" 668 422 626 494 710 494" stroke = "black" fill="red"></polygon>
<polygon points=" 752 422 710 494 794 494" stroke = "black" fill="red"></polygon>
<polygon points=" 836 422 794 494 878 494" stroke = "black" fill="red"></polygon>
<polygon points=" 920 422 878 494 962 494" stroke = "black" fill="red"></polygon>
<polygon points=" 1004 422 962 494 1046 494" stroke = "black" fill="red"></polygon>
<polygon points=" 1088 422 1046 494 1130 494" stroke = "black" fill="red"></polygon>
<polygon points=" 248 494 206 566 290 566" stroke = "black" fill="red"></polygon>
<polygon points=" 332 494 290 566 374 566" stroke = "black" fill="red"></polygon>
<polygon points=" 416 494 374 566 458 566" stroke = "black" fill="red"></polygon>
<polygon points=" 500 494 458 566 542 566" stroke = "black" fill="red"></polygon>
<polygon points=" 584 494 542 566 626 566" stroke = "black" fill="red"></polygon>
<polygon points=" 668 494 626 566 710 566" stroke = "black" fill="red"></polygon>
<polygon points=" 752 494 710 566 794 566" stroke = "black" fill="red"></polygon>
<polygon points=" 836 494 794 566 878 566" stroke = "black" fill="red"></polygon>
<polygon points=" 920 494 878 566 962 566" stroke = "black" fill="red"></polygon>
<polygon points=" 1004 494 962 566 1046 566" stroke = "black" fill="red"></polygon>
<polygon points=" 1088 494 1046 566 1130 566" stroke = "black" fill="red"></polygon>
<polygon points=" 248 566 206 638 290 638" stroke = "black" fill="red"></polygon>
<polygon points=" 332 566 290 638 374 638" stroke = "black" fill="red"></polygon>
<polygon points=" 416 566 374 638 458 638" stroke = "black" fill="red"></polygon>
<polygon points=" 500 566 458 638 542 638" stroke = "black" fill="red"></polygon>
<polygon points=" 584 566 542 638 626 638" stroke = "black" fill="red"></polygon>
<polygon points=" 668 566 626 638 710 638" stroke = "black" fill="red"></polygon>
<polygon points=" 752 566 710 638 794 638" stroke = "black" fill="red"></polygon>
<polygon points=" 836 566 794 638 878 638" stroke = "black" fill="red"></polygon>
<polygon points=" 920 566 878 638 962 638" stroke = "black" fill="red"></polygon>
<polygon points=" 1004 566 962 638 1046 638" stroke = "black" fill="red"></polygon>
<polygon points=" 1088 566 1046 638 1130 638" stroke = "black" fill="red"></polygon>
<polygon points=" 248 638 206 710 290 710" stroke = "black" fill="red"></polygon>
<polygon points=" 332 638 290 710 374 710" stroke = "black" fill="red"></polygon>
<polygon points=" 416 638 374 710 458 710" stroke = "black" fill="red"></polygon>
<polygon points=" 500 638 458 710 542 710" stroke = "black" fill="red"></polygon>
<polygon points=" 584 638 542 710 626 710" stroke = "black" fill="red"></polygon>
<polygon points=" 668 638 626 710 710 710" stroke = "black" fill="red"></polygon>
<polygon points=" 752 638 710 710 794 710" stroke = "black" fill="red"></polygon>
<polygon points=" 836 638 794 710 878 710" stroke = "black" fill="red"></polygon>
<polygon points=" 920 638 878 710 962 710" stroke = "black" fill="red"></polygon>
<polygon points=" 1004 638 962 710 1046 710" stroke = "black" fill="red"></polygon>
<polygon points=" 1088 638 1046 710 1130 710" stroke = "black" fill="red"></polygon>
<polygon points=" 248 710 206 782 290 782" stroke = "black" fill="red"></polygon>
<polygon points=" 332 710 290 782 374 782" stroke = "black" fill="red"></polygon>
<polygon points=" 416 710 374 782 458 782" stroke = "black" fill="red"></polygon>
<polygon points=" 500 710 458 782 542 782" stroke = "black" fill="red"></polygon>
<polygon points=" 584 710 542 782 626 782" stroke = "black" fill="red"></polygon>
<polygon points=" 668 710 626 782 710 782" stroke = "black" fill="red"></polygon>
<polygon points=" 752 710 710 782 794 782" stroke = "black" fill="red"></polygon>
<polygon points=" 836 710 794 782 878 782" stroke = "black" fill="red"></polygon>
<polygon points=" 920 710 878 782 962 782" stroke = "black" fill="red"></polygon>
<polygon points=" 1004 710 962 782 1046 782" stroke = "black" fill="red"></polygon>
<polygon points=" 1088 710 1046 782 1130 782" stroke = "black" fill="red"></polygon>
<polygon points=" 248 782 206 854 290 854" stroke = "black" fill="red"></polygon>
<polygon points=" 332 782 290 854 374 854" stroke = "black" fill="red"></polygon>
<polygon points=" 416 782 374 854 458 854" stroke = "black" fill="red"></polygon>
<polygon points=" 500 782 458 854 542 854" stroke = "black" fill="red"></polygon>
<polygon points=" 584 782 542 854 626 854" stroke = "black" fill="red"></polygon>
<polygon points=" 668 782 626 854 710 854" stroke = "black" fill="red"></polygon>
<polygon points=" 752 782 710 854 794 854" stroke = "black" fill="red"></polygon>
<polygon points=" 836 782 794 854 878 854" stroke = "black" fill="red"></polygon>
<polygon points=" 920 782 878 854 962 854" stroke = "black" fill="red"></polygon>
<polygon points=" 1004 782 962 854 1046 854" stroke = "black" fill="red"></polygon>
<polygon points=" 1088 782 1046 854 1130 854" stroke = "black" fill="red"></polygon>
<polygon points=" 248 854 206 926 290 926" stroke = "black" fill="red"></polygon>
<polygon points=" 332 854 290 926 374 926" stroke = "black" fill="red"></polygon>
<polygon points=" 416 854 374 926 458 926" stroke = "black" fill="red"></polygon>
<polygon points=" 500 854 458 926 542 926" stroke = "black" fill="red"></polygon>
<polygon points=" 584 854 542 926 626 926" stroke = "black" fill="red"></polygon>
<polygon points=" 668 854 626 926 710 926" stroke = "black" fill="red"></polygon>
<polygon points=" 752 854 710 926 794 926" stroke = "black" fill="red"></polygon>
<polygon points=" 836 854 794 926 878 926" stroke = "black" fill="red"></polygon>
<polygon points=" 920 854 878 926 962 926" stroke = "black" fill="red"></polygon>
<polygon points=" 1004 854 962 926 1046 926" stroke = "black" fill="red"></polygon>
<polygon points=" 1088 854 1046 926 1130 926" stroke = "black" fill="red"></polygon>
<polygon points=" 248 926 206 998 290 998" stroke = "black" fill="red"></polygon>
<polygon points=" 332 926 290 998 374 998" stroke = "black" fill="red"></polygon>
<polygon points=" 416 926 374 998 458 998" stroke = "black" fill="red"></polygon>
<polygon points=" 500 926 458 998 542 998" stroke = "black" fill="red"></polygon>
<polygon points=" 584 926 542 998 626 998" stroke = "black" fill="red"></polygon>
<polygon points=" 668 926 626 998 710 998" stroke = "black" fill="red"></polygon>
<polygon points=" 752 926 710 998 794 998" stroke = "black" fill="red"></polygon>
<polygon points=" 836 926 794 998 878 998" stroke = "black" fill="red"></polygon>
<polygon points=" 920 926 878 998 962 998" stroke = "black" fill="red"></polygon>
<polygon points=" 1004 926 962 998 1046 998" stroke = "black" fill="red"></polygon>
<polygon points=" 1088 926 1046 998 1130 998" stroke = "black" fill="red"></polygon>
<polygon points=" 248 998 206 1070 290 1070" stroke = "black" fill="red"></polygon>
<polygon points=" 332 998 290 1070 374 1070" stroke = "black" fill="red"></polygon>
<polygon points=" 416 998 374 1070 458 1070" stroke = "black" fill="red"></polygon>
<polygon points=" 500 998 458 1070 542 1070" stroke = "black" fill="red"></polygon>
<polygon points=" 584 998 542 1070 626 1070" stroke = "black" fill="red"></polygon>
<polygon points=" 668 998 626 1070 710 1070" stroke = "black" fill="red"></polygon>
<polygon points=" 752 998 710 1070 794 1070" stroke = "black" fill="red"></polygon>
<polygon points=" 836 998 794 1070 878 1070" stroke = "black" fill="red"></polygon>
<polygon points=" 920 998 878 1070 962 1070" stroke = "black" fill="red"></polygon>
<polygon points=" 1004 998 962 1070 1046 1070" stroke = "black" fill="red"></polygon>
<polygon points=" 1088 998 1046 1070 1130 1070" stroke = "black" fill="red"></polygon>
<polygon points=" 248 1070 206 1142 290 1142" stroke = "black" fill="red"></polygon>
<polygon points=" 332 1070 290 1142 374 1142" stroke = "black" fill="red"></polygon>
<polygon points=" 416 1070 374 1142 458 1142" stroke = "black" fill="red"></polygon>
<polygon points=" 500 1070 458 1142 542 1142" stroke = "black" fill="red"></polygon>
<polygon points=" 584 1070 542 1142 626 1142" stroke = "black" fill="red"></polygon>
<polygon points=" 668 1070 626 1142 710 1142" stroke = "black" fill="red"></polygon>
<polygon points=" 752 1070 710 1142 794 1142" stroke = "black" fill="red"></polygon>
<polygon points=" 836 1070 794 1142 878 1142" stroke = "black" fill="red"></polygon>
<polygon points=" 920 1070 878 1142 962 1142" stroke = "black" fill="red"></polygon>
<polygon points=" 1004 1070 962 1142 1046 1142" stroke = "black" fill="red"></polygon>
<polygon points=" 1088 1070 1046 1142 1130 1142" stroke = "black" fill="red"></polygon>
<polygon points=" 248 206 290 278 332 206" stroke = "black" fill="red"></polygon>
<polygon points=" 332 206 374 278 416 206" stroke = "black" fill="red"></polygon>
<polygon points=" 416 206 458 278 500 206" stroke = "black" fill="red"></polygon>
<polygon points=" 500 206 542 278 584 206" stroke = "black" fill="red"></polygon>
<polygon points=" 584 206 626 278 668 206" stroke = "black" fill="red"></polygon>
<polygon points=" 668 206 710 278 752 206" stroke = "black" fill="red"></polygon>
<polygon points=" 752 206 794 278 836 206" stroke = "black" fill="red"></polygon>
<polygon points=" 836 206 878 278 920 206" stroke = "black" fill="red"></polygon>
<polygon points=" 920 206 962 278 1004 206" stroke = "black" fill="red"></polygon>
<polygon points=" 1004 206 1046 278 1088 206" stroke = "black" fill="red"></polygon>
<polygon points=" 1088 206 1130 278 1172 206" stroke = "black" fill="red"></polygon>
<polygon points=" 248 278 290 350 332 278" stroke = "black" fill="red"></polygon>
<polygon points=" 332 278 374 350 416 278" stroke = "black" fill="red"></polygon>
<polygon points=" 416 278 458 350 500 278" stroke = "black" fill="red"></polygon>
<polygon points=" 500 278 542 350 584 278" stroke = "black" fill="red"></polygon>
<polygon points=" 584 278 626 350 668 278" stroke = "black" fill="red"></polygon>
<polygon points=" 668 278 710 350 752 278" stroke = "black" fill="red"></polygon>
<polygon points=" 752 278 794 350 836 278" stroke = "black" fill="red"></polygon>
<polygon points=" 836 278 878 350 920 278" stroke = "black" fill="red"></polygon>
<polygon points=" 920 278 962 350 1004 278" stroke = "black" fill="red"></polygon>
<polygon points=" 1004 278 1046 350 1088 278" stroke = "black" fill="red"></polygon>
<polygon points=" 1088 278 1130 350 1172 278" stroke = "black" fill="red"></polygon>
<polygon points=" 248 350 290 422 332 350" stroke = "black" fill="red"></polygon>
<polygon points=" 332 350 374 422 416 350" stroke = "black" fill="red"></polygon>
<polygon points=" 416 350 458 422 500 350" stroke = "black" fill="red"></polygon>
<polygon points=" 500 350 542 422 584 350" stroke = "black" fill="red"></polygon>
<polygon points=" 584 350 626 422 668 350" stroke = "black" fill="red"></polygon>
<polygon points=" 668 350 710 422 752 350" stroke = "black" fill="red"></polygon>
<polygon points=" 752 350 794 422 836 350" stroke = "black" fill="red"></polygon>
<polygon points=" 836 350 878 422 920 350" stroke = "black" fill="red"></polygon>
<polygon points=" 920 350 962 422 1004 350" stroke = "black" fill="red"></polygon>
<polygon points=" 1004 350 1046 422 1088 350" stroke = "black" fill="red"></polygon>
<polygon points=" 1088 350 1130 422 1172 350" stroke = "black" fill="red"></polygon>
<polygon points=" 248 422 290 494 332 422" stroke = "black" fill="red"></polygon>
<polygon points=" 332 422 374 494 416 422" stroke = "black" fill="red"></polygon>
<polygon points=" 416 422 458 494 500 422" stroke = "black" fill="red"></polygon>
<polygon points=" 500 422 542 494 584 422" stroke = "black" fill="red"></polygon>
<polygon points=" 584 422 626 494 668 422" stroke = "black" fill="red"></polygon>
<polygon points=" 668 422 710 494 752 422" stroke = "black" fill="red"></polygon>
<polygon points=" 752 422 794 494 836 422" stroke = "black" fill="red"></polygon>
<polygon points=" 836 422 878 494 920 422" stroke = "black" fill="red"></polygon>
<polygon points=" 920 422 962 494 1004 422" stroke = "black" fill="red"></polygon>
<polygon points=" 1004 422 1046 494 1088 422" stroke = "black" fill="red"></polygon>
<polygon points=" 1088 422 1130 494 1172 422" stroke = "black" fill="red"></polygon>
<polygon points=" 248 494 290 566 332 494" stroke = "black" fill="red"></polygon>
<polygon points=" 332 494 374 566 416 494" stroke = "black" fill="red"></polygon>
<polygon points=" 416 494 458 566 500 494" stroke = "black" fill="red"></polygon>
<polygon points=" 500 494 542 566 584 494" stroke = "black" fill="red"></polygon>
<polygon points=" 584 494 626 566 668 494" stroke = "black" fill="red"></polygon>
<polygon points=" 668 494 710 566 752 494" stroke = "black" fill="red"></polygon>
<polygon points=" 752 494 794 566 836 494" stroke = "black" fill="red"></polygon>
<polygon points=" 836 494 878 566 920 494" stroke = "black" fill="red"></polygon>
<polygon points=" 920 494 962 566 1004 494" stroke = "black" fill="red"></polygon>
<polygon points=" 1004 494 1046 566 1088 494" stroke = "black" fill="red"></polygon>
<polygon points=" 1088 494 1130 566 1172 494" stroke = "black" fill="red"></polygon>
<polygon points=" 248 566 290 638 332 566" stroke = "black" fill="red"></polygon>
<polygon points=" 332 566 374 638 416 566" stroke = "black" fill="red"></polygon>
<polygon points=" 416 566 458 638 500 566" stroke = "black" fill="red"></polygon>
<polygon points=" 500 566 542 638 584 566" stroke = "black" fill="red"></polygon>
<polygon points=" 584 566 626 638 668 566" stroke = "black" fill="red"></polygon>
<polygon points=" 668 566 710 638 752 566" stroke = "black" fill="red"></polygon>
<polygon points=" 752 566 794 638 836 566" stroke = "black" fill="red"></polygon>
<polygon points=" 836 566 878 638 920 566" stroke = "black" fill="red"></polygon>
<polygon points=" 920 566 962 638 1004 566" stroke = "black" fill="red"></polygon>
<polygon points=" 1004 566 1046 638 1088 566" stroke = "black" fill="red"></polygon>
<polygon points=" 1088 566 1130 638 1172 566" stroke = "black" fill="red"></polygon>
<polygon points=" 248 638 290 710 332 638" stroke = "black" fill="red"></polygon>
<polygon points=" 332 638 374 710 416 638" stroke = "black" fill="red"></polygon>
<polygon points=" 416 638 458 710 500 638" stroke = "black" fill="red"></polygon>
<polygon points=" 500 638 542 710 584 638" stroke = "black" fill="red"></polygon>
<polygon points=" 584 638 626 710 668 638" stroke = "black" fill="red"></polygon>
<polygon points=" 668 638 710 710 752 638" stroke = "black" fill="red"></polygon>
<polygon points=" 752 638 794 710 836 638" stroke = "black" fill="red"></polygon>
<polygon points=" 836 638 878 710 920 638" stroke = "black" fill="red"></polygon>
<polygon points=" 920 638 962 710 1004 638" stroke = "black" fill="red"></polygon>
<polygon points=" 1004 638 1046 710 1088 638" stroke = "black" fill="red"></polygon>
<polygon points=" 1088 638 1130 710 1172 638" stroke = "black" fill="red"></polygon>
<polygon points=" 248 710 290 782 332 710" stroke = "black" fill="red"></polygon>
<polygon points=" 332 710 374 782 416 710" stroke = "black" fill="red"></polygon>
<polygon points=" 416 710 458 782 500 710" stroke = "black" fill="red"></polygon>
<polygon points=" 500 710 542 782 584 710" stroke = "black" fill="red"></polygon>
<polygon points=" 584 710 626 782 668 710" stroke = "black" fill="red"></polygon>
<polygon points=" 668 710 710 782 752 710" stroke = "black" fill="red"></polygon>
<polygon points=" 752 710 794 782 836 710" stroke = "black" fill="red"></polygon>
<polygon points=" 836 710 878 782 920 710" stroke = "black" fill="red"></polygon>
<polygon points=" 920 710 962 782 1004 710" stroke = "black" fill="red"></polygon>
<polygon points=" 1004 710 1046 782 1088 710" stroke = "black" fill="red"></polygon>
<polygon points=" 1088 710 1130 782 1172 710" stroke = "black" fill="red"></polygon>
<polygon points=" 248 782 290 854 332 782" stroke = "black" fill="red"></polygon>
<polygon points=" 332 782 374 854 416 782" stroke = "black" fill="red"></polygon>
<polygon points=" 416 782 458 854 500 782" stroke = "black" fill="red"></polygon>
<polygon points=" 500 782 542 854 584 782" stroke = "black" fill="red"></polygon>
<polygon points=" 584 782 626 854 668 782" stroke = "black" fill="red"></polygon>
<polygon points=" 668 782 710 854 752 782" stroke = "black" fill="red"></polygon>
<polygon points=" 752 782 794 854 836 782" stroke = "black" fill="red"></polygon>
<polygon points=" 836 782 878 854 920 782" stroke = "black" fill="red"></polygon>
<polygon points=" 920 782 962 854 1004 782" stroke = "black" fill="red"></polygon>
<polygon points=" 1004 782 1046 854 1088 782" stroke = "black" fill="red"></polygon>
<polygon points=" 1088 782 1130 854 1172 782" stroke = "black" fill="red"></polygon>
<polygon points=" 248 854 290 926 332 854" stroke = "black" fill="red"></polygon>
<polygon points=" 332 854 374 926 416 854" stroke = "black" fill="red"></polygon>
<polygon points=" 416 854 458 926 500 854" stroke = "black" fill="red"></polygon>
<polygon points=" 500 854 542 926 584 854" stroke = "black" fill="red"></polygon>
<polygon points=" 584 854 626 926 668 854" stroke = "black" fill="red"></polygon>
<polygon points=" 668 854 710 926 752 854" stroke = "black" fill="red"></polygon>
<polygon points=" 752 854 794 926 836 854" stroke = "black" fill="red"></polygon>
<polygon points=" 836 854 878 926 920 854" stroke = "black" fill="red"></polygon>
<polygon points=" 920 854 962 926 1004 854" stroke = "black" fill="red"></polygon>
<polygon points=" 1004 854 1046 926 1088 854" stroke = "black" fill="red"></polygon>
<polygon points=" 1088 854 1130 926 1172 854" stroke = "black" fill="red"></polygon>
<polygon points=" 248 926 290 998 332 926" stroke = "black" fill="red"></polygon>
<polygon points=" 332 926 374 998 416 926" stroke = "black" fill="red"></polygon>
<polygon points=" 416 926 458 998 500 926" stroke = "black" fill="red"></polygon>
<polygon points=" 500 926 542 998 584 926" stroke = "black" fill="red"></polygon>
<polygon points=" 584 926 626 998 668 926" stroke = "black" fill="red"></polygon>
<polygon points=" 668 926 710 998 752 926" stroke = "black" fill="red"></polygon>
<polygon points=" 752 926 794 998 836 926" stroke = "black" fill="red"></polygon>
<polygon points=" 836 926 878 998 920 926" stroke = "black" fill="red"></polygon>
<polygon points=" 920 926 962 998 1004 926" stroke = "black" fill="red"></polygon>
<polygon points=" 1004 926 1046 998 1088 926" stroke = "black" fill="red"></polygon>
<polygon points=" 1088 926 1130 998 1172 926" stroke = "black" fill="red"></polygon>
<polygon points=" 248 998 290 1070 332 998" stroke = "black" fill="red"></polygon>
<polygon points=" 332 998 374 1070 416 998" stroke = "black" fill="red"></polygon>
<polygon points=" 416 998 458 1070 500 998" stroke = "black" fill="red"></polygon>
<polygon points=" 500 998 542 1070 584 998" stroke = "black" fill="red"></polygon>
<polygon points=" 584 998 626 1070 668 998" stroke = "black" fill="red"></polygon>
<polygon points=" 668 998 710 1070 752 998" stroke = "black" fill="red"></polygon>
<polygon points=" 752 998 794 1070 836 998" stroke = "black" fill="red"></polygon>
<polygon points=" 836 998 878 1070 920 998" stroke = "black" fill="red"></polygon>
<polygon points=" 920 998 962 1070 1004 998" stroke = "black" fill="red"></polygon>
<polygon points=" 1004 998 1046 1070 1088 998" stroke = "black" fill="red"></polygon>
<polygon points=" 1088 998 1130 1070 1172 998" stroke = "black" fill="red"></polygon>
<polygon points=" 248 1070 290 1142 332 1070" stroke = "black" fill="red"></polygon>
<polygon points=" 332 1070 374 1142 416 1070" stroke = "black" fill="red"></polygon>
<polygon points=" 416 1070 458 1142 500 1070" stroke = "black" fill="red"></polygon>
<polygon points=" 500 1070 542 1142 584 1070" stroke = "black" fill="red"></polygon>
<polygon points=" 584 1070 626 1142 668 1070" stroke = "black" fill="red"></polygon>
<polygon points=" 668 1070 710 1142 752 1070" stroke = "black" fill="red"></polygon>
<polygon points=" 752 1070 794 1142 836 1070" stroke = "black" fill="red"></polygon>
<polygon points=" 836 1070 878 1142 920 1070" stroke = "black" fill="red"></polygon>
<polygon points=" 920 1070 962 1142 1004 1070" stroke = "black" fill="red"></polygon>
<polygon points=" 1004 1070 1046 1142 1088 1070" stroke = "black" fill="red"></polygon>
<polygon points=" 1088 1070 1130 1142 1172 1070" stroke = "black" fill="red"></polygon>
<polygon points=" 248 1142 290 1214 332 1142" stroke = "black" fill="red"></polygon>
<polygon points=" 332 1142 374 1214 416 1142" stroke = "black" fill="red"></polygon>
<polygon points=" 416 1142 458 1214 500 1142" stroke = "black" fill="red"></polygon>
<polygon points=" 500 1142 542 1214 584 1142" stroke = "black" fill="red"></polygon>
<polygon points=" 584 1142 626 1214 668 1142" stroke = "black" fill="red"></polygon>
<polygon points=" 668 1142 710 1214 752 1142" stroke = "black" fill="red"></polygon>
<polygon points=" 752 1142 794 1214 836 1142" stroke = "black" fill="red"></polygon>
<polygon points=" 836 1142 878 1214 920 1142" stroke = "black" fill="red"></polygon>
<polygon points=" 920 1142 962 1214 1004 1142" stroke = "black" fill="red"></polygon>
<polygon points=" 1004 1142 1046 1214 1088 1142" stroke = "black" fill="red"></polygon>
<polygon points=" 1088 1142 1130 1214 1172 1142" stroke = "black" fill="red"></polygon></svg>