<svg version="1.1" baseProfile="full" xmlns="http://www.w3.org/2000/svg">
<polygon points=" 1746 929 1740 984 1732 1039 1719 1093 1704 1146 1685 1198 1663 1249 1637 1298 1609 1346 1577 1392 1543 1435 1506 1477 1467 1516 1425 1552 1380 1585 1334 1616 1286 1644 1237 1669 1185 1690 1133 1708 1080 1723 1025 1734 970 1742 915 1747 860 1747 804 1745 749 1739 695 1729 641 1716 588 1699 536 1680 485 1657 437 1630 389 1601 344 1569 301 1534 260 1496 222 1456 187 1414 154 1369 124 1323 97 1274 73 1224 52 1172 35 1120 21 1066 10 1012 3 957 0 901 0 846 3 791 10 735 21 681 35 627 52 575 73 523 97 473 124 425 154 378 186 333 222 291 260 251 301 213 344 178 389 146 436 117 485 90 536 67 588 48 640 31 694 18 749 8 804 2 860 0 915 0 970 5 1025 13 1079 24 1133 39 1185 57 1236 78 1286 103 1334 131 1380 161 1424 195 1466 231 1506 270 1543 312 1577 355 1609 401 1637 448 1663 498 1685 549 1704 601 1719 654 1732 708 1740 763 1746 818 1747 873" stroke = "black" fill="red"></polygon>
<polygon points=" 429 348 429 354 428 359 427 364 425 370 423 375 421 380 419 385 416 390 413 394 409 398 405 403 402 406 397 410 393 413 388 416 384 419 379 422 374 424 368 426 363 427 358 428 352 429 347 429 341 429 336 429 330 429 325 428 319 426 314 425 309 423 304 420 299 418 294 415 290 412 286 408 281 405 278 401 274 396 271 392 268 387 265 382 263 377 261 372 259 367 258 362 257 356 256 351 256 345 256 340 256 334 257 329 258 323 259 318 261 313 263 308 265 303 268 298 271 293 274 289 278 284 281 281 286 277 290 273 294 270 299 267 304 265 309 262 314 260 319 259 325 257 330 256 336 256 341 256 347 256 352 256 358 257 363 258 368 259 374 261 379 263 384 266 388 269 393 272 397 275 402 279 405 282 409 287 413 291 416 295 419 300 421 305 423 310 425 315 427 321 428 326 429 331 429 337 429 342" stroke = "black" fill="red"></polygon>
<polygon points=" 603 348 603 354 602 359 601 364 599 370 597 375 595 380 593 385 590 390 587 394 583 398 579 403 576 406 571 410 567 413 562 416 558 419 553 422 548 424 542 426 537 427 532 428 526 429 521 429 515 429 510 429 504 429 499 428 493 426 488 425 483 423 478 420 473 418 468 415 464 412 460 408 455 405 452 401 448 396 445 392 442 387 439 382 437 377 435 372 433 367 432 362 431 356 430 351 430 345 430 340 430 334 431 329 432 323 433 318 435 313 437 308 439 303 442 298 445 293 448 289 452 284 455 281 460 277 464 273 468 270 473 267 478 265 483 262 488 260 493 259 499 257 504 256 510 256 515 256 521 256 526 256 532 257 537 258 542 259 548 261 553 263 558 266 562 269 567 272 571 275 576 279 579 282 583 287 587 291 590 295 593 300 595 305 597 310 599 315 601 321 602 326 603 331 603 337 603 342" stroke = "black" fill="red"></polygon>
<polygon points=" 777 348 777 354 776 359 775 364 773 370 771 375 769 380 767 385 764 390 761 394 757 398 753 403 750 406 745 410 741 413 736 416 732 419 727 422 722 424 716 426 711 427 706 428 700 429 695 429 689 429 684 429 678 429 673 428 667 426 662 425 657 423 652 420 647 418 642 415 638 412 634 408 629 405 626 401 622 396 619 392 616 387 613 382 611 377 609 372 607 367 606 362 605 356 604 351 604 345 604 340 604 334 605 329 606 323 607 318 609 313 611 308 613 303 616 298 619 293 622 289 626 284 629 281 634 277 638 273 642 270 647 267 652 265 657 262 662 260 667 259 673 257 678 256 684 256 689 256 695 256 700 256 706 257 711 258 716 259 722 261 727 263 732 266 736 269 741 272 745 275 750 279 753 282 757 287 761 291 764 295 767 300 769 305 771 310 773 315 775 321 776 326 777 331 777 337 777 342" stroke = "black" fill="red"></polygon>
<polygon points=" 951 348 951 354 950 359 949 364 947 370 945 375 943 380 941 385 938 390 935 394 931 398 927 403 924 406 919 410 915 413 910 416 906 419 901 422 896 424 890 426 885 427 880 428 874 429 869 429 863 429 858 429 852 429 847 428 841 426 836 425 831 423 826 420 821 418 816 415 812 412 808 408 803 405 800 401 796 396 793 392 790 387 787 382 785 377 783 372 781 367 780 362 779 356 778 351 778 345 778 340 778 334 779 329 780 323 781 318 783 313 785 308 787 303 790 298 793 293 796 289 800 284 803 281 808 277 812 273 816 270 821 267 826 265 831 262 836 260 841 259 847 257 852 256 858 256 863 256 869 256 874 256 880 257 885 258 890 259 896 261 901 263 906 266 910 269 915 272 919 275 924 279 927 282 931 287 935 291 938 295 941 300 943 305 945 310 947 315 949 321 950 326 951 331 951 337 951 342" stroke = "black" fill="red"></polygon>
<polygon points=" 1125 348 1125 354 1124 359 1123 364 1121 370 1119 375 1117 380 1115 385 1112 390 1109 394 1105 398 1101 403 1098 406 1093 410 1089 413 1084 416 1080 419 1075 422 1070 424 1064 426 1059 427 1054 428 1048 429 1043 429 1037 429 1032 429 1026 429 1021 428 1015 426 1010 425 1005 423 1000 420 995 418 990 415 986 412 982 408 977 405 974 401 970 396 967 392 964 387 961 382 959 377 957 372 955 367 954 362 953 356 952 351 952 345 952 340 952 334 953 329 954 323 955 318 957 313 959 308 961 303 964 298 967 293 970 289 974 284 977 281 982 277 986 273 990 270 995 267 1000 265 1005 262 1010 260 1015 259 1021 257 1026 256 1032 256 1037 256 1043 256 1048 256 1054 257 1059 258 1064 259 1070 261 1075 263 1080 266 1084 269 1089 272 1093 275 1098 279 1101 282 1105 287 1109 291 1112 295 1115 300 1117 305 1119 310 1121 315 1123 321 1124 326 1125 331 1125 337 1125 342" stroke = "black" fill="red"></polygon>
<polygon points=" 1299 348 1299 354 1298 359 1297 364 1295 370 1293 375 1291 380 1289 385 1286 390 1283 394 1279 398 1275 403 1272 406 1267 410 1263 413 1258 416 1254 419 1249 422 1244 424 1238 426 1233 427 1228 428 1222 429 1217 429 1211 429 1206 429 1200 429 1195 428 1189 426 1184 425 1179 423 1174 420 1169 418 1164 415 1160 412 1156 408 1151 405 1148 401 1144 396 1141 392 1138 387 1135 382 1133 377 1131 372 1129 367 1128 362 1127 356 1126 351 1126 345 1126 340 1126 334 1127 329 1128 323 1129 318 1131 313 1133 308 1135 303 1138 298 1141 293 1144 289 1148 284 1151 281 1156 277 1160 273 1164 270 1169 267 1174 265 1179 262 1184 260 1189 259 1195 257 1200 256 1206 256 1211 256 1217 256 1222 256 1228 257 1233 258 1238 259 1244 261 1249 263 1254 266 1258 269 1263 272 1267 275 1272 279 1275 282 1279 287 1283 291 1286 295 1289 300 1291 305 1293 310 1295 315 1297 321 1298 326 1299 331 1299 337 1299 342" stroke = "black" fill="red"></polygon>
<polygon points=" 1473 348 1473 354 1472 359 1471 364 1469 370 1467 375 1465 380 1463 385 1460 390 1457 394 1453 398 1449 403 1446 406 1441 410 1437 413 1432 416 1428 419 1423 422 1418 424 1412 426 1407 427 1402 428 1396 429 1391 429 1385 429 1380 429 1374 429 1369 428 1363 426 1358 425 1353 423 1348 420 1343 418 1338 415 1334 412 1330 408 1325 405 1322 401 1318 396 1315 392 1312 387 1309 382 1307 377 1305 372 1303 367 1302 362 1301 356 1300 351 1300 345 1300 340 1300 334 1301 329 1302 323 1303 318 1305 313 1307 308 1309 303 1312 298 1315 293 1318 289 1322 284 1325 281 1330 277 1334 273 1338 270 1343 267 1348 265 1353 262 1358 260 1363 259 1369 257 1374 256 1380 256 1385 256 1391 256 1396 256 1402 257 1407 258 1412 259 1418 261 1423 263 1428 266 1432 269 1437 272 1441 275 1446 279 1449 282 1453 287 1457 291 1460 295 1463 300 1465 305 1467 310 1469 315 1471 321 1472 326 1473 331 1473 337 1473 342" stroke = "black" fill="red"></polygon>
<polygon points=" 429 522 429 528 428 533 427 538 425 544 423 549 421 554 419 559 416 564 413 568 409 572 405 577 402 580 397 584 393 587 388 590 384 593 379 596 374 598 368 600 363 601 358 602 352 603 347 603 341 603 336 603 330 603 325 602 319 600 314 599 309 597 304 594 299 592 294 589 290 586 286 582 281 579 278 575 274 570 271 566 268 561 265 556 263 551 261 546 259 541 258 536 257 530 256 525 256 519 256 514 256 508 257 503 258 497 259 492 261 487 263 482 265 477 268 472 271 467 274 463 278 458 281 455 286 451 290 447 294 444 299 441 304 439 309 436 314 434 319 433 325 431 330 430 336 430 341 430 347 430 352 430 358 431 363 432 368 433 374 435 379 437 384 440 388 443 393 446 397 449 402 453 405 456 409 461 413 465 416 469 419 474 421 479 423 484 425 489 427 495 428 500 429 505 429 511 429 516" stroke = "black" fill="red"></polygon>
<polygon points=" 603 522 603 528 602 533 601 538 599 544 597 549 595 554 593 559 590 564 587 568 583 572 579 577 576 580 571 584 567 587 562 590 558 593 553 596 548 598 542 600 537 601 532 602 526 603 521 603 515 603 510 603 504 603 499 602 493 600 488 599 483 597 478 594 473 592 468 589 464 586 460 582 455 579 452 575 448 570 445 566 442 561 439 556 437 551 435 546 433 541 432 536 431 530 430 525 430 519 430 514 430 508 431 503 432 497 433 492 435 487 437 482 439 477 442 472 445 467 448 463 452 458 455 455 460 451 464 447 468 444 473 441 478 439 483 436 488 434 493 433 499 431 504 430 510 430 515 430 521 430 526 430 532 431 537 432 542 433 548 435 553 437 558 440 562 443 567 446 571 449 576 453 579 456 583 461 587 465 590 469 593 474 595 479 597 484 599 489 601 495 602 500 603 505 603 511 603 516" stroke = "black" fill="red"></polygon>
<polygon points=" 777 522 777 528 776 533 775 538 773 544 771 549 769 554 767 559 764 564 761 568 757 572 753 577 750 580 745 584 741 587 736 590 732 593 727 596 722 598 716 600 711 601 706 602 700 603 695 603 689 603 684 603 678 603 673 602 667 600 662 599 657 597 652 594 647 592 642 589 638 586 634 582 629 579 626 575 622 570 619 566 616 561 613 556 611 551 609 546 607 541 606 536 605 530 604 525 604 519 604 514 604 508 605 503 606 497 607 492 609 487 611 482 613 477 616 472 619 467 622 463 626 458 629 455 634 451 638 447 642 444 647 441 652 439 657 436 662 434 667 433 673 431 678 430 684 430 689 430 695 430 700 430 706 431 711 432 716 433 722 435 727 437 732 440 736 443 741 446 745 449 750 453 753 456 757 461 761 465 764 469 767 474 769 479 771 484 773 489 775 495 776 500 777 505 777 511 777 516" stroke = "black" fill="red"></polygon>
<polygon points=" 951 522 951 528 950 533 949 538 947 544 945 549 943 554 941 559 938 564 935 568 931 572 927 577 924 580 919 584 915 587 910 590 906 593 901 596 896 598 890 600 885 601 880 602 874 603 869 603 863 603 858 603 852 603 847 602 841 600 836 599 831 597 826 594 821 592 816 589 812 586 808 582 803 579 800 575 796 570 793 566 790 561 787 556 785 551 783 546 781 541 780 536 779 530 778 525 778 519 778 514 778 508 779 503 780 497 781 492 783 487 785 482 787 477 790 472 793 467 796 463 800 458 803 455 808 451 812 447 816 444 821 441 826 439 831 436 836 434 841 433 847 431 852 430 858 430 863 430 869 430 874 430 880 431 885 432 890 433 896 435 901 437 906 440 910 443 915 446 919 449 924 453 927 456 931 461 935 465 938 469 941 474 943 479 945 484 947 489 949 495 950 500 951 505 951 511 951 516" stroke = "black" fill="red"></polygon>
<polygon points=" 1125 522 1125 528 1124 533 1123 538 1121 544 1119 549 1117 554 1115 559 1112 564 1109 568 1105 572 1101 577 1098 580 1093 584 1089 587 1084 590 1080 593 1075 596 1070 598 1064 600 1059 601 1054 602 1048 603 1043 603 1037 603 1032 603 1026 603 1021 602 1015 600 1010 599 1005 597 1000 594 995 592 990 589 986 586 982 582 977 579 974 575 970 570 967 566 964 561 961 556 959 551 957 546 955 541 954 536 953 530 952 525 952 519 952 514 952 508 953 503 954 497 955 492 957 487 959 482 961 477 964 472 967 467 970 463 974 458 977 455 982 451 986 447 990 444 995 441 1000 439 1005 436 1010 434 1015 433 1021 431 1026 430 1032 430 1037 430 1043 430 1048 430 1054 431 1059 432 1064 433 1070 435 1075 437 1080 440 1084 443 1089 446 1093 449 1098 453 1101 456 1105 461 1109 465 1112 469 1115 474 1117 479 1119 484 1121 489 1123 495 1124 500 1125 505 1125 511 1125 516" stroke = "black" fill="red"></polygon>
<polygon points=" 1299 522 1299 528 1298 533 1297 538 1295 544 1293 549 1291 554 1289 559 1286 564 1283 568 1279 572 1275 577 1272 580 1267 584 1263 587 1258 590 1254 593 1249 596 1244 598 1238 600 1233 601 1228 602 1222 603 1217 603 1211 603 1206 603 1200 603 1195 602 1189 600 1184 599 1179 597 1174 594 1169 592 1164 589 1160 586 1156 582 1151 579 1148 575 1144 570 1141 566 1138 561 1135 556 1133 551 1131 546 1129 541 1128 536 1127 530 1126 525 1126 519 1126 514 1126 508 1127 503 1128 497 1129 492 1131 487 1133 482 1135 477 1138 472 1141 467 1144 463 1148 458 1151 455 1156 451 1160 447 1164 444 1169 441 1174 439 1179 436 1184 434 1189 433 1195 431 1200 430 1206 430 1211 430 1217 430 1222 430 1228 431 1233 432 1238 433 1244 435 1249 437 1254 440 1258 443 1263 446 1267 449 1272 453 1275 456 1279 461 1283 465 1286 469 1289 474 1291 479 1293 484 1295 489 1297 495 1298 500 1299 505 1299 511 1299 516" stroke = "black" fill="red"></polygon>
<polygon points=" 1473 522 1473 528 1472 533 1471 538 1469 544 1467 549 1465 554 1463 559 1460 564 1457 568 1453 572 1449 577 1446 580 1441 584 1437 587 1432 590 1428 593 1423 596 1418 598 1412 600 1407 601 1402 602 1396 603 1391 603 1385 603 1380 603 1374 603 1369 602 1363 600 1358 599 1353 597 1348 594 1343 592 1338 589 1334 586 1330 582 1325 579 1322 575 1318 570 1315 566 1312 561 1309 556 1307 551 1305 546 1303 541 1302 536 1301 530 1300 525 1300 519 1300 514 1300 508 1301 503 1302 497 1303 492 1305 487 1307 482 1309 477 1312 472 1315 467 1318 463 1322 458 1325 455 1330 451 1334 447 1338 444 1343 441 1348 439 1353 436 1358 434 1363 433 1369 431 1374 430 1380 430 1385 430 1391 430 1396 430 1402 431 1407 432 1412 433 1418 435 1423 437 1428 440 1432 443 1437 446 1441 449 1446 453 1449 456 1453 461 1457 465 1460 469 1463 474 1465 479 1467 484 1469 489 1471 495 1472 500 1473 505 1473 511 1473 516" stroke = "black" fill="red"></polygon>
<polygon points=" 429 696 429 702 428 707 427 712 425 718 423 723 421 728 419 733 416 738 413 742 409 746 405 751 402 754 397 758 393 761 388 764 384 767 379 770 374 772 368 774 363 775 358 776 352 777 347 777 341 777 336 777 330 777 325 776 319 774 314 773 309 771 304 768 299 766 294 763 290 760 286 756 281 753 278 749 274 744 271 740 268 735 265 730 263 725 261 720 259 715 258 710 257 704 256 699 256 693 256 688 256 682 257 677 258 671 259 666 261 661 263 656 265 651 268 646 271 641 274 637 278 632 281 629 286 625 290 621 294 618 299 615 304 613 309 610 314 608 319 607 325 605 330 604 336 604 341 604 347 604 352 604 358 605 363 606 368 607 374 609 379 611 384 614 388 617 393 620 397 623 402 627 405 630 409 635 413 639 416 643 419 648 421 653 423 658 425 663 427 669 428 674 429 679 429 685 429 690" stroke = "black" fill="red"></polygon>
<polygon points=" 603 696 603 702 602 707 601 712 599 718 597 723 595 728 593 733 590 738 587 742 583 746 579 751 576 754 571 758 567 761 562 764 558 767 553 770 548 772 542 774 537 775 532 776 526 777 521 777 515 777 510 777 504 777 499 776 493 774 488 773 483 771 478 768 473 766 468 763 464 760 460 756 455 753 452 749 448 744 445 740 442 735 439 730 437 725 435 720 433 715 432 710 431 704 430 699 430 693 430 688 430 682 431 677 432 671 433 666 435 661 437 656 439 651 442 646 445 641 448 637 452 632 455 629 460 625 464 621 468 618 473 615 478 613 483 610 488 608 493 607 499 605 504 604 510 604 515 604 521 604 526 604 532 605 537 606 542 607 548 609 553 611 558 614 562 617 567 620 571 623 576 627 579 630 583 635 587 639 590 643 593 648 595 653 597 658 599 663 601 669 602 674 603 679 603 685 603 690" stroke = "black" fill="red"></polygon>
<polygon points=" 777 696 777 702 776 707 775 712 773 718 771 723 769 728 767 733 764 738 761 742 757 746 753 751 750 754 745 758 741 761 736 764 732 767 727 770 722 772 716 774 711 775 706 776 700 777 695 777 689 777 684 777 678 777 673 776 667 774 662 773 657 771 652 768 647 766 642 763 638 760 634 756 629 753 626 749 622 744 619 740 616 735 613 730 611 725 609 720 607 715 606 710 605 704 604 699 604 693 604 688 604 682 605 677 606 671 607 666 609 661 611 656 613 651 616 646 619 641 622 637 626 632 629 629 634 625 638 621 642 618 647 615 652 613 657 610 662 608 667 607 673 605 678 604 684 604 689 604 695 604 700 604 706 605 711 606 716 607 722 609 727 611 732 614 736 617 741 620 745 623 750 627 753 630 757 635 761 639 764 643 767 648 769 653 771 658 773 663 775 669 776 674 777 679 777 685 777 690" stroke = "black" fill="red"></polygon>
<polygon points=" 951 696 951 702 950 707 949 712 947 718 945 723 943 728 941 733 938 738 935 742 931 746 927 751 924 754 919 758 915 761 910 764 906 767 901 770 896 772 890 774 885 775 880 776 874 777 869 777 863 777 858 777 852 777 847 776 841 774 836 773 831 771 826 768 821 766 816 763 812 760 808 756 803 753 800 749 796 744 793 740 790 735 787 730 785 725 783 720 781 715 780 710 779 704 778 699 778 693 778 688 778 682 779 677 780 671 781 666 783 661 785 656 787 651 790 646 793 641 796 637 800 632 803 629 808 625 812 621 816 618 821 615 826 613 831 610 836 608 841 607 847 605 852 604 858 604 863 604 869 604 874 604 880 605 885 606 890 607 896 609 901 611 906 614 910 617 915 620 919 623 924 627 927 630 931 635 935 639 938 643 941 648 943 653 945 658 947 663 949 669 950 674 951 679 951 685 951 690" stroke = "black" fill="red"></polygon>
<polygon points=" 1125 696 1125 702 1124 707 1123 712 1121 718 1119 723 1117 728 1115 733 1112 738 1109 742 1105 746 1101 751 1098 754 1093 758 1089 761 1084 764 1080 767 1075 770 1070 772 1064 774 1059 775 1054 776 1048 777 1043 777 1037 777 1032 777 1026 777 1021 776 1015 774 1010 773 1005 771 1000 768 995 766 990 763 986 760 982 756 977 753 974 749 970 744 967 740 964 735 961 730 959 725 957 720 955 715 954 710 953 704 952 699 952 693 952 688 952 682 953 677 954 671 955 666 957 661 959 656 961 651 964 646 967 641 970 637 974 632 977 629 982 625 986 621 990 618 995 615 1000 613 1005 610 1010 608 1015 607 1021 605 1026 604 1032 604 1037 604 1043 604 1048 604 1054 605 1059 606 1064 607 1070 609 1075 611 1080 614 1084 617 1089 620 1093 623 1098 627 1101 630 1105 635 1109 639 1112 643 1115 648 1117 653 1119 658 1121 663 1123 669 1124 674 1125 679 1125 685 1125 690" stroke = "black" fill="red"></polygon>
<polygon points=" 1299 696 1299 702 1298 707 1297 712 1295 718 1293 723 1291 728 1289 733 1286 738 1283 742 1279 746 1275 751 1272 754 1267 758 1263 761 1258 764 1254 767 1249 770 1244 772 1238 774 1233 775 1228 776 1222 777 1217 777 1211 777 1206 777 1200 777 1195 776 1189 774 1184 773 1179 771 1174 768 1169 766 1164 763 1160 760 1156 756 1151 753 1148 749 1144 744 1141 740 1138 735 1135 730 1133 725 1131 720 1129 715 1128 710 1127 704 1126 699 1126 693 1126 688 1126 682 1127 677 1128 671 1129 666 1131 661 1133 656 1135 651 1138 646 1141 641 1144 637 1148 632 1151 629 1156 625 1160 621 1164 618 1169 615 1174 613 1179 610 1184 608 1189 607 1195 605 1200 604 1206 604 1211 604 1217 604 1222 604 1228 605 1233 606 1238 607 1244 609 1249 611 1254 614 1258 617 1263 620 1267 623 1272 627 1275 630 1279 635 1283 639 1286 643 1289 648 1291 653 1293 658 1295 663 1297 669 1298 674 1299 679 1299 685 1299 690" stroke = "black" fill="red"></polygon>
<polygon points=" 1473 696 1473 702 1472 707 1471 712 1469 718 1467 723 1465 728 1463 733 1460 738 1457 742 1453 746 1449 751 1446 754 1441 758 1437 761 1432 764 1428 767 1423 770 1418 772 1412 774 1407 775 1402 776 1396 777 1391 777 1385 777 1380 777 1374 777 1369 776 1363 774 1358 773 1353 771 1348 768 1343 766 1338 763 1334 760 1330 756 1325 753 1322 749 1318 744 1315 740 1312 735 1309 730 1307 725 1305 720 1303 715 1302 710 1301 704 1300 699 1300 693 1300 688 1300 682 1301 677 1302 671 1303 666 1305 661 1307 656 1309 651 1312 646 1315 641 1318 637 1322 632 1325 629 1330 625 1334 621 1338 618 1343 615 1348 613 1353 610 1358 608 1363 607 1369 605 1374 604 1380 604 1385 604 1391 604 1396 604 1402 605 1407 606 1412 607 1418 609 1423 611 1428 614 1432 617 1437 620 1441 623 1446 627 1449 630 1453 635 1457 639 1460 643 1463 648 1465 653 1467 658 1469 663 1471 669 1472 674 1473 679 1473 685 1473 690" stroke = "black" fill="red"></polygon>
<polygon points=" 429 870 429 876 428 881 427 886 425 892 423 897 421 902 419 907 416 912 413 916 409 920 405 925 402 928 397 932 393 935 388 938 384 941 379 944 374 946 368 948 363 949 358 950 352 951 347 951 341 951 336 951 330 951 325 950 319 948 314 947 309 945 304 942 299 940 294 937 290 934 286 930 281 927 278 923 274 918 271 914 268 909 265 904 263 899 261 894 259 889 258 884 257 878 256 873 256 867 256 862 256 856 257 851 258 845 259 840 261 835 263 830 265 825 268 820 271 815 274 811 278 806 281 803 286 799 290 795 294 792 299 789 304 787 309 784 314 782 319 781 325 779 330 778 336 778 341 778 347 778 352 778 358 779 363 780 368 781 374 783 379 785 384 788 388 791 393 794 397 797 402 801 405 804 409 809 413 813 416 817 419 822 421 827 423 832 425 837 427 843 428 848 429 853 429 859 429 864" stroke = "black" fill="red"></polygon>
<polygon points=" 603 870 603 876 602 881 601 886 599 892 597 897 595 902 593 907 590 912 587 916 583 920 579 925 576 928 571 932 567 935 562 938 558 941 553 944 548 946 542 948 537 949 532 950 526 951 521 951 515 951 510 951 504 951 499 950 493 948 488 947 483 945 478 942 473 940 468 937 464 934 460 930 455 927 452 923 448 918 445 914 442 909 439 904 437 899 435 894 433 889 432 884 431 878 430 873 430 867 430 862 430 856 431 851 432 845 433 840 435 835 437 830 439 825 442 820 445 815 448 811 452 806 455 803 460 799 464 795 468 792 473 789 478 787 483 784 488 782 493 781 499 779 504 778 510 778 515 778 521 778 526 778 532 779 537 780 542 781 548 783 553 785 558 788 562 791 567 794 571 797 576 801 579 804 583 809 587 813 590 817 593 822 595 827 597 832 599 837 601 843 602 848 603 853 603 859 603 864" stroke = "black" fill="red"></polygon>
<polygon points=" 777 870 777 876 776 881 775 886 773 892 771 897 769 902 767 907 764 912 761 916 757 920 753 925 750 928 745 932 741 935 736 938 732 941 727 944 722 946 716 948 711 949 706 950 700 951 695 951 689 951 684 951 678 951 673 950 667 948 662 947 657 945 652 942 647 940 642 937 638 934 634 930 629 927 626 923 622 918 619 914 616 909 613 904 611 899 609 894 607 889 606 884 605 878 604 873 604 867 604 862 604 856 605 851 606 845 607 840 609 835 611 830 613 825 616 820 619 815 622 811 626 806 629 803 634 799 638 795 642 792 647 789 652 787 657 784 662 782 667 781 673 779 678 778 684 778 689 778 695 778 700 778 706 779 711 780 716 781 722 783 727 785 732 788 736 791 741 794 745 797 750 801 753 804 757 809 761 813 764 817 767 822 769 827 771 832 773 837 775 843 776 848 777 853 777 859 777 864" stroke = "black" fill="red"></polygon>
<polygon points=" 951 870 951 876 950 881 949 886 947 892 945 897 943 902 941 907 938 912 935 916 931 920 927 925 924 928 919 932 915 935 910 938 906 941 901 944 896 946 890 948 885 949 880 950 874 951 869 951 863 951 858 951 852 951 847 950 841 948 836 947 831 945 826 942 821 940 816 937 812 934 808 930 803 927 800 923 796 918 793 914 790 909 787 904 785 899 783 894 781 889 780 884 779 878 778 873 778 867 778 862 778 856 779 851 780 845 781 840 783 835 785 830 787 825 790 820 793 815 796 811 800 806 803 803 808 799 812 795 816 792 821 789 826 787 831 784 836 782 841 781 847 779 852 778 858 778 863 778 869 778 874 778 880 779 885 780 890 781 896 783 901 785 906 788 910 791 915 794 919 797 924 801 927 804 931 809 935 813 938 817 941 822 943 827 945 832 947 837 949 843 950 848 951 853 951 859 951 864" stroke = "black" fill="red"></polygon>
<polygon points=" 1125 870 1125 876 1124 881 1123 886 1121 892 1119 897 1117 902 1115 907 1112 912 1109 916 1105 920 1101 925 1098 928 1093 932 1089 935 1084 938 1080 941 1075 944 1070 946 1064 948 1059 949 1054 950 1048 951 1043 951 1037 951 1032 951 1026 951 1021 950 1015 948 1010 947 1005 945 1000 942 995 940 990 937 986 934 982 930 977 927 974 923 970 918 967 914 964 909 961 904 959 899 957 894 955 889 954 884 953 878 952 873 952 867 952 862 952 856 953 851 954 845 955 840 957 835 959 830 961 825 964 820 967 815 970 811 974 806 977 803 982 799 986 795 990 792 995 789 1000 787 1005 784 1010 782 1015 781 1021 779 1026 778 1032 778 1037 778 1043 778 1048 778 1054 779 1059 780 1064 781 1070 783 1075 785 1080 788 1084 791 1089 794 1093 797 1098 801 1101 804 1105 809 1109 813 1112 817 1115 822 1117 827 1119 832 1121 837 1123 843 1124 848 1125 853 1125 859 1125 864" stroke = "black" fill="red"></polygon>
<polygon points=" 1299 870 1299 876 1298 881 1297 886 1295 892 1293 897 1291 902 1289 907 1286 912 1283 916 1279 920 1275 925 1272 928 1267 932 1263 935 1258 938 1254 941 1249 944 1244 946 1238 948 1233 949 1228 950 1222 951 1217 951 1211 951 1206 951 1200 951 1195 950 1189 948 1184 947 1179 945 1174 942 1169 940 1164 937 1160 934 1156 930 1151 927 1148 923 1144 918 1141 914 1138 909 1135 904 1133 899 1131 894 1129 889 1128 884 1127 878 1126 873 1126 867 1126 862 1126 856 1127 851 1128 845 1129 840 1131 835 1133 830 1135 825 1138 820 1141 815 1144 811 1148 806 1151 803 1156 799 1160 795 1164 792 1169 789 1174 787 1179 784 1184 782 1189 781 1195 779 1200 778 1206 778 1211 778 1217 778 1222 778 1228 779 1233 780 1238 781 1244 783 1249 785 1254 788 1258 791 1263 794 1267 797 1272 801 1275 804 1279 809 1283 813 1286 817 1289 822 1291 827 1293 832 1295 837 1297 843 1298 848 1299 853 1299 859 1299 864" stroke = "black" fill="red"></polygon>
<polygon points=" 1473 870 1473 876 1472 881 1471 886 1469 892 1467 897 1465 902 1463 907 1460 912 1457 916 1453 920 1449 925 1446 928 1441 932 1437 935 1432 938 1428 941 1423 944 1418 946 1412 948 1407 949 1402 950 1396 951 1391 951 1385 951 1380 951 1374 951 1369 950 1363 948 1358 947 1353 945 1348 942 1343 940 1338 937 1334 934 1330 930 1325 927 1322 923 1318 918 1315 914 1312 909 1309 904 1307 899 1305 894 1303 889 1302 884 1301 878 1300 873 1300 867 1300 862 1300 856 1301 851 1302 845 1303 840 1305 835 1307 830 1309 825 1312 820 1315 815 1318 811 1322 806 1325 803 1330 799 1334 795 1338 792 1343 789 1348 787 1353 784 1358 782 1363 781 1369 779 1374 778 1380 778 1385 778 1391 778 1396 778 1402 779 1407 780 1412 781 1418 783 1423 785 1428 788 1432 791 1437 794 1441 797 1446 801 1449 804 1453 809 1457 813 1460 817 1463 822 1465 827 1467 832 1469 837 1471 843 1472 848 1473 853 1473 859 1473 864" stroke = "black" fill="red"></polygon>
<polygon points=" 429 1044 429 1050 428 1055 427 1060 425 1066 423 1071 421 1076 419 1081 416 1086 413 1090 409 1094 405 1099 402 1102 397 1106 393 1109 388 1112 384 1115 379 1118 374 1120 368 1122 363 1123 358 1124 352 1125 347 1125 341 1125 336 1125 330 1125 325 1124 319 1122 314 1121 309 1119 304 1116 299 1114 294 1111 290 1108 286 1104 281 1101 278 1097 274 1092 271 1088 268 1083 265 1078 263 1073 261 1068 259 1063 258 1058 257 1052 256 1047 256 1041 256 1036 256 1030 257 1025 258 1019 259 1014 261 1009 263 1004 265 999 268 994 271 989 274 985 278 980 281 977 286 973 290 969 294 966 299 963 304 961 309 958 314 956 319 955 325 953 330 952 336 952 341 952 347 952 352 952 358 953 363 954 368 955 374 957 379 959 384 962 388 965 393 968 397 971 402 975 405 978 409 983 413 987 416 991 419 996 421 1001 423 1006 425 1011 427 1017 428 1022 429 1027 429 1033 429 1038" stroke = "black" fill="red"></polygon>
<polygon points=" 603 1044 603 1050 602 1055 601 1060 599 1066 597 1071 595 1076 593 1081 590 1086 587 1090 583 1094 579 1099 576 1102 571 1106 567 1109 562 1112 558 1115 553 1118 548 1120 542 1122 537 1123 532 1124 526 1125 521 1125 515 1125 510 1125 504 1125 499 1124 493 1122 488 1121 483 1119 478 1116 473 1114 468 1111 464 1108 460 1104 455 1101 452 1097 448 1092 445 1088 442 1083 439 1078 437 1073 435 1068 433 1063 432 1058 431 1052 430 1047 430 1041 430 1036 430 1030 431 1025 432 1019 433 1014 435 1009 437 1004 439 999 442 994 445 989 448 985 452 980 455 977 460 973 464 969 468 966 473 963 478 961 483 958 488 956 493 955 499 953 504 952 510 952 515 952 521 952 526 952 532 953 537 954 542 955 548 957 553 959 558 962 562 965 567 968 571 971 576 975 579 978 583 983 587 987 590 991 593 996 595 1001 597 1006 599 1011 601 1017 602 1022 603 1027 603 1033 603 1038" stroke = "black" fill="red"></polygon>
<polygon points=" 777 1044 777 1050 776 1055 775 1060 773 1066 771 1071 769 1076 767 1081 764 1086 761 1090 757 1094 753 1099 750 1102 745 1106 741 1109 736 1112 732 1115 727 1118 722 1120 716 1122 711 1123 706 1124 700 1125 695 1125 689 1125 684 1125 678 1125 673 1124 667 1122 662 1121 657 1119 652 1116 647 1114 642 1111 638 1108 634 1104 629 1101 626 1097 622 1092 619 1088 616 1083 613 1078 611 1073 609 1068 607 1063 606 1058 605 1052 604 1047 604 1041 604 1036 604 1030 605 1025 606 1019 607 1014 609 1009 611 1004 613 999 616 994 619 989 622 985 626 980 629 977 634 973 638 969 642 966 647 963 652 961 657 958 662 956 667 955 673 953 678 952 684 952 689 952 695 952 700 952 706 953 711 954 716 955 722 957 727 959 732 962 736 965 741 968 745 971 750 975 753 978 757 983 761 987 764 991 767 996 769 1001 771 1006 773 1011 775 1017 776 1022 777 1027 777 1033 777 1038" stroke = "black" fill="red"></polygon>
<polygon points=" 951 1044 951 1050 950 1055 949 1060 947 1066 945 1071 943 1076 941 1081 938 1086 935 1090 931 1094 927 1099 924 1102 919 1106 915 1109 910 1112 906 1115 901 1118 896 1120 890 1122 885 1123 880 1124 874 1125 869 1125 863 1125 858 1125 852 1125 847 1124 841 1122 836 1121 831 1119 826 1116 821 1114 816 1111 812 1108 808 1104 803 1101 800 1097 796 1092 793 1088 790 1083 787 1078 785 1073 783 1068 781 1063 780 1058 779 1052 778 1047 778 1041 778 1036 778 1030 779 1025 780 1019 781 1014 783 1009 785 1004 787 999 790 994 793 989 796 985 800 980 803 977 808 973 812 969 816 966 821 963 826 961 831 958 836 956 841 955 847 953 852 952 858 952 863 952 869 952 874 952 880 953 885 954 890 955 896 957 901 959 906 962 910 965 915 968 919 971 924 975 927 978 931 983 935 987 938 991 941 996 943 1001 945 1006 947 1011 949 1017 950 1022 951 1027 951 1033 951 1038" stroke = "black" fill="red"></polygon>
<polygon points=" 1125 1044 1125 1050 1124 1055 1123 1060 1121 1066 1119 1071 1117 1076 1115 1081 1112 1086 1109 1090 1105 1094 1101 1099 1098 1102 1093 1106 1089 1109 1084 1112 1080 1115 1075 1118 1070 1120 1064 1122 1059 1123 1054 1124 1048 1125 1043 1125 1037 1125 1032 1125 1026 1125 1021 1124 1015 1122 1010 1121 1005 1119 1000 1116 995 1114 990 1111 986 1108 982 1104 977 1101 974 1097 970 1092 967 1088 964 1083 961 1078 959 1073 957 1068 955 1063 954 1058 953 1052 952 1047 952 1041 952 1036 952 1030 953 1025 954 1019 955 1014 957 1009 959 1004 961 999 964 994 967 989 970 985 974 980 977 977 982 973 986 969 990 966 995 963 1000 961 1005 958 1010 956 1015 955 1021 953 1026 952 1032 952 1037 952 1043 952 1048 952 1054 953 1059 954 1064 955 1070 957 1075 959 1080 962 1084 965 1089 968 1093 971 1098 975 1101 978 1105 983 1109 987 1112 991 1115 996 1117 1001 1119 1006 1121 1011 1123 1017 1124 1022 1125 1027 1125 1033 1125 1038" stroke = "black" fill="red"></polygon>
<polygon points=" 1299 1044 1299 1050 1298 1055 1297 1060 1295 1066 1293 1071 1291 1076 1289 1081 1286 1086 1283 1090 1279 1094 1275 1099 1272 1102 1267 1106 1263 1109 1258 1112 1254 1115 1249 1118 1244 1120 1238 1122 1233 1123 1228 1124 1222 1125 1217 1125 1211 1125 1206 1125 1200 1125 1195 1124 1189 1122 1184 1121 1179 1119 1174 1116 1169 1114 1164 1111 1160 1108 1156 1104 1151 1101 1148 1097 1144 1092 1141 1088 1138 1083 1135 1078 1133 1073 1131 1068 1129 1063 1128 1058 1127 1052 1126 1047 1126 1041 1126 1036 1126 1030 1127 1025 1128 1019 1129 1014 1131 1009 1133 1004 1135 999 1138 994 1141 989 1144 985 1148 980 1151 977 1156 973 1160 969 1164 966 1169 963 1174 961 1179 958 1184 956 1189 955 1195 953 1200 952 1206 952 1211 952 1217 952 1222 952 1228 953 1233 954 1238 955 1244 957 1249 959 1254 962 1258 965 1263 968 1267 971 1272 975 1275 978 1279 983 1283 987 1286 991 1289 996 1291 1001 1293 1006 1295 1011 1297 1017 1298 1022 1299 1027 1299 1033 1299 1038" stroke = "black" fill="red"></polygon>
<polygon points=" 1473 1044 1473 1050 1472 1055 1471 1060 1469 1066 1467 1071 1465 1076 1463 1081 1460 1086 1457 1090 1453 1094 1449 1099 1446 1102 1441 1106 1437 1109 1432 1112 1428 1115 1423 1118 1418 1120 1412 1122 1407 1123 1402 1124 1396 1125 1391 1125 1385 1125 1380 1125 1374 1125 1369 1124 1363 1122 1358 1121 1353 1119 1348 1116 1343 1114 1338 1111 1334 1108 1330 1104 1325 1101 1322 1097 1318 1092 1315 1088 1312 1083 1309 1078 1307 1073 1305 1068 1303 1063 1302 1058 1301 1052 1300 1047 1300 1041 1300 1036 1300 1030 1301 1025 1302 1019 1303 1014 1305 1009 1307 1004 1309 999 1312 994 1315 989 1318 985 1322 980 1325 977 1330 973 1334 969 1338 966 1343 963 1348 961 1353 958 1358 956 1363 955 1369 953 1374 952 1380 952 1385 952 1391 952 1396 952 1402 953 1407 954 1412 955 1418 957 1423 959 1428 962 1432 965 1437 968 1441 971 1446 975 1449 978 1453 983 1457 987 1460 991 1463 996 1465 1001 1467 1006 1469 1011 1471 1017 1472 1022 1473 1027 1473 1033 1473 1038" stroke = "black" fill="red"></polygon>
<polygon points=" 429 1218 429 1224 428 1229 427 1234 425 1240 423 1245 421 1250 419 1255 416 1260 413 1264 409 1268 405 1273 402 1276 397 1280 393 1283 388 1286 384 1289 379 1292 374 1294 368 1296 363 1297 358 1298 352 1299 347 1299 341 1299 336 1299 330 1299 325 1298 319 1296 314 1295 309 1293 304 1290 299 1288 294 1285 290 1282 286 1278 281 1275 278 1271 274 1266 271 1262 268 1257 265 1252 263 1247 261 1242 259 1237 258 1232 257 1226 256 1221 256 1215 256 1210 256 1204 257 1199 258 1193 259 1188 261 1183 263 1178 265 1173 268 1168 271 1163 274 1159 278 1154 281 1151 286 1147 290 1143 294 1140 299 1137 304 1135 309 1132 314 1130 319 1129 325 1127 330 1126 336 1126 341 1126 347 1126 352 1126 358 1127 363 1128 368 1129 374 1131 379 1133 384 1136 388 1139 393 1142 397 1145 402 1149 405 1152 409 1157 413 1161 416 1165 419 1170 421 1175 423 1180 425 1185 427 1191 428 1196 429 1201 429 1207 429 1212" stroke = "black" fill="red"></polygon>
<polygon points=" 603 1218 603 1224 602 1229 601 1234 599 1240 597 1245 595 1250 593 1255 590 1260 587 1264 583 1268 579 1273 576 1276 571 1280 567 1283 562 1286 558 1289 553 1292 548 1294 542 1296 537 1297 532 1298 526 1299 521 1299 515 1299 510 1299 504 1299 499 1298 493 1296 488 1295 483 1293 478 1290 473 1288 468 1285 464 1282 460 1278 455 1275 452 1271 448 1266 445 1262 442 1257 439 1252 437 1247 435 1242 433 1237 432 1232 431 1226 430 1221 430 1215 430 1210 430 1204 431 1199 432 1193 433 1188 435 1183 437 1178 439 1173 442 1168 445 1163 448 1159 452 1154 455 1151 460 1147 464 1143 468 1140 473 1137 478 1135 483 1132 488 1130 493 1129 499 1127 504 1126 510 1126 515 1126 521 1126 526 1126 532 1127 537 1128 542 1129 548 1131 553 1133 558 1136 562 1139 567 1142 571 1145 576 1149 579 1152 583 1157 587 1161 590 1165 593 1170 595 1175 597 1180 599 1185 601 1191 602 1196 603 1201 603 1207 603 1212" stroke = "black" fill="red"></polygon>
<polygon points=" 777 1218 777 1224 776 1229 775 1234 773 1240 771 1245 769 1250 767 1255 764 1260 761 1264 757 1268 753 1273 750 1276 745 1280 741 1283 736 1286 732 1289 727 1292 722 1294 716 1296 711 1297 706 1298 700 1299 695 1299 689 1299 684 1299 678 1299 673 1298 667 1296 662 1295 657 1293 652 1290 647 1288 642 1285 638 1282 634 1278 629 1275 626 1271 622 1266 619 1262 616 1257 613 1252 611 1247 609 1242 607 1237 606 1232 605 1226 604 1221 604 1215 604 1210 604 1204 605 1199 606 1193 607 1188 609 1183 611 1178 613 1173 616 1168 619 1163 622 1159 626 1154 629 1151 634 1147 638 1143 642 1140 647 1137 652 1135 657 1132 662 1130 667 1129 673 1127 678 1126 684 1126 689 1126 695 1126 700 1126 706 1127 711 1128 716 1129 722 1131 727 1133 732 1136 736 1139 741 1142 745 1145 750 1149 753 1152 757 1157 761 1161 764 1165 767 1170 769 1175 771 1180 773 1185 775 1191 776 1196 777 1201 777 1207 777 1212" stroke = "black" fill="red"></polygon>
<polygon points=" 951 1218 951 1224 950 1229 949 1234 947 1240 945 1245 943 1250 941 1255 938 1260 935 1264 931 1268 927 1273 924 1276 919 1280 915 1283 910 1286 906 1289 901 1292 896 1294 890 1296 885 1297 880 1298 874 1299 869 1299 863 1299 858 1299 852 1299 847 1298 841 1296 836 1295 831 1293 826 1290 821 1288 816 1285 812 1282 808 1278 803 1275 800 1271 796 1266 793 1262 790 1257 787 1252 785 1247 783 1242 781 1237 780 1232 779 1226 778 1221 778 1215 778 1210 778 1204 779 1199 780 1193 781 1188 783 1183 785 1178 787 1173 790 1168 793 1163 796 1159 800 1154 803 1151 808 1147 812 1143 816 1140 821 1137 826 1135 831 1132 836 1130 841 1129 847 1127 852 1126 858 1126 863 1126 869 1126 874 1126 880 1127 885 1128 890 1129 896 1131 901 1133 906 1136 910 1139 915 1142 919 1145 924 1149 927 1152 931 1157 935 1161 938 1165 941 1170 943 1175 945 1180 947 1185 949 1191 950 1196 951 1201 951 1207 951 1212" stroke = "black" fill="red"></polygon>
<polygon points=" 1125 1218 1125 1224 1124 1229 1123 1234 1121 1240 1119 1245 1117 1250 1115 1255 1112 1260 1109 1264 1105 1268 1101 1273 1098 1276 1093 1280 1089 1283 1084 1286 1080 1289 1075 1292 1070 1294 1064 1296 1059 1297 1054 1298 1048 1299 1043 1299 1037 1299 1032 1299 1026 1299 1021 1298 1015 1296 1010 1295 1005 1293 1000 1290 995 1288 990 1285 986 1282 982 1278 977 1275 974 1271 970 1266 967 1262 964 1257 961 1252 959 1247 957 1242 955 1237 954 1232 953 1226 952 1221 952 1215 952 1210 952 1204 953 1199 954 1193 955 1188 957 1183 959 1178 961 1173 964 1168 967 1163 970 1159 974 1154 977 1151 982 1147 986 1143 990 1140 995 1137 1000 1135 1005 1132 1010 1130 1015 1129 1021 1127 1026 1126 1032 1126 1037 1126 1043 1126 1048 1126 1054 1127 1059 1128 1064 1129 1070 1131 1075 1133 1080 1136 1084 1139 1089 1142 1093 1145 1098 1149 1101 1152 1105 1157 1109 1161 1112 1165 1115 1170 1117 1175 1119 1180 1121 1185 1123 1191 1124 1196 1125 1201 1125 1207 1125 1212" stroke = "black" fill="red"></polygon>
<polygon points=" 1299 1218 1299 1224 1298 1229 1297 1234 1295 1240 1293 1245 1291 1250 1289 1255 1286 1260 1283 1264 1279 1268 1275 1273 1272 1276 1267 1280 1263 1283 1258 1286 1254 1289 1249 1292 1244 1294 1238 1296 1233 1297 1228 1298 1222 1299 1217 1299 1211 1299 1206 1299 1200 1299 1195 1298 1189 1296 1184 1295 1179 1293 1174 1290 1169 1288 1164 1285 1160 1282 1156 1278 1151 1275 1148 1271 1144 1266 1141 1262 1138 1257 1135 1252 1133 1247 1131 1242 1129 1237 1128 1232 1127 1226 1126 1221 1126 1215 1126 1210 1126 1204 1127 1199 1128 1193 1129 1188 1131 1183 1133 1178 1135 1173 1138 1168 1141 1163 1144 1159 1148 1154 1151 1151 1156 1147 1160 1143 1164 1140 1169 1137 1174 1135 1179 1132 1184 1130 1189 1129 1195 1127 1200 1126 1206 1126 1211 1126 1217 1126 1222 1126 1228 1127 1233 1128 1238 1129 1244 1131 1249 1133 1254 1136 1258 1139 1263 1142 1267 1145 1272 1149 1275 1152 1279 1157 1283 1161 1286 1165 1289 1170 1291 1175 1293 1180 1295 1185 1297 1191 1298 1196 1299 1201 1299 1207 1299 1212" stroke = "black" fill="red"></polygon>
<polygon points=" 1473 1218 1473 1224 1472 1229 1471 1234 1469 1240 1467 1245 1465 1250 1463 1255 1460 1260 1457 1264 1453 1268 1449 1273 1446 1276 1441 1280 1437 1283 1432 1286 1428 1289 1423 1292 1418 1294 1412 1296 1407 1297 1402 1298 1396 1299 1391 1299 1385 1299 1380 1299 1374 1299 1369 1298 1363 1296 1358 1295 1353 1293 1348 1290 1343 1288 1338 1285 1334 1282 1330 1278 1325 1275 1322 1271 1318 1266 1315 1262 1312 1257 1309 1252 1307 1247 1305 1242 1303 1237 1302 1232 1301 1226 1300 1221 1300 1215 1300 1210 1300 1204 1301 1199 1302 1193 1303 1188 1305 1183 1307 1178 1309 1173 1312 1168 1315 1163 1318 1159 1322 1154 1325 1151 1330 1147 1334 1143 1338 1140 1343 1137 1348 1135 1353 1132 1358 1130 1363 1129 1369 1127 1374 1126 1380 1126 1385 1126 1391 1126 1396 1126 1402 1127 1407 1128 1412 1129 1418 1131 1423 1133 1428 1136 1432 1139 1437 1142 1441 1145 1446 1149 1449 1152 1453 1157 1457 1161 1460 1165 1463 1170 1465 1175 1467 1180 1469 1185 1471 1191 1472 1196 1473 1201 1473 1207 1473 1212" stroke = "black" fill="red"></polygon>
<polygon points=" 429 1392 429 1398 428 1403 427 1408 425 1414 423 1419 421 1424 419 1429 416 1434 413 1438 409 1442 405 1447 402 1450 397 1454 393 1457 388 1460 384 1463 379 1466 374 1468 368 1470 363 1471 358 1472 352 1473 347 1473 341 1473 336 1473 330 1473 325 1472 319 1470 314 1469 309 1467 304 1464 299 1462 294 1459 290 1456 286 1452 281 1449 278 1445 274 1440 271 1436 268 1431 265 1426 263 1421 261 1416 259 1411 258 1406 257 1400 256 1395 256 1389 256 1384 256 1378 257 1373 258 1367 259 1362 261 1357 263 1352 265 1347 268 1342 271 1337 274 1333 278 1328 281 1325 286 1321 290 1317 294 1314 299 1311 304 1309 309 1306 314 1304 319 1303 325 1301 330 1300 336 1300 341 1300 347 1300 352 1300 358 1301 363 1302 368 1303 374 1305 379 1307 384 1310 388 1313 393 1316 397 1319 402 1323 405 1326 409 1331 413 1335 416 1339 419 1344 421 1349 423 1354 425 1359 427 1365 428 1370 429 1375 429 1381 429 1386" stroke = "black" fill="red"></polygon>
<polygon points=" 603 1392 603 1398 602 1403 601 1408 599 1414 597 1419 595 1424 593 1429 590 1434 587 1438 583 1442 579 1447 576 1450 571 1454 567 1457 562 1460 558 1463 553 1466 548 1468 542 1470 537 1471 532 1472 526 1473 521 1473 515 1473 510 1473 504 1473 499 1472 493 1470 488 1469 483 1467 478 1464 473 1462 468 1459 464 1456 460 1452 455 1449 452 1445 448 1440 445 1436 442 1431 439 1426 437 1421 435 1416 433 1411 432 1406 431 1400 430 1395 430 1389 430 1384 430 1378 431 1373 432 1367 433 1362 435 1357 437 1352 439 1347 442 1342 445 1337 448 1333 452 1328 455 1325 460 1321 464 1317 468 1314 473 1311 478 1309 483 1306 488 1304 493 1303 499 1301 504 1300 510 1300 515 1300 521 1300 526 1300 532 1301 537 1302 542 1303 548 1305 553 1307 558 1310 562 1313 567 1316 571 1319 576 1323 579 1326 583 1331 587 1335 590 1339 593 1344 595 1349 597 1354 599 1359 601 1365 602 1370 603 1375 603 1381 603 1386" stroke = "black" fill="red"></polygon>
<polygon points=" 777 1392 777 1398 776 1403 775 1408 773 1414 771 1419 769 1424 767 1429 764 1434 761 1438 757 1442 753 1447 750 1450 745 1454 741 1457 736 1460 732 1463 727 1466 722 1468 716 1470 711 1471 706 1472 700 1473 695 1473 689 1473 684 1473 678 1473 673 1472 667 1470 662 1469 657 1467 652 1464 647 1462 642 1459 638 1456 634 1452 629 1449 626 1445 622 1440 619 1436 616 1431 613 1426 611 1421 609 1416 607 1411 606 1406 605 1400 604 1395 604 1389 604 1384 604 1378 605 1373 606 1367 607 1362 609 1357 611 1352 613 1347 616 1342 619 1337 622 1333 626 1328 629 1325 634 1321 638 1317 642 1314 647 1311 652 1309 657 1306 662 1304 667 1303 673 1301 678 1300 684 1300 689 1300 695 1300 700 1300 706 1301 711 1302 716 1303 722 1305 727 1307 732 1310 736 1313 741 1316 745 1319 750 1323 753 1326 757 1331 761 1335 764 1339 767 1344 769 1349 771 1354 773 1359 775 1365 776 1370 777 1375 777 1381 777 1386" stroke = "black" fill="red"></polygon>
<polygon points=" 951 1392 951 1398 950 1403 949 1408 947 1414 945 1419 943 1424 941 1429 938 1434 935 1438 931 1442 927 1447 924 1450 919 1454 915 1457 910 1460 906 1463 901 1466 896 1468 890 1470 885 1471 880 1472 874 1473 869 1473 863 1473 858 1473 852 1473 847 1472 841 1470 836 1469 831 1467 826 1464 821 1462 816 1459 812 1456 808 1452 803 1449 800 1445 796 1440 793 1436 790 1431 787 1426 785 1421 783 1416 781 1411 780 1406 779 1400 778 1395 778 1389 778 1384 778 1378 779 1373 780 1367 781 1362 783 1357 785 1352 787 1347 790 1342 793 1337 796 1333 800 1328 803 1325 808 1321 812 1317 816 1314 821 1311 826 1309 831 1306 836 1304 841 1303 847 1301 852 1300 858 1300 863 1300 869 1300 874 1300 880 1301 885 1302 890 1303 896 1305 901 1307 906 1310 910 1313 915 1316 919 1319 924 1323 927 1326 931 1331 935 1335 938 1339 941 1344 943 1349 945 1354 947 1359 949 1365 950 1370 951 1375 951 1381 951 1386" stroke = "black" fill="red"></polygon>
<polygon points=" 1125 1392 1125 1398 1124 1403 1123 1408 1121 1414 1119 1419 1117 1424 1115 1429 1112 1434 1109 1438 1105 1442 1101 1447 1098 1450 1093 1454 1089 1457 1084 1460 1080 1463 1075 1466 1070 1468 1064 1470 1059 1471 1054 1472 1048 1473 1043 1473 1037 1473 1032 1473 1026 1473 1021 1472 1015 1470 1010 1469 1005 1467 1000 1464 995 1462 990 1459 986 1456 982 1452 977 1449 974 1445 970 1440 967 1436 964 1431 961 1426 959 1421 957 1416 955 1411 954 1406 953 1400 952 1395 952 1389 952 1384 952 1378 953 1373 954 1367 955 1362 957 1357 959 1352 961 1347 964 1342 967 1337 970 1333 974 1328 977 1325 982 1321 986 1317 990 1314 995 1311 1000 1309 1005 1306 1010 1304 1015 1303 1021 1301 1026 1300 1032 1300 1037 1300 1043 1300 1048 1300 1054 1301 1059 1302 1064 1303 1070 1305 1075 1307 1080 1310 1084 1313 1089 1316 1093 1319 1098 1323 1101 1326 1105 1331 1109 1335 1112 1339 1115 1344 1117 1349 1119 1354 1121 1359 1123 1365 1124 1370 1125 1375 1125 1381 1125 1386" stroke = "black" fill="red"></polygon>
<polygon points=" 1299 1392 1299 1398 1298 1403 1297 1408 1295 1414 1293 1419 1291 1424 1289 1429 1286 1434 1283 1438 1279 1442 1275 1447 1272 1450 1267 1454 1263 1457 1258 1460 1254 1463 1249 1466 1244 1468 1238 1470 1233 1471 1228 1472 1222 1473 1217 1473 1211 1473 1206 1473 1200 1473 1195 1472 1189 1470 1184 1469 1179 1467 1174 1464 1169 1462 1164 1459 1160 1456 1156 1452 1151 1449 1148 1445 1144 1440 1141 1436 1138 1431 1135 1426 1133 1421 1131 1416 1129 1411 1128 1406 1127 1400 1126 1395 1126 1389 1126 1384 1126 1378 1127 1373 1128 1367 1129 1362 1131 1357 1133 1352 1135 1347 1138 1342 1141 1337 1144 1333 1148 1328 1151 1325 1156 1321 1160 1317 1164 1314 1169 1311 1174 1309 1179 1306 1184 1304 1189 1303 1195 1301 1200 1300 1206 1300 1211 1300 1217 1300 1222 1300 1228 1301 1233 1302 1238 1303 1244 1305 1249 1307 1254 1310 1258 1313 1263 1316 1267 1319 1272 1323 1275 1326 1279 1331 1283 1335 1286 1339 1289 1344 1291 1349 1293 1354 1295 1359 1297 1365 1298 1370 1299 1375 1299 1381 1299 1386" stroke = "black" fill="red"></polygon>
<polygon points=" 1473 1392 1473 1398 1472 1403 1471 1408 1469 1414 1467 1419 1465 1424 1463 1429 1460 1434 1457 1438 1453 1442 1449 1447 1446 1450 1441 1454 1437 1457 1432 1460 1428 1463 1423 1466 1418 1468 1412 1470 1407 1471 1402 1472 1396 1473 1391 1473 1385 1473 1380 1473 1374 1473 1369 1472 1363 1470 1358 1469 1353 1467 1348 1464 1343 1462 1338 1459 1334 1456 1330 1452 1325 1449 1322 1445 1318 1440 1315 1436 1312 1431 1309 1426 1307 1421 1305 1416 1303 1411 1302 1406 1301 1400 1300 1395 1300 1389 1300 1384 1300 1378 1301 1373 1302 1367 1303 1362 1305 1357 1307 1352 1309 1347 1312 1342 1315 1337 1318 1333 1322 1328 1325 1325 1330 1321 1334 1317 1338 1314 1343 1311 1348 1309 1353 1306 1358 1304 1363 1303 1369 1301 1374 1300 1380 1300 1385 1300 1391 1300 1396 1300 1402 1301 1407 1302 1412 1303 1418 1305 1423 1307 1428 1310 1432 1313 1437 1316 1441 1319 1446 1323 1449 1326 1453 1331 1457 1335 1460 1339 1463 1344 1465 1349 1467 1354 1469 1359 1471 1365 1472 1370 1473 1375 1473 1381 1473 1386" stroke = "black" fill="red"></polygon></svg>