<svg version="1.1" baseProfile="full" xmlns="http://www.w3.org/2000/svg">
<polyline points=" 1746 929 1740 984 1732 1039 1719 1093 1704 1146 1685 1198 1663 1249 1637 1298 1609 1346 1577 1392 1543 1435 1506 1477 1467 1516 1425 1552 1380 1585 1334 1616 1286 1644 1237 1669 1185 1690 1133 1708 1080 1723 1025 1734 970 1742 915 1747 860 1747 804 1745 749 1739 695 1729 641 1716 588 1699 536 1680 485 1657 437 1630 389 1601 344 1569 301 1534 260 1496 222 1456 187 1414 154 1369 124 1323 97 1274 73 1224 52 1172 35 1120 21 1066 10 1012 3 957 0 901 0 846 3 791 10 735 21 681 35 627 52 575 73 523 97 473 124 425 154 378 186 333 222 291 260 251 301 213 344 178 389 146 436 117 485 90 536 67 588 48 640 31 694 18 749 8 804 2 860 0 915 0 970 5 1025 13 1079 24 1133 39 1185 57 1236 78 1286 103 1334 131 1380 161 1424 195 1466 231 1506 270 1543 312 1577 355 1609 401 1637 448 1663 498 1685 549 1704 601 1719 654 1732 708 1740 763 1746 818 1747 873" stroke = "blue" stroke-width="5" fill="red"></polyline></svg>