<svg version="1.1" baseProfile="full" xmlns="http://www.w3.org/2000/svg">
<polygon points=" 375 0 0 649 750 649" stroke = "black" fill="red"></polygon>
<polygon points=" 57 549 57 649 132 649 132 549" stroke = "black" fill="red"></polygon>
<polygon points=" 132 549 132 649 207 649 207 549" stroke = "black" fill="red"></polygon>
<polygon points=" 207 549 207 649 282 649 282 549" stroke = "black" fill="red"></polygon>
<polygon points=" 282 549 282 649 357 649 357 549" stroke = "black" fill="red"></polygon>
<polygon points=" 357 549 357 649 432 649 432 549" stroke = "black" fill="red"></polygon>
<polygon points=" 432 549 432 649 507 649 507 549" stroke = "black" fill="red"></polygon>
<polygon points=" 507 549 507 649 582 649 582 549" stroke = "black" fill="red"></polygon>
<polygon points=" 582 549 582 649 657 649 657 549" stroke = "black" fill="red"></polygon>
<polygon points=" 115 449 115 549 190 549 190 449" stroke = "black" fill="red"></polygon>
<polygon points=" 190 449 190 549 265 549 265 449" stroke = "black" fill="red"></polygon>
<polygon points=" 265 449 265 549 340 549 340 449" stroke = "black" fill="red"></polygon>
<polygon points=" 340 449 340 549 415 549 415 449" stroke = "black" fill="red"></polygon>
<polygon points=" 415 449 415 549 490 549 490 449" stroke = "black" fill="red"></polygon>
<polygon points=" 490 449 490 549 565 549 565 449" stroke = "black" fill="red"></polygon>
<polygon points=" 173 349 173 449 248 449 248 349" stroke = "black" fill="red"></polygon>
<polygon points=" 248 349 248 449 323 449 323 349" stroke = "black" fill="red"></polygon>
<polygon points=" 323 349 323 449 398 449 398 349" stroke = "black" fill="red"></polygon>
<polygon points=" 398 349 398 449 473 449 473 349" stroke = "black" fill="red"></polygon>
<polygon points=" 473 349 473 449 548 449 548 349" stroke = "black" fill="red"></polygon>
<polygon points=" 230 249 230 349 305 349 305 249" stroke = "black" fill="red"></polygon>
<polygon points=" 305 249 305 349 380 349 380 249" stroke = "black" fill="red"></polygon>
<polygon points=" 380 249 380 349 455 349 455 249" stroke = "black" fill="red"></polygon>
<polygon points=" 288 149 288 249 363 249 363 149" stroke = "black" fill="red"></polygon>
<polygon points=" 363 149 363 249 438 249 438 149" stroke = "black" fill="red"></polygon></svg>