<svg version="1.1" baseProfile="full" xmlns="http://www.w3.org/2000/svg">
<polygon points=" 0 0 0 800 700 800 700 0" stroke = "black" fill="red"></polygon>
<polygon points=" 0 0 0 75 55 75 55 0" stroke = "black" fill="red"></polygon>
<polygon points=" 55 0 55 75 110 75 110 0" stroke = "black" fill="red"></polygon>
<polygon points=" 110 0 110 75 165 75 165 0" stroke = "black" fill="red"></polygon>
<polygon points=" 165 0 165 75 220 75 220 0" stroke = "black" fill="red"></polygon>
<polygon points=" 220 0 220 75 275 75 275 0" stroke = "black" fill="red"></polygon>
<polygon points=" 275 0 275 75 330 75 330 0" stroke = "black" fill="red"></polygon>
<polygon points=" 330 0 330 75 385 75 385 0" stroke = "black" fill="red"></polygon>
<polygon points=" 385 0 385 75 440 75 440 0" stroke = "black" fill="red"></polygon>
<polygon points=" 440 0 440 75 495 75 495 0" stroke = "black" fill="red"></polygon>
<polygon points=" 495 0 495 75 550 75 550 0" stroke = "black" fill="red"></polygon>
<polygon points=" 550 0 550 75 605 75 605 0" stroke = "black" fill="red"></polygon>
<polygon points=" 605 0 605 75 660 75 660 0" stroke = "black" fill="red"></polygon>
<polygon points=" 0 75 0 150 55 150 55 75" stroke = "black" fill="red"></polygon>
<polygon points=" 55 75 55 150 110 150 110 75" stroke = "black" fill="red"></polygon>
<polygon points=" 110 75 110 150 165 150 165 75" stroke = "black" fill="red"></polygon>
<polygon points=" 165 75 165 150 220 150 220 75" stroke = "black" fill="red"></polygon>
<polygon points=" 220 75 220 150 275 150 275 75" stroke = "black" fill="red"></polygon>
<polygon points=" 275 75 275 150 330 150 330 75" stroke = "black" fill="red"></polygon>
<polygon points=" 330 75 330 150 385 150 385 75" stroke = "black" fill="red"></polygon>
<polygon points=" 385 75 385 150 440 150 440 75" stroke = "black" fill="red"></polygon>
<polygon points=" 440 75 440 150 495 150 495 75" stroke = "black" fill="red"></polygon>
<polygon points=" 495 75 495 150 550 150 550 75" stroke = "black" fill="red"></polygon>
<polygon points=" 550 75 550 150 605 150 605 75" stroke = "black" fill="red"></polygon>
<polygon points=" 605 75 605 150 660 150 660 75" stroke = "black" fill="red"></polygon>
<polygon points=" 0 150 0 225 55 225 55 150" stroke = "black" fill="red"></polygon>
<polygon points=" 55 150 55 225 110 225 110 150" stroke = "black" fill="red"></polygon>
<polygon points=" 110 150 110 225 165 225 165 150" stroke = "black" fill="red"></polygon>
<polygon points=" 165 150 165 225 220 225 220 150" stroke = "black" fill="red"></polygon>
<polygon points=" 220 150 220 225 275 225 275 150" stroke = "black" fill="red"></polygon>
<polygon points=" 275 150 275 225 330 225 330 150" stroke = "black" fill="red"></polygon>
<polygon points=" 330 150 330 225 385 225 385 150" stroke = "black" fill="red"></polygon>
<polygon points=" 385 150 385 225 440 225 440 150" stroke = "black" fill="red"></polygon>
<polygon points=" 440 150 440 225 495 225 495 150" stroke = "black" fill="red"></polygon>
<polygon points=" 495 150 495 225 550 225 550 150" stroke = "black" fill="red"></polygon>
<polygon points=" 550 150 550 225 605 225 605 150" stroke = "black" fill="red"></polygon>
<polygon points=" 605 150 605 225 660 225 660 150" stroke = "black" fill="red"></polygon>
<polygon points=" 0 225 0 300 55 300 55 225" stroke = "black" fill="red"></polygon>
<polygon points=" 55 225 55 300 110 300 110 225" stroke = "black" fill="red"></polygon>
<polygon points=" 110 225 110 300 165 300 165 225" stroke = "black" fill="red"></polygon>
<polygon points=" 165 225 165 300 220 300 220 225" stroke = "black" fill="red"></polygon>
<polygon points=" 220 225 220 300 275 300 275 225" stroke = "black" fill="red"></polygon>
<polygon points=" 275 225 275 300 330 300 330 225" stroke = "black" fill="red"></polygon>
<polygon points=" 330 225 330 300 385 300 385 225" stroke = "black" fill="red"></polygon>
<polygon points=" 385 225 385 300 440 300 440 225" stroke = "black" fill="red"></polygon>
<polygon points=" 440 225 440 300 495 300 495 225" stroke = "black" fill="red"></polygon>
<polygon points=" 495 225 495 300 550 300 550 225" stroke = "black" fill="red"></polygon>
<polygon points=" 550 225 550 300 605 300 605 225" stroke = "black" fill="red"></polygon>
<polygon points=" 605 225 605 300 660 300 660 225" stroke = "black" fill="red"></polygon>
<polygon points=" 0 300 0 375 55 375 55 300" stroke = "black" fill="red"></polygon>
<polygon points=" 55 300 55 375 110 375 110 300" stroke = "black" fill="red"></polygon>
<polygon points=" 110 300 110 375 165 375 165 300" stroke = "black" fill="red"></polygon>
<polygon points=" 165 300 165 375 220 375 220 300" stroke = "black" fill="red"></polygon>
<polygon points=" 220 300 220 375 275 375 275 300" stroke = "black" fill="red"></polygon>
<polygon points=" 275 300 275 375 330 375 330 300" stroke = "black" fill="red"></polygon>
<polygon points=" 330 300 330 375 385 375 385 300" stroke = "black" fill="red"></polygon>
<polygon points=" 385 300 385 375 440 375 440 300" stroke = "black" fill="red"></polygon>
<polygon points=" 440 300 440 375 495 375 495 300" stroke = "black" fill="red"></polygon>
<polygon points=" 495 300 495 375 550 375 550 300" stroke = "black" fill="red"></polygon>
<polygon points=" 550 300 550 375 605 375 605 300" stroke = "black" fill="red"></polygon>
<polygon points=" 605 300 605 375 660 375 660 300" stroke = "black" fill="red"></polygon>
<polygon points=" 0 375 0 450 55 450 55 375" stroke = "black" fill="red"></polygon>
<polygon points=" 55 375 55 450 110 450 110 375" stroke = "black" fill="red"></polygon>
<polygon points=" 110 375 110 450 165 450 165 375" stroke = "black" fill="red"></polygon>
<polygon points=" 165 375 165 450 220 450 220 375" stroke = "black" fill="red"></polygon>
<polygon points=" 220 375 220 450 275 450 275 375" stroke = "black" fill="red"></polygon>
<polygon points=" 275 375 275 450 330 450 330 375" stroke = "black" fill="red"></polygon>
<polygon points=" 330 375 330 450 385 450 385 375" stroke = "black" fill="red"></polygon>
<polygon points=" 385 375 385 450 440 450 440 375" stroke = "black" fill="red"></polygon>
<polygon points=" 440 375 440 450 495 450 495 375" stroke = "black" fill="red"></polygon>
<polygon points=" 495 375 495 450 550 450 550 375" stroke = "black" fill="red"></polygon>
<polygon points=" 550 375 550 450 605 450 605 375" stroke = "black" fill="red"></polygon>
<polygon points=" 605 375 605 450 660 450 660 375" stroke = "black" fill="red"></polygon>
<polygon points=" 0 450 0 525 55 525 55 450" stroke = "black" fill="red"></polygon>
<polygon points=" 55 450 55 525 110 525 110 450" stroke = "black" fill="red"></polygon>
<polygon points=" 110 450 110 525 165 525 165 450" stroke = "black" fill="red"></polygon>
<polygon points=" 165 450 165 525 220 525 220 450" stroke = "black" fill="red"></polygon>
<polygon points=" 220 450 220 525 275 525 275 450" stroke = "black" fill="red"></polygon>
<polygon points=" 275 450 275 525 330 525 330 450" stroke = "black" fill="red"></polygon>
<polygon points=" 330 450 330 525 385 525 385 450" stroke = "black" fill="red"></polygon>
<polygon points=" 385 450 385 525 440 525 440 450" stroke = "black" fill="red"></polygon>
<polygon points=" 440 450 440 525 495 525 495 450" stroke = "black" fill="red"></polygon>
<polygon points=" 495 450 495 525 550 525 550 450" stroke = "black" fill="red"></polygon>
<polygon points=" 550 450 550 525 605 525 605 450" stroke = "black" fill="red"></polygon>
<polygon points=" 605 450 605 525 660 525 660 450" stroke = "black" fill="red"></polygon>
<polygon points=" 0 525 0 600 55 600 55 525" stroke = "black" fill="red"></polygon>
<polygon points=" 55 525 55 600 110 600 110 525" stroke = "black" fill="red"></polygon>
<polygon points=" 110 525 110 600 165 600 165 525" stroke = "black" fill="red"></polygon>
<polygon points=" 165 525 165 600 220 600 220 525" stroke = "black" fill="red"></polygon>
<polygon points=" 220 525 220 600 275 600 275 525" stroke = "black" fill="red"></polygon>
<polygon points=" 275 525 275 600 330 600 330 525" stroke = "black" fill="red"></polygon>
<polygon points=" 330 525 330 600 385 600 385 525" stroke = "black" fill="red"></polygon>
<polygon points=" 385 525 385 600 440 600 440 525" stroke = "black" fill="red"></polygon>
<polygon points=" 440 525 440 600 495 600 495 525" stroke = "black" fill="red"></polygon>
<polygon points=" 495 525 495 600 550 600 550 525" stroke = "black" fill="red"></polygon>
<polygon points=" 550 525 550 600 605 600 605 525" stroke = "black" fill="red"></polygon>
<polygon points=" 605 525 605 600 660 600 660 525" stroke = "black" fill="red"></polygon>
<polygon points=" 0 600 0 675 55 675 55 600" stroke = "black" fill="red"></polygon>
<polygon points=" 55 600 55 675 110 675 110 600" stroke = "black" fill="red"></polygon>
<polygon points=" 110 600 110 675 165 675 165 600" stroke = "black" fill="red"></polygon>
<polygon points=" 165 600 165 675 220 675 220 600" stroke = "black" fill="red"></polygon>
<polygon points=" 220 600 220 675 275 675 275 600" stroke = "black" fill="red"></polygon>
<polygon points=" 275 600 275 675 330 675 330 600" stroke = "black" fill="red"></polygon>
<polygon points=" 330 600 330 675 385 675 385 600" stroke = "black" fill="red"></polygon>
<polygon points=" 385 600 385 675 440 675 440 600" stroke = "black" fill="red"></polygon>
<polygon points=" 440 600 440 675 495 675 495 600" stroke = "black" fill="red"></polygon>
<polygon points=" 495 600 495 675 550 675 550 600" stroke = "black" fill="red"></polygon>
<polygon points=" 550 600 550 675 605 675 605 600" stroke = "black" fill="red"></polygon>
<polygon points=" 605 600 605 675 660 675 660 600" stroke = "black" fill="red"></polygon>
<polygon points=" 0 675 0 750 55 750 55 675" stroke = "black" fill="red"></polygon>
<polygon points=" 55 675 55 750 110 750 110 675" stroke = "black" fill="red"></polygon>
<polygon points=" 110 675 110 750 165 750 165 675" stroke = "black" fill="red"></polygon>
<polygon points=" 165 675 165 750 220 750 220 675" stroke = "black" fill="red"></polygon>
<polygon points=" 220 675 220 750 275 750 275 675" stroke = "black" fill="red"></polygon>
<polygon points=" 275 675 275 750 330 750 330 675" stroke = "black" fill="red"></polygon>
<polygon points=" 330 675 330 750 385 750 385 675" stroke = "black" fill="red"></polygon>
<polygon points=" 385 675 385 750 440 750 440 675" stroke = "black" fill="red"></polygon>
<polygon points=" 440 675 440 750 495 750 495 675" stroke = "black" fill="red"></polygon>
<polygon points=" 495 675 495 750 550 750 550 675" stroke = "black" fill="red"></polygon>
<polygon points=" 550 675 550 750 605 750 605 675" stroke = "black" fill="red"></polygon>
<polygon points=" 605 675 605 750 660 750 660 675" stroke = "black" fill="red"></polygon></svg>