<svg version="1.1" baseProfile="full" xmlns="http://www.w3.org/2000/svg">
<polygon points=" 1398 744 1394 788 1387 832 1377 875 1365 918 1349 960 1332 1000 1311 1040 1288 1078 1263 1115 1236 1149 1206 1183 1174 1214 1141 1243 1106 1270 1069 1294 1030 1317 990 1336 949 1353 907 1368 865 1380 821 1389 777 1395 733 1399 688 1399 644 1397 600 1392 556 1385 513 1374 471 1361 429 1345 389 1327 350 1306 312 1282 276 1257 241 1229 209 1198 178 1166 149 1132 123 1096 99 1059 77 1020 58 980 42 939 28 897 17 854 8 810 3 766 0 722 0 677 3 633 8 589 17 545 28 502 42 460 58 419 77 379 99 340 123 303 149 267 178 233 208 201 241 171 276 143 312 117 349 93 389 72 429 54 470 38 513 25 556 14 600 7 644 2 688 0 733 0 777 4 821 10 864 19 907 31 949 46 990 63 1030 82 1068 105 1105 129 1141 156 1174 185 1206 216 1236 249 1263 284 1288 321 1311 359 1331 399 1349 439 1365 481 1377 524 1387 567 1394 611 1398 655 1399 699" stroke = "black" fill="red"></polygon>
<polygon points=" 375 80 375 160 450 160 450 80" stroke = "black" fill="red"></polygon>
<polygon points=" 450 80 450 160 525 160 525 80" stroke = "black" fill="red"></polygon>
<polygon points=" 525 80 525 160 600 160 600 80" stroke = "black" fill="red"></polygon>
<polygon points=" 600 80 600 160 675 160 675 80" stroke = "black" fill="red"></polygon>
<polygon points=" 675 80 675 160 750 160 750 80" stroke = "black" fill="red"></polygon>
<polygon points=" 750 80 750 160 825 160 825 80" stroke = "black" fill="red"></polygon>
<polygon points=" 825 80 825 160 900 160 900 80" stroke = "black" fill="red"></polygon>
<polygon points=" 900 80 900 160 975 160 975 80" stroke = "black" fill="red"></polygon>
<polygon points=" 254 160 254 240 329 240 329 160" stroke = "black" fill="red"></polygon>
<polygon points=" 329 160 329 240 404 240 404 160" stroke = "black" fill="red"></polygon>
<polygon points=" 404 160 404 240 479 240 479 160" stroke = "black" fill="red"></polygon>
<polygon points=" 479 160 479 240 554 240 554 160" stroke = "black" fill="red"></polygon>
<polygon points=" 554 160 554 240 629 240 629 160" stroke = "black" fill="red"></polygon>
<polygon points=" 629 160 629 240 704 240 704 160" stroke = "black" fill="red"></polygon>
<polygon points=" 704 160 704 240 779 240 779 160" stroke = "black" fill="red"></polygon>
<polygon points=" 779 160 779 240 854 240 854 160" stroke = "black" fill="red"></polygon>
<polygon points=" 854 160 854 240 929 240 929 160" stroke = "black" fill="red"></polygon>
<polygon points=" 929 160 929 240 1004 240 1004 160" stroke = "black" fill="red"></polygon>
<polygon points=" 1004 160 1004 240 1079 240 1079 160" stroke = "black" fill="red"></polygon>
<polygon points=" 172 240 172 320 247 320 247 240" stroke = "black" fill="red"></polygon>
<polygon points=" 247 240 247 320 322 320 322 240" stroke = "black" fill="red"></polygon>
<polygon points=" 322 240 322 320 397 320 397 240" stroke = "black" fill="red"></polygon>
<polygon points=" 397 240 397 320 472 320 472 240" stroke = "black" fill="red"></polygon>
<polygon points=" 472 240 472 320 547 320 547 240" stroke = "black" fill="red"></polygon>
<polygon points=" 547 240 547 320 622 320 622 240" stroke = "black" fill="red"></polygon>
<polygon points=" 622 240 622 320 697 320 697 240" stroke = "black" fill="red"></polygon>
<polygon points=" 697 240 697 320 772 320 772 240" stroke = "black" fill="red"></polygon>
<polygon points=" 772 240 772 320 847 320 847 240" stroke = "black" fill="red"></polygon>
<polygon points=" 847 240 847 320 922 320 922 240" stroke = "black" fill="red"></polygon>
<polygon points=" 922 240 922 320 997 320 997 240" stroke = "black" fill="red"></polygon>
<polygon points=" 997 240 997 320 1072 320 1072 240" stroke = "black" fill="red"></polygon>
<polygon points=" 1072 240 1072 320 1147 320 1147 240" stroke = "black" fill="red"></polygon>
<polygon points=" 1147 240 1147 320 1222 320 1222 240" stroke = "black" fill="red"></polygon>
<polygon points=" 112 320 112 400 187 400 187 320" stroke = "black" fill="red"></polygon>
<polygon points=" 187 320 187 400 262 400 262 320" stroke = "black" fill="red"></polygon>
<polygon points=" 262 320 262 400 337 400 337 320" stroke = "black" fill="red"></polygon>
<polygon points=" 337 320 337 400 412 400 412 320" stroke = "black" fill="red"></polygon>
<polygon points=" 412 320 412 400 487 400 487 320" stroke = "black" fill="red"></polygon>
<polygon points=" 487 320 487 400 562 400 562 320" stroke = "black" fill="red"></polygon>
<polygon points=" 562 320 562 400 637 400 637 320" stroke = "black" fill="red"></polygon>
<polygon points=" 637 320 637 400 712 400 712 320" stroke = "black" fill="red"></polygon>
<polygon points=" 712 320 712 400 787 400 787 320" stroke = "black" fill="red"></polygon>
<polygon points=" 787 320 787 400 862 400 862 320" stroke = "black" fill="red"></polygon>
<polygon points=" 862 320 862 400 937 400 937 320" stroke = "black" fill="red"></polygon>
<polygon points=" 937 320 937 400 1012 400 1012 320" stroke = "black" fill="red"></polygon>
<polygon points=" 1012 320 1012 400 1087 400 1087 320" stroke = "black" fill="red"></polygon>
<polygon points=" 1087 320 1087 400 1162 400 1162 320" stroke = "black" fill="red"></polygon>
<polygon points=" 1162 320 1162 400 1237 400 1237 320" stroke = "black" fill="red"></polygon>
<polygon points=" 67 400 67 480 142 480 142 400" stroke = "black" fill="red"></polygon>
<polygon points=" 142 400 142 480 217 480 217 400" stroke = "black" fill="red"></polygon>
<polygon points=" 217 400 217 480 292 480 292 400" stroke = "black" fill="red"></polygon>
<polygon points=" 292 400 292 480 367 480 367 400" stroke = "black" fill="red"></polygon>
<polygon points=" 367 400 367 480 442 480 442 400" stroke = "black" fill="red"></polygon>
<polygon points=" 442 400 442 480 517 480 517 400" stroke = "black" fill="red"></polygon>
<polygon points=" 517 400 517 480 592 480 592 400" stroke = "black" fill="red"></polygon>
<polygon points=" 592 400 592 480 667 480 667 400" stroke = "black" fill="red"></polygon>
<polygon points=" 667 400 667 480 742 480 742 400" stroke = "black" fill="red"></polygon>
<polygon points=" 742 400 742 480 817 480 817 400" stroke = "black" fill="red"></polygon>
<polygon points=" 817 400 817 480 892 480 892 400" stroke = "black" fill="red"></polygon>
<polygon points=" 892 400 892 480 967 480 967 400" stroke = "black" fill="red"></polygon>
<polygon points=" 967 400 967 480 1042 480 1042 400" stroke = "black" fill="red"></polygon>
<polygon points=" 1042 400 1042 480 1117 480 1117 400" stroke = "black" fill="red"></polygon>
<polygon points=" 1117 400 1117 480 1192 480 1192 400" stroke = "black" fill="red"></polygon>
<polygon points=" 1192 400 1192 480 1267 480 1267 400" stroke = "black" fill="red"></polygon>
<polygon points=" 35 480 35 560 110 560 110 480" stroke = "black" fill="red"></polygon>
<polygon points=" 110 480 110 560 185 560 185 480" stroke = "black" fill="red"></polygon>
<polygon points=" 185 480 185 560 260 560 260 480" stroke = "black" fill="red"></polygon>
<polygon points=" 260 480 260 560 335 560 335 480" stroke = "black" fill="red"></polygon>
<polygon points=" 335 480 335 560 410 560 410 480" stroke = "black" fill="red"></polygon>
<polygon points=" 410 480 410 560 485 560 485 480" stroke = "black" fill="red"></polygon>
<polygon points=" 485 480 485 560 560 560 560 480" stroke = "black" fill="red"></polygon>
<polygon points=" 560 480 560 560 635 560 635 480" stroke = "black" fill="red"></polygon>
<polygon points=" 635 480 635 560 710 560 710 480" stroke = "black" fill="red"></polygon>
<polygon points=" 710 480 710 560 785 560 785 480" stroke = "black" fill="red"></polygon>
<polygon points=" 785 480 785 560 860 560 860 480" stroke = "black" fill="red"></polygon>
<polygon points=" 860 480 860 560 935 560 935 480" stroke = "black" fill="red"></polygon>
<polygon points=" 935 480 935 560 1010 560 1010 480" stroke = "black" fill="red"></polygon>
<polygon points=" 1010 480 1010 560 1085 560 1085 480" stroke = "black" fill="red"></polygon>
<polygon points=" 1085 480 1085 560 1160 560 1160 480" stroke = "black" fill="red"></polygon>
<polygon points=" 1160 480 1160 560 1235 560 1235 480" stroke = "black" fill="red"></polygon>
<polygon points=" 1235 480 1235 560 1310 560 1310 480" stroke = "black" fill="red"></polygon>
<polygon points=" 14 560 14 640 89 640 89 560" stroke = "black" fill="red"></polygon>
<polygon points=" 89 560 89 640 164 640 164 560" stroke = "black" fill="red"></polygon>
<polygon points=" 164 560 164 640 239 640 239 560" stroke = "black" fill="red"></polygon>
<polygon points=" 239 560 239 640 314 640 314 560" stroke = "black" fill="red"></polygon>
<polygon points=" 314 560 314 640 389 640 389 560" stroke = "black" fill="red"></polygon>
<polygon points=" 389 560 389 640 464 640 464 560" stroke = "black" fill="red"></polygon>
<polygon points=" 464 560 464 640 539 640 539 560" stroke = "black" fill="red"></polygon>
<polygon points=" 539 560 539 640 614 640 614 560" stroke = "black" fill="red"></polygon>
<polygon points=" 614 560 614 640 689 640 689 560" stroke = "black" fill="red"></polygon>
<polygon points=" 689 560 689 640 764 640 764 560" stroke = "black" fill="red"></polygon>
<polygon points=" 764 560 764 640 839 640 839 560" stroke = "black" fill="red"></polygon>
<polygon points=" 839 560 839 640 914 640 914 560" stroke = "black" fill="red"></polygon>
<polygon points=" 914 560 914 640 989 640 989 560" stroke = "black" fill="red"></polygon>
<polygon points=" 989 560 989 640 1064 640 1064 560" stroke = "black" fill="red"></polygon>
<polygon points=" 1064 560 1064 640 1139 640 1139 560" stroke = "black" fill="red"></polygon>
<polygon points=" 1139 560 1139 640 1214 640 1214 560" stroke = "black" fill="red"></polygon>
<polygon points=" 1214 560 1214 640 1289 640 1289 560" stroke = "black" fill="red"></polygon>
<polygon points=" 1289 560 1289 640 1364 640 1364 560" stroke = "black" fill="red"></polygon>
<polygon points=" 2 640 2 720 77 720 77 640" stroke = "black" fill="red"></polygon>
<polygon points=" 77 640 77 720 152 720 152 640" stroke = "black" fill="red"></polygon>
<polygon points=" 152 640 152 720 227 720 227 640" stroke = "black" fill="red"></polygon>
<polygon points=" 227 640 227 720 302 720 302 640" stroke = "black" fill="red"></polygon>
<polygon points=" 302 640 302 720 377 720 377 640" stroke = "black" fill="red"></polygon>
<polygon points=" 377 640 377 720 452 720 452 640" stroke = "black" fill="red"></polygon>
<polygon points=" 452 640 452 720 527 720 527 640" stroke = "black" fill="red"></polygon>
<polygon points=" 527 640 527 720 602 720 602 640" stroke = "black" fill="red"></polygon>
<polygon points=" 602 640 602 720 677 720 677 640" stroke = "black" fill="red"></polygon>
<polygon points=" 677 640 677 720 752 720 752 640" stroke = "black" fill="red"></polygon>
<polygon points=" 752 640 752 720 827 720 827 640" stroke = "black" fill="red"></polygon>
<polygon points=" 827 640 827 720 902 720 902 640" stroke = "black" fill="red"></polygon>
<polygon points=" 902 640 902 720 977 720 977 640" stroke = "black" fill="red"></polygon>
<polygon points=" 977 640 977 720 1052 720 1052 640" stroke = "black" fill="red"></polygon>
<polygon points=" 1052 640 1052 720 1127 720 1127 640" stroke = "black" fill="red"></polygon>
<polygon points=" 1127 640 1127 720 1202 720 1202 640" stroke = "black" fill="red"></polygon>
<polygon points=" 1202 640 1202 720 1277 720 1277 640" stroke = "black" fill="red"></polygon>
<polygon points=" 1277 640 1277 720 1352 720 1352 640" stroke = "black" fill="red"></polygon>
<polygon points=" 37 720 37 800 112 800 112 720" stroke = "black" fill="red"></polygon>
<polygon points=" 112 720 112 800 187 800 187 720" stroke = "black" fill="red"></polygon>
<polygon points=" 187 720 187 800 262 800 262 720" stroke = "black" fill="red"></polygon>
<polygon points=" 262 720 262 800 337 800 337 720" stroke = "black" fill="red"></polygon>
<polygon points=" 337 720 337 800 412 800 412 720" stroke = "black" fill="red"></polygon>
<polygon points=" 412 720 412 800 487 800 487 720" stroke = "black" fill="red"></polygon>
<polygon points=" 487 720 487 800 562 800 562 720" stroke = "black" fill="red"></polygon>
<polygon points=" 562 720 562 800 637 800 637 720" stroke = "black" fill="red"></polygon>
<polygon points=" 637 720 637 800 712 800 712 720" stroke = "black" fill="red"></polygon>
<polygon points=" 712 720 712 800 787 800 787 720" stroke = "black" fill="red"></polygon>
<polygon points=" 787 720 787 800 862 800 862 720" stroke = "black" fill="red"></polygon>
<polygon points=" 862 720 862 800 937 800 937 720" stroke = "black" fill="red"></polygon>
<polygon points=" 937 720 937 800 1012 800 1012 720" stroke = "black" fill="red"></polygon>
<polygon points=" 1012 720 1012 800 1087 800 1087 720" stroke = "black" fill="red"></polygon>
<polygon points=" 1087 720 1087 800 1162 800 1162 720" stroke = "black" fill="red"></polygon>
<polygon points=" 1162 720 1162 800 1237 800 1237 720" stroke = "black" fill="red"></polygon>
<polygon points=" 1237 720 1237 800 1312 800 1312 720" stroke = "black" fill="red"></polygon>
<polygon points=" 74 800 74 880 149 880 149 800" stroke = "black" fill="red"></polygon>
<polygon points=" 149 800 149 880 224 880 224 800" stroke = "black" fill="red"></polygon>
<polygon points=" 224 800 224 880 299 880 299 800" stroke = "black" fill="red"></polygon>
<polygon points=" 299 800 299 880 374 880 374 800" stroke = "black" fill="red"></polygon>
<polygon points=" 374 800 374 880 449 880 449 800" stroke = "black" fill="red"></polygon>
<polygon points=" 449 800 449 880 524 880 524 800" stroke = "black" fill="red"></polygon>
<polygon points=" 524 800 524 880 599 880 599 800" stroke = "black" fill="red"></polygon>
<polygon points=" 599 800 599 880 674 880 674 800" stroke = "black" fill="red"></polygon>
<polygon points=" 674 800 674 880 749 880 749 800" stroke = "black" fill="red"></polygon>
<polygon points=" 749 800 749 880 824 880 824 800" stroke = "black" fill="red"></polygon>
<polygon points=" 824 800 824 880 899 880 899 800" stroke = "black" fill="red"></polygon>
<polygon points=" 899 800 899 880 974 880 974 800" stroke = "black" fill="red"></polygon>
<polygon points=" 974 800 974 880 1049 880 1049 800" stroke = "black" fill="red"></polygon>
<polygon points=" 1049 800 1049 880 1124 880 1124 800" stroke = "black" fill="red"></polygon>
<polygon points=" 1124 800 1124 880 1199 880 1199 800" stroke = "black" fill="red"></polygon>
<polygon points=" 1199 800 1199 880 1274 880 1274 800" stroke = "black" fill="red"></polygon>
<polygon points=" 149 880 149 960 224 960 224 880" stroke = "black" fill="red"></polygon>
<polygon points=" 224 880 224 960 299 960 299 880" stroke = "black" fill="red"></polygon>
<polygon points=" 299 880 299 960 374 960 374 880" stroke = "black" fill="red"></polygon>
<polygon points=" 374 880 374 960 449 960 449 880" stroke = "black" fill="red"></polygon>
<polygon points=" 449 880 449 960 524 960 524 880" stroke = "black" fill="red"></polygon>
<polygon points=" 524 880 524 960 599 960 599 880" stroke = "black" fill="red"></polygon>
<polygon points=" 599 880 599 960 674 960 674 880" stroke = "black" fill="red"></polygon>
<polygon points=" 674 880 674 960 749 960 749 880" stroke = "black" fill="red"></polygon>
<polygon points=" 749 880 749 960 824 960 824 880" stroke = "black" fill="red"></polygon>
<polygon points=" 824 880 824 960 899 960 899 880" stroke = "black" fill="red"></polygon>
<polygon points=" 899 880 899 960 974 960 974 880" stroke = "black" fill="red"></polygon>
<polygon points=" 974 880 974 960 1049 960 1049 880" stroke = "black" fill="red"></polygon>
<polygon points=" 1049 880 1049 960 1124 960 1124 880" stroke = "black" fill="red"></polygon>
<polygon points=" 1124 880 1124 960 1199 960 1199 880" stroke = "black" fill="red"></polygon>
<polygon points=" 1199 880 1199 960 1274 960 1274 880" stroke = "black" fill="red"></polygon>
<polygon points=" 224 960 224 1040 299 1040 299 960" stroke = "black" fill="red"></polygon>
<polygon points=" 299 960 299 1040 374 1040 374 960" stroke = "black" fill="red"></polygon>
<polygon points=" 374 960 374 1040 449 1040 449 960" stroke = "black" fill="red"></polygon>
<polygon points=" 449 960 449 1040 524 1040 524 960" stroke = "black" fill="red"></polygon>
<polygon points=" 524 960 524 1040 599 1040 599 960" stroke = "black" fill="red"></polygon>
<polygon points=" 599 960 599 1040 674 1040 674 960" stroke = "black" fill="red"></polygon>
<polygon points=" 674 960 674 1040 749 1040 749 960" stroke = "black" fill="red"></polygon>
<polygon points=" 749 960 749 1040 824 1040 824 960" stroke = "black" fill="red"></polygon>
<polygon points=" 824 960 824 1040 899 1040 899 960" stroke = "black" fill="red"></polygon>
<polygon points=" 899 960 899 1040 974 1040 974 960" stroke = "black" fill="red"></polygon>
<polygon points=" 974 960 974 1040 1049 1040 1049 960" stroke = "black" fill="red"></polygon>
<polygon points=" 1049 960 1049 1040 1124 1040 1124 960" stroke = "black" fill="red"></polygon>
<polygon points=" 1124 960 1124 1040 1199 1040 1199 960" stroke = "black" fill="red"></polygon>
<polygon points=" 299 1040 299 1120 374 1120 374 1040" stroke = "black" fill="red"></polygon>
<polygon points=" 374 1040 374 1120 449 1120 449 1040" stroke = "black" fill="red"></polygon>
<polygon points=" 449 1040 449 1120 524 1120 524 1040" stroke = "black" fill="red"></polygon>
<polygon points=" 524 1040 524 1120 599 1120 599 1040" stroke = "black" fill="red"></polygon>
<polygon points=" 599 1040 599 1120 674 1120 674 1040" stroke = "black" fill="red"></polygon>
<polygon points=" 674 1040 674 1120 749 1120 749 1040" stroke = "black" fill="red"></polygon>
<polygon points=" 749 1040 749 1120 824 1120 824 1040" stroke = "black" fill="red"></polygon>
<polygon points=" 824 1040 824 1120 899 1120 899 1040" stroke = "black" fill="red"></polygon>
<polygon points=" 899 1040 899 1120 974 1120 974 1040" stroke = "black" fill="red"></polygon>
<polygon points=" 974 1040 974 1120 1049 1120 1049 1040" stroke = "black" fill="red"></polygon>
<polygon points=" 1049 1040 1049 1120 1124 1120 1124 1040" stroke = "black" fill="red"></polygon>
<polygon points=" 1124 1040 1124 1120 1199 1120 1199 1040" stroke = "black" fill="red"></polygon>
<polygon points=" 374 1120 374 1200 449 1200 449 1120" stroke = "black" fill="red"></polygon>
<polygon points=" 449 1120 449 1200 524 1200 524 1120" stroke = "black" fill="red"></polygon>
<polygon points=" 524 1120 524 1200 599 1200 599 1120" stroke = "black" fill="red"></polygon>
<polygon points=" 599 1120 599 1200 674 1200 674 1120" stroke = "black" fill="red"></polygon>
<polygon points=" 674 1120 674 1200 749 1200 749 1120" stroke = "black" fill="red"></polygon>
<polygon points=" 749 1120 749 1200 824 1200 824 1120" stroke = "black" fill="red"></polygon>
<polygon points=" 824 1120 824 1200 899 1200 899 1120" stroke = "black" fill="red"></polygon>
<polygon points=" 899 1120 899 1200 974 1200 974 1120" stroke = "black" fill="red"></polygon>
<polygon points=" 974 1120 974 1200 1049 1200 1049 1120" stroke = "black" fill="red"></polygon>
<polygon points=" 1049 1120 1049 1200 1124 1200 1124 1120" stroke = "black" fill="red"></polygon>
<polygon points=" 449 1200 449 1280 524 1280 524 1200" stroke = "black" fill="red"></polygon>
<polygon points=" 524 1200 524 1280 599 1280 599 1200" stroke = "black" fill="red"></polygon>
<polygon points=" 599 1200 599 1280 674 1280 674 1200" stroke = "black" fill="red"></polygon>
<polygon points=" 674 1200 674 1280 749 1280 749 1200" stroke = "black" fill="red"></polygon>
<polygon points=" 749 1200 749 1280 824 1280 824 1200" stroke = "black" fill="red"></polygon>
<polygon points=" 824 1200 824 1280 899 1280 899 1200" stroke = "black" fill="red"></polygon>
<polygon points=" 899 1200 899 1280 974 1280 974 1200" stroke = "black" fill="red"></polygon>
<polygon points=" 974 1200 974 1280 1049 1280 1049 1200" stroke = "black" fill="red"></polygon>
<polygon points=" 524 1280 524 1360 599 1360 599 1280" stroke = "black" fill="red"></polygon>
<polygon points=" 599 1280 599 1360 674 1360 674 1280" stroke = "black" fill="red"></polygon>
<polygon points=" 674 1280 674 1360 749 1360 749 1280" stroke = "black" fill="red"></polygon>
<polygon points=" 749 1280 749 1360 824 1360 824 1280" stroke = "black" fill="red"></polygon>
<polygon points=" 824 1280 824 1360 899 1360 899 1280" stroke = "black" fill="red"></polygon></svg>