<svg version="1.1" baseProfile="full" xmlns="http://www.w3.org/2000/svg">
<polygon points="425 0 0 736 850 736 " stroke = "black" fill="red"></polygon>
<polygon points="425 0 383 72 467 72 " stroke = "black" fill="green"></polygon>
<polygon points="383 72 341 145 425 145 " stroke = "black" fill="green"></polygon>
<polygon points="467 72 425 145 509 145 " stroke = "black" fill="green"></polygon>
<polygon points="341 145 299 218 383 218 " stroke = "black" fill="green"></polygon>
<polygon points="425 145 383 218 467 218 " stroke = "black" fill="green"></polygon>
<polygon points="509 145 467 218 551 218 " stroke = "black" fill="green"></polygon>
<polygon points="299 218 257 290 341 290 " stroke = "black" fill="green"></polygon>
<polygon points="383 218 341 290 425 290 " stroke = "black" fill="green"></polygon>
<polygon points="467 218 425 290 509 290 " stroke = "black" fill="green"></polygon>
<polygon points="551 218 509 290 593 290 " stroke = "black" fill="green"></polygon>
<polygon points="257 290 215 363 299 363 " stroke = "black" fill="green"></polygon>
<polygon points="341 290 299 363 383 363 " stroke = "black" fill="green"></polygon>
<polygon points="425 290 383 363 467 363 " stroke = "black" fill="green"></polygon>
<polygon points="509 290 467 363 551 363 " stroke = "black" fill="green"></polygon>
<polygon points="593 290 551 363 635 363 " stroke = "black" fill="green"></polygon>
<polygon points="215 363 173 436 257 436 " stroke = "black" fill="green"></polygon>
<polygon points="299 363 257 436 341 436 " stroke = "black" fill="green"></polygon>
<polygon points="383 363 341 436 425 436 " stroke = "black" fill="green"></polygon>
<polygon points="467 363 425 436 509 436 " stroke = "black" fill="green"></polygon>
<polygon points="551 363 509 436 593 436 " stroke = "black" fill="green"></polygon>
<polygon points="635 363 593 436 677 436 " stroke = "black" fill="green"></polygon>
<polygon points="173 436 131 509 215 509 " stroke = "black" fill="green"></polygon>
<polygon points="257 436 215 509 299 509 " stroke = "black" fill="green"></polygon>
<polygon points="341 436 299 509 383 509 " stroke = "black" fill="green"></polygon>
<polygon points="425 436 383 509 467 509 " stroke = "black" fill="green"></polygon>
<polygon points="509 436 467 509 551 509 " stroke = "black" fill="green"></polygon>
<polygon points="593 436 551 509 635 509 " stroke = "black" fill="green"></polygon>
<polygon points="677 436 635 509 719 509 " stroke = "black" fill="green"></polygon>
<polygon points="131 509 89 581 173 581 " stroke = "black" fill="green"></polygon>
<polygon points="215 509 173 581 257 581 " stroke = "black" fill="green"></polygon>
<polygon points="299 509 257 581 341 581 " stroke = "black" fill="green"></polygon>
<polygon points="383 509 341 581 425 581 " stroke = "black" fill="green"></polygon>
<polygon points="467 509 425 581 509 581 " stroke = "black" fill="green"></polygon>
<polygon points="551 509 509 581 593 581 " stroke = "black" fill="green"></polygon>
<polygon points="635 509 593 581 677 581 " stroke = "black" fill="green"></polygon>
<polygon points="719 509 677 581 761 581 " stroke = "black" fill="green"></polygon>
<polygon points="89 581 47 654 131 654 " stroke = "black" fill="green"></polygon>
<polygon points="173 581 131 654 215 654 " stroke = "black" fill="green"></polygon>
<polygon points="257 581 215 654 299 654 " stroke = "black" fill="green"></polygon>
<polygon points="341 581 299 654 383 654 " stroke = "black" fill="green"></polygon>
<polygon points="425 581 383 654 467 654 " stroke = "black" fill="green"></polygon>
<polygon points="509 581 467 654 551 654 " stroke = "black" fill="green"></polygon>
<polygon points="593 581 551 654 635 654 " stroke = "black" fill="green"></polygon>
<polygon points="677 581 635 654 719 654 " stroke = "black" fill="green"></polygon>
<polygon points="761 581 719 654 803 654 " stroke = "black" fill="green"></polygon>
<polygon points="47 654 5 727 89 727 " stroke = "black" fill="green"></polygon>
<polygon points="131 654 89 727 173 727 " stroke = "black" fill="green"></polygon>
<polygon points="215 654 173 727 257 727 " stroke = "black" fill="green"></polygon>
<polygon points="299 654 257 727 341 727 " stroke = "black" fill="green"></polygon>
<polygon points="383 654 341 727 425 727 " stroke = "black" fill="green"></polygon>
<polygon points="467 654 425 727 509 727 " stroke = "black" fill="green"></polygon>
<polygon points="551 654 509 727 593 727 " stroke = "black" fill="green"></polygon>
<polygon points="635 654 593 727 677 727 " stroke = "black" fill="green"></polygon>
<polygon points="719 654 677 727 761 727 " stroke = "black" fill="green"></polygon>
<polygon points="803 654 761 727 845 727 " stroke = "black" fill="green"></polygon>
<polygon points="425 145 467 72 383 72 " stroke = "black" fill="green"></polygon>
<polygon points="383 218 425 145 341 145 " stroke = "black" fill="green"></polygon>
<polygon points="467 218 509 145 425 145 " stroke = "black" fill="green"></polygon>
<polygon points="341 290 383 218 299 218 " stroke = "black" fill="green"></polygon>
<polygon points="425 290 467 218 383 218 " stroke = "black" fill="green"></polygon>
<polygon points="509 290 551 218 467 218 " stroke = "black" fill="green"></polygon>
<polygon points="299 363 341 290 257 290 " stroke = "black" fill="green"></polygon>
<polygon points="383 363 425 290 341 290 " stroke = "black" fill="green"></polygon>
<polygon points="467 363 509 290 425 290 " stroke = "black" fill="green"></polygon>
<polygon points="551 363 593 290 509 290 " stroke = "black" fill="green"></polygon>
<polygon points="257 436 299 363 215 363 " stroke = "black" fill="green"></polygon>
<polygon points="341 436 383 363 299 363 " stroke = "black" fill="green"></polygon>
<polygon points="425 436 467 363 383 363 " stroke = "black" fill="green"></polygon>
<polygon points="509 436 551 363 467 363 " stroke = "black" fill="green"></polygon>
<polygon points="593 436 635 363 551 363 " stroke = "black" fill="green"></polygon>
<polygon points="215 509 257 436 173 436 " stroke = "black" fill="green"></polygon>
<polygon points="299 509 341 436 257 436 " stroke = "black" fill="green"></polygon>
<polygon points="383 509 425 436 341 436 " stroke = "black" fill="green"></polygon>
<polygon points="467 509 509 436 425 436 " stroke = "black" fill="green"></polygon>
<polygon points="551 509 593 436 509 436 " stroke = "black" fill="green"></polygon>
<polygon points="635 509 677 436 593 436 " stroke = "black" fill="green"></polygon>
<polygon points="173 581 215 509 131 509 " stroke = "black" fill="green"></polygon>
<polygon points="257 581 299 509 215 509 " stroke = "black" fill="green"></polygon>
<polygon points="341 581 383 509 299 509 " stroke = "black" fill="green"></polygon>
<polygon points="425 581 467 509 383 509 " stroke = "black" fill="green"></polygon>
<polygon points="509 581 551 509 467 509 " stroke = "black" fill="green"></polygon>
<polygon points="593 581 635 509 551 509 " stroke = "black" fill="green"></polygon>
<polygon points="677 581 719 509 635 509 " stroke = "black" fill="green"></polygon>
<polygon points="131 654 173 581 89 581 " stroke = "black" fill="green"></polygon>
<polygon points="215 654 257 581 173 581 " stroke = "black" fill="green"></polygon>
<polygon points="299 654 341 581 257 581 " stroke = "black" fill="green"></polygon>
<polygon points="383 654 425 581 341 581 " stroke = "black" fill="green"></polygon>
<polygon points="467 654 509 581 425 581 " stroke = "black" fill="green"></polygon>
<polygon points="551 654 593 581 509 581 " stroke = "black" fill="green"></polygon>
<polygon points="635 654 677 581 593 581 " stroke = "black" fill="green"></polygon>
<polygon points="719 654 761 581 677 581 " stroke = "black" fill="green"></polygon>
<polygon points="89 727 131 654 47 654 " stroke = "black" fill="green"></polygon>
<polygon points="173 727 215 654 131 654 " stroke = "black" fill="green"></polygon>
<polygon points="257 727 299 654 215 654 " stroke = "black" fill="green"></polygon>
<polygon points="341 727 383 654 299 654 " stroke = "black" fill="green"></polygon>
<polygon points="425 727 467 654 383 654 " stroke = "black" fill="green"></polygon>
<polygon points="509 727 551 654 467 654 " stroke = "black" fill="green"></polygon>
<polygon points="593 727 635 654 551 654 " stroke = "black" fill="green"></polygon>
<polygon points="677 727 719 654 635 654 " stroke = "black" fill="green"></polygon>
<polygon points="761 727 803 654 719 654 " stroke = "black" fill="green"></polygon></svg>