<svg version="1.1" baseProfile="full" xmlns="http://www.w3.org/2000/svg"><circle cx="874" cy="874" r="874" fill="red" />
<circle cx="343" cy="343" r="87" fill="green" />
<circle cx="517" cy="343" r="87" fill="green" />
<circle cx="691" cy="343" r="87" fill="green" />
<circle cx="865" cy="343" r="87" fill="green" />
<circle cx="1039" cy="343" r="87" fill="green" />
<circle cx="1213" cy="343" r="87" fill="green" />
<circle cx="1387" cy="343" r="87" fill="green" />
<circle cx="343" cy="517" r="87" fill="green" />
<circle cx="517" cy="517" r="87" fill="green" />
<circle cx="691" cy="517" r="87" fill="green" />
<circle cx="865" cy="517" r="87" fill="green" />
<circle cx="1039" cy="517" r="87" fill="green" />
<circle cx="1213" cy="517" r="87" fill="green" />
<circle cx="1387" cy="517" r="87" fill="green" />
<circle cx="343" cy="691" r="87" fill="green" />
<circle cx="517" cy="691" r="87" fill="green" />
<circle cx="691" cy="691" r="87" fill="green" />
<circle cx="865" cy="691" r="87" fill="green" />
<circle cx="1039" cy="691" r="87" fill="green" />
<circle cx="1213" cy="691" r="87" fill="green" />
<circle cx="1387" cy="691" r="87" fill="green" />
<circle cx="343" cy="865" r="87" fill="green" />
<circle cx="517" cy="865" r="87" fill="green" />
<circle cx="691" cy="865" r="87" fill="green" />
<circle cx="865" cy="865" r="87" fill="green" />
<circle cx="1039" cy="865" r="87" fill="green" />
<circle cx="1213" cy="865" r="87" fill="green" />
<circle cx="1387" cy="865" r="87" fill="green" />
<circle cx="343" cy="1039" r="87" fill="green" />
<circle cx="517" cy="1039" r="87" fill="green" />
<circle cx="691" cy="1039" r="87" fill="green" />
<circle cx="865" cy="1039" r="87" fill="green" />
<circle cx="1039" cy="1039" r="87" fill="green" />
<circle cx="1213" cy="1039" r="87" fill="green" />
<circle cx="1387" cy="1039" r="87" fill="green" />
<circle cx="343" cy="1213" r="87" fill="green" />
<circle cx="517" cy="1213" r="87" fill="green" />
<circle cx="691" cy="1213" r="87" fill="green" />
<circle cx="865" cy="1213" r="87" fill="green" />
<circle cx="1039" cy="1213" r="87" fill="green" />
<circle cx="1213" cy="1213" r="87" fill="green" />
<circle cx="1387" cy="1213" r="87" fill="green" />
<circle cx="343" cy="1387" r="87" fill="green" />
<circle cx="517" cy="1387" r="87" fill="green" />
<circle cx="691" cy="1387" r="87" fill="green" />
<circle cx="865" cy="1387" r="87" fill="green" />
<circle cx="1039" cy="1387" r="87" fill="green" />
<circle cx="1213" cy="1387" r="87" fill="green" />
<circle cx="1387" cy="1387" r="87" fill="green" />
</svg>