<svg version="1.1"
baseProfile="full"
  width="700" height="800"
xmlns="http://www.w3.org/2000/svg">
<rect x="0" y="0" stroke="Black" width="700" height="800" fill="red"></rect>
<rect x="0" y="0" stroke="Black" width="55" height="75" fill="green"></rect>
<rect x="55" y="0" stroke="Black" width="55" height="75" fill="green"></rect>
<rect x="110" y="0" stroke="Black" width="55" height="75" fill="green"></rect>
<rect x="165" y="0" stroke="Black" width="55" height="75" fill="green"></rect>
<rect x="220" y="0" stroke="Black" width="55" height="75" fill="green"></rect>
<rect x="275" y="0" stroke="Black" width="55" height="75" fill="green"></rect>
<rect x="330" y="0" stroke="Black" width="55" height="75" fill="green"></rect>
<rect x="385" y="0" stroke="Black" width="55" height="75" fill="green"></rect>
<rect x="440" y="0" stroke="Black" width="55" height="75" fill="green"></rect>
<rect x="495" y="0" stroke="Black" width="55" height="75" fill="green"></rect>
<rect x="550" y="0" stroke="Black" width="55" height="75" fill="green"></rect>
<rect x="605" y="0" stroke="Black" width="55" height="75" fill="green"></rect>
<rect x="0" y="75" stroke="Black" width="55" height="75" fill="green"></rect>
<rect x="55" y="75" stroke="Black" width="55" height="75" fill="green"></rect>
<rect x="110" y="75" stroke="Black" width="55" height="75" fill="green"></rect>
<rect x="165" y="75" stroke="Black" width="55" height="75" fill="green"></rect>
<rect x="220" y="75" stroke="Black" width="55" height="75" fill="green"></rect>
<rect x="275" y="75" stroke="Black" width="55" height="75" fill="green"></rect>
<rect x="330" y="75" stroke="Black" width="55" height="75" fill="green"></rect>
<rect x="385" y="75" stroke="Black" width="55" height="75" fill="green"></rect>
<rect x="440" y="75" stroke="Black" width="55" height="75" fill="green"></rect>
<rect x="495" y="75" stroke="Black" width="55" height="75" fill="green"></rect>
<rect x="550" y="75" stroke="Black" width="55" height="75" fill="green"></rect>
<rect x="605" y="75" stroke="Black" width="55" height="75" fill="green"></rect>
<rect x="0" y="150" stroke="Black" width="55" height="75" fill="green"></rect>
<rect x="55" y="150" stroke="Black" width="55" height="75" fill="green"></rect>
<rect x="110" y="150" stroke="Black" width="55" height="75" fill="green"></rect>
<rect x="165" y="150" stroke="Black" width="55" height="75" fill="green"></rect>
<rect x="220" y="150" stroke="Black" width="55" height="75" fill="green"></rect>
<rect x="275" y="150" stroke="Black" width="55" height="75" fill="green"></rect>
<rect x="330" y="150" stroke="Black" width="55" height="75" fill="green"></rect>
<rect x="385" y="150" stroke="Black" width="55" height="75" fill="green"></rect>
<rect x="440" y="150" stroke="Black" width="55" height="75" fill="green"></rect>
<rect x="495" y="150" stroke="Black" width="55" height="75" fill="green"></rect>
<rect x="550" y="150" stroke="Black" width="55" height="75" fill="green"></rect>
<rect x="605" y="150" stroke="Black" width="55" height="75" fill="green"></rect>
<rect x="0" y="225" stroke="Black" width="55" height="75" fill="green"></rect>
<rect x="55" y="225" stroke="Black" width="55" height="75" fill="green"></rect>
<rect x="110" y="225" stroke="Black" width="55" height="75" fill="green"></rect>
<rect x="165" y="225" stroke="Black" width="55" height="75" fill="green"></rect>
<rect x="220" y="225" stroke="Black" width="55" height="75" fill="green"></rect>
<rect x="275" y="225" stroke="Black" width="55" height="75" fill="green"></rect>
<rect x="330" y="225" stroke="Black" width="55" height="75" fill="green"></rect>
<rect x="385" y="225" stroke="Black" width="55" height="75" fill="green"></rect>
<rect x="440" y="225" stroke="Black" width="55" height="75" fill="green"></rect>
<rect x="495" y="225" stroke="Black" width="55" height="75" fill="green"></rect>
<rect x="550" y="225" stroke="Black" width="55" height="75" fill="green"></rect>
<rect x="605" y="225" stroke="Black" width="55" height="75" fill="green"></rect>
<rect x="0" y="300" stroke="Black" width="55" height="75" fill="green"></rect>
<rect x="55" y="300" stroke="Black" width="55" height="75" fill="green"></rect>
<rect x="110" y="300" stroke="Black" width="55" height="75" fill="green"></rect>
<rect x="165" y="300" stroke="Black" width="55" height="75" fill="green"></rect>
<rect x="220" y="300" stroke="Black" width="55" height="75" fill="green"></rect>
<rect x="275" y="300" stroke="Black" width="55" height="75" fill="green"></rect>
<rect x="330" y="300" stroke="Black" width="55" height="75" fill="green"></rect>
<rect x="385" y="300" stroke="Black" width="55" height="75" fill="green"></rect>
<rect x="440" y="300" stroke="Black" width="55" height="75" fill="green"></rect>
<rect x="495" y="300" stroke="Black" width="55" height="75" fill="green"></rect>
<rect x="550" y="300" stroke="Black" width="55" height="75" fill="green"></rect>
<rect x="605" y="300" stroke="Black" width="55" height="75" fill="green"></rect>
<rect x="0" y="375" stroke="Black" width="55" height="75" fill="green"></rect>
<rect x="55" y="375" stroke="Black" width="55" height="75" fill="green"></rect>
<rect x="110" y="375" stroke="Black" width="55" height="75" fill="green"></rect>
<rect x="165" y="375" stroke="Black" width="55" height="75" fill="green"></rect>
<rect x="220" y="375" stroke="Black" width="55" height="75" fill="green"></rect>
<rect x="275" y="375" stroke="Black" width="55" height="75" fill="green"></rect>
<rect x="330" y="375" stroke="Black" width="55" height="75" fill="green"></rect>
<rect x="385" y="375" stroke="Black" width="55" height="75" fill="green"></rect>
<rect x="440" y="375" stroke="Black" width="55" height="75" fill="green"></rect>
<rect x="495" y="375" stroke="Black" width="55" height="75" fill="green"></rect>
<rect x="550" y="375" stroke="Black" width="55" height="75" fill="green"></rect>
<rect x="605" y="375" stroke="Black" width="55" height="75" fill="green"></rect>
<rect x="0" y="450" stroke="Black" width="55" height="75" fill="green"></rect>
<rect x="55" y="450" stroke="Black" width="55" height="75" fill="green"></rect>
<rect x="110" y="450" stroke="Black" width="55" height="75" fill="green"></rect>
<rect x="165" y="450" stroke="Black" width="55" height="75" fill="green"></rect>
<rect x="220" y="450" stroke="Black" width="55" height="75" fill="green"></rect>
<rect x="275" y="450" stroke="Black" width="55" height="75" fill="green"></rect>
<rect x="330" y="450" stroke="Black" width="55" height="75" fill="green"></rect>
<rect x="385" y="450" stroke="Black" width="55" height="75" fill="green"></rect>
<rect x="440" y="450" stroke="Black" width="55" height="75" fill="green"></rect>
<rect x="495" y="450" stroke="Black" width="55" height="75" fill="green"></rect>
<rect x="550" y="450" stroke="Black" width="55" height="75" fill="green"></rect>
<rect x="605" y="450" stroke="Black" width="55" height="75" fill="green"></rect>
<rect x="0" y="525" stroke="Black" width="55" height="75" fill="green"></rect>
<rect x="55" y="525" stroke="Black" width="55" height="75" fill="green"></rect>
<rect x="110" y="525" stroke="Black" width="55" height="75" fill="green"></rect>
<rect x="165" y="525" stroke="Black" width="55" height="75" fill="green"></rect>
<rect x="220" y="525" stroke="Black" width="55" height="75" fill="green"></rect>
<rect x="275" y="525" stroke="Black" width="55" height="75" fill="green"></rect>
<rect x="330" y="525" stroke="Black" width="55" height="75" fill="green"></rect>
<rect x="385" y="525" stroke="Black" width="55" height="75" fill="green"></rect>
<rect x="440" y="525" stroke="Black" width="55" height="75" fill="green"></rect>
<rect x="495" y="525" stroke="Black" width="55" height="75" fill="green"></rect>
<rect x="550" y="525" stroke="Black" width="55" height="75" fill="green"></rect>
<rect x="605" y="525" stroke="Black" width="55" height="75" fill="green"></rect>
<rect x="0" y="600" stroke="Black" width="55" height="75" fill="green"></rect>
<rect x="55" y="600" stroke="Black" width="55" height="75" fill="green"></rect>
<rect x="110" y="600" stroke="Black" width="55" height="75" fill="green"></rect>
<rect x="165" y="600" stroke="Black" width="55" height="75" fill="green"></rect>
<rect x="220" y="600" stroke="Black" width="55" height="75" fill="green"></rect>
<rect x="275" y="600" stroke="Black" width="55" height="75" fill="green"></rect>
<rect x="330" y="600" stroke="Black" width="55" height="75" fill="green"></rect>
<rect x="385" y="600" stroke="Black" width="55" height="75" fill="green"></rect>
<rect x="440" y="600" stroke="Black" width="55" height="75" fill="green"></rect>
<rect x="495" y="600" stroke="Black" width="55" height="75" fill="green"></rect>
<rect x="550" y="600" stroke="Black" width="55" height="75" fill="green"></rect>
<rect x="605" y="600" stroke="Black" width="55" height="75" fill="green"></rect>
<rect x="0" y="675" stroke="Black" width="55" height="75" fill="green"></rect>
<rect x="55" y="675" stroke="Black" width="55" height="75" fill="green"></rect>
<rect x="110" y="675" stroke="Black" width="55" height="75" fill="green"></rect>
<rect x="165" y="675" stroke="Black" width="55" height="75" fill="green"></rect>
<rect x="220" y="675" stroke="Black" width="55" height="75" fill="green"></rect>
<rect x="275" y="675" stroke="Black" width="55" height="75" fill="green"></rect>
<rect x="330" y="675" stroke="Black" width="55" height="75" fill="green"></rect>
<rect x="385" y="675" stroke="Black" width="55" height="75" fill="green"></rect>
<rect x="440" y="675" stroke="Black" width="55" height="75" fill="green"></rect>
<rect x="495" y="675" stroke="Black" width="55" height="75" fill="green"></rect>
<rect x="550" y="675" stroke="Black" width="55" height="75" fill="green"></rect>
<rect x="605" y="675" stroke="Black" width="55" height="75" fill="green"></rect>
</svg>