<svg version="1.1" baseProfile="full" xmlns="http://www.w3.org/2000/svg"><circle cx="700" cy="700" r="700" fill="red" />
<rect x="375" y="80" stroke="Black" width="75" height="80" fill="green"></rect>
<rect x="450" y="80" stroke="Black" width="75" height="80" fill="green"></rect>
<rect x="525" y="80" stroke="Black" width="75" height="80" fill="green"></rect>
<rect x="600" y="80" stroke="Black" width="75" height="80" fill="green"></rect>
<rect x="675" y="80" stroke="Black" width="75" height="80" fill="green"></rect>
<rect x="750" y="80" stroke="Black" width="75" height="80" fill="green"></rect>
<rect x="825" y="80" stroke="Black" width="75" height="80" fill="green"></rect>
<rect x="900" y="80" stroke="Black" width="75" height="80" fill="green"></rect>
<rect x="254" y="160" stroke="Black" width="75" height="80" fill="green"></rect>
<rect x="329" y="160" stroke="Black" width="75" height="80" fill="green"></rect>
<rect x="404" y="160" stroke="Black" width="75" height="80" fill="green"></rect>
<rect x="479" y="160" stroke="Black" width="75" height="80" fill="green"></rect>
<rect x="554" y="160" stroke="Black" width="75" height="80" fill="green"></rect>
<rect x="629" y="160" stroke="Black" width="75" height="80" fill="green"></rect>
<rect x="704" y="160" stroke="Black" width="75" height="80" fill="green"></rect>
<rect x="779" y="160" stroke="Black" width="75" height="80" fill="green"></rect>
<rect x="854" y="160" stroke="Black" width="75" height="80" fill="green"></rect>
<rect x="929" y="160" stroke="Black" width="75" height="80" fill="green"></rect>
<rect x="1004" y="160" stroke="Black" width="75" height="80" fill="green"></rect>
<rect x="172" y="240" stroke="Black" width="75" height="80" fill="green"></rect>
<rect x="247" y="240" stroke="Black" width="75" height="80" fill="green"></rect>
<rect x="322" y="240" stroke="Black" width="75" height="80" fill="green"></rect>
<rect x="397" y="240" stroke="Black" width="75" height="80" fill="green"></rect>
<rect x="472" y="240" stroke="Black" width="75" height="80" fill="green"></rect>
<rect x="547" y="240" stroke="Black" width="75" height="80" fill="green"></rect>
<rect x="622" y="240" stroke="Black" width="75" height="80" fill="green"></rect>
<rect x="697" y="240" stroke="Black" width="75" height="80" fill="green"></rect>
<rect x="772" y="240" stroke="Black" width="75" height="80" fill="green"></rect>
<rect x="847" y="240" stroke="Black" width="75" height="80" fill="green"></rect>
<rect x="922" y="240" stroke="Black" width="75" height="80" fill="green"></rect>
<rect x="997" y="240" stroke="Black" width="75" height="80" fill="green"></rect>
<rect x="1072" y="240" stroke="Black" width="75" height="80" fill="green"></rect>
<rect x="1147" y="240" stroke="Black" width="75" height="80" fill="green"></rect>
<rect x="112" y="320" stroke="Black" width="75" height="80" fill="green"></rect>
<rect x="187" y="320" stroke="Black" width="75" height="80" fill="green"></rect>
<rect x="262" y="320" stroke="Black" width="75" height="80" fill="green"></rect>
<rect x="337" y="320" stroke="Black" width="75" height="80" fill="green"></rect>
<rect x="412" y="320" stroke="Black" width="75" height="80" fill="green"></rect>
<rect x="487" y="320" stroke="Black" width="75" height="80" fill="green"></rect>
<rect x="562" y="320" stroke="Black" width="75" height="80" fill="green"></rect>
<rect x="637" y="320" stroke="Black" width="75" height="80" fill="green"></rect>
<rect x="712" y="320" stroke="Black" width="75" height="80" fill="green"></rect>
<rect x="787" y="320" stroke="Black" width="75" height="80" fill="green"></rect>
<rect x="862" y="320" stroke="Black" width="75" height="80" fill="green"></rect>
<rect x="937" y="320" stroke="Black" width="75" height="80" fill="green"></rect>
<rect x="1012" y="320" stroke="Black" width="75" height="80" fill="green"></rect>
<rect x="1087" y="320" stroke="Black" width="75" height="80" fill="green"></rect>
<rect x="1162" y="320" stroke="Black" width="75" height="80" fill="green"></rect>
<rect x="67" y="400" stroke="Black" width="75" height="80" fill="green"></rect>
<rect x="142" y="400" stroke="Black" width="75" height="80" fill="green"></rect>
<rect x="217" y="400" stroke="Black" width="75" height="80" fill="green"></rect>
<rect x="292" y="400" stroke="Black" width="75" height="80" fill="green"></rect>
<rect x="367" y="400" stroke="Black" width="75" height="80" fill="green"></rect>
<rect x="442" y="400" stroke="Black" width="75" height="80" fill="green"></rect>
<rect x="517" y="400" stroke="Black" width="75" height="80" fill="green"></rect>
<rect x="592" y="400" stroke="Black" width="75" height="80" fill="green"></rect>
<rect x="667" y="400" stroke="Black" width="75" height="80" fill="green"></rect>
<rect x="742" y="400" stroke="Black" width="75" height="80" fill="green"></rect>
<rect x="817" y="400" stroke="Black" width="75" height="80" fill="green"></rect>
<rect x="892" y="400" stroke="Black" width="75" height="80" fill="green"></rect>
<rect x="967" y="400" stroke="Black" width="75" height="80" fill="green"></rect>
<rect x="1042" y="400" stroke="Black" width="75" height="80" fill="green"></rect>
<rect x="1117" y="400" stroke="Black" width="75" height="80" fill="green"></rect>
<rect x="1192" y="400" stroke="Black" width="75" height="80" fill="green"></rect>
<rect x="35" y="480" stroke="Black" width="75" height="80" fill="green"></rect>
<rect x="110" y="480" stroke="Black" width="75" height="80" fill="green"></rect>
<rect x="185" y="480" stroke="Black" width="75" height="80" fill="green"></rect>
<rect x="260" y="480" stroke="Black" width="75" height="80" fill="green"></rect>
<rect x="335" y="480" stroke="Black" width="75" height="80" fill="green"></rect>
<rect x="410" y="480" stroke="Black" width="75" height="80" fill="green"></rect>
<rect x="485" y="480" stroke="Black" width="75" height="80" fill="green"></rect>
<rect x="560" y="480" stroke="Black" width="75" height="80" fill="green"></rect>
<rect x="635" y="480" stroke="Black" width="75" height="80" fill="green"></rect>
<rect x="710" y="480" stroke="Black" width="75" height="80" fill="green"></rect>
<rect x="785" y="480" stroke="Black" width="75" height="80" fill="green"></rect>
<rect x="860" y="480" stroke="Black" width="75" height="80" fill="green"></rect>
<rect x="935" y="480" stroke="Black" width="75" height="80" fill="green"></rect>
<rect x="1010" y="480" stroke="Black" width="75" height="80" fill="green"></rect>
<rect x="1085" y="480" stroke="Black" width="75" height="80" fill="green"></rect>
<rect x="1160" y="480" stroke="Black" width="75" height="80" fill="green"></rect>
<rect x="1235" y="480" stroke="Black" width="75" height="80" fill="green"></rect>
<rect x="14" y="560" stroke="Black" width="75" height="80" fill="green"></rect>
<rect x="89" y="560" stroke="Black" width="75" height="80" fill="green"></rect>
<rect x="164" y="560" stroke="Black" width="75" height="80" fill="green"></rect>
<rect x="239" y="560" stroke="Black" width="75" height="80" fill="green"></rect>
<rect x="314" y="560" stroke="Black" width="75" height="80" fill="green"></rect>
<rect x="389" y="560" stroke="Black" width="75" height="80" fill="green"></rect>
<rect x="464" y="560" stroke="Black" width="75" height="80" fill="green"></rect>
<rect x="539" y="560" stroke="Black" width="75" height="80" fill="green"></rect>
<rect x="614" y="560" stroke="Black" width="75" height="80" fill="green"></rect>
<rect x="689" y="560" stroke="Black" width="75" height="80" fill="green"></rect>
<rect x="764" y="560" stroke="Black" width="75" height="80" fill="green"></rect>
<rect x="839" y="560" stroke="Black" width="75" height="80" fill="green"></rect>
<rect x="914" y="560" stroke="Black" width="75" height="80" fill="green"></rect>
<rect x="989" y="560" stroke="Black" width="75" height="80" fill="green"></rect>
<rect x="1064" y="560" stroke="Black" width="75" height="80" fill="green"></rect>
<rect x="1139" y="560" stroke="Black" width="75" height="80" fill="green"></rect>
<rect x="1214" y="560" stroke="Black" width="75" height="80" fill="green"></rect>
<rect x="1289" y="560" stroke="Black" width="75" height="80" fill="green"></rect>
<rect x="2" y="640" stroke="Black" width="75" height="80" fill="green"></rect>
<rect x="77" y="640" stroke="Black" width="75" height="80" fill="green"></rect>
<rect x="152" y="640" stroke="Black" width="75" height="80" fill="green"></rect>
<rect x="227" y="640" stroke="Black" width="75" height="80" fill="green"></rect>
<rect x="302" y="640" stroke="Black" width="75" height="80" fill="green"></rect>
<rect x="377" y="640" stroke="Black" width="75" height="80" fill="green"></rect>
<rect x="452" y="640" stroke="Black" width="75" height="80" fill="green"></rect>
<rect x="527" y="640" stroke="Black" width="75" height="80" fill="green"></rect>
<rect x="602" y="640" stroke="Black" width="75" height="80" fill="green"></rect>
<rect x="677" y="640" stroke="Black" width="75" height="80" fill="green"></rect>
<rect x="752" y="640" stroke="Black" width="75" height="80" fill="green"></rect>
<rect x="827" y="640" stroke="Black" width="75" height="80" fill="green"></rect>
<rect x="902" y="640" stroke="Black" width="75" height="80" fill="green"></rect>
<rect x="977" y="640" stroke="Black" width="75" height="80" fill="green"></rect>
<rect x="1052" y="640" stroke="Black" width="75" height="80" fill="green"></rect>
<rect x="1127" y="640" stroke="Black" width="75" height="80" fill="green"></rect>
<rect x="1202" y="640" stroke="Black" width="75" height="80" fill="green"></rect>
<rect x="1277" y="640" stroke="Black" width="75" height="80" fill="green"></rect>
<rect x="37" y="720" stroke="Black" width="75" height="80" fill="green"></rect>
<rect x="112" y="720" stroke="Black" width="75" height="80" fill="green"></rect>
<rect x="187" y="720" stroke="Black" width="75" height="80" fill="green"></rect>
<rect x="262" y="720" stroke="Black" width="75" height="80" fill="green"></rect>
<rect x="337" y="720" stroke="Black" width="75" height="80" fill="green"></rect>
<rect x="412" y="720" stroke="Black" width="75" height="80" fill="green"></rect>
<rect x="487" y="720" stroke="Black" width="75" height="80" fill="green"></rect>
<rect x="562" y="720" stroke="Black" width="75" height="80" fill="green"></rect>
<rect x="637" y="720" stroke="Black" width="75" height="80" fill="green"></rect>
<rect x="712" y="720" stroke="Black" width="75" height="80" fill="green"></rect>
<rect x="787" y="720" stroke="Black" width="75" height="80" fill="green"></rect>
<rect x="862" y="720" stroke="Black" width="75" height="80" fill="green"></rect>
<rect x="937" y="720" stroke="Black" width="75" height="80" fill="green"></rect>
<rect x="1012" y="720" stroke="Black" width="75" height="80" fill="green"></rect>
<rect x="1087" y="720" stroke="Black" width="75" height="80" fill="green"></rect>
<rect x="1162" y="720" stroke="Black" width="75" height="80" fill="green"></rect>
<rect x="1237" y="720" stroke="Black" width="75" height="80" fill="green"></rect>
<rect x="74" y="800" stroke="Black" width="75" height="80" fill="green"></rect>
<rect x="149" y="800" stroke="Black" width="75" height="80" fill="green"></rect>
<rect x="224" y="800" stroke="Black" width="75" height="80" fill="green"></rect>
<rect x="299" y="800" stroke="Black" width="75" height="80" fill="green"></rect>
<rect x="374" y="800" stroke="Black" width="75" height="80" fill="green"></rect>
<rect x="449" y="800" stroke="Black" width="75" height="80" fill="green"></rect>
<rect x="524" y="800" stroke="Black" width="75" height="80" fill="green"></rect>
<rect x="599" y="800" stroke="Black" width="75" height="80" fill="green"></rect>
<rect x="674" y="800" stroke="Black" width="75" height="80" fill="green"></rect>
<rect x="749" y="800" stroke="Black" width="75" height="80" fill="green"></rect>
<rect x="824" y="800" stroke="Black" width="75" height="80" fill="green"></rect>
<rect x="899" y="800" stroke="Black" width="75" height="80" fill="green"></rect>
<rect x="974" y="800" stroke="Black" width="75" height="80" fill="green"></rect>
<rect x="1049" y="800" stroke="Black" width="75" height="80" fill="green"></rect>
<rect x="1124" y="800" stroke="Black" width="75" height="80" fill="green"></rect>
<rect x="1199" y="800" stroke="Black" width="75" height="80" fill="green"></rect>
<rect x="149" y="880" stroke="Black" width="75" height="80" fill="green"></rect>
<rect x="224" y="880" stroke="Black" width="75" height="80" fill="green"></rect>
<rect x="299" y="880" stroke="Black" width="75" height="80" fill="green"></rect>
<rect x="374" y="880" stroke="Black" width="75" height="80" fill="green"></rect>
<rect x="449" y="880" stroke="Black" width="75" height="80" fill="green"></rect>
<rect x="524" y="880" stroke="Black" width="75" height="80" fill="green"></rect>
<rect x="599" y="880" stroke="Black" width="75" height="80" fill="green"></rect>
<rect x="674" y="880" stroke="Black" width="75" height="80" fill="green"></rect>
<rect x="749" y="880" stroke="Black" width="75" height="80" fill="green"></rect>
<rect x="824" y="880" stroke="Black" width="75" height="80" fill="green"></rect>
<rect x="899" y="880" stroke="Black" width="75" height="80" fill="green"></rect>
<rect x="974" y="880" stroke="Black" width="75" height="80" fill="green"></rect>
<rect x="1049" y="880" stroke="Black" width="75" height="80" fill="green"></rect>
<rect x="1124" y="880" stroke="Black" width="75" height="80" fill="green"></rect>
<rect x="1199" y="880" stroke="Black" width="75" height="80" fill="green"></rect>
<rect x="224" y="960" stroke="Black" width="75" height="80" fill="green"></rect>
<rect x="299" y="960" stroke="Black" width="75" height="80" fill="green"></rect>
<rect x="374" y="960" stroke="Black" width="75" height="80" fill="green"></rect>
<rect x="449" y="960" stroke="Black" width="75" height="80" fill="green"></rect>
<rect x="524" y="960" stroke="Black" width="75" height="80" fill="green"></rect>
<rect x="599" y="960" stroke="Black" width="75" height="80" fill="green"></rect>
<rect x="674" y="960" stroke="Black" width="75" height="80" fill="green"></rect>
<rect x="749" y="960" stroke="Black" width="75" height="80" fill="green"></rect>
<rect x="824" y="960" stroke="Black" width="75" height="80" fill="green"></rect>
<rect x="899" y="960" stroke="Black" width="75" height="80" fill="green"></rect>
<rect x="974" y="960" stroke="Black" width="75" height="80" fill="green"></rect>
<rect x="1049" y="960" stroke="Black" width="75" height="80" fill="green"></rect>
<rect x="1124" y="960" stroke="Black" width="75" height="80" fill="green"></rect>
<rect x="299" y="1040" stroke="Black" width="75" height="80" fill="green"></rect>
<rect x="374" y="1040" stroke="Black" width="75" height="80" fill="green"></rect>
<rect x="449" y="1040" stroke="Black" width="75" height="80" fill="green"></rect>
<rect x="524" y="1040" stroke="Black" width="75" height="80" fill="green"></rect>
<rect x="599" y="1040" stroke="Black" width="75" height="80" fill="green"></rect>
<rect x="674" y="1040" stroke="Black" width="75" height="80" fill="green"></rect>
<rect x="749" y="1040" stroke="Black" width="75" height="80" fill="green"></rect>
<rect x="824" y="1040" stroke="Black" width="75" height="80" fill="green"></rect>
<rect x="899" y="1040" stroke="Black" width="75" height="80" fill="green"></rect>
<rect x="974" y="1040" stroke="Black" width="75" height="80" fill="green"></rect>
<rect x="1049" y="1040" stroke="Black" width="75" height="80" fill="green"></rect>
<rect x="1124" y="1040" stroke="Black" width="75" height="80" fill="green"></rect>
<rect x="374" y="1120" stroke="Black" width="75" height="80" fill="green"></rect>
<rect x="449" y="1120" stroke="Black" width="75" height="80" fill="green"></rect>
<rect x="524" y="1120" stroke="Black" width="75" height="80" fill="green"></rect>
<rect x="599" y="1120" stroke="Black" width="75" height="80" fill="green"></rect>
<rect x="674" y="1120" stroke="Black" width="75" height="80" fill="green"></rect>
<rect x="749" y="1120" stroke="Black" width="75" height="80" fill="green"></rect>
<rect x="824" y="1120" stroke="Black" width="75" height="80" fill="green"></rect>
<rect x="899" y="1120" stroke="Black" width="75" height="80" fill="green"></rect>
<rect x="974" y="1120" stroke="Black" width="75" height="80" fill="green"></rect>
<rect x="1049" y="1120" stroke="Black" width="75" height="80" fill="green"></rect>
<rect x="449" y="1200" stroke="Black" width="75" height="80" fill="green"></rect>
<rect x="524" y="1200" stroke="Black" width="75" height="80" fill="green"></rect>
<rect x="599" y="1200" stroke="Black" width="75" height="80" fill="green"></rect>
<rect x="674" y="1200" stroke="Black" width="75" height="80" fill="green"></rect>
<rect x="749" y="1200" stroke="Black" width="75" height="80" fill="green"></rect>
<rect x="824" y="1200" stroke="Black" width="75" height="80" fill="green"></rect>
<rect x="899" y="1200" stroke="Black" width="75" height="80" fill="green"></rect>
<rect x="974" y="1200" stroke="Black" width="75" height="80" fill="green"></rect>
<rect x="524" y="1280" stroke="Black" width="75" height="80" fill="green"></rect>
<rect x="599" y="1280" stroke="Black" width="75" height="80" fill="green"></rect>
<rect x="674" y="1280" stroke="Black" width="75" height="80" fill="green"></rect>
<rect x="749" y="1280" stroke="Black" width="75" height="80" fill="green"></rect>
<rect x="824" y="1280" stroke="Black" width="75" height="80" fill="green"></rect>
</svg>