<svg version="1.1" baseProfile="full" xmlns="http://www.w3.org/2000/svg">
<polygon points="425 0 0 736 850 736 " stroke = "black" fill="red"></polygon><circle cx="81" cy="689" r="47" fill="green" />
<circle cx="175" cy="689" r="47" fill="green" />
<circle cx="269" cy="689" r="47" fill="green" />
<circle cx="363" cy="689" r="47" fill="green" />
<circle cx="457" cy="689" r="47" fill="green" />
<circle cx="551" cy="689" r="47" fill="green" />
<circle cx="645" cy="689" r="47" fill="green" />
<circle cx="739" cy="689" r="47" fill="green" />
<circle cx="81" cy="689" r="47" fill="green" />
<circle cx="175" cy="689" r="47" fill="green" />
<circle cx="269" cy="689" r="47" fill="green" />
<circle cx="363" cy="689" r="47" fill="green" />
<circle cx="457" cy="689" r="47" fill="green" />
<circle cx="551" cy="689" r="47" fill="green" />
<circle cx="645" cy="689" r="47" fill="green" />
<circle cx="739" cy="689" r="47" fill="green" />
<circle cx="128" cy="607" r="47" fill="green" />
<circle cx="222" cy="607" r="47" fill="green" />
<circle cx="316" cy="607" r="47" fill="green" />
<circle cx="410" cy="607" r="47" fill="green" />
<circle cx="504" cy="607" r="47" fill="green" />
<circle cx="598" cy="607" r="47" fill="green" />
<circle cx="692" cy="607" r="47" fill="green" />
<circle cx="175" cy="526" r="47" fill="green" />
<circle cx="269" cy="526" r="47" fill="green" />
<circle cx="363" cy="526" r="47" fill="green" />
<circle cx="457" cy="526" r="47" fill="green" />
<circle cx="551" cy="526" r="47" fill="green" />
<circle cx="645" cy="526" r="47" fill="green" />
<circle cx="222" cy="444" r="47" fill="green" />
<circle cx="316" cy="444" r="47" fill="green" />
<circle cx="410" cy="444" r="47" fill="green" />
<circle cx="504" cy="444" r="47" fill="green" />
<circle cx="598" cy="444" r="47" fill="green" />
<circle cx="269" cy="363" r="47" fill="green" />
<circle cx="363" cy="363" r="47" fill="green" />
<circle cx="457" cy="363" r="47" fill="green" />
<circle cx="551" cy="363" r="47" fill="green" />
<circle cx="316" cy="282" r="47" fill="green" />
<circle cx="410" cy="282" r="47" fill="green" />
<circle cx="504" cy="282" r="47" fill="green" />
<circle cx="363" cy="200" r="47" fill="green" />
<circle cx="457" cy="200" r="47" fill="green" />
<circle cx="410" cy="119" r="47" fill="green" />
</svg>