<svg version="1.1" baseProfile="full" xmlns="http://www.w3.org/2000/svg"><polygon points="437 0 0 756.906 874 756.906 " fill="green"></polygon>
 








 <rect width="34" height="58"  x="33.4863" y="698.906" stroke="black" fill="red"></rect> 

 <rect width="34" height="58"  x="67.4863" y="698.906" stroke="black" fill="red"></rect> 

 <rect width="34" height="58"  x="101.486" y="698.906" stroke="black" fill="red"></rect> 

 <rect width="34" height="58"  x="135.486" y="698.906" stroke="black" fill="red"></rect> 

 <rect width="34" height="58"  x="169.486" y="698.906" stroke="black" fill="red"></rect> 

 <rect width="34" height="58"  x="203.486" y="698.906" stroke="black" fill="red"></rect> 

 <rect width="34" height="58"  x="237.486" y="698.906" stroke="black" fill="red"></rect> 

 <rect width="34" height="58"  x="271.486" y="698.906" stroke="black" fill="red"></rect> 

 <rect width="34" height="58"  x="305.486" y="698.906" stroke="black" fill="red"></rect> 

 <rect width="34" height="58"  x="339.486" y="698.906" stroke="black" fill="red"></rect> 

 <rect width="34" height="58"  x="373.486" y="698.906" stroke="black" fill="red"></rect> 

 <rect width="34" height="58"  x="407.486" y="698.906" stroke="black" fill="red"></rect> 

 <rect width="34" height="58"  x="441.486" y="698.906" stroke="black" fill="red"></rect> 

 <rect width="34" height="58"  x="475.486" y="698.906" stroke="black" fill="red"></rect> 

 <rect width="34" height="58"  x="509.486" y="698.906" stroke="black" fill="red"></rect> 

 <rect width="34" height="58"  x="543.486" y="698.906" stroke="black" fill="red"></rect> 

 <rect width="34" height="58"  x="577.486" y="698.906" stroke="black" fill="red"></rect> 

 <rect width="34" height="58"  x="611.486" y="698.906" stroke="black" fill="red"></rect> 

 <rect width="34" height="58"  x="645.486" y="698.906" stroke="black" fill="red"></rect> 

 <rect width="34" height="58"  x="679.486" y="698.906" stroke="black" fill="red"></rect> 

 <rect width="34" height="58"  x="713.486" y="698.906" stroke="black" fill="red"></rect> 

 <rect width="34" height="58"  x="747.486" y="698.906" stroke="black" fill="red"></rect> 

 <rect width="34" height="58"  x="781.486" y="698.906" stroke="black" fill="red"></rect> 

 <rect width="34" height="58"  x="66.9726" y="640.906" stroke="black" fill="red"></rect> 

 <rect width="34" height="58"  x="100.973" y="640.906" stroke="black" fill="red"></rect> 

 <rect width="34" height="58"  x="134.973" y="640.906" stroke="black" fill="red"></rect> 

 <rect width="34" height="58"  x="168.973" y="640.906" stroke="black" fill="red"></rect> 

 <rect width="34" height="58"  x="202.973" y="640.906" stroke="black" fill="red"></rect> 

 <rect width="34" height="58"  x="236.973" y="640.906" stroke="black" fill="red"></rect> 

 <rect width="34" height="58"  x="270.973" y="640.906" stroke="black" fill="red"></rect> 

 <rect width="34" height="58"  x="304.973" y="640.906" stroke="black" fill="red"></rect> 

 <rect width="34" height="58"  x="338.973" y="640.906" stroke="black" fill="red"></rect> 

 <rect width="34" height="58"  x="372.973" y="640.906" stroke="black" fill="red"></rect> 

 <rect width="34" height="58"  x="406.973" y="640.906" stroke="black" fill="red"></rect> 

 <rect width="34" height="58"  x="440.973" y="640.906" stroke="black" fill="red"></rect> 

 <rect width="34" height="58"  x="474.973" y="640.906" stroke="black" fill="red"></rect> 

 <rect width="34" height="58"  x="508.973" y="640.906" stroke="black" fill="red"></rect> 

 <rect width="34" height="58"  x="542.973" y="640.906" stroke="black" fill="red"></rect> 

 <rect width="34" height="58"  x="576.973" y="640.906" stroke="black" fill="red"></rect> 

 <rect width="34" height="58"  x="610.973" y="640.906" stroke="black" fill="red"></rect> 

 <rect width="34" height="58"  x="644.973" y="640.906" stroke="black" fill="red"></rect> 

 <rect width="34" height="58"  x="678.973" y="640.906" stroke="black" fill="red"></rect> 

 <rect width="34" height="58"  x="712.973" y="640.906" stroke="black" fill="red"></rect> 

 <rect width="34" height="58"  x="746.973" y="640.906" stroke="black" fill="red"></rect> 

 <rect width="34" height="58"  x="100.459" y="582.906" stroke="black" fill="red"></rect> 

 <rect width="34" height="58"  x="134.459" y="582.906" stroke="black" fill="red"></rect> 

 <rect width="34" height="58"  x="168.459" y="582.906" stroke="black" fill="red"></rect> 

 <rect width="34" height="58"  x="202.459" y="582.906" stroke="black" fill="red"></rect> 

 <rect width="34" height="58"  x="236.459" y="582.906" stroke="black" fill="red"></rect> 

 <rect width="34" height="58"  x="270.459" y="582.906" stroke="black" fill="red"></rect> 

 <rect width="34" height="58"  x="304.459" y="582.906" stroke="black" fill="red"></rect> 

 <rect width="34" height="58"  x="338.459" y="582.906" stroke="black" fill="red"></rect> 

 <rect width="34" height="58"  x="372.459" y="582.906" stroke="black" fill="red"></rect> 

 <rect width="34" height="58"  x="406.459" y="582.906" stroke="black" fill="red"></rect> 

 <rect width="34" height="58"  x="440.459" y="582.906" stroke="black" fill="red"></rect> 

 <rect width="34" height="58"  x="474.459" y="582.906" stroke="black" fill="red"></rect> 

 <rect width="34" height="58"  x="508.459" y="582.906" stroke="black" fill="red"></rect> 

 <rect width="34" height="58"  x="542.459" y="582.906" stroke="black" fill="red"></rect> 

 <rect width="34" height="58"  x="576.459" y="582.906" stroke="black" fill="red"></rect> 

 <rect width="34" height="58"  x="610.459" y="582.906" stroke="black" fill="red"></rect> 

 <rect width="34" height="58"  x="644.459" y="582.906" stroke="black" fill="red"></rect> 

 <rect width="34" height="58"  x="678.459" y="582.906" stroke="black" fill="red"></rect> 

 <rect width="34" height="58"  x="712.459" y="582.906" stroke="black" fill="red"></rect> 

 <rect width="34" height="58"  x="133.945" y="524.906" stroke="black" fill="red"></rect> 

 <rect width="34" height="58"  x="167.945" y="524.906" stroke="black" fill="red"></rect> 

 <rect width="34" height="58"  x="201.945" y="524.906" stroke="black" fill="red"></rect> 

 <rect width="34" height="58"  x="235.945" y="524.906" stroke="black" fill="red"></rect> 

 <rect width="34" height="58"  x="269.945" y="524.906" stroke="black" fill="red"></rect> 

 <rect width="34" height="58"  x="303.945" y="524.906" stroke="black" fill="red"></rect> 

 <rect width="34" height="58"  x="337.945" y="524.906" stroke="black" fill="red"></rect> 

 <rect width="34" height="58"  x="371.945" y="524.906" stroke="black" fill="red"></rect> 

 <rect width="34" height="58"  x="405.945" y="524.906" stroke="black" fill="red"></rect> 

 <rect width="34" height="58"  x="439.945" y="524.906" stroke="black" fill="red"></rect> 

 <rect width="34" height="58"  x="473.945" y="524.906" stroke="black" fill="red"></rect> 

 <rect width="34" height="58"  x="507.945" y="524.906" stroke="black" fill="red"></rect> 

 <rect width="34" height="58"  x="541.945" y="524.906" stroke="black" fill="red"></rect> 

 <rect width="34" height="58"  x="575.945" y="524.906" stroke="black" fill="red"></rect> 

 <rect width="34" height="58"  x="609.945" y="524.906" stroke="black" fill="red"></rect> 

 <rect width="34" height="58"  x="643.945" y="524.906" stroke="black" fill="red"></rect> 

 <rect width="34" height="58"  x="677.945" y="524.906" stroke="black" fill="red"></rect> 

 <rect width="34" height="58"  x="167.432" y="466.906" stroke="black" fill="red"></rect> 

 <rect width="34" height="58"  x="201.432" y="466.906" stroke="black" fill="red"></rect> 

 <rect width="34" height="58"  x="235.432" y="466.906" stroke="black" fill="red"></rect> 

 <rect width="34" height="58"  x="269.432" y="466.906" stroke="black" fill="red"></rect> 

 <rect width="34" height="58"  x="303.432" y="466.906" stroke="black" fill="red"></rect> 

 <rect width="34" height="58"  x="337.432" y="466.906" stroke="black" fill="red"></rect> 

 <rect width="34" height="58"  x="371.432" y="466.906" stroke="black" fill="red"></rect> 

 <rect width="34" height="58"  x="405.432" y="466.906" stroke="black" fill="red"></rect> 

 <rect width="34" height="58"  x="439.432" y="466.906" stroke="black" fill="red"></rect> 

 <rect width="34" height="58"  x="473.432" y="466.906" stroke="black" fill="red"></rect> 

 <rect width="34" height="58"  x="507.432" y="466.906" stroke="black" fill="red"></rect> 

 <rect width="34" height="58"  x="541.432" y="466.906" stroke="black" fill="red"></rect> 

 <rect width="34" height="58"  x="575.432" y="466.906" stroke="black" fill="red"></rect> 

 <rect width="34" height="58"  x="609.432" y="466.906" stroke="black" fill="red"></rect> 

 <rect width="34" height="58"  x="643.432" y="466.906" stroke="black" fill="red"></rect> 

 <rect width="34" height="58"  x="200.918" y="408.906" stroke="black" fill="red"></rect> 

 <rect width="34" height="58"  x="234.918" y="408.906" stroke="black" fill="red"></rect> 

 <rect width="34" height="58"  x="268.918" y="408.906" stroke="black" fill="red"></rect> 

 <rect width="34" height="58"  x="302.918" y="408.906" stroke="black" fill="red"></rect> 

 <rect width="34" height="58"  x="336.918" y="408.906" stroke="black" fill="red"></rect> 

 <rect width="34" height="58"  x="370.918" y="408.906" stroke="black" fill="red"></rect> 

 <rect width="34" height="58"  x="404.918" y="408.906" stroke="black" fill="red"></rect> 

 <rect width="34" height="58"  x="438.918" y="408.906" stroke="black" fill="red"></rect> 

 <rect width="34" height="58"  x="472.918" y="408.906" stroke="black" fill="red"></rect> 

 <rect width="34" height="58"  x="506.918" y="408.906" stroke="black" fill="red"></rect> 

 <rect width="34" height="58"  x="540.918" y="408.906" stroke="black" fill="red"></rect> 

 <rect width="34" height="58"  x="574.918" y="408.906" stroke="black" fill="red"></rect> 

 <rect width="34" height="58"  x="608.918" y="408.906" stroke="black" fill="red"></rect> 

 <rect width="34" height="58"  x="234.404" y="350.906" stroke="black" fill="red"></rect> 

 <rect width="34" height="58"  x="268.404" y="350.906" stroke="black" fill="red"></rect> 

 <rect width="34" height="58"  x="302.404" y="350.906" stroke="black" fill="red"></rect> 

 <rect width="34" height="58"  x="336.404" y="350.906" stroke="black" fill="red"></rect> 

 <rect width="34" height="58"  x="370.404" y="350.906" stroke="black" fill="red"></rect> 

 <rect width="34" height="58"  x="404.404" y="350.906" stroke="black" fill="red"></rect> 

 <rect width="34" height="58"  x="438.404" y="350.906" stroke="black" fill="red"></rect> 

 <rect width="34" height="58"  x="472.404" y="350.906" stroke="black" fill="red"></rect> 

 <rect width="34" height="58"  x="506.404" y="350.906" stroke="black" fill="red"></rect> 

 <rect width="34" height="58"  x="540.404" y="350.906" stroke="black" fill="red"></rect> 

 <rect width="34" height="58"  x="574.404" y="350.906" stroke="black" fill="red"></rect> 

 <rect width="34" height="58"  x="267.891" y="292.906" stroke="black" fill="red"></rect> 

 <rect width="34" height="58"  x="301.891" y="292.906" stroke="black" fill="red"></rect> 

 <rect width="34" height="58"  x="335.891" y="292.906" stroke="black" fill="red"></rect> 

 <rect width="34" height="58"  x="369.891" y="292.906" stroke="black" fill="red"></rect> 

 <rect width="34" height="58"  x="403.891" y="292.906" stroke="black" fill="red"></rect> 

 <rect width="34" height="58"  x="437.891" y="292.906" stroke="black" fill="red"></rect> 

 <rect width="34" height="58"  x="471.891" y="292.906" stroke="black" fill="red"></rect> 

 <rect width="34" height="58"  x="505.891" y="292.906" stroke="black" fill="red"></rect> 

 <rect width="34" height="58"  x="539.891" y="292.906" stroke="black" fill="red"></rect> 

 <rect width="34" height="58"  x="301.377" y="234.906" stroke="black" fill="red"></rect> 

 <rect width="34" height="58"  x="335.377" y="234.906" stroke="black" fill="red"></rect> 

 <rect width="34" height="58"  x="369.377" y="234.906" stroke="black" fill="red"></rect> 

 <rect width="34" height="58"  x="403.377" y="234.906" stroke="black" fill="red"></rect> 

 <rect width="34" height="58"  x="437.377" y="234.906" stroke="black" fill="red"></rect> 

 <rect width="34" height="58"  x="471.377" y="234.906" stroke="black" fill="red"></rect> 

 <rect width="34" height="58"  x="505.377" y="234.906" stroke="black" fill="red"></rect> 

 <rect width="34" height="58"  x="334.863" y="176.906" stroke="black" fill="red"></rect> 

 <rect width="34" height="58"  x="368.863" y="176.906" stroke="black" fill="red"></rect> 

 <rect width="34" height="58"  x="402.863" y="176.906" stroke="black" fill="red"></rect> 

 <rect width="34" height="58"  x="436.863" y="176.906" stroke="black" fill="red"></rect> 

 <rect width="34" height="58"  x="470.863" y="176.906" stroke="black" fill="red"></rect> 

 <rect width="34" height="58"  x="504.863" y="176.906" stroke="black" fill="red"></rect> 

 <rect width="34" height="58"  x="368.349" y="118.906" stroke="black" fill="red"></rect> 

 <rect width="34" height="58"  x="402.349" y="118.906" stroke="black" fill="red"></rect> 

 <rect width="34" height="58"  x="436.349" y="118.906" stroke="black" fill="red"></rect> 

 <rect width="34" height="58"  x="470.349" y="118.906" stroke="black" fill="red"></rect> 

 <rect width="34" height="58"  x="401.836" y="60.9062" stroke="black" fill="red"></rect> 

 <rect width="34" height="58"  x="435.836" y="60.9062" stroke="black" fill="red"></rect> 
</svg>