<svg version="1.1"
baseProfile="full"
  width="845" height="765"
xmlns="http://www.w3.org/2000/svg">
<rect x="0" y="0" width="845" height="765" fill="red"></rect>
<circle stroke="black" cx="24" cy="24" r="24" fill="green" />
<circle stroke="black" cx="72" cy="24" r="24" fill="green" />
<circle stroke="black" cx="120" cy="24" r="24" fill="green" />
<circle stroke="black" cx="168" cy="24" r="24" fill="green" />
<circle stroke="black" cx="216" cy="24" r="24" fill="green" />
<circle stroke="black" cx="264" cy="24" r="24" fill="green" />
<circle stroke="black" cx="312" cy="24" r="24" fill="green" />
<circle stroke="black" cx="360" cy="24" r="24" fill="green" />
<circle stroke="black" cx="408" cy="24" r="24" fill="green" />
<circle stroke="black" cx="456" cy="24" r="24" fill="green" />
<circle stroke="black" cx="504" cy="24" r="24" fill="green" />
<circle stroke="black" cx="552" cy="24" r="24" fill="green" />
<circle stroke="black" cx="600" cy="24" r="24" fill="green" />
<circle stroke="black" cx="648" cy="24" r="24" fill="green" />
<circle stroke="black" cx="696" cy="24" r="24" fill="green" />
<circle stroke="black" cx="744" cy="24" r="24" fill="green" />
<circle stroke="black" cx="792" cy="24" r="24" fill="green" />
<circle stroke="black" cx="48" cy="65" r="24" fill="green" />
<circle stroke="black" cx="96" cy="65" r="24" fill="green" />
<circle stroke="black" cx="144" cy="65" r="24" fill="green" />
<circle stroke="black" cx="192" cy="65" r="24" fill="green" />
<circle stroke="black" cx="240" cy="65" r="24" fill="green" />
<circle stroke="black" cx="288" cy="65" r="24" fill="green" />
<circle stroke="black" cx="336" cy="65" r="24" fill="green" />
<circle stroke="black" cx="384" cy="65" r="24" fill="green" />
<circle stroke="black" cx="432" cy="65" r="24" fill="green" />
<circle stroke="black" cx="480" cy="65" r="24" fill="green" />
<circle stroke="black" cx="528" cy="65" r="24" fill="green" />
<circle stroke="black" cx="576" cy="65" r="24" fill="green" />
<circle stroke="black" cx="624" cy="65" r="24" fill="green" />
<circle stroke="black" cx="672" cy="65" r="24" fill="green" />
<circle stroke="black" cx="720" cy="65" r="24" fill="green" />
<circle stroke="black" cx="768" cy="65" r="24" fill="green" />
<circle stroke="black" cx="816" cy="65" r="24" fill="green" />
<circle stroke="black" cx="24" cy="106" r="24" fill="green" />
<circle stroke="black" cx="72" cy="106" r="24" fill="green" />
<circle stroke="black" cx="120" cy="106" r="24" fill="green" />
<circle stroke="black" cx="168" cy="106" r="24" fill="green" />
<circle stroke="black" cx="216" cy="106" r="24" fill="green" />
<circle stroke="black" cx="264" cy="106" r="24" fill="green" />
<circle stroke="black" cx="312" cy="106" r="24" fill="green" />
<circle stroke="black" cx="360" cy="106" r="24" fill="green" />
<circle stroke="black" cx="408" cy="106" r="24" fill="green" />
<circle stroke="black" cx="456" cy="106" r="24" fill="green" />
<circle stroke="black" cx="504" cy="106" r="24" fill="green" />
<circle stroke="black" cx="552" cy="106" r="24" fill="green" />
<circle stroke="black" cx="600" cy="106" r="24" fill="green" />
<circle stroke="black" cx="648" cy="106" r="24" fill="green" />
<circle stroke="black" cx="696" cy="106" r="24" fill="green" />
<circle stroke="black" cx="744" cy="106" r="24" fill="green" />
<circle stroke="black" cx="792" cy="106" r="24" fill="green" />
<circle stroke="black" cx="48" cy="147" r="24" fill="green" />
<circle stroke="black" cx="96" cy="147" r="24" fill="green" />
<circle stroke="black" cx="144" cy="147" r="24" fill="green" />
<circle stroke="black" cx="192" cy="147" r="24" fill="green" />
<circle stroke="black" cx="240" cy="147" r="24" fill="green" />
<circle stroke="black" cx="288" cy="147" r="24" fill="green" />
<circle stroke="black" cx="336" cy="147" r="24" fill="green" />
<circle stroke="black" cx="384" cy="147" r="24" fill="green" />
<circle stroke="black" cx="432" cy="147" r="24" fill="green" />
<circle stroke="black" cx="480" cy="147" r="24" fill="green" />
<circle stroke="black" cx="528" cy="147" r="24" fill="green" />
<circle stroke="black" cx="576" cy="147" r="24" fill="green" />
<circle stroke="black" cx="624" cy="147" r="24" fill="green" />
<circle stroke="black" cx="672" cy="147" r="24" fill="green" />
<circle stroke="black" cx="720" cy="147" r="24" fill="green" />
<circle stroke="black" cx="768" cy="147" r="24" fill="green" />
<circle stroke="black" cx="816" cy="147" r="24" fill="green" />
<circle stroke="black" cx="24" cy="188" r="24" fill="green" />
<circle stroke="black" cx="72" cy="188" r="24" fill="green" />
<circle stroke="black" cx="120" cy="188" r="24" fill="green" />
<circle stroke="black" cx="168" cy="188" r="24" fill="green" />
<circle stroke="black" cx="216" cy="188" r="24" fill="green" />
<circle stroke="black" cx="264" cy="188" r="24" fill="green" />
<circle stroke="black" cx="312" cy="188" r="24" fill="green" />
<circle stroke="black" cx="360" cy="188" r="24" fill="green" />
<circle stroke="black" cx="408" cy="188" r="24" fill="green" />
<circle stroke="black" cx="456" cy="188" r="24" fill="green" />
<circle stroke="black" cx="504" cy="188" r="24" fill="green" />
<circle stroke="black" cx="552" cy="188" r="24" fill="green" />
<circle stroke="black" cx="600" cy="188" r="24" fill="green" />
<circle stroke="black" cx="648" cy="188" r="24" fill="green" />
<circle stroke="black" cx="696" cy="188" r="24" fill="green" />
<circle stroke="black" cx="744" cy="188" r="24" fill="green" />
<circle stroke="black" cx="792" cy="188" r="24" fill="green" />
<circle stroke="black" cx="48" cy="229" r="24" fill="green" />
<circle stroke="black" cx="96" cy="229" r="24" fill="green" />
<circle stroke="black" cx="144" cy="229" r="24" fill="green" />
<circle stroke="black" cx="192" cy="229" r="24" fill="green" />
<circle stroke="black" cx="240" cy="229" r="24" fill="green" />
<circle stroke="black" cx="288" cy="229" r="24" fill="green" />
<circle stroke="black" cx="336" cy="229" r="24" fill="green" />
<circle stroke="black" cx="384" cy="229" r="24" fill="green" />
<circle stroke="black" cx="432" cy="229" r="24" fill="green" />
<circle stroke="black" cx="480" cy="229" r="24" fill="green" />
<circle stroke="black" cx="528" cy="229" r="24" fill="green" />
<circle stroke="black" cx="576" cy="229" r="24" fill="green" />
<circle stroke="black" cx="624" cy="229" r="24" fill="green" />
<circle stroke="black" cx="672" cy="229" r="24" fill="green" />
<circle stroke="black" cx="720" cy="229" r="24" fill="green" />
<circle stroke="black" cx="768" cy="229" r="24" fill="green" />
<circle stroke="black" cx="816" cy="229" r="24" fill="green" />
<circle stroke="black" cx="24" cy="270" r="24" fill="green" />
<circle stroke="black" cx="72" cy="270" r="24" fill="green" />
<circle stroke="black" cx="120" cy="270" r="24" fill="green" />
<circle stroke="black" cx="168" cy="270" r="24" fill="green" />
<circle stroke="black" cx="216" cy="270" r="24" fill="green" />
<circle stroke="black" cx="264" cy="270" r="24" fill="green" />
<circle stroke="black" cx="312" cy="270" r="24" fill="green" />
<circle stroke="black" cx="360" cy="270" r="24" fill="green" />
<circle stroke="black" cx="408" cy="270" r="24" fill="green" />
<circle stroke="black" cx="456" cy="270" r="24" fill="green" />
<circle stroke="black" cx="504" cy="270" r="24" fill="green" />
<circle stroke="black" cx="552" cy="270" r="24" fill="green" />
<circle stroke="black" cx="600" cy="270" r="24" fill="green" />
<circle stroke="black" cx="648" cy="270" r="24" fill="green" />
<circle stroke="black" cx="696" cy="270" r="24" fill="green" />
<circle stroke="black" cx="744" cy="270" r="24" fill="green" />
<circle stroke="black" cx="792" cy="270" r="24" fill="green" />
<circle stroke="black" cx="48" cy="311" r="24" fill="green" />
<circle stroke="black" cx="96" cy="311" r="24" fill="green" />
<circle stroke="black" cx="144" cy="311" r="24" fill="green" />
<circle stroke="black" cx="192" cy="311" r="24" fill="green" />
<circle stroke="black" cx="240" cy="311" r="24" fill="green" />
<circle stroke="black" cx="288" cy="311" r="24" fill="green" />
<circle stroke="black" cx="336" cy="311" r="24" fill="green" />
<circle stroke="black" cx="384" cy="311" r="24" fill="green" />
<circle stroke="black" cx="432" cy="311" r="24" fill="green" />
<circle stroke="black" cx="480" cy="311" r="24" fill="green" />
<circle stroke="black" cx="528" cy="311" r="24" fill="green" />
<circle stroke="black" cx="576" cy="311" r="24" fill="green" />
<circle stroke="black" cx="624" cy="311" r="24" fill="green" />
<circle stroke="black" cx="672" cy="311" r="24" fill="green" />
<circle stroke="black" cx="720" cy="311" r="24" fill="green" />
<circle stroke="black" cx="768" cy="311" r="24" fill="green" />
<circle stroke="black" cx="816" cy="311" r="24" fill="green" />
<circle stroke="black" cx="24" cy="352" r="24" fill="green" />
<circle stroke="black" cx="72" cy="352" r="24" fill="green" />
<circle stroke="black" cx="120" cy="352" r="24" fill="green" />
<circle stroke="black" cx="168" cy="352" r="24" fill="green" />
<circle stroke="black" cx="216" cy="352" r="24" fill="green" />
<circle stroke="black" cx="264" cy="352" r="24" fill="green" />
<circle stroke="black" cx="312" cy="352" r="24" fill="green" />
<circle stroke="black" cx="360" cy="352" r="24" fill="green" />
<circle stroke="black" cx="408" cy="352" r="24" fill="green" />
<circle stroke="black" cx="456" cy="352" r="24" fill="green" />
<circle stroke="black" cx="504" cy="352" r="24" fill="green" />
<circle stroke="black" cx="552" cy="352" r="24" fill="green" />
<circle stroke="black" cx="600" cy="352" r="24" fill="green" />
<circle stroke="black" cx="648" cy="352" r="24" fill="green" />
<circle stroke="black" cx="696" cy="352" r="24" fill="green" />
<circle stroke="black" cx="744" cy="352" r="24" fill="green" />
<circle stroke="black" cx="792" cy="352" r="24" fill="green" />
<circle stroke="black" cx="48" cy="393" r="24" fill="green" />
<circle stroke="black" cx="96" cy="393" r="24" fill="green" />
<circle stroke="black" cx="144" cy="393" r="24" fill="green" />
<circle stroke="black" cx="192" cy="393" r="24" fill="green" />
<circle stroke="black" cx="240" cy="393" r="24" fill="green" />
<circle stroke="black" cx="288" cy="393" r="24" fill="green" />
<circle stroke="black" cx="336" cy="393" r="24" fill="green" />
<circle stroke="black" cx="384" cy="393" r="24" fill="green" />
<circle stroke="black" cx="432" cy="393" r="24" fill="green" />
<circle stroke="black" cx="480" cy="393" r="24" fill="green" />
<circle stroke="black" cx="528" cy="393" r="24" fill="green" />
<circle stroke="black" cx="576" cy="393" r="24" fill="green" />
<circle stroke="black" cx="624" cy="393" r="24" fill="green" />
<circle stroke="black" cx="672" cy="393" r="24" fill="green" />
<circle stroke="black" cx="720" cy="393" r="24" fill="green" />
<circle stroke="black" cx="768" cy="393" r="24" fill="green" />
<circle stroke="black" cx="816" cy="393" r="24" fill="green" />
<circle stroke="black" cx="24" cy="434" r="24" fill="green" />
<circle stroke="black" cx="72" cy="434" r="24" fill="green" />
<circle stroke="black" cx="120" cy="434" r="24" fill="green" />
<circle stroke="black" cx="168" cy="434" r="24" fill="green" />
<circle stroke="black" cx="216" cy="434" r="24" fill="green" />
<circle stroke="black" cx="264" cy="434" r="24" fill="green" />
<circle stroke="black" cx="312" cy="434" r="24" fill="green" />
<circle stroke="black" cx="360" cy="434" r="24" fill="green" />
<circle stroke="black" cx="408" cy="434" r="24" fill="green" />
<circle stroke="black" cx="456" cy="434" r="24" fill="green" />
<circle stroke="black" cx="504" cy="434" r="24" fill="green" />
<circle stroke="black" cx="552" cy="434" r="24" fill="green" />
<circle stroke="black" cx="600" cy="434" r="24" fill="green" />
<circle stroke="black" cx="648" cy="434" r="24" fill="green" />
<circle stroke="black" cx="696" cy="434" r="24" fill="green" />
<circle stroke="black" cx="744" cy="434" r="24" fill="green" />
<circle stroke="black" cx="792" cy="434" r="24" fill="green" />
<circle stroke="black" cx="48" cy="475" r="24" fill="green" />
<circle stroke="black" cx="96" cy="475" r="24" fill="green" />
<circle stroke="black" cx="144" cy="475" r="24" fill="green" />
<circle stroke="black" cx="192" cy="475" r="24" fill="green" />
<circle stroke="black" cx="240" cy="475" r="24" fill="green" />
<circle stroke="black" cx="288" cy="475" r="24" fill="green" />
<circle stroke="black" cx="336" cy="475" r="24" fill="green" />
<circle stroke="black" cx="384" cy="475" r="24" fill="green" />
<circle stroke="black" cx="432" cy="475" r="24" fill="green" />
<circle stroke="black" cx="480" cy="475" r="24" fill="green" />
<circle stroke="black" cx="528" cy="475" r="24" fill="green" />
<circle stroke="black" cx="576" cy="475" r="24" fill="green" />
<circle stroke="black" cx="624" cy="475" r="24" fill="green" />
<circle stroke="black" cx="672" cy="475" r="24" fill="green" />
<circle stroke="black" cx="720" cy="475" r="24" fill="green" />
<circle stroke="black" cx="768" cy="475" r="24" fill="green" />
<circle stroke="black" cx="816" cy="475" r="24" fill="green" />
<circle stroke="black" cx="24" cy="516" r="24" fill="green" />
<circle stroke="black" cx="72" cy="516" r="24" fill="green" />
<circle stroke="black" cx="120" cy="516" r="24" fill="green" />
<circle stroke="black" cx="168" cy="516" r="24" fill="green" />
<circle stroke="black" cx="216" cy="516" r="24" fill="green" />
<circle stroke="black" cx="264" cy="516" r="24" fill="green" />
<circle stroke="black" cx="312" cy="516" r="24" fill="green" />
<circle stroke="black" cx="360" cy="516" r="24" fill="green" />
<circle stroke="black" cx="408" cy="516" r="24" fill="green" />
<circle stroke="black" cx="456" cy="516" r="24" fill="green" />
<circle stroke="black" cx="504" cy="516" r="24" fill="green" />
<circle stroke="black" cx="552" cy="516" r="24" fill="green" />
<circle stroke="black" cx="600" cy="516" r="24" fill="green" />
<circle stroke="black" cx="648" cy="516" r="24" fill="green" />
<circle stroke="black" cx="696" cy="516" r="24" fill="green" />
<circle stroke="black" cx="744" cy="516" r="24" fill="green" />
<circle stroke="black" cx="792" cy="516" r="24" fill="green" />
<circle stroke="black" cx="48" cy="557" r="24" fill="green" />
<circle stroke="black" cx="96" cy="557" r="24" fill="green" />
<circle stroke="black" cx="144" cy="557" r="24" fill="green" />
<circle stroke="black" cx="192" cy="557" r="24" fill="green" />
<circle stroke="black" cx="240" cy="557" r="24" fill="green" />
<circle stroke="black" cx="288" cy="557" r="24" fill="green" />
<circle stroke="black" cx="336" cy="557" r="24" fill="green" />
<circle stroke="black" cx="384" cy="557" r="24" fill="green" />
<circle stroke="black" cx="432" cy="557" r="24" fill="green" />
<circle stroke="black" cx="480" cy="557" r="24" fill="green" />
<circle stroke="black" cx="528" cy="557" r="24" fill="green" />
<circle stroke="black" cx="576" cy="557" r="24" fill="green" />
<circle stroke="black" cx="624" cy="557" r="24" fill="green" />
<circle stroke="black" cx="672" cy="557" r="24" fill="green" />
<circle stroke="black" cx="720" cy="557" r="24" fill="green" />
<circle stroke="black" cx="768" cy="557" r="24" fill="green" />
<circle stroke="black" cx="816" cy="557" r="24" fill="green" />
<circle stroke="black" cx="24" cy="598" r="24" fill="green" />
<circle stroke="black" cx="72" cy="598" r="24" fill="green" />
<circle stroke="black" cx="120" cy="598" r="24" fill="green" />
<circle stroke="black" cx="168" cy="598" r="24" fill="green" />
<circle stroke="black" cx="216" cy="598" r="24" fill="green" />
<circle stroke="black" cx="264" cy="598" r="24" fill="green" />
<circle stroke="black" cx="312" cy="598" r="24" fill="green" />
<circle stroke="black" cx="360" cy="598" r="24" fill="green" />
<circle stroke="black" cx="408" cy="598" r="24" fill="green" />
<circle stroke="black" cx="456" cy="598" r="24" fill="green" />
<circle stroke="black" cx="504" cy="598" r="24" fill="green" />
<circle stroke="black" cx="552" cy="598" r="24" fill="green" />
<circle stroke="black" cx="600" cy="598" r="24" fill="green" />
<circle stroke="black" cx="648" cy="598" r="24" fill="green" />
<circle stroke="black" cx="696" cy="598" r="24" fill="green" />
<circle stroke="black" cx="744" cy="598" r="24" fill="green" />
<circle stroke="black" cx="792" cy="598" r="24" fill="green" />
<circle stroke="black" cx="48" cy="639" r="24" fill="green" />
<circle stroke="black" cx="96" cy="639" r="24" fill="green" />
<circle stroke="black" cx="144" cy="639" r="24" fill="green" />
<circle stroke="black" cx="192" cy="639" r="24" fill="green" />
<circle stroke="black" cx="240" cy="639" r="24" fill="green" />
<circle stroke="black" cx="288" cy="639" r="24" fill="green" />
<circle stroke="black" cx="336" cy="639" r="24" fill="green" />
<circle stroke="black" cx="384" cy="639" r="24" fill="green" />
<circle stroke="black" cx="432" cy="639" r="24" fill="green" />
<circle stroke="black" cx="480" cy="639" r="24" fill="green" />
<circle stroke="black" cx="528" cy="639" r="24" fill="green" />
<circle stroke="black" cx="576" cy="639" r="24" fill="green" />
<circle stroke="black" cx="624" cy="639" r="24" fill="green" />
<circle stroke="black" cx="672" cy="639" r="24" fill="green" />
<circle stroke="black" cx="720" cy="639" r="24" fill="green" />
<circle stroke="black" cx="768" cy="639" r="24" fill="green" />
<circle stroke="black" cx="816" cy="639" r="24" fill="green" />
<circle stroke="black" cx="24" cy="680" r="24" fill="green" />
<circle stroke="black" cx="72" cy="680" r="24" fill="green" />
<circle stroke="black" cx="120" cy="680" r="24" fill="green" />
<circle stroke="black" cx="168" cy="680" r="24" fill="green" />
<circle stroke="black" cx="216" cy="680" r="24" fill="green" />
<circle stroke="black" cx="264" cy="680" r="24" fill="green" />
<circle stroke="black" cx="312" cy="680" r="24" fill="green" />
<circle stroke="black" cx="360" cy="680" r="24" fill="green" />
<circle stroke="black" cx="408" cy="680" r="24" fill="green" />
<circle stroke="black" cx="456" cy="680" r="24" fill="green" />
<circle stroke="black" cx="504" cy="680" r="24" fill="green" />
<circle stroke="black" cx="552" cy="680" r="24" fill="green" />
<circle stroke="black" cx="600" cy="680" r="24" fill="green" />
<circle stroke="black" cx="648" cy="680" r="24" fill="green" />
<circle stroke="black" cx="696" cy="680" r="24" fill="green" />
<circle stroke="black" cx="744" cy="680" r="24" fill="green" />
<circle stroke="black" cx="792" cy="680" r="24" fill="green" />
<circle stroke="black" cx="48" cy="721" r="24" fill="green" />
<circle stroke="black" cx="96" cy="721" r="24" fill="green" />
<circle stroke="black" cx="144" cy="721" r="24" fill="green" />
<circle stroke="black" cx="192" cy="721" r="24" fill="green" />
<circle stroke="black" cx="240" cy="721" r="24" fill="green" />
<circle stroke="black" cx="288" cy="721" r="24" fill="green" />
<circle stroke="black" cx="336" cy="721" r="24" fill="green" />
<circle stroke="black" cx="384" cy="721" r="24" fill="green" />
<circle stroke="black" cx="432" cy="721" r="24" fill="green" />
<circle stroke="black" cx="480" cy="721" r="24" fill="green" />
<circle stroke="black" cx="528" cy="721" r="24" fill="green" />
<circle stroke="black" cx="576" cy="721" r="24" fill="green" />
<circle stroke="black" cx="624" cy="721" r="24" fill="green" />
<circle stroke="black" cx="672" cy="721" r="24" fill="green" />
<circle stroke="black" cx="720" cy="721" r="24" fill="green" />
<circle stroke="black" cx="768" cy="721" r="24" fill="green" />
<circle stroke="black" cx="816" cy="721" r="24" fill="green" /></svg>