<svg version="1.1" baseProfile="full" xmlns="http://www.w3.org/2000/svg"><circle cx="546" cy="546" r="546" fill="red" />
<polygon points="199 160 160 227 239 227 " stroke = "black" fill="green"></polygon><polygon points="278 160 239 227 318 227 " stroke = "black" fill="green"></polygon><polygon points="357 160 318 227 397 227 " stroke = "black" fill="green"></polygon><polygon points="436 160 397 227 476 227 " stroke = "black" fill="green"></polygon><polygon points="515 160 476 227 555 227 " stroke = "black" fill="green"></polygon><polygon points="594 160 555 227 634 227 " stroke = "black" fill="green"></polygon><polygon points="673 160 634 227 713 227 " stroke = "black" fill="green"></polygon><polygon points="752 160 713 227 792 227 " stroke = "black" fill="green"></polygon><polygon points="831 160 792 227 871 227 " stroke = "black" fill="green"></polygon><polygon points="199 227 160 294 239 294 " stroke = "black" fill="green"></polygon><polygon points="278 227 239 294 318 294 " stroke = "black" fill="green"></polygon><polygon points="357 227 318 294 397 294 " stroke = "black" fill="green"></polygon><polygon points="436 227 397 294 476 294 " stroke = "black" fill="green"></polygon><polygon points="515 227 476 294 555 294 " stroke = "black" fill="green"></polygon><polygon points="594 227 555 294 634 294 " stroke = "black" fill="green"></polygon><polygon points="673 227 634 294 713 294 " stroke = "black" fill="green"></polygon><polygon points="752 227 713 294 792 294 " stroke = "black" fill="green"></polygon><polygon points="831 227 792 294 871 294 " stroke = "black" fill="green"></polygon><polygon points="199 294 160 361 239 361 " stroke = "black" fill="green"></polygon><polygon points="278 294 239 361 318 361 " stroke = "black" fill="green"></polygon><polygon points="357 294 318 361 397 361 " stroke = "black" fill="green"></polygon><polygon points="436 294 397 361 476 361 " stroke = "black" fill="green"></polygon><polygon points="515 294 476 361 555 361 " stroke = "black" fill="green"></polygon><polygon points="594 294 555 361 634 361 " stroke = "black" fill="green"></polygon><polygon points="673 294 634 361 713 361 " stroke = "black" fill="green"></polygon><polygon points="752 294 713 361 792 361 " stroke = "black" fill="green"></polygon><polygon points="831 294 792 361 871 361 " stroke = "black" fill="green"></polygon><polygon points="199 361 160 428 239 428 " stroke = "black" fill="green"></polygon><polygon points="278 361 239 428 318 428 " stroke = "black" fill="green"></polygon><polygon points="357 361 318 428 397 428 " stroke = "black" fill="green"></polygon><polygon points="436 361 397 428 476 428 " stroke = "black" fill="green"></polygon><polygon points="515 361 476 428 555 428 " stroke = "black" fill="green"></polygon><polygon points="594 361 555 428 634 428 " stroke = "black" fill="green"></polygon><polygon points="673 361 634 428 713 428 " stroke = "black" fill="green"></polygon><polygon points="752 361 713 428 792 428 " stroke = "black" fill="green"></polygon><polygon points="831 361 792 428 871 428 " stroke = "black" fill="green"></polygon><polygon points="199 428 160 495 239 495 " stroke = "black" fill="green"></polygon><polygon points="278 428 239 495 318 495 " stroke = "black" fill="green"></polygon><polygon points="357 428 318 495 397 495 " stroke = "black" fill="green"></polygon><polygon points="436 428 397 495 476 495 " stroke = "black" fill="green"></polygon><polygon points="515 428 476 495 555 495 " stroke = "black" fill="green"></polygon><polygon points="594 428 555 495 634 495 " stroke = "black" fill="green"></polygon><polygon points="673 428 634 495 713 495 " stroke = "black" fill="green"></polygon><polygon points="752 428 713 495 792 495 " stroke = "black" fill="green"></polygon><polygon points="831 428 792 495 871 495 " stroke = "black" fill="green"></polygon><polygon points="199 495 160 562 239 562 " stroke = "black" fill="green"></polygon><polygon points="278 495 239 562 318 562 " stroke = "black" fill="green"></polygon><polygon points="357 495 318 562 397 562 " stroke = "black" fill="green"></polygon><polygon points="436 495 397 562 476 562 " stroke = "black" fill="green"></polygon><polygon points="515 495 476 562 555 562 " stroke = "black" fill="green"></polygon><polygon points="594 495 555 562 634 562 " stroke = "black" fill="green"></polygon><polygon points="673 495 634 562 713 562 " stroke = "black" fill="green"></polygon><polygon points="752 495 713 562 792 562 " stroke = "black" fill="green"></polygon><polygon points="831 495 792 562 871 562 " stroke = "black" fill="green"></polygon><polygon points="199 562 160 629 239 629 " stroke = "black" fill="green"></polygon><polygon points="278 562 239 629 318 629 " stroke = "black" fill="green"></polygon><polygon points="357 562 318 629 397 629 " stroke = "black" fill="green"></polygon><polygon points="436 562 397 629 476 629 " stroke = "black" fill="green"></polygon><polygon points="515 562 476 629 555 629 " stroke = "black" fill="green"></polygon><polygon points="594 562 555 629 634 629 " stroke = "black" fill="green"></polygon><polygon points="673 562 634 629 713 629 " stroke = "black" fill="green"></polygon><polygon points="752 562 713 629 792 629 " stroke = "black" fill="green"></polygon><polygon points="831 562 792 629 871 629 " stroke = "black" fill="green"></polygon><polygon points="199 629 160 696 239 696 " stroke = "black" fill="green"></polygon><polygon points="278 629 239 696 318 696 " stroke = "black" fill="green"></polygon><polygon points="357 629 318 696 397 696 " stroke = "black" fill="green"></polygon><polygon points="436 629 397 696 476 696 " stroke = "black" fill="green"></polygon><polygon points="515 629 476 696 555 696 " stroke = "black" fill="green"></polygon><polygon points="594 629 555 696 634 696 " stroke = "black" fill="green"></polygon><polygon points="673 629 634 696 713 696 " stroke = "black" fill="green"></polygon><polygon points="752 629 713 696 792 696 " stroke = "black" fill="green"></polygon><polygon points="831 629 792 696 871 696 " stroke = "black" fill="green"></polygon><polygon points="199 696 160 763 239 763 " stroke = "black" fill="green"></polygon><polygon points="278 696 239 763 318 763 " stroke = "black" fill="green"></polygon><polygon points="357 696 318 763 397 763 " stroke = "black" fill="green"></polygon><polygon points="436 696 397 763 476 763 " stroke = "black" fill="green"></polygon><polygon points="515 696 476 763 555 763 " stroke = "black" fill="green"></polygon><polygon points="594 696 555 763 634 763 " stroke = "black" fill="green"></polygon><polygon points="673 696 634 763 713 763 " stroke = "black" fill="green"></polygon><polygon points="752 696 713 763 792 763 " stroke = "black" fill="green"></polygon><polygon points="831 696 792 763 871 763 " stroke = "black" fill="green"></polygon><polygon points="199 763 160 830 239 830 " stroke = "black" fill="green"></polygon><polygon points="278 763 239 830 318 830 " stroke = "black" fill="green"></polygon><polygon points="357 763 318 830 397 830 " stroke = "black" fill="green"></polygon><polygon points="436 763 397 830 476 830 " stroke = "black" fill="green"></polygon><polygon points="515 763 476 830 555 830 " stroke = "black" fill="green"></polygon><polygon points="594 763 555 830 634 830 " stroke = "black" fill="green"></polygon><polygon points="673 763 634 830 713 830 " stroke = "black" fill="green"></polygon><polygon points="752 763 713 830 792 830 " stroke = "black" fill="green"></polygon><polygon points="831 763 792 830 871 830 " stroke = "black" fill="green"></polygon><polygon points="199 830 160 897 239 897 " stroke = "black" fill="green"></polygon><polygon points="278 830 239 897 318 897 " stroke = "black" fill="green"></polygon><polygon points="357 830 318 897 397 897 " stroke = "black" fill="green"></polygon><polygon points="436 830 397 897 476 897 " stroke = "black" fill="green"></polygon><polygon points="515 830 476 897 555 897 " stroke = "black" fill="green"></polygon><polygon points="594 830 555 897 634 897 " stroke = "black" fill="green"></polygon><polygon points="673 830 634 897 713 897 " stroke = "black" fill="green"></polygon><polygon points="752 830 713 897 792 897 " stroke = "black" fill="green"></polygon><polygon points="831 830 792 897 871 897 " stroke = "black" fill="green"></polygon><polygon points="199 160 239 228 278 160 " stroke = "black" fill="green"></polygon><polygon points="278 160 318 228 357 160 " stroke = "black" fill="green"></polygon><polygon points="357 160 397 228 436 160 " stroke = "black" fill="green"></polygon><polygon points="436 160 476 228 515 160 " stroke = "black" fill="green"></polygon><polygon points="515 160 555 228 594 160 " stroke = "black" fill="green"></polygon><polygon points="594 160 634 228 673 160 " stroke = "black" fill="green"></polygon><polygon points="673 160 713 228 752 160 " stroke = "black" fill="green"></polygon><polygon points="752 160 792 228 831 160 " stroke = "black" fill="green"></polygon><polygon points="831 160 871 228 910 160 " stroke = "black" fill="green"></polygon><polygon points="199 227 239 295 278 227 " stroke = "black" fill="green"></polygon><polygon points="278 227 318 295 357 227 " stroke = "black" fill="green"></polygon><polygon points="357 227 397 295 436 227 " stroke = "black" fill="green"></polygon><polygon points="436 227 476 295 515 227 " stroke = "black" fill="green"></polygon><polygon points="515 227 555 295 594 227 " stroke = "black" fill="green"></polygon><polygon points="594 227 634 295 673 227 " stroke = "black" fill="green"></polygon><polygon points="673 227 713 295 752 227 " stroke = "black" fill="green"></polygon><polygon points="752 227 792 295 831 227 " stroke = "black" fill="green"></polygon><polygon points="831 227 871 295 910 227 " stroke = "black" fill="green"></polygon><polygon points="199 294 239 362 278 294 " stroke = "black" fill="green"></polygon><polygon points="278 294 318 362 357 294 " stroke = "black" fill="green"></polygon><polygon points="357 294 397 362 436 294 " stroke = "black" fill="green"></polygon><polygon points="436 294 476 362 515 294 " stroke = "black" fill="green"></polygon><polygon points="515 294 555 362 594 294 " stroke = "black" fill="green"></polygon><polygon points="594 294 634 362 673 294 " stroke = "black" fill="green"></polygon><polygon points="673 294 713 362 752 294 " stroke = "black" fill="green"></polygon><polygon points="752 294 792 362 831 294 " stroke = "black" fill="green"></polygon><polygon points="831 294 871 362 910 294 " stroke = "black" fill="green"></polygon><polygon points="199 361 239 429 278 361 " stroke = "black" fill="green"></polygon><polygon points="278 361 318 429 357 361 " stroke = "black" fill="green"></polygon><polygon points="357 361 397 429 436 361 " stroke = "black" fill="green"></polygon><polygon points="436 361 476 429 515 361 " stroke = "black" fill="green"></polygon><polygon points="515 361 555 429 594 361 " stroke = "black" fill="green"></polygon><polygon points="594 361 634 429 673 361 " stroke = "black" fill="green"></polygon><polygon points="673 361 713 429 752 361 " stroke = "black" fill="green"></polygon><polygon points="752 361 792 429 831 361 " stroke = "black" fill="green"></polygon><polygon points="831 361 871 429 910 361 " stroke = "black" fill="green"></polygon><polygon points="199 428 239 496 278 428 " stroke = "black" fill="green"></polygon><polygon points="278 428 318 496 357 428 " stroke = "black" fill="green"></polygon><polygon points="357 428 397 496 436 428 " stroke = "black" fill="green"></polygon><polygon points="436 428 476 496 515 428 " stroke = "black" fill="green"></polygon><polygon points="515 428 555 496 594 428 " stroke = "black" fill="green"></polygon><polygon points="594 428 634 496 673 428 " stroke = "black" fill="green"></polygon><polygon points="673 428 713 496 752 428 " stroke = "black" fill="green"></polygon><polygon points="752 428 792 496 831 428 " stroke = "black" fill="green"></polygon><polygon points="831 428 871 496 910 428 " stroke = "black" fill="green"></polygon><polygon points="199 495 239 563 278 495 " stroke = "black" fill="green"></polygon><polygon points="278 495 318 563 357 495 " stroke = "black" fill="green"></polygon><polygon points="357 495 397 563 436 495 " stroke = "black" fill="green"></polygon><polygon points="436 495 476 563 515 495 " stroke = "black" fill="green"></polygon><polygon points="515 495 555 563 594 495 " stroke = "black" fill="green"></polygon><polygon points="594 495 634 563 673 495 " stroke = "black" fill="green"></polygon><polygon points="673 495 713 563 752 495 " stroke = "black" fill="green"></polygon><polygon points="752 495 792 563 831 495 " stroke = "black" fill="green"></polygon><polygon points="831 495 871 563 910 495 " stroke = "black" fill="green"></polygon><polygon points="199 562 239 630 278 562 " stroke = "black" fill="green"></polygon><polygon points="278 562 318 630 357 562 " stroke = "black" fill="green"></polygon><polygon points="357 562 397 630 436 562 " stroke = "black" fill="green"></polygon><polygon points="436 562 476 630 515 562 " stroke = "black" fill="green"></polygon><polygon points="515 562 555 630 594 562 " stroke = "black" fill="green"></polygon><polygon points="594 562 634 630 673 562 " stroke = "black" fill="green"></polygon><polygon points="673 562 713 630 752 562 " stroke = "black" fill="green"></polygon><polygon points="752 562 792 630 831 562 " stroke = "black" fill="green"></polygon><polygon points="831 562 871 630 910 562 " stroke = "black" fill="green"></polygon><polygon points="199 629 239 697 278 629 " stroke = "black" fill="green"></polygon><polygon points="278 629 318 697 357 629 " stroke = "black" fill="green"></polygon><polygon points="357 629 397 697 436 629 " stroke = "black" fill="green"></polygon><polygon points="436 629 476 697 515 629 " stroke = "black" fill="green"></polygon><polygon points="515 629 555 697 594 629 " stroke = "black" fill="green"></polygon><polygon points="594 629 634 697 673 629 " stroke = "black" fill="green"></polygon><polygon points="673 629 713 697 752 629 " stroke = "black" fill="green"></polygon><polygon points="752 629 792 697 831 629 " stroke = "black" fill="green"></polygon><polygon points="831 629 871 697 910 629 " stroke = "black" fill="green"></polygon><polygon points="199 696 239 764 278 696 " stroke = "black" fill="green"></polygon><polygon points="278 696 318 764 357 696 " stroke = "black" fill="green"></polygon><polygon points="357 696 397 764 436 696 " stroke = "black" fill="green"></polygon><polygon points="436 696 476 764 515 696 " stroke = "black" fill="green"></polygon><polygon points="515 696 555 764 594 696 " stroke = "black" fill="green"></polygon><polygon points="594 696 634 764 673 696 " stroke = "black" fill="green"></polygon><polygon points="673 696 713 764 752 696 " stroke = "black" fill="green"></polygon><polygon points="752 696 792 764 831 696 " stroke = "black" fill="green"></polygon><polygon points="831 696 871 764 910 696 " stroke = "black" fill="green"></polygon><polygon points="199 763 239 831 278 763 " stroke = "black" fill="green"></polygon><polygon points="278 763 318 831 357 763 " stroke = "black" fill="green"></polygon><polygon points="357 763 397 831 436 763 " stroke = "black" fill="green"></polygon><polygon points="436 763 476 831 515 763 " stroke = "black" fill="green"></polygon><polygon points="515 763 555 831 594 763 " stroke = "black" fill="green"></polygon><polygon points="594 763 634 831 673 763 " stroke = "black" fill="green"></polygon><polygon points="673 763 713 831 752 763 " stroke = "black" fill="green"></polygon><polygon points="752 763 792 831 831 763 " stroke = "black" fill="green"></polygon><polygon points="831 763 871 831 910 763 " stroke = "black" fill="green"></polygon><polygon points="199 830 239 898 278 830 " stroke = "black" fill="green"></polygon><polygon points="278 830 318 898 357 830 " stroke = "black" fill="green"></polygon><polygon points="357 830 397 898 436 830 " stroke = "black" fill="green"></polygon><polygon points="436 830 476 898 515 830 " stroke = "black" fill="green"></polygon><polygon points="515 830 555 898 594 830 " stroke = "black" fill="green"></polygon><polygon points="594 830 634 898 673 830 " stroke = "black" fill="green"></polygon><polygon points="673 830 713 898 752 830 " stroke = "black" fill="green"></polygon><polygon points="752 830 792 898 831 830 " stroke = "black" fill="green"></polygon><polygon points="831 830 871 898 910 830 " stroke = "black" fill="green"></polygon><polygon points="199 897 239 965 278 897 " stroke = "black" fill="green"></polygon><polygon points="278 897 318 965 357 897 " stroke = "black" fill="green"></polygon><polygon points="357 897 397 965 436 897 " stroke = "black" fill="green"></polygon><polygon points="436 897 476 965 515 897 " stroke = "black" fill="green"></polygon><polygon points="515 897 555 965 594 897 " stroke = "black" fill="green"></polygon><polygon points="594 897 634 965 673 897 " stroke = "black" fill="green"></polygon><polygon points="673 897 713 965 752 897 " stroke = "black" fill="green"></polygon><polygon points="752 897 792 965 831 897 " stroke = "black" fill="green"></polygon><polygon points="831 897 871 965 910 897 " stroke = "black" fill="green"></polygon>
</svg>