<svg version="1.1" baseProfile="full" xmlns="http://www.w3.org/2000/svg"><polygon points="388 0 0 672.036 777 672.902 " fill="green"></polygon>
 








 <rect width="68" height="97"  x="56.003" y="575.036" stroke="black" fill="red"></rect> 

 <rect width="68" height="97"  x="124.003" y="575.036" stroke="black" fill="red"></rect> 

 <rect width="68" height="97"  x="192.003" y="575.036" stroke="black" fill="red"></rect> 

 <rect width="68" height="97"  x="260.003" y="575.036" stroke="black" fill="red"></rect> 

 <rect width="68" height="97"  x="328.003" y="575.036" stroke="black" fill="red"></rect> 

 <rect width="68" height="97"  x="396.003" y="575.036" stroke="black" fill="red"></rect> 

 <rect width="68" height="97"  x="464.003" y="575.036" stroke="black" fill="red"></rect> 

 <rect width="68" height="97"  x="532.003" y="575.036" stroke="black" fill="red"></rect> 

 <rect width="68" height="97"  x="600.003" y="575.036" stroke="black" fill="red"></rect> 

 <rect width="68" height="97"  x="112.006" y="478.036" stroke="black" fill="red"></rect> 

 <rect width="68" height="97"  x="180.006" y="478.036" stroke="black" fill="red"></rect> 

 <rect width="68" height="97"  x="248.006" y="478.036" stroke="black" fill="red"></rect> 

 <rect width="68" height="97"  x="316.006" y="478.036" stroke="black" fill="red"></rect> 

 <rect width="68" height="97"  x="384.006" y="478.036" stroke="black" fill="red"></rect> 

 <rect width="68" height="97"  x="452.006" y="478.036" stroke="black" fill="red"></rect> 

 <rect width="68" height="97"  x="520.006" y="478.036" stroke="black" fill="red"></rect> 

 <rect width="68" height="97"  x="588.006" y="478.036" stroke="black" fill="red"></rect> 

 <rect width="68" height="97"  x="168.009" y="381.036" stroke="black" fill="red"></rect> 

 <rect width="68" height="97"  x="236.009" y="381.036" stroke="black" fill="red"></rect> 

 <rect width="68" height="97"  x="304.009" y="381.036" stroke="black" fill="red"></rect> 

 <rect width="68" height="97"  x="372.009" y="381.036" stroke="black" fill="red"></rect> 

 <rect width="68" height="97"  x="440.009" y="381.036" stroke="black" fill="red"></rect> 

 <rect width="68" height="97"  x="508.009" y="381.036" stroke="black" fill="red"></rect> 

 <rect width="68" height="97"  x="224.012" y="284.036" stroke="black" fill="red"></rect> 

 <rect width="68" height="97"  x="292.012" y="284.036" stroke="black" fill="red"></rect> 

 <rect width="68" height="97"  x="360.012" y="284.036" stroke="black" fill="red"></rect> 

 <rect width="68" height="97"  x="428.012" y="284.036" stroke="black" fill="red"></rect> 

 <rect width="68" height="97"  x="280.015" y="187.036" stroke="black" fill="red"></rect> 

 <rect width="68" height="97"  x="348.015" y="187.036" stroke="black" fill="red"></rect> 

 <rect width="68" height="97"  x="416.015" y="187.036" stroke="black" fill="red"></rect> 

 <rect width="68" height="97"  x="336.018" y="90.0357" stroke="black" fill="red"></rect> 
</svg>