<svg version="1.1" baseProfile="full" xmlns="http://www.w3.org/2000/svg"><polygon points="437 0 0 756.906 875 757.772 " fill="green"></polygon>
 








<polygon points="437  0 404.5 56.2917 469.5 56.2917" stroke="black"  fill="red"></polygon>
<polygon points="404.5  56.2917 372 112.583 437 112.583" stroke="black"  fill="red"></polygon>
<polygon points="469.5  56.2917 437 112.583 502 112.583" stroke="black"  fill="red"></polygon>
<polygon points="372  112.583 339.5 168.875 404.5 168.875" stroke="black"  fill="red"></polygon>
<polygon points="437  112.583 404.5 168.875 469.5 168.875" stroke="black"  fill="red"></polygon>
<polygon points="502  112.583 469.5 168.875 534.5 168.875" stroke="black"  fill="red"></polygon>
<polygon points="339.5  168.875 307 225.167 372 225.167" stroke="black"  fill="red"></polygon>
<polygon points="404.5  168.875 372 225.167 437 225.167" stroke="black"  fill="red"></polygon>
<polygon points="469.5  168.875 437 225.167 502 225.167" stroke="black"  fill="red"></polygon>
<polygon points="534.5  168.875 502 225.167 567 225.167" stroke="black"  fill="red"></polygon>
<polygon points="307  225.167 274.5 281.458 339.5 281.458" stroke="black"  fill="red"></polygon>
<polygon points="372  225.167 339.5 281.458 404.5 281.458" stroke="black"  fill="red"></polygon>
<polygon points="437  225.167 404.5 281.458 469.5 281.458" stroke="black"  fill="red"></polygon>
<polygon points="502  225.167 469.5 281.458 534.5 281.458" stroke="black"  fill="red"></polygon>
<polygon points="567  225.167 534.5 281.458 599.5 281.458" stroke="black"  fill="red"></polygon>
<polygon points="274.5  281.458 242 337.75 307 337.75" stroke="black"  fill="red"></polygon>
<polygon points="339.5  281.458 307 337.75 372 337.75" stroke="black"  fill="red"></polygon>
<polygon points="404.5  281.458 372 337.75 437 337.75" stroke="black"  fill="red"></polygon>
<polygon points="469.5  281.458 437 337.75 502 337.75" stroke="black"  fill="red"></polygon>
<polygon points="534.5  281.458 502 337.75 567 337.75" stroke="black"  fill="red"></polygon>
<polygon points="599.5  281.458 567 337.75 632 337.75" stroke="black"  fill="red"></polygon>
<polygon points="242  337.75 209.5 394.042 274.5 394.042" stroke="black"  fill="red"></polygon>
<polygon points="307  337.75 274.5 394.042 339.5 394.042" stroke="black"  fill="red"></polygon>
<polygon points="372  337.75 339.5 394.042 404.5 394.042" stroke="black"  fill="red"></polygon>
<polygon points="437  337.75 404.5 394.042 469.5 394.042" stroke="black"  fill="red"></polygon>
<polygon points="502  337.75 469.5 394.042 534.5 394.042" stroke="black"  fill="red"></polygon>
<polygon points="567  337.75 534.5 394.042 599.5 394.042" stroke="black"  fill="red"></polygon>
<polygon points="632  337.75 599.5 394.042 664.5 394.042" stroke="black"  fill="red"></polygon>
<polygon points="209.5  394.042 177 450.333 242 450.333" stroke="black"  fill="red"></polygon>
<polygon points="274.5  394.042 242 450.333 307 450.333" stroke="black"  fill="red"></polygon>
<polygon points="339.5  394.042 307 450.333 372 450.333" stroke="black"  fill="red"></polygon>
<polygon points="404.5  394.042 372 450.333 437 450.333" stroke="black"  fill="red"></polygon>
<polygon points="469.5  394.042 437 450.333 502 450.333" stroke="black"  fill="red"></polygon>
<polygon points="534.5  394.042 502 450.333 567 450.333" stroke="black"  fill="red"></polygon>
<polygon points="599.5  394.042 567 450.333 632 450.333" stroke="black"  fill="red"></polygon>
<polygon points="664.5  394.042 632 450.333 697 450.333" stroke="black"  fill="red"></polygon>
<polygon points="177  450.333 144.5 506.625 209.5 506.625" stroke="black"  fill="red"></polygon>
<polygon points="242  450.333 209.5 506.625 274.5 506.625" stroke="black"  fill="red"></polygon>
<polygon points="307  450.333 274.5 506.625 339.5 506.625" stroke="black"  fill="red"></polygon>
<polygon points="372  450.333 339.5 506.625 404.5 506.625" stroke="black"  fill="red"></polygon>
<polygon points="437  450.333 404.5 506.625 469.5 506.625" stroke="black"  fill="red"></polygon>
<polygon points="502  450.333 469.5 506.625 534.5 506.625" stroke="black"  fill="red"></polygon>
<polygon points="567  450.333 534.5 506.625 599.5 506.625" stroke="black"  fill="red"></polygon>
<polygon points="632  450.333 599.5 506.625 664.5 506.625" stroke="black"  fill="red"></polygon>
<polygon points="697  450.333 664.5 506.625 729.5 506.625" stroke="black"  fill="red"></polygon>
<polygon points="144.5  506.625 112 562.917 177 562.917" stroke="black"  fill="red"></polygon>
<polygon points="209.5  506.625 177 562.917 242 562.917" stroke="black"  fill="red"></polygon>
<polygon points="274.5  506.625 242 562.917 307 562.917" stroke="black"  fill="red"></polygon>
<polygon points="339.5  506.625 307 562.917 372 562.917" stroke="black"  fill="red"></polygon>
<polygon points="404.5  506.625 372 562.917 437 562.917" stroke="black"  fill="red"></polygon>
<polygon points="469.5  506.625 437 562.917 502 562.917" stroke="black"  fill="red"></polygon>
<polygon points="534.5  506.625 502 562.917 567 562.917" stroke="black"  fill="red"></polygon>
<polygon points="599.5  506.625 567 562.917 632 562.917" stroke="black"  fill="red"></polygon>
<polygon points="664.5  506.625 632 562.917 697 562.917" stroke="black"  fill="red"></polygon>
<polygon points="729.5  506.625 697 562.917 762 562.917" stroke="black"  fill="red"></polygon>
<polygon points="112  562.917 79.5 619.208 144.5 619.208" stroke="black"  fill="red"></polygon>
<polygon points="177  562.917 144.5 619.208 209.5 619.208" stroke="black"  fill="red"></polygon>
<polygon points="242  562.917 209.5 619.208 274.5 619.208" stroke="black"  fill="red"></polygon>
<polygon points="307  562.917 274.5 619.208 339.5 619.208" stroke="black"  fill="red"></polygon>
<polygon points="372  562.917 339.5 619.208 404.5 619.208" stroke="black"  fill="red"></polygon>
<polygon points="437  562.917 404.5 619.208 469.5 619.208" stroke="black"  fill="red"></polygon>
<polygon points="502  562.917 469.5 619.208 534.5 619.208" stroke="black"  fill="red"></polygon>
<polygon points="567  562.917 534.5 619.208 599.5 619.208" stroke="black"  fill="red"></polygon>
<polygon points="632  562.917 599.5 619.208 664.5 619.208" stroke="black"  fill="red"></polygon>
<polygon points="697  562.917 664.5 619.208 729.5 619.208" stroke="black"  fill="red"></polygon>
<polygon points="762  562.917 729.5 619.208 794.5 619.208" stroke="black"  fill="red"></polygon>
<polygon points="79.5  619.208 47 675.5 112 675.5" stroke="black"  fill="red"></polygon>
<polygon points="144.5  619.208 112 675.5 177 675.5" stroke="black"  fill="red"></polygon>
<polygon points="209.5  619.208 177 675.5 242 675.5" stroke="black"  fill="red"></polygon>
<polygon points="274.5  619.208 242 675.5 307 675.5" stroke="black"  fill="red"></polygon>
<polygon points="339.5  619.208 307 675.5 372 675.5" stroke="black"  fill="red"></polygon>
<polygon points="404.5  619.208 372 675.5 437 675.5" stroke="black"  fill="red"></polygon>
<polygon points="469.5  619.208 437 675.5 502 675.5" stroke="black"  fill="red"></polygon>
<polygon points="534.5  619.208 502 675.5 567 675.5" stroke="black"  fill="red"></polygon>
<polygon points="599.5  619.208 567 675.5 632 675.5" stroke="black"  fill="red"></polygon>
<polygon points="664.5  619.208 632 675.5 697 675.5" stroke="black"  fill="red"></polygon>
<polygon points="729.5  619.208 697 675.5 762 675.5" stroke="black"  fill="red"></polygon>
<polygon points="794.5  619.208 762 675.5 827 675.5" stroke="black"  fill="red"></polygon>
<polygon points="47  675.5 14.5 731.791 79.5 731.791" stroke="black"  fill="red"></polygon>
<polygon points="112  675.5 79.5 731.791 144.5 731.791" stroke="black"  fill="red"></polygon>
<polygon points="177  675.5 144.5 731.791 209.5 731.791" stroke="black"  fill="red"></polygon>
<polygon points="242  675.5 209.5 731.791 274.5 731.791" stroke="black"  fill="red"></polygon>
<polygon points="307  675.5 274.5 731.791 339.5 731.791" stroke="black"  fill="red"></polygon>
<polygon points="372  675.5 339.5 731.791 404.5 731.791" stroke="black"  fill="red"></polygon>
<polygon points="437  675.5 404.5 731.791 469.5 731.791" stroke="black"  fill="red"></polygon>
<polygon points="502  675.5 469.5 731.791 534.5 731.791" stroke="black"  fill="red"></polygon>
<polygon points="567  675.5 534.5 731.791 599.5 731.791" stroke="black"  fill="red"></polygon>
<polygon points="632  675.5 599.5 731.791 664.5 731.791" stroke="black"  fill="red"></polygon>
<polygon points="697  675.5 664.5 731.791 729.5 731.791" stroke="black"  fill="red"></polygon>
<polygon points="762  675.5 729.5 731.791 794.5 731.791" stroke="black"  fill="red"></polygon>
<polygon points="827  675.5 794.5 731.791 859.5 731.791" stroke="black"  fill="red"></polygon><polygon points="437  112.583 469.5 56.2917 404.5 56.2917" stroke="black" fill="red"></polygon><polygon points="404.5  168.875 437 112.583 372 112.583" stroke="black" fill="red"></polygon><polygon points="469.5  168.875 502 112.583 437 112.583" stroke="black" fill="red"></polygon><polygon points="372  225.167 404.5 168.875 339.5 168.875" stroke="black" fill="red"></polygon><polygon points="437  225.167 469.5 168.875 404.5 168.875" stroke="black" fill="red"></polygon><polygon points="502  225.167 534.5 168.875 469.5 168.875" stroke="black" fill="red"></polygon><polygon points="339.5  281.458 372 225.167 307 225.167" stroke="black" fill="red"></polygon><polygon points="404.5  281.458 437 225.167 372 225.167" stroke="black" fill="red"></polygon><polygon points="469.5  281.458 502 225.167 437 225.167" stroke="black" fill="red"></polygon><polygon points="534.5  281.458 567 225.167 502 225.167" stroke="black" fill="red"></polygon><polygon points="307  337.75 339.5 281.458 274.5 281.458" stroke="black" fill="red"></polygon><polygon points="372  337.75 404.5 281.458 339.5 281.458" stroke="black" fill="red"></polygon><polygon points="437  337.75 469.5 281.458 404.5 281.458" stroke="black" fill="red"></polygon><polygon points="502  337.75 534.5 281.458 469.5 281.458" stroke="black" fill="red"></polygon><polygon points="567  337.75 599.5 281.458 534.5 281.458" stroke="black" fill="red"></polygon><polygon points="274.5  394.042 307 337.75 242 337.75" stroke="black" fill="red"></polygon><polygon points="339.5  394.042 372 337.75 307 337.75" stroke="black" fill="red"></polygon><polygon points="404.5  394.042 437 337.75 372 337.75" stroke="black" fill="red"></polygon><polygon points="469.5  394.042 502 337.75 437 337.75" stroke="black" fill="red"></polygon><polygon points="534.5  394.042 567 337.75 502 337.75" stroke="black" fill="red"></polygon><polygon points="599.5  394.042 632 337.75 567 337.75" stroke="black" fill="red"></polygon><polygon points="242  450.333 274.5 394.042 209.5 394.042" stroke="black" fill="red"></polygon><polygon points="307  450.333 339.5 394.042 274.5 394.042" stroke="black" fill="red"></polygon><polygon points="372  450.333 404.5 394.042 339.5 394.042" stroke="black" fill="red"></polygon><polygon points="437  450.333 469.5 394.042 404.5 394.042" stroke="black" fill="red"></polygon><polygon points="502  450.333 534.5 394.042 469.5 394.042" stroke="black" fill="red"></polygon><polygon points="567  450.333 599.5 394.042 534.5 394.042" stroke="black" fill="red"></polygon><polygon points="632  450.333 664.5 394.042 599.5 394.042" stroke="black" fill="red"></polygon><polygon points="209.5  506.625 242 450.333 177 450.333" stroke="black" fill="red"></polygon><polygon points="274.5  506.625 307 450.333 242 450.333" stroke="black" fill="red"></polygon><polygon points="339.5  506.625 372 450.333 307 450.333" stroke="black" fill="red"></polygon><polygon points="404.5  506.625 437 450.333 372 450.333" stroke="black" fill="red"></polygon><polygon points="469.5  506.625 502 450.333 437 450.333" stroke="black" fill="red"></polygon><polygon points="534.5  506.625 567 450.333 502 450.333" stroke="black" fill="red"></polygon><polygon points="599.5  506.625 632 450.333 567 450.333" stroke="black" fill="red"></polygon><polygon points="664.5  506.625 697 450.333 632 450.333" stroke="black" fill="red"></polygon><polygon points="177  562.917 209.5 506.625 144.5 506.625" stroke="black" fill="red"></polygon><polygon points="242  562.917 274.5 506.625 209.5 506.625" stroke="black" fill="red"></polygon><polygon points="307  562.917 339.5 506.625 274.5 506.625" stroke="black" fill="red"></polygon><polygon points="372  562.917 404.5 506.625 339.5 506.625" stroke="black" fill="red"></polygon><polygon points="437  562.917 469.5 506.625 404.5 506.625" stroke="black" fill="red"></polygon><polygon points="502  562.917 534.5 506.625 469.5 506.625" stroke="black" fill="red"></polygon><polygon points="567  562.917 599.5 506.625 534.5 506.625" stroke="black" fill="red"></polygon><polygon points="632  562.917 664.5 506.625 599.5 506.625" stroke="black" fill="red"></polygon><polygon points="697  562.917 729.5 506.625 664.5 506.625" stroke="black" fill="red"></polygon><polygon points="144.5  619.208 177 562.917 112 562.917" stroke="black" fill="red"></polygon><polygon points="209.5  619.208 242 562.917 177 562.917" stroke="black" fill="red"></polygon><polygon points="274.5  619.208 307 562.917 242 562.917" stroke="black" fill="red"></polygon><polygon points="339.5  619.208 372 562.917 307 562.917" stroke="black" fill="red"></polygon><polygon points="404.5  619.208 437 562.917 372 562.917" stroke="black" fill="red"></polygon><polygon points="469.5  619.208 502 562.917 437 562.917" stroke="black" fill="red"></polygon><polygon points="534.5  619.208 567 562.917 502 562.917" stroke="black" fill="red"></polygon><polygon points="599.5  619.208 632 562.917 567 562.917" stroke="black" fill="red"></polygon><polygon points="664.5  619.208 697 562.917 632 562.917" stroke="black" fill="red"></polygon><polygon points="729.5  619.208 762 562.917 697 562.917" stroke="black" fill="red"></polygon><polygon points="112  675.5 144.5 619.208 79.5 619.208" stroke="black" fill="red"></polygon><polygon points="177  675.5 209.5 619.208 144.5 619.208" stroke="black" fill="red"></polygon><polygon points="242  675.5 274.5 619.208 209.5 619.208" stroke="black" fill="red"></polygon><polygon points="307  675.5 339.5 619.208 274.5 619.208" stroke="black" fill="red"></polygon><polygon points="372  675.5 404.5 619.208 339.5 619.208" stroke="black" fill="red"></polygon><polygon points="437  675.5 469.5 619.208 404.5 619.208" stroke="black" fill="red"></polygon><polygon points="502  675.5 534.5 619.208 469.5 619.208" stroke="black" fill="red"></polygon><polygon points="567  675.5 599.5 619.208 534.5 619.208" stroke="black" fill="red"></polygon><polygon points="632  675.5 664.5 619.208 599.5 619.208" stroke="black" fill="red"></polygon><polygon points="697  675.5 729.5 619.208 664.5 619.208" stroke="black" fill="red"></polygon><polygon points="762  675.5 794.5 619.208 729.5 619.208" stroke="black" fill="red"></polygon><polygon points="79.5  731.791 112 675.5 47 675.5" stroke="black" fill="red"></polygon><polygon points="144.5  731.791 177 675.5 112 675.5" stroke="black" fill="red"></polygon><polygon points="209.5  731.791 242 675.5 177 675.5" stroke="black" fill="red"></polygon><polygon points="274.5  731.791 307 675.5 242 675.5" stroke="black" fill="red"></polygon><polygon points="339.5  731.791 372 675.5 307 675.5" stroke="black" fill="red"></polygon><polygon points="404.5  731.791 437 675.5 372 675.5" stroke="black" fill="red"></polygon><polygon points="469.5  731.791 502 675.5 437 675.5" stroke="black" fill="red"></polygon><polygon points="534.5  731.791 567 675.5 502 675.5" stroke="black" fill="red"></polygon><polygon points="599.5  731.791 632 675.5 567 675.5" stroke="black" fill="red"></polygon><polygon points="664.5  731.791 697 675.5 632 675.5" stroke="black" fill="red"></polygon><polygon points="729.5  731.791 762 675.5 697 675.5" stroke="black" fill="red"></polygon><polygon points="794.5  731.791 827 675.5 762 675.5" stroke="black" fill="red"></polygon></svg>