<svg version="1.1"
baseProfile="full"
  width="750" height="600"
xmlns="http://www.w3.org/2000/svg">
<rect x="0" y="0" stroke="Black" width="750" height="600" fill="red"></rect>
<circle cx="45" cy="45" r="45" fill="green" />
<circle cx="135" cy="45" r="45" fill="green" />
<circle cx="225" cy="45" r="45" fill="green" />
<circle cx="315" cy="45" r="45" fill="green" />
<circle cx="405" cy="45" r="45" fill="green" />
<circle cx="495" cy="45" r="45" fill="green" />
<circle cx="585" cy="45" r="45" fill="green" />
<circle cx="675" cy="45" r="45" fill="green" />
<circle cx="90" cy="122" r="45" fill="green" />
<circle cx="180" cy="122" r="45" fill="green" />
<circle cx="270" cy="122" r="45" fill="green" />
<circle cx="360" cy="122" r="45" fill="green" />
<circle cx="450" cy="122" r="45" fill="green" />
<circle cx="540" cy="122" r="45" fill="green" />
<circle cx="630" cy="122" r="45" fill="green" />
<circle cx="45" cy="199" r="45" fill="green" />
<circle cx="135" cy="199" r="45" fill="green" />
<circle cx="225" cy="199" r="45" fill="green" />
<circle cx="315" cy="199" r="45" fill="green" />
<circle cx="405" cy="199" r="45" fill="green" />
<circle cx="495" cy="199" r="45" fill="green" />
<circle cx="585" cy="199" r="45" fill="green" />
<circle cx="675" cy="199" r="45" fill="green" />
<circle cx="90" cy="276" r="45" fill="green" />
<circle cx="180" cy="276" r="45" fill="green" />
<circle cx="270" cy="276" r="45" fill="green" />
<circle cx="360" cy="276" r="45" fill="green" />
<circle cx="450" cy="276" r="45" fill="green" />
<circle cx="540" cy="276" r="45" fill="green" />
<circle cx="630" cy="276" r="45" fill="green" />
<circle cx="45" cy="353" r="45" fill="green" />
<circle cx="135" cy="353" r="45" fill="green" />
<circle cx="225" cy="353" r="45" fill="green" />
<circle cx="315" cy="353" r="45" fill="green" />
<circle cx="405" cy="353" r="45" fill="green" />
<circle cx="495" cy="353" r="45" fill="green" />
<circle cx="585" cy="353" r="45" fill="green" />
<circle cx="675" cy="353" r="45" fill="green" />
<circle cx="90" cy="430" r="45" fill="green" />
<circle cx="180" cy="430" r="45" fill="green" />
<circle cx="270" cy="430" r="45" fill="green" />
<circle cx="360" cy="430" r="45" fill="green" />
<circle cx="450" cy="430" r="45" fill="green" />
<circle cx="540" cy="430" r="45" fill="green" />
<circle cx="630" cy="430" r="45" fill="green" />
<circle cx="45" cy="507" r="45" fill="green" />
<circle cx="135" cy="507" r="45" fill="green" />
<circle cx="225" cy="507" r="45" fill="green" />
<circle cx="315" cy="507" r="45" fill="green" />
<circle cx="405" cy="507" r="45" fill="green" />
<circle cx="495" cy="507" r="45" fill="green" />
<circle cx="585" cy="507" r="45" fill="green" />
<circle cx="675" cy="507" r="45" fill="green" />
</svg>