<svg version="1.1" baseProfile="full" xmlns="http://www.w3.org/2000/svg"><circle cx="874" cy="874" r="874" fill="red" />
<circle cx="325" cy="325" r="69" fill="green" />
<circle cx="463" cy="325" r="69" fill="green" />
<circle cx="601" cy="325" r="69" fill="green" />
<circle cx="739" cy="325" r="69" fill="green" />
<circle cx="877" cy="325" r="69" fill="green" />
<circle cx="1015" cy="325" r="69" fill="green" />
<circle cx="1153" cy="325" r="69" fill="green" />
<circle cx="1291" cy="325" r="69" fill="green" />
<circle cx="325" cy="463" r="69" fill="green" />
<circle cx="463" cy="463" r="69" fill="green" />
<circle cx="601" cy="463" r="69" fill="green" />
<circle cx="739" cy="463" r="69" fill="green" />
<circle cx="877" cy="463" r="69" fill="green" />
<circle cx="1015" cy="463" r="69" fill="green" />
<circle cx="1153" cy="463" r="69" fill="green" />
<circle cx="1291" cy="463" r="69" fill="green" />
<circle cx="325" cy="601" r="69" fill="green" />
<circle cx="463" cy="601" r="69" fill="green" />
<circle cx="601" cy="601" r="69" fill="green" />
<circle cx="739" cy="601" r="69" fill="green" />
<circle cx="877" cy="601" r="69" fill="green" />
<circle cx="1015" cy="601" r="69" fill="green" />
<circle cx="1153" cy="601" r="69" fill="green" />
<circle cx="1291" cy="601" r="69" fill="green" />
<circle cx="325" cy="739" r="69" fill="green" />
<circle cx="463" cy="739" r="69" fill="green" />
<circle cx="601" cy="739" r="69" fill="green" />
<circle cx="739" cy="739" r="69" fill="green" />
<circle cx="877" cy="739" r="69" fill="green" />
<circle cx="1015" cy="739" r="69" fill="green" />
<circle cx="1153" cy="739" r="69" fill="green" />
<circle cx="1291" cy="739" r="69" fill="green" />
<circle cx="325" cy="877" r="69" fill="green" />
<circle cx="463" cy="877" r="69" fill="green" />
<circle cx="601" cy="877" r="69" fill="green" />
<circle cx="739" cy="877" r="69" fill="green" />
<circle cx="877" cy="877" r="69" fill="green" />
<circle cx="1015" cy="877" r="69" fill="green" />
<circle cx="1153" cy="877" r="69" fill="green" />
<circle cx="1291" cy="877" r="69" fill="green" />
<circle cx="325" cy="1015" r="69" fill="green" />
<circle cx="463" cy="1015" r="69" fill="green" />
<circle cx="601" cy="1015" r="69" fill="green" />
<circle cx="739" cy="1015" r="69" fill="green" />
<circle cx="877" cy="1015" r="69" fill="green" />
<circle cx="1015" cy="1015" r="69" fill="green" />
<circle cx="1153" cy="1015" r="69" fill="green" />
<circle cx="1291" cy="1015" r="69" fill="green" />
<circle cx="325" cy="1153" r="69" fill="green" />
<circle cx="463" cy="1153" r="69" fill="green" />
<circle cx="601" cy="1153" r="69" fill="green" />
<circle cx="739" cy="1153" r="69" fill="green" />
<circle cx="877" cy="1153" r="69" fill="green" />
<circle cx="1015" cy="1153" r="69" fill="green" />
<circle cx="1153" cy="1153" r="69" fill="green" />
<circle cx="1291" cy="1153" r="69" fill="green" />
<circle cx="325" cy="1291" r="69" fill="green" />
<circle cx="463" cy="1291" r="69" fill="green" />
<circle cx="601" cy="1291" r="69" fill="green" />
<circle cx="739" cy="1291" r="69" fill="green" />
<circle cx="877" cy="1291" r="69" fill="green" />
<circle cx="1015" cy="1291" r="69" fill="green" />
<circle cx="1153" cy="1291" r="69" fill="green" />
<circle cx="1291" cy="1291" r="69" fill="green" />
</svg>