<svg version="1.1"
baseProfile="full"
  width="750" height="600"
xmlns="http://www.w3.org/2000/svg">
<rect x="0" y="0" stroke="Black" width="750" height="600" fill="red"></rect>

<polygon points="25 0 0 43 50 43 " stroke = "black" fill="green"></polygon>
<polygon points="75 0 50 43 100 43 " stroke = "black" fill="green"></polygon>
<polygon points="125 0 100 43 150 43 " stroke = "black" fill="green"></polygon>
<polygon points="175 0 150 43 200 43 " stroke = "black" fill="green"></polygon>
<polygon points="225 0 200 43 250 43 " stroke = "black" fill="green"></polygon>
<polygon points="275 0 250 43 300 43 " stroke = "black" fill="green"></polygon>
<polygon points="325 0 300 43 350 43 " stroke = "black" fill="green"></polygon>
<polygon points="375 0 350 43 400 43 " stroke = "black" fill="green"></polygon>
<polygon points="425 0 400 43 450 43 " stroke = "black" fill="green"></polygon>
<polygon points="475 0 450 43 500 43 " stroke = "black" fill="green"></polygon>
<polygon points="525 0 500 43 550 43 " stroke = "black" fill="green"></polygon>
<polygon points="575 0 550 43 600 43 " stroke = "black" fill="green"></polygon>
<polygon points="625 0 600 43 650 43 " stroke = "black" fill="green"></polygon>
<polygon points="675 0 650 43 700 43 " stroke = "black" fill="green"></polygon>
<polygon points="725 0 700 43 750 43 " stroke = "black" fill="green"></polygon>
<polygon points="25 43 0 86 50 86 " stroke = "black" fill="green"></polygon>
<polygon points="75 43 50 86 100 86 " stroke = "black" fill="green"></polygon>
<polygon points="125 43 100 86 150 86 " stroke = "black" fill="green"></polygon>
<polygon points="175 43 150 86 200 86 " stroke = "black" fill="green"></polygon>
<polygon points="225 43 200 86 250 86 " stroke = "black" fill="green"></polygon>
<polygon points="275 43 250 86 300 86 " stroke = "black" fill="green"></polygon>
<polygon points="325 43 300 86 350 86 " stroke = "black" fill="green"></polygon>
<polygon points="375 43 350 86 400 86 " stroke = "black" fill="green"></polygon>
<polygon points="425 43 400 86 450 86 " stroke = "black" fill="green"></polygon>
<polygon points="475 43 450 86 500 86 " stroke = "black" fill="green"></polygon>
<polygon points="525 43 500 86 550 86 " stroke = "black" fill="green"></polygon>
<polygon points="575 43 550 86 600 86 " stroke = "black" fill="green"></polygon>
<polygon points="625 43 600 86 650 86 " stroke = "black" fill="green"></polygon>
<polygon points="675 43 650 86 700 86 " stroke = "black" fill="green"></polygon>
<polygon points="725 43 700 86 750 86 " stroke = "black" fill="green"></polygon>
<polygon points="25 86 0 129 50 129 " stroke = "black" fill="green"></polygon>
<polygon points="75 86 50 129 100 129 " stroke = "black" fill="green"></polygon>
<polygon points="125 86 100 129 150 129 " stroke = "black" fill="green"></polygon>
<polygon points="175 86 150 129 200 129 " stroke = "black" fill="green"></polygon>
<polygon points="225 86 200 129 250 129 " stroke = "black" fill="green"></polygon>
<polygon points="275 86 250 129 300 129 " stroke = "black" fill="green"></polygon>
<polygon points="325 86 300 129 350 129 " stroke = "black" fill="green"></polygon>
<polygon points="375 86 350 129 400 129 " stroke = "black" fill="green"></polygon>
<polygon points="425 86 400 129 450 129 " stroke = "black" fill="green"></polygon>
<polygon points="475 86 450 129 500 129 " stroke = "black" fill="green"></polygon>
<polygon points="525 86 500 129 550 129 " stroke = "black" fill="green"></polygon>
<polygon points="575 86 550 129 600 129 " stroke = "black" fill="green"></polygon>
<polygon points="625 86 600 129 650 129 " stroke = "black" fill="green"></polygon>
<polygon points="675 86 650 129 700 129 " stroke = "black" fill="green"></polygon>
<polygon points="725 86 700 129 750 129 " stroke = "black" fill="green"></polygon>
<polygon points="25 129 0 173 50 173 " stroke = "black" fill="green"></polygon>
<polygon points="75 129 50 173 100 173 " stroke = "black" fill="green"></polygon>
<polygon points="125 129 100 173 150 173 " stroke = "black" fill="green"></polygon>
<polygon points="175 129 150 173 200 173 " stroke = "black" fill="green"></polygon>
<polygon points="225 129 200 173 250 173 " stroke = "black" fill="green"></polygon>
<polygon points="275 129 250 173 300 173 " stroke = "black" fill="green"></polygon>
<polygon points="325 129 300 173 350 173 " stroke = "black" fill="green"></polygon>
<polygon points="375 129 350 173 400 173 " stroke = "black" fill="green"></polygon>
<polygon points="425 129 400 173 450 173 " stroke = "black" fill="green"></polygon>
<polygon points="475 129 450 173 500 173 " stroke = "black" fill="green"></polygon>
<polygon points="525 129 500 173 550 173 " stroke = "black" fill="green"></polygon>
<polygon points="575 129 550 173 600 173 " stroke = "black" fill="green"></polygon>
<polygon points="625 129 600 173 650 173 " stroke = "black" fill="green"></polygon>
<polygon points="675 129 650 173 700 173 " stroke = "black" fill="green"></polygon>
<polygon points="725 129 700 173 750 173 " stroke = "black" fill="green"></polygon>
<polygon points="25 173 0 216 50 216 " stroke = "black" fill="green"></polygon>
<polygon points="75 173 50 216 100 216 " stroke = "black" fill="green"></polygon>
<polygon points="125 173 100 216 150 216 " stroke = "black" fill="green"></polygon>
<polygon points="175 173 150 216 200 216 " stroke = "black" fill="green"></polygon>
<polygon points="225 173 200 216 250 216 " stroke = "black" fill="green"></polygon>
<polygon points="275 173 250 216 300 216 " stroke = "black" fill="green"></polygon>
<polygon points="325 173 300 216 350 216 " stroke = "black" fill="green"></polygon>
<polygon points="375 173 350 216 400 216 " stroke = "black" fill="green"></polygon>
<polygon points="425 173 400 216 450 216 " stroke = "black" fill="green"></polygon>
<polygon points="475 173 450 216 500 216 " stroke = "black" fill="green"></polygon>
<polygon points="525 173 500 216 550 216 " stroke = "black" fill="green"></polygon>
<polygon points="575 173 550 216 600 216 " stroke = "black" fill="green"></polygon>
<polygon points="625 173 600 216 650 216 " stroke = "black" fill="green"></polygon>
<polygon points="675 173 650 216 700 216 " stroke = "black" fill="green"></polygon>
<polygon points="725 173 700 216 750 216 " stroke = "black" fill="green"></polygon>
<polygon points="25 216 0 259 50 259 " stroke = "black" fill="green"></polygon>
<polygon points="75 216 50 259 100 259 " stroke = "black" fill="green"></polygon>
<polygon points="125 216 100 259 150 259 " stroke = "black" fill="green"></polygon>
<polygon points="175 216 150 259 200 259 " stroke = "black" fill="green"></polygon>
<polygon points="225 216 200 259 250 259 " stroke = "black" fill="green"></polygon>
<polygon points="275 216 250 259 300 259 " stroke = "black" fill="green"></polygon>
<polygon points="325 216 300 259 350 259 " stroke = "black" fill="green"></polygon>
<polygon points="375 216 350 259 400 259 " stroke = "black" fill="green"></polygon>
<polygon points="425 216 400 259 450 259 " stroke = "black" fill="green"></polygon>
<polygon points="475 216 450 259 500 259 " stroke = "black" fill="green"></polygon>
<polygon points="525 216 500 259 550 259 " stroke = "black" fill="green"></polygon>
<polygon points="575 216 550 259 600 259 " stroke = "black" fill="green"></polygon>
<polygon points="625 216 600 259 650 259 " stroke = "black" fill="green"></polygon>
<polygon points="675 216 650 259 700 259 " stroke = "black" fill="green"></polygon>
<polygon points="725 216 700 259 750 259 " stroke = "black" fill="green"></polygon>
<polygon points="25 259 0 303 50 303 " stroke = "black" fill="green"></polygon>
<polygon points="75 259 50 303 100 303 " stroke = "black" fill="green"></polygon>
<polygon points="125 259 100 303 150 303 " stroke = "black" fill="green"></polygon>
<polygon points="175 259 150 303 200 303 " stroke = "black" fill="green"></polygon>
<polygon points="225 259 200 303 250 303 " stroke = "black" fill="green"></polygon>
<polygon points="275 259 250 303 300 303 " stroke = "black" fill="green"></polygon>
<polygon points="325 259 300 303 350 303 " stroke = "black" fill="green"></polygon>
<polygon points="375 259 350 303 400 303 " stroke = "black" fill="green"></polygon>
<polygon points="425 259 400 303 450 303 " stroke = "black" fill="green"></polygon>
<polygon points="475 259 450 303 500 303 " stroke = "black" fill="green"></polygon>
<polygon points="525 259 500 303 550 303 " stroke = "black" fill="green"></polygon>
<polygon points="575 259 550 303 600 303 " stroke = "black" fill="green"></polygon>
<polygon points="625 259 600 303 650 303 " stroke = "black" fill="green"></polygon>
<polygon points="675 259 650 303 700 303 " stroke = "black" fill="green"></polygon>
<polygon points="725 259 700 303 750 303 " stroke = "black" fill="green"></polygon>
<polygon points="25 303 0 346 50 346 " stroke = "black" fill="green"></polygon>
<polygon points="75 303 50 346 100 346 " stroke = "black" fill="green"></polygon>
<polygon points="125 303 100 346 150 346 " stroke = "black" fill="green"></polygon>
<polygon points="175 303 150 346 200 346 " stroke = "black" fill="green"></polygon>
<polygon points="225 303 200 346 250 346 " stroke = "black" fill="green"></polygon>
<polygon points="275 303 250 346 300 346 " stroke = "black" fill="green"></polygon>
<polygon points="325 303 300 346 350 346 " stroke = "black" fill="green"></polygon>
<polygon points="375 303 350 346 400 346 " stroke = "black" fill="green"></polygon>
<polygon points="425 303 400 346 450 346 " stroke = "black" fill="green"></polygon>
<polygon points="475 303 450 346 500 346 " stroke = "black" fill="green"></polygon>
<polygon points="525 303 500 346 550 346 " stroke = "black" fill="green"></polygon>
<polygon points="575 303 550 346 600 346 " stroke = "black" fill="green"></polygon>
<polygon points="625 303 600 346 650 346 " stroke = "black" fill="green"></polygon>
<polygon points="675 303 650 346 700 346 " stroke = "black" fill="green"></polygon>
<polygon points="725 303 700 346 750 346 " stroke = "black" fill="green"></polygon>
<polygon points="25 346 0 389 50 389 " stroke = "black" fill="green"></polygon>
<polygon points="75 346 50 389 100 389 " stroke = "black" fill="green"></polygon>
<polygon points="125 346 100 389 150 389 " stroke = "black" fill="green"></polygon>
<polygon points="175 346 150 389 200 389 " stroke = "black" fill="green"></polygon>
<polygon points="225 346 200 389 250 389 " stroke = "black" fill="green"></polygon>
<polygon points="275 346 250 389 300 389 " stroke = "black" fill="green"></polygon>
<polygon points="325 346 300 389 350 389 " stroke = "black" fill="green"></polygon>
<polygon points="375 346 350 389 400 389 " stroke = "black" fill="green"></polygon>
<polygon points="425 346 400 389 450 389 " stroke = "black" fill="green"></polygon>
<polygon points="475 346 450 389 500 389 " stroke = "black" fill="green"></polygon>
<polygon points="525 346 500 389 550 389 " stroke = "black" fill="green"></polygon>
<polygon points="575 346 550 389 600 389 " stroke = "black" fill="green"></polygon>
<polygon points="625 346 600 389 650 389 " stroke = "black" fill="green"></polygon>
<polygon points="675 346 650 389 700 389 " stroke = "black" fill="green"></polygon>
<polygon points="725 346 700 389 750 389 " stroke = "black" fill="green"></polygon>
<polygon points="25 389 0 433 50 433 " stroke = "black" fill="green"></polygon>
<polygon points="75 389 50 433 100 433 " stroke = "black" fill="green"></polygon>
<polygon points="125 389 100 433 150 433 " stroke = "black" fill="green"></polygon>
<polygon points="175 389 150 433 200 433 " stroke = "black" fill="green"></polygon>
<polygon points="225 389 200 433 250 433 " stroke = "black" fill="green"></polygon>
<polygon points="275 389 250 433 300 433 " stroke = "black" fill="green"></polygon>
<polygon points="325 389 300 433 350 433 " stroke = "black" fill="green"></polygon>
<polygon points="375 389 350 433 400 433 " stroke = "black" fill="green"></polygon>
<polygon points="425 389 400 433 450 433 " stroke = "black" fill="green"></polygon>
<polygon points="475 389 450 433 500 433 " stroke = "black" fill="green"></polygon>
<polygon points="525 389 500 433 550 433 " stroke = "black" fill="green"></polygon>
<polygon points="575 389 550 433 600 433 " stroke = "black" fill="green"></polygon>
<polygon points="625 389 600 433 650 433 " stroke = "black" fill="green"></polygon>
<polygon points="675 389 650 433 700 433 " stroke = "black" fill="green"></polygon>
<polygon points="725 389 700 433 750 433 " stroke = "black" fill="green"></polygon>
<polygon points="25 433 0 476 50 476 " stroke = "black" fill="green"></polygon>
<polygon points="75 433 50 476 100 476 " stroke = "black" fill="green"></polygon>
<polygon points="125 433 100 476 150 476 " stroke = "black" fill="green"></polygon>
<polygon points="175 433 150 476 200 476 " stroke = "black" fill="green"></polygon>
<polygon points="225 433 200 476 250 476 " stroke = "black" fill="green"></polygon>
<polygon points="275 433 250 476 300 476 " stroke = "black" fill="green"></polygon>
<polygon points="325 433 300 476 350 476 " stroke = "black" fill="green"></polygon>
<polygon points="375 433 350 476 400 476 " stroke = "black" fill="green"></polygon>
<polygon points="425 433 400 476 450 476 " stroke = "black" fill="green"></polygon>
<polygon points="475 433 450 476 500 476 " stroke = "black" fill="green"></polygon>
<polygon points="525 433 500 476 550 476 " stroke = "black" fill="green"></polygon>
<polygon points="575 433 550 476 600 476 " stroke = "black" fill="green"></polygon>
<polygon points="625 433 600 476 650 476 " stroke = "black" fill="green"></polygon>
<polygon points="675 433 650 476 700 476 " stroke = "black" fill="green"></polygon>
<polygon points="725 433 700 476 750 476 " stroke = "black" fill="green"></polygon>
<polygon points="25 476 0 519 50 519 " stroke = "black" fill="green"></polygon>
<polygon points="75 476 50 519 100 519 " stroke = "black" fill="green"></polygon>
<polygon points="125 476 100 519 150 519 " stroke = "black" fill="green"></polygon>
<polygon points="175 476 150 519 200 519 " stroke = "black" fill="green"></polygon>
<polygon points="225 476 200 519 250 519 " stroke = "black" fill="green"></polygon>
<polygon points="275 476 250 519 300 519 " stroke = "black" fill="green"></polygon>
<polygon points="325 476 300 519 350 519 " stroke = "black" fill="green"></polygon>
<polygon points="375 476 350 519 400 519 " stroke = "black" fill="green"></polygon>
<polygon points="425 476 400 519 450 519 " stroke = "black" fill="green"></polygon>
<polygon points="475 476 450 519 500 519 " stroke = "black" fill="green"></polygon>
<polygon points="525 476 500 519 550 519 " stroke = "black" fill="green"></polygon>
<polygon points="575 476 550 519 600 519 " stroke = "black" fill="green"></polygon>
<polygon points="625 476 600 519 650 519 " stroke = "black" fill="green"></polygon>
<polygon points="675 476 650 519 700 519 " stroke = "black" fill="green"></polygon>
<polygon points="725 476 700 519 750 519 " stroke = "black" fill="green"></polygon>
<polygon points="25 519 0 562 50 562 " stroke = "black" fill="green"></polygon>
<polygon points="75 519 50 562 100 562 " stroke = "black" fill="green"></polygon>
<polygon points="125 519 100 562 150 562 " stroke = "black" fill="green"></polygon>
<polygon points="175 519 150 562 200 562 " stroke = "black" fill="green"></polygon>
<polygon points="225 519 200 562 250 562 " stroke = "black" fill="green"></polygon>
<polygon points="275 519 250 562 300 562 " stroke = "black" fill="green"></polygon>
<polygon points="325 519 300 562 350 562 " stroke = "black" fill="green"></polygon>
<polygon points="375 519 350 562 400 562 " stroke = "black" fill="green"></polygon>
<polygon points="425 519 400 562 450 562 " stroke = "black" fill="green"></polygon>
<polygon points="475 519 450 562 500 562 " stroke = "black" fill="green"></polygon>
<polygon points="525 519 500 562 550 562 " stroke = "black" fill="green"></polygon>
<polygon points="575 519 550 562 600 562 " stroke = "black" fill="green"></polygon>
<polygon points="625 519 600 562 650 562 " stroke = "black" fill="green"></polygon>
<polygon points="675 519 650 562 700 562 " stroke = "black" fill="green"></polygon>
<polygon points="725 519 700 562 750 562 " stroke = "black" fill="green"></polygon>
<polygon points="25 0 50 43 75 0 " stroke = "black" fill="green"></polygon>
<polygon points="75 0 100 43 125 0 " stroke = "black" fill="green"></polygon>
<polygon points="125 0 150 43 175 0 " stroke = "black" fill="green"></polygon>
<polygon points="175 0 200 43 225 0 " stroke = "black" fill="green"></polygon>
<polygon points="225 0 250 43 275 0 " stroke = "black" fill="green"></polygon>
<polygon points="275 0 300 43 325 0 " stroke = "black" fill="green"></polygon>
<polygon points="325 0 350 43 375 0 " stroke = "black" fill="green"></polygon>
<polygon points="375 0 400 43 425 0 " stroke = "black" fill="green"></polygon>
<polygon points="425 0 450 43 475 0 " stroke = "black" fill="green"></polygon>
<polygon points="475 0 500 43 525 0 " stroke = "black" fill="green"></polygon>
<polygon points="525 0 550 43 575 0 " stroke = "black" fill="green"></polygon>
<polygon points="575 0 600 43 625 0 " stroke = "black" fill="green"></polygon>
<polygon points="625 0 650 43 675 0 " stroke = "black" fill="green"></polygon>
<polygon points="675 0 700 43 725 0 " stroke = "black" fill="green"></polygon>
<polygon points="25 43 50 86 75 43 " stroke = "black" fill="green"></polygon>
<polygon points="75 43 100 86 125 43 " stroke = "black" fill="green"></polygon>
<polygon points="125 43 150 86 175 43 " stroke = "black" fill="green"></polygon>
<polygon points="175 43 200 86 225 43 " stroke = "black" fill="green"></polygon>
<polygon points="225 43 250 86 275 43 " stroke = "black" fill="green"></polygon>
<polygon points="275 43 300 86 325 43 " stroke = "black" fill="green"></polygon>
<polygon points="325 43 350 86 375 43 " stroke = "black" fill="green"></polygon>
<polygon points="375 43 400 86 425 43 " stroke = "black" fill="green"></polygon>
<polygon points="425 43 450 86 475 43 " stroke = "black" fill="green"></polygon>
<polygon points="475 43 500 86 525 43 " stroke = "black" fill="green"></polygon>
<polygon points="525 43 550 86 575 43 " stroke = "black" fill="green"></polygon>
<polygon points="575 43 600 86 625 43 " stroke = "black" fill="green"></polygon>
<polygon points="625 43 650 86 675 43 " stroke = "black" fill="green"></polygon>
<polygon points="675 43 700 86 725 43 " stroke = "black" fill="green"></polygon>
<polygon points="25 86 50 129 75 86 " stroke = "black" fill="green"></polygon>
<polygon points="75 86 100 129 125 86 " stroke = "black" fill="green"></polygon>
<polygon points="125 86 150 129 175 86 " stroke = "black" fill="green"></polygon>
<polygon points="175 86 200 129 225 86 " stroke = "black" fill="green"></polygon>
<polygon points="225 86 250 129 275 86 " stroke = "black" fill="green"></polygon>
<polygon points="275 86 300 129 325 86 " stroke = "black" fill="green"></polygon>
<polygon points="325 86 350 129 375 86 " stroke = "black" fill="green"></polygon>
<polygon points="375 86 400 129 425 86 " stroke = "black" fill="green"></polygon>
<polygon points="425 86 450 129 475 86 " stroke = "black" fill="green"></polygon>
<polygon points="475 86 500 129 525 86 " stroke = "black" fill="green"></polygon>
<polygon points="525 86 550 129 575 86 " stroke = "black" fill="green"></polygon>
<polygon points="575 86 600 129 625 86 " stroke = "black" fill="green"></polygon>
<polygon points="625 86 650 129 675 86 " stroke = "black" fill="green"></polygon>
<polygon points="675 86 700 129 725 86 " stroke = "black" fill="green"></polygon>
<polygon points="25 129 50 173 75 129 " stroke = "black" fill="green"></polygon>
<polygon points="75 129 100 173 125 129 " stroke = "black" fill="green"></polygon>
<polygon points="125 129 150 173 175 129 " stroke = "black" fill="green"></polygon>
<polygon points="175 129 200 173 225 129 " stroke = "black" fill="green"></polygon>
<polygon points="225 129 250 173 275 129 " stroke = "black" fill="green"></polygon>
<polygon points="275 129 300 173 325 129 " stroke = "black" fill="green"></polygon>
<polygon points="325 129 350 173 375 129 " stroke = "black" fill="green"></polygon>
<polygon points="375 129 400 173 425 129 " stroke = "black" fill="green"></polygon>
<polygon points="425 129 450 173 475 129 " stroke = "black" fill="green"></polygon>
<polygon points="475 129 500 173 525 129 " stroke = "black" fill="green"></polygon>
<polygon points="525 129 550 173 575 129 " stroke = "black" fill="green"></polygon>
<polygon points="575 129 600 173 625 129 " stroke = "black" fill="green"></polygon>
<polygon points="625 129 650 173 675 129 " stroke = "black" fill="green"></polygon>
<polygon points="675 129 700 173 725 129 " stroke = "black" fill="green"></polygon>
<polygon points="25 173 50 216 75 173 " stroke = "black" fill="green"></polygon>
<polygon points="75 173 100 216 125 173 " stroke = "black" fill="green"></polygon>
<polygon points="125 173 150 216 175 173 " stroke = "black" fill="green"></polygon>
<polygon points="175 173 200 216 225 173 " stroke = "black" fill="green"></polygon>
<polygon points="225 173 250 216 275 173 " stroke = "black" fill="green"></polygon>
<polygon points="275 173 300 216 325 173 " stroke = "black" fill="green"></polygon>
<polygon points="325 173 350 216 375 173 " stroke = "black" fill="green"></polygon>
<polygon points="375 173 400 216 425 173 " stroke = "black" fill="green"></polygon>
<polygon points="425 173 450 216 475 173 " stroke = "black" fill="green"></polygon>
<polygon points="475 173 500 216 525 173 " stroke = "black" fill="green"></polygon>
<polygon points="525 173 550 216 575 173 " stroke = "black" fill="green"></polygon>
<polygon points="575 173 600 216 625 173 " stroke = "black" fill="green"></polygon>
<polygon points="625 173 650 216 675 173 " stroke = "black" fill="green"></polygon>
<polygon points="675 173 700 216 725 173 " stroke = "black" fill="green"></polygon>
<polygon points="25 216 50 259 75 216 " stroke = "black" fill="green"></polygon>
<polygon points="75 216 100 259 125 216 " stroke = "black" fill="green"></polygon>
<polygon points="125 216 150 259 175 216 " stroke = "black" fill="green"></polygon>
<polygon points="175 216 200 259 225 216 " stroke = "black" fill="green"></polygon>
<polygon points="225 216 250 259 275 216 " stroke = "black" fill="green"></polygon>
<polygon points="275 216 300 259 325 216 " stroke = "black" fill="green"></polygon>
<polygon points="325 216 350 259 375 216 " stroke = "black" fill="green"></polygon>
<polygon points="375 216 400 259 425 216 " stroke = "black" fill="green"></polygon>
<polygon points="425 216 450 259 475 216 " stroke = "black" fill="green"></polygon>
<polygon points="475 216 500 259 525 216 " stroke = "black" fill="green"></polygon>
<polygon points="525 216 550 259 575 216 " stroke = "black" fill="green"></polygon>
<polygon points="575 216 600 259 625 216 " stroke = "black" fill="green"></polygon>
<polygon points="625 216 650 259 675 216 " stroke = "black" fill="green"></polygon>
<polygon points="675 216 700 259 725 216 " stroke = "black" fill="green"></polygon>
<polygon points="25 259 50 303 75 259 " stroke = "black" fill="green"></polygon>
<polygon points="75 259 100 303 125 259 " stroke = "black" fill="green"></polygon>
<polygon points="125 259 150 303 175 259 " stroke = "black" fill="green"></polygon>
<polygon points="175 259 200 303 225 259 " stroke = "black" fill="green"></polygon>
<polygon points="225 259 250 303 275 259 " stroke = "black" fill="green"></polygon>
<polygon points="275 259 300 303 325 259 " stroke = "black" fill="green"></polygon>
<polygon points="325 259 350 303 375 259 " stroke = "black" fill="green"></polygon>
<polygon points="375 259 400 303 425 259 " stroke = "black" fill="green"></polygon>
<polygon points="425 259 450 303 475 259 " stroke = "black" fill="green"></polygon>
<polygon points="475 259 500 303 525 259 " stroke = "black" fill="green"></polygon>
<polygon points="525 259 550 303 575 259 " stroke = "black" fill="green"></polygon>
<polygon points="575 259 600 303 625 259 " stroke = "black" fill="green"></polygon>
<polygon points="625 259 650 303 675 259 " stroke = "black" fill="green"></polygon>
<polygon points="675 259 700 303 725 259 " stroke = "black" fill="green"></polygon>
<polygon points="25 303 50 346 75 303 " stroke = "black" fill="green"></polygon>
<polygon points="75 303 100 346 125 303 " stroke = "black" fill="green"></polygon>
<polygon points="125 303 150 346 175 303 " stroke = "black" fill="green"></polygon>
<polygon points="175 303 200 346 225 303 " stroke = "black" fill="green"></polygon>
<polygon points="225 303 250 346 275 303 " stroke = "black" fill="green"></polygon>
<polygon points="275 303 300 346 325 303 " stroke = "black" fill="green"></polygon>
<polygon points="325 303 350 346 375 303 " stroke = "black" fill="green"></polygon>
<polygon points="375 303 400 346 425 303 " stroke = "black" fill="green"></polygon>
<polygon points="425 303 450 346 475 303 " stroke = "black" fill="green"></polygon>
<polygon points="475 303 500 346 525 303 " stroke = "black" fill="green"></polygon>
<polygon points="525 303 550 346 575 303 " stroke = "black" fill="green"></polygon>
<polygon points="575 303 600 346 625 303 " stroke = "black" fill="green"></polygon>
<polygon points="625 303 650 346 675 303 " stroke = "black" fill="green"></polygon>
<polygon points="675 303 700 346 725 303 " stroke = "black" fill="green"></polygon>
<polygon points="25 346 50 389 75 346 " stroke = "black" fill="green"></polygon>
<polygon points="75 346 100 389 125 346 " stroke = "black" fill="green"></polygon>
<polygon points="125 346 150 389 175 346 " stroke = "black" fill="green"></polygon>
<polygon points="175 346 200 389 225 346 " stroke = "black" fill="green"></polygon>
<polygon points="225 346 250 389 275 346 " stroke = "black" fill="green"></polygon>
<polygon points="275 346 300 389 325 346 " stroke = "black" fill="green"></polygon>
<polygon points="325 346 350 389 375 346 " stroke = "black" fill="green"></polygon>
<polygon points="375 346 400 389 425 346 " stroke = "black" fill="green"></polygon>
<polygon points="425 346 450 389 475 346 " stroke = "black" fill="green"></polygon>
<polygon points="475 346 500 389 525 346 " stroke = "black" fill="green"></polygon>
<polygon points="525 346 550 389 575 346 " stroke = "black" fill="green"></polygon>
<polygon points="575 346 600 389 625 346 " stroke = "black" fill="green"></polygon>
<polygon points="625 346 650 389 675 346 " stroke = "black" fill="green"></polygon>
<polygon points="675 346 700 389 725 346 " stroke = "black" fill="green"></polygon>
<polygon points="25 389 50 433 75 389 " stroke = "black" fill="green"></polygon>
<polygon points="75 389 100 433 125 389 " stroke = "black" fill="green"></polygon>
<polygon points="125 389 150 433 175 389 " stroke = "black" fill="green"></polygon>
<polygon points="175 389 200 433 225 389 " stroke = "black" fill="green"></polygon>
<polygon points="225 389 250 433 275 389 " stroke = "black" fill="green"></polygon>
<polygon points="275 389 300 433 325 389 " stroke = "black" fill="green"></polygon>
<polygon points="325 389 350 433 375 389 " stroke = "black" fill="green"></polygon>
<polygon points="375 389 400 433 425 389 " stroke = "black" fill="green"></polygon>
<polygon points="425 389 450 433 475 389 " stroke = "black" fill="green"></polygon>
<polygon points="475 389 500 433 525 389 " stroke = "black" fill="green"></polygon>
<polygon points="525 389 550 433 575 389 " stroke = "black" fill="green"></polygon>
<polygon points="575 389 600 433 625 389 " stroke = "black" fill="green"></polygon>
<polygon points="625 389 650 433 675 389 " stroke = "black" fill="green"></polygon>
<polygon points="675 389 700 433 725 389 " stroke = "black" fill="green"></polygon>
<polygon points="25 433 50 476 75 433 " stroke = "black" fill="green"></polygon>
<polygon points="75 433 100 476 125 433 " stroke = "black" fill="green"></polygon>
<polygon points="125 433 150 476 175 433 " stroke = "black" fill="green"></polygon>
<polygon points="175 433 200 476 225 433 " stroke = "black" fill="green"></polygon>
<polygon points="225 433 250 476 275 433 " stroke = "black" fill="green"></polygon>
<polygon points="275 433 300 476 325 433 " stroke = "black" fill="green"></polygon>
<polygon points="325 433 350 476 375 433 " stroke = "black" fill="green"></polygon>
<polygon points="375 433 400 476 425 433 " stroke = "black" fill="green"></polygon>
<polygon points="425 433 450 476 475 433 " stroke = "black" fill="green"></polygon>
<polygon points="475 433 500 476 525 433 " stroke = "black" fill="green"></polygon>
<polygon points="525 433 550 476 575 433 " stroke = "black" fill="green"></polygon>
<polygon points="575 433 600 476 625 433 " stroke = "black" fill="green"></polygon>
<polygon points="625 433 650 476 675 433 " stroke = "black" fill="green"></polygon>
<polygon points="675 433 700 476 725 433 " stroke = "black" fill="green"></polygon>
<polygon points="25 476 50 519 75 476 " stroke = "black" fill="green"></polygon>
<polygon points="75 476 100 519 125 476 " stroke = "black" fill="green"></polygon>
<polygon points="125 476 150 519 175 476 " stroke = "black" fill="green"></polygon>
<polygon points="175 476 200 519 225 476 " stroke = "black" fill="green"></polygon>
<polygon points="225 476 250 519 275 476 " stroke = "black" fill="green"></polygon>
<polygon points="275 476 300 519 325 476 " stroke = "black" fill="green"></polygon>
<polygon points="325 476 350 519 375 476 " stroke = "black" fill="green"></polygon>
<polygon points="375 476 400 519 425 476 " stroke = "black" fill="green"></polygon>
<polygon points="425 476 450 519 475 476 " stroke = "black" fill="green"></polygon>
<polygon points="475 476 500 519 525 476 " stroke = "black" fill="green"></polygon>
<polygon points="525 476 550 519 575 476 " stroke = "black" fill="green"></polygon>
<polygon points="575 476 600 519 625 476 " stroke = "black" fill="green"></polygon>
<polygon points="625 476 650 519 675 476 " stroke = "black" fill="green"></polygon>
<polygon points="675 476 700 519 725 476 " stroke = "black" fill="green"></polygon>
<polygon points="25 519 50 562 75 519 " stroke = "black" fill="green"></polygon>
<polygon points="75 519 100 562 125 519 " stroke = "black" fill="green"></polygon>
<polygon points="125 519 150 562 175 519 " stroke = "black" fill="green"></polygon>
<polygon points="175 519 200 562 225 519 " stroke = "black" fill="green"></polygon>
<polygon points="225 519 250 562 275 519 " stroke = "black" fill="green"></polygon>
<polygon points="275 519 300 562 325 519 " stroke = "black" fill="green"></polygon>
<polygon points="325 519 350 562 375 519 " stroke = "black" fill="green"></polygon>
<polygon points="375 519 400 562 425 519 " stroke = "black" fill="green"></polygon>
<polygon points="425 519 450 562 475 519 " stroke = "black" fill="green"></polygon>
<polygon points="475 519 500 562 525 519 " stroke = "black" fill="green"></polygon>
<polygon points="525 519 550 562 575 519 " stroke = "black" fill="green"></polygon>
<polygon points="575 519 600 562 625 519 " stroke = "black" fill="green"></polygon>
<polygon points="625 519 650 562 675 519 " stroke = "black" fill="green"></polygon>
<polygon points="675 519 700 562 725 519 " stroke = "black" fill="green"></polygon></svg>